G04 #@! TF.FileFunction,Copper,L2,Bot,Signal*
%FSLAX46Y46*%
G04 Gerber Fmt 4.6, Leading zero omitted, Abs format (unit mm)*
G04 Created by KiCad (PCBNEW 4.0.1-stable) date 22-Mar-16 21:49:02*
%MOMM*%
G01*
G04 APERTURE LIST*
%ADD10C,0.100000*%
%ADD11C,2.400000*%
%ADD12R,2.400000X2.400000*%
%ADD13R,1.500000X1.250000*%
%ADD14R,1.250000X1.500000*%
%ADD15R,1.220000X0.910000*%
%ADD16R,0.910000X1.220000*%
%ADD17R,0.900000X1.200000*%
%ADD18R,1.600000X3.000000*%
%ADD19C,1.900000*%
%ADD20R,0.800100X0.800100*%
%ADD21O,2.800000X1.600000*%
%ADD22C,2.500000*%
%ADD23O,1.600000X3.800000*%
%ADD24C,2.200000*%
%ADD25R,1.060000X0.650000*%
%ADD26C,0.600000*%
%ADD27C,0.250000*%
%ADD28C,0.300000*%
%ADD29C,0.800000*%
%ADD30C,0.254000*%
G04 APERTURE END LIST*
D10*
D11*
X169000000Y-83000000D03*
D12*
X169000000Y-86500000D03*
D11*
X101000000Y-100000000D03*
D12*
X101000000Y-96500000D03*
D13*
X128750000Y-73500000D03*
X131250000Y-73500000D03*
D14*
X131000000Y-77250000D03*
X131000000Y-79750000D03*
D15*
X151000000Y-123635000D03*
X151000000Y-120365000D03*
D16*
X160135000Y-123500000D03*
X156865000Y-123500000D03*
D15*
X151000000Y-110135000D03*
X151000000Y-106865000D03*
D16*
X160135000Y-110000000D03*
X156865000Y-110000000D03*
D15*
X151000000Y-96135000D03*
X151000000Y-92865000D03*
D16*
X160135000Y-96000000D03*
X156865000Y-96000000D03*
D15*
X151000000Y-81865000D03*
X151000000Y-85135000D03*
D16*
X160135000Y-82000000D03*
X156865000Y-82000000D03*
D15*
X120000000Y-129135000D03*
X120000000Y-125865000D03*
D16*
X110865000Y-129000000D03*
X114135000Y-129000000D03*
D15*
X120000000Y-115135000D03*
X120000000Y-111865000D03*
D16*
X110365000Y-115000000D03*
X113635000Y-115000000D03*
D15*
X120000000Y-102135000D03*
X120000000Y-98865000D03*
D16*
X110865000Y-101000000D03*
X114135000Y-101000000D03*
D15*
X120000000Y-88135000D03*
X120000000Y-84865000D03*
D16*
X110865000Y-87000000D03*
X114135000Y-87000000D03*
D11*
X169000000Y-111000000D03*
D12*
X169000000Y-114500000D03*
D11*
X169000000Y-97000000D03*
D12*
X169000000Y-100500000D03*
D11*
X101000000Y-128000000D03*
D12*
X101000000Y-124500000D03*
D11*
X101000000Y-114000000D03*
D12*
X101000000Y-110500000D03*
D11*
X101000000Y-86000000D03*
D12*
X101000000Y-82500000D03*
D17*
X154000000Y-123600000D03*
X154000000Y-121400000D03*
X154000000Y-110100000D03*
X154000000Y-107900000D03*
X154000000Y-96100000D03*
X154000000Y-93900000D03*
X154000000Y-81900000D03*
X154000000Y-84100000D03*
X117000000Y-129100000D03*
X117000000Y-126900000D03*
X117000000Y-115100000D03*
X117000000Y-112900000D03*
X116500000Y-102100000D03*
X116500000Y-99900000D03*
X117000000Y-88100000D03*
X117000000Y-85900000D03*
D18*
X153950000Y-64000000D03*
X149250000Y-64000000D03*
X144550000Y-64000000D03*
X153950000Y-75000000D03*
X149250000Y-75000000D03*
X144550000Y-75000000D03*
D19*
X125610000Y-89260000D03*
X125610000Y-91800000D03*
X125610000Y-94340000D03*
X125610000Y-96880000D03*
X125610000Y-99420000D03*
X125610000Y-101960000D03*
X125610000Y-104500000D03*
X125610000Y-107040000D03*
X125610000Y-109580000D03*
X125610000Y-112120000D03*
X125610000Y-114660000D03*
X125610000Y-117200000D03*
X143390000Y-89260000D03*
X143390000Y-91800000D03*
X143390000Y-94340000D03*
X143390000Y-96880000D03*
X143390000Y-99420000D03*
X143390000Y-101960000D03*
X143390000Y-104500000D03*
X143390000Y-107040000D03*
X143390000Y-109580000D03*
X143390000Y-112120000D03*
X143390000Y-114660000D03*
X143390000Y-117200000D03*
D11*
X169000000Y-124500000D03*
D12*
X169000000Y-128000000D03*
D20*
X133050000Y-81999240D03*
X134950000Y-81999240D03*
X134000000Y-83998220D03*
D21*
X161800000Y-64250000D03*
X166500000Y-73750000D03*
X166500000Y-64250000D03*
D22*
X169250000Y-69000000D03*
D23*
X166000000Y-69000000D03*
D24*
X160000000Y-69000000D03*
D21*
X161800000Y-73750000D03*
D25*
X126600000Y-77550000D03*
X126600000Y-78500000D03*
X126600000Y-79450000D03*
X124400000Y-79450000D03*
X124400000Y-77550000D03*
D26*
X121000000Y-134000000D03*
X129000000Y-84500000D03*
X149200000Y-51400000D03*
X132500000Y-66250000D03*
X162000000Y-123000000D03*
X146000000Y-130500000D03*
X131000000Y-130500000D03*
X127500000Y-131000000D03*
X144500000Y-129500000D03*
X125750000Y-131500000D03*
X143250000Y-128500000D03*
X143500000Y-125750000D03*
X122500000Y-131250000D03*
X159400000Y-51400000D03*
X159500000Y-114500000D03*
X152000000Y-116000000D03*
X159500000Y-100500000D03*
X152000000Y-102000000D03*
X159500000Y-86500000D03*
X152000000Y-88000000D03*
X110500000Y-124750000D03*
X119000000Y-117000000D03*
X110750000Y-110750000D03*
X118400000Y-103200000D03*
X110500000Y-96500000D03*
X119000000Y-90500000D03*
X110750000Y-82750000D03*
X119000000Y-77000000D03*
X121500000Y-82250000D03*
X176800000Y-79800000D03*
X176800000Y-94300000D03*
X176800000Y-107200000D03*
X176800000Y-121900000D03*
X94800000Y-88300000D03*
X94800000Y-102400000D03*
X94800000Y-116000000D03*
X94800000Y-129800000D03*
X94800000Y-128000000D03*
X94800000Y-86000000D03*
X176800000Y-83000000D03*
X176800000Y-97000000D03*
X176800000Y-111000000D03*
X176800000Y-124500000D03*
X94800000Y-100000000D03*
X94800000Y-114000000D03*
X121200000Y-77600000D03*
X120000000Y-122800000D03*
X120400000Y-117000000D03*
X120000000Y-109000000D03*
X120000000Y-96200000D03*
X124200000Y-83400000D03*
X121200000Y-60000000D03*
X139000000Y-52000000D03*
X150000000Y-56200000D03*
X160000000Y-56000000D03*
X146000000Y-82400000D03*
X149800000Y-87800000D03*
X149800000Y-101400000D03*
X144600000Y-122000000D03*
X147000000Y-132600000D03*
X131000000Y-69000000D03*
X158800000Y-77800000D03*
X170000000Y-56400000D03*
X162000000Y-109500000D03*
X162000000Y-95500000D03*
X162000000Y-81500000D03*
X109000000Y-130000000D03*
X108000000Y-116000000D03*
X107500000Y-101500000D03*
X108000000Y-88000000D03*
D27*
X154000000Y-93900000D02*
X172000000Y-93900000D01*
X172000000Y-93900000D02*
X172000000Y-93750000D01*
X97500000Y-124250000D02*
X97500000Y-128000000D01*
X100500000Y-131000000D02*
X105000000Y-131000000D01*
X97500000Y-128000000D02*
X100500000Y-131000000D01*
X97500000Y-124250000D02*
X102250000Y-118500000D01*
X107500000Y-113250000D02*
X116650000Y-113250000D01*
X102250000Y-118500000D02*
X107500000Y-113250000D01*
X116650000Y-113250000D02*
X117000000Y-112900000D01*
X97500000Y-101750000D02*
X102500000Y-101750000D01*
X115850000Y-99250000D02*
X116500000Y-99900000D01*
X106500000Y-99250000D02*
X115850000Y-99250000D01*
X102500000Y-101750000D02*
X106500000Y-99250000D01*
X116350000Y-85250000D02*
X117000000Y-85900000D01*
X107250000Y-85250000D02*
X116350000Y-85250000D01*
X103750000Y-88750000D02*
X107250000Y-85250000D01*
X98500000Y-88750000D02*
X103750000Y-88750000D01*
X97500000Y-89750000D02*
X98500000Y-88750000D01*
X97500000Y-124250000D02*
X97500000Y-101750000D01*
X97500000Y-101750000D02*
X97500000Y-89750000D01*
D28*
X121000000Y-134000000D02*
X108000000Y-134000000D01*
X105000000Y-133000000D02*
X105000000Y-131000000D01*
X106000000Y-134000000D02*
X105000000Y-133000000D01*
X108000000Y-134000000D02*
X106000000Y-134000000D01*
X105000000Y-131000000D02*
X105000000Y-128000000D01*
X111100000Y-126900000D02*
X110000000Y-128000000D01*
X110000000Y-128000000D02*
X105000000Y-128000000D01*
X117000000Y-126900000D02*
X111100000Y-126900000D01*
D27*
X133050000Y-81999240D02*
X131500760Y-81999240D01*
X131500760Y-81999240D02*
X129000000Y-84500000D01*
D28*
X140000000Y-134000000D02*
X121000000Y-134000000D01*
X116600000Y-85500000D02*
X117000000Y-85900000D01*
X154000000Y-107900000D02*
X156100000Y-107900000D01*
X157000000Y-107000000D02*
X172000000Y-109250000D01*
X156100000Y-107900000D02*
X157000000Y-107000000D01*
X172000000Y-120500000D02*
X156500000Y-120500000D01*
X155600000Y-121400000D02*
X154000000Y-121400000D01*
X156500000Y-120500000D02*
X155600000Y-121400000D01*
X154000000Y-84100000D02*
X163900000Y-84100000D01*
X167000000Y-134000000D02*
X140000000Y-134000000D01*
X172000000Y-130000000D02*
X167000000Y-134000000D01*
X172000000Y-109250000D02*
X172000000Y-120500000D01*
X172000000Y-120500000D02*
X172000000Y-130000000D01*
X163900000Y-84100000D02*
X165000000Y-83000000D01*
X172000000Y-79500000D02*
X172000000Y-93750000D01*
X172000000Y-93750000D02*
X172000000Y-109250000D01*
X165000000Y-79500000D02*
X172000000Y-79500000D01*
X165000000Y-83000000D02*
X165000000Y-79500000D01*
D27*
X132500000Y-66250000D02*
X134350000Y-66250000D01*
X134350000Y-66250000D02*
X149200000Y-51400000D01*
D29*
X152250000Y-69750000D02*
X152250000Y-80000000D01*
X132500000Y-66250000D02*
X136000000Y-69750000D01*
X136000000Y-69750000D02*
X152250000Y-69750000D01*
X151750000Y-80500000D02*
X142500000Y-80500000D01*
X152250000Y-80000000D02*
X151750000Y-80500000D01*
D28*
X134000000Y-83998220D02*
X134000000Y-80500000D01*
X134000000Y-80500000D02*
X142500000Y-80500000D01*
D29*
X142500000Y-87000000D02*
X143390000Y-89260000D01*
X142500000Y-80500000D02*
X142500000Y-87000000D01*
D28*
X124400000Y-77550000D02*
X125050000Y-77550000D01*
X127500000Y-94990000D02*
X125610000Y-96880000D01*
X127500000Y-86000000D02*
X127500000Y-94990000D01*
X125500000Y-84000000D02*
X127500000Y-86000000D01*
X125500000Y-78000000D02*
X125500000Y-84000000D01*
X125050000Y-77550000D02*
X125500000Y-78000000D01*
X124400000Y-77550000D02*
X124400000Y-76600000D01*
X127500000Y-73500000D02*
X128750000Y-73500000D01*
X124400000Y-76600000D02*
X127500000Y-73500000D01*
X161500000Y-123500000D02*
X160135000Y-123500000D01*
X162000000Y-123000000D02*
X161500000Y-123500000D01*
X125610000Y-117200000D02*
X125610000Y-126610000D01*
X152100000Y-125500000D02*
X154000000Y-123600000D01*
X151000000Y-125500000D02*
X152100000Y-125500000D01*
X146000000Y-130500000D02*
X151000000Y-125500000D01*
X129500000Y-130500000D02*
X131000000Y-130500000D01*
X125610000Y-126610000D02*
X129500000Y-130500000D01*
X154000000Y-123600000D02*
X156765000Y-123600000D01*
X156765000Y-123600000D02*
X156865000Y-123500000D01*
X151000000Y-123635000D02*
X153965000Y-123635000D01*
X153965000Y-123635000D02*
X154000000Y-123600000D01*
X125610000Y-114660000D02*
X124840000Y-114660000D01*
X124840000Y-114660000D02*
X124000000Y-115500000D01*
X124000000Y-115500000D02*
X124000000Y-127500000D01*
X124000000Y-127500000D02*
X127500000Y-131000000D01*
X144500000Y-129500000D02*
X149000000Y-125000000D01*
X149000000Y-125000000D02*
X149000000Y-115500000D01*
X149000000Y-115500000D02*
X151000000Y-113500000D01*
X151000000Y-113500000D02*
X151000000Y-110135000D01*
X154000000Y-110100000D02*
X156765000Y-110100000D01*
X156765000Y-110100000D02*
X156865000Y-110000000D01*
X151000000Y-110135000D02*
X153965000Y-110135000D01*
X153965000Y-110135000D02*
X154000000Y-110100000D01*
X125610000Y-112120000D02*
X125610000Y-112390000D01*
X125610000Y-112390000D02*
X123250000Y-114750000D01*
X123250000Y-114750000D02*
X123250000Y-129000000D01*
X123250000Y-129000000D02*
X125750000Y-131500000D01*
X143250000Y-128500000D02*
X147750000Y-124000000D01*
X147750000Y-124000000D02*
X147750000Y-97500000D01*
X147750000Y-97500000D02*
X149115000Y-96135000D01*
X149115000Y-96135000D02*
X151000000Y-96135000D01*
X151000000Y-96135000D02*
X153965000Y-96135000D01*
X153965000Y-96135000D02*
X154000000Y-96100000D01*
X154000000Y-96100000D02*
X156765000Y-96100000D01*
X156765000Y-96100000D02*
X156865000Y-96000000D01*
X125610000Y-109580000D02*
X124420000Y-109580000D01*
X146500000Y-86365000D02*
X151000000Y-81865000D01*
X146500000Y-122750000D02*
X146500000Y-86365000D01*
X143500000Y-125750000D02*
X146500000Y-122750000D01*
X122500000Y-111500000D02*
X122500000Y-131250000D01*
X124420000Y-109580000D02*
X122500000Y-111500000D01*
X151000000Y-81865000D02*
X153965000Y-81865000D01*
X153965000Y-81865000D02*
X154000000Y-81900000D01*
X154000000Y-81900000D02*
X156765000Y-81900000D01*
X156765000Y-81900000D02*
X156865000Y-82000000D01*
X120000000Y-129135000D02*
X120365000Y-129135000D01*
X120365000Y-129135000D02*
X121750000Y-127000000D01*
X121750000Y-110000000D02*
X125610000Y-107040000D01*
X121750000Y-127000000D02*
X121750000Y-110000000D01*
X117000000Y-129100000D02*
X119965000Y-129100000D01*
X119965000Y-129100000D02*
X120000000Y-129135000D01*
X114135000Y-129000000D02*
X116900000Y-129000000D01*
X116900000Y-129000000D02*
X117000000Y-129100000D01*
X120000000Y-115135000D02*
X120865000Y-115135000D01*
X122500000Y-104500000D02*
X125610000Y-104500000D01*
X121000000Y-105500000D02*
X122500000Y-104500000D01*
X121000000Y-114500000D02*
X121000000Y-105500000D01*
X120865000Y-115135000D02*
X121000000Y-114500000D01*
X117000000Y-115100000D02*
X119965000Y-115100000D01*
X119965000Y-115100000D02*
X120000000Y-115135000D01*
X113635000Y-115000000D02*
X116900000Y-115000000D01*
X116900000Y-115000000D02*
X117000000Y-115100000D01*
X120000000Y-102135000D02*
X125435000Y-102135000D01*
X125435000Y-102135000D02*
X125610000Y-101960000D01*
X116500000Y-102100000D02*
X119965000Y-102100000D01*
X119965000Y-102100000D02*
X120000000Y-102135000D01*
X114135000Y-101000000D02*
X115400000Y-101000000D01*
X115400000Y-101000000D02*
X116500000Y-102100000D01*
D27*
X120000000Y-88135000D02*
X120000000Y-93810000D01*
X120000000Y-93810000D02*
X125610000Y-99420000D01*
D28*
X114135000Y-87000000D02*
X115900000Y-87000000D01*
X115900000Y-87000000D02*
X117000000Y-88100000D01*
X117000000Y-88100000D02*
X119965000Y-88100000D01*
X119965000Y-88100000D02*
X120000000Y-88135000D01*
X143390000Y-99420000D02*
X143390000Y-99390000D01*
X143390000Y-99390000D02*
X141500000Y-97500000D01*
X141500000Y-97500000D02*
X141500000Y-88500000D01*
X141500000Y-88500000D02*
X139500000Y-86500000D01*
X139500000Y-86500000D02*
X139450760Y-86500000D01*
X139450760Y-86500000D02*
X134950000Y-81999240D01*
D27*
X153950000Y-64000000D02*
X153950000Y-56850000D01*
X153950000Y-56850000D02*
X159400000Y-51400000D01*
D28*
X153500000Y-114500000D02*
X159500000Y-114500000D01*
X152000000Y-116000000D02*
X153500000Y-114500000D01*
X153500000Y-100500000D02*
X159500000Y-100500000D01*
X152000000Y-102000000D02*
X153500000Y-100500000D01*
X153500000Y-86500000D02*
X159500000Y-86500000D01*
X152000000Y-88000000D02*
X153500000Y-86500000D01*
X110500000Y-124750000D02*
X110500000Y-124750000D01*
X119000000Y-117000000D02*
X110500000Y-124750000D01*
X118400000Y-103200000D02*
X110750000Y-110750000D01*
X111500000Y-96500000D02*
X110500000Y-96500000D01*
X119000000Y-90500000D02*
X111500000Y-96500000D01*
X111750000Y-82000000D02*
X110750000Y-82750000D01*
X119000000Y-77000000D02*
X111750000Y-82000000D01*
D27*
X125610000Y-94340000D02*
X121590000Y-94340000D01*
X121500000Y-83250000D02*
X121500000Y-82250000D01*
X121500000Y-94250000D02*
X121500000Y-83250000D01*
X121590000Y-94340000D02*
X121500000Y-94250000D01*
X126600000Y-78500000D02*
X127800000Y-78500000D01*
D29*
X131000000Y-69000000D02*
X131250000Y-69250000D01*
X131250000Y-69250000D02*
X131250000Y-72000000D01*
D28*
X131250000Y-72000000D02*
X131000000Y-72250000D01*
D29*
X131250000Y-72250000D02*
X131250000Y-72000000D01*
X131250000Y-73500000D02*
X131250000Y-72250000D01*
D28*
X131000000Y-72250000D02*
X131250000Y-72250000D01*
D27*
X151000000Y-92865000D02*
X151000000Y-92750000D01*
X151000000Y-106865000D02*
X151385000Y-106865000D01*
X151000000Y-120365000D02*
X151000000Y-120250000D01*
X158800000Y-77800000D02*
X157400000Y-76400000D01*
X157400000Y-76400000D02*
X157400000Y-63600000D01*
X157400000Y-63600000D02*
X164600000Y-56400000D01*
X164600000Y-56400000D02*
X170000000Y-56400000D01*
X148250000Y-77250000D02*
X148250000Y-76000000D01*
D28*
X131000000Y-77250000D02*
X136250000Y-77250000D01*
X144000000Y-77250000D02*
X136250000Y-77250000D01*
X148250000Y-77250000D02*
X144000000Y-77250000D01*
D27*
X148250000Y-76000000D02*
X149250000Y-75000000D01*
D28*
X131000000Y-77250000D02*
X129250000Y-77250000D01*
X128950000Y-77550000D02*
X126600000Y-77550000D01*
X129250000Y-77250000D02*
X128950000Y-77550000D01*
X160135000Y-110000000D02*
X161500000Y-110000000D01*
X161500000Y-110000000D02*
X162000000Y-109500000D01*
X161500000Y-96000000D02*
X160135000Y-96000000D01*
X162000000Y-95500000D02*
X161500000Y-96000000D01*
X160135000Y-82000000D02*
X161500000Y-82000000D01*
X161500000Y-82000000D02*
X162000000Y-81500000D01*
X110000000Y-129000000D02*
X110865000Y-129000000D01*
X109000000Y-130000000D02*
X110000000Y-129000000D01*
X110365000Y-115000000D02*
X109000000Y-115000000D01*
X109000000Y-115000000D02*
X108000000Y-116000000D01*
X108000000Y-101000000D02*
X110865000Y-101000000D01*
X107500000Y-101500000D02*
X108000000Y-101000000D01*
X110865000Y-87000000D02*
X109000000Y-87000000D01*
X109000000Y-87000000D02*
X108000000Y-88000000D01*
D30*
G36*
X148407808Y-50869673D02*
X148265162Y-51213201D01*
X148265121Y-51260077D01*
X134035198Y-65490000D01*
X133189735Y-65490000D01*
X132896077Y-65293785D01*
X132500000Y-65214999D01*
X132103923Y-65293785D01*
X131768144Y-65518144D01*
X131543785Y-65853923D01*
X131464999Y-66250000D01*
X131543785Y-66646077D01*
X131768144Y-66981856D01*
X135268142Y-70481853D01*
X135268144Y-70481856D01*
X135443399Y-70598957D01*
X135603922Y-70706215D01*
X136000000Y-70785000D01*
X151215000Y-70785000D01*
X151215000Y-79465000D01*
X142500000Y-79465000D01*
X142103923Y-79543785D01*
X141847680Y-79715000D01*
X134000000Y-79715000D01*
X133699594Y-79774755D01*
X133444921Y-79944921D01*
X133274755Y-80199594D01*
X133215000Y-80500000D01*
X133215000Y-80951750D01*
X132649950Y-80951750D01*
X132414633Y-80996028D01*
X132198509Y-81135100D01*
X132127353Y-81239240D01*
X131500760Y-81239240D01*
X131209921Y-81297092D01*
X130963359Y-81461839D01*
X128860320Y-83564878D01*
X128814833Y-83564838D01*
X128471057Y-83706883D01*
X128207808Y-83969673D01*
X128065162Y-84313201D01*
X128064838Y-84685167D01*
X128206883Y-85028943D01*
X128469673Y-85292192D01*
X128813201Y-85434838D01*
X129185167Y-85435162D01*
X129528943Y-85293117D01*
X129792192Y-85030327D01*
X129934838Y-84686799D01*
X129934879Y-84639923D01*
X131815562Y-82759240D01*
X132126987Y-82759240D01*
X132185860Y-82850731D01*
X132398060Y-82995721D01*
X132649950Y-83046730D01*
X133215000Y-83046730D01*
X133215000Y-83091294D01*
X133148509Y-83134080D01*
X133003519Y-83346280D01*
X132952510Y-83598170D01*
X132952510Y-84398270D01*
X132996788Y-84633587D01*
X133135860Y-84849711D01*
X133348060Y-84994701D01*
X133599950Y-85045710D01*
X134400050Y-85045710D01*
X134635367Y-85001432D01*
X134851491Y-84862360D01*
X134996481Y-84650160D01*
X135047490Y-84398270D01*
X135047490Y-83598170D01*
X135003212Y-83362853D01*
X134864140Y-83146729D01*
X134785000Y-83092655D01*
X134785000Y-83046730D01*
X134887332Y-83046730D01*
X138895681Y-87055079D01*
X139044072Y-87154230D01*
X140715000Y-88825158D01*
X140715000Y-97500000D01*
X140774755Y-97800407D01*
X140944921Y-98055079D01*
X141860409Y-98970567D01*
X141805276Y-99103341D01*
X141804725Y-99733893D01*
X142045519Y-100316657D01*
X142418471Y-100690261D01*
X142047086Y-101060997D01*
X141805276Y-101643341D01*
X141804725Y-102273893D01*
X142045519Y-102856657D01*
X142418471Y-103230261D01*
X142047086Y-103600997D01*
X141805276Y-104183341D01*
X141804725Y-104813893D01*
X142045519Y-105396657D01*
X142418471Y-105770261D01*
X142047086Y-106140997D01*
X141805276Y-106723341D01*
X141804725Y-107353893D01*
X142045519Y-107936657D01*
X142418471Y-108310261D01*
X142047086Y-108680997D01*
X141805276Y-109263341D01*
X141804725Y-109893893D01*
X142045519Y-110476657D01*
X142418471Y-110850261D01*
X142047086Y-111220997D01*
X141805276Y-111803341D01*
X141804725Y-112433893D01*
X142027480Y-112973000D01*
X126972016Y-112973000D01*
X127194724Y-112436659D01*
X127195275Y-111806107D01*
X126954481Y-111223343D01*
X126581529Y-110849739D01*
X126952914Y-110479003D01*
X127194724Y-109896659D01*
X127195275Y-109266107D01*
X126954481Y-108683343D01*
X126581529Y-108309739D01*
X126952914Y-107939003D01*
X127194724Y-107356659D01*
X127195275Y-106726107D01*
X126954481Y-106143343D01*
X126581529Y-105769739D01*
X126952914Y-105399003D01*
X127194724Y-104816659D01*
X127195275Y-104186107D01*
X126954481Y-103603343D01*
X126581529Y-103229739D01*
X126952914Y-102859003D01*
X127194724Y-102276659D01*
X127195275Y-101646107D01*
X126954481Y-101063343D01*
X126581529Y-100689739D01*
X126952914Y-100319003D01*
X127194724Y-99736659D01*
X127195275Y-99106107D01*
X126954481Y-98523343D01*
X126581529Y-98149739D01*
X126952914Y-97779003D01*
X127194724Y-97196659D01*
X127195275Y-96566107D01*
X127148136Y-96452022D01*
X128055079Y-95545079D01*
X128225245Y-95290406D01*
X128285001Y-94990000D01*
X128285000Y-94989995D01*
X128285000Y-86000000D01*
X128272779Y-85938559D01*
X128225245Y-85699593D01*
X128055079Y-85444921D01*
X126285000Y-83674842D01*
X126285000Y-80422440D01*
X127130000Y-80422440D01*
X127365317Y-80378162D01*
X127581441Y-80239090D01*
X127720377Y-80035750D01*
X129740000Y-80035750D01*
X129740000Y-80626309D01*
X129836673Y-80859698D01*
X130015301Y-81038327D01*
X130248690Y-81135000D01*
X130714250Y-81135000D01*
X130873000Y-80976250D01*
X130873000Y-79877000D01*
X131127000Y-79877000D01*
X131127000Y-80976250D01*
X131285750Y-81135000D01*
X131751310Y-81135000D01*
X131984699Y-81038327D01*
X132163327Y-80859698D01*
X132260000Y-80626309D01*
X132260000Y-80035750D01*
X132101250Y-79877000D01*
X131127000Y-79877000D01*
X130873000Y-79877000D01*
X129898750Y-79877000D01*
X129740000Y-80035750D01*
X127720377Y-80035750D01*
X127726431Y-80026890D01*
X127777440Y-79775000D01*
X127777440Y-79125000D01*
X127751081Y-78984914D01*
X127765000Y-78951310D01*
X127765000Y-78785750D01*
X127606250Y-78627000D01*
X127525949Y-78627000D01*
X127381890Y-78528569D01*
X127244880Y-78500824D01*
X127365317Y-78478162D01*
X127528743Y-78373000D01*
X127606250Y-78373000D01*
X127644250Y-78335000D01*
X128950000Y-78335000D01*
X129250407Y-78275245D01*
X129505079Y-78105079D01*
X129575158Y-78035000D01*
X129734146Y-78035000D01*
X129771838Y-78235317D01*
X129910910Y-78451441D01*
X129979006Y-78497969D01*
X129836673Y-78640302D01*
X129740000Y-78873691D01*
X129740000Y-79464250D01*
X129898750Y-79623000D01*
X130873000Y-79623000D01*
X130873000Y-79603000D01*
X131127000Y-79603000D01*
X131127000Y-79623000D01*
X132101250Y-79623000D01*
X132260000Y-79464250D01*
X132260000Y-78873691D01*
X132163327Y-78640302D01*
X132022090Y-78499064D01*
X132076441Y-78464090D01*
X132221431Y-78251890D01*
X132265352Y-78035000D01*
X148250000Y-78035000D01*
X148550406Y-77975245D01*
X148805079Y-77805079D01*
X148975245Y-77550406D01*
X149035000Y-77250000D01*
X149014599Y-77147440D01*
X150050000Y-77147440D01*
X150285317Y-77103162D01*
X150501441Y-76964090D01*
X150646431Y-76751890D01*
X150697440Y-76500000D01*
X150697440Y-73500000D01*
X150653162Y-73264683D01*
X150514090Y-73048559D01*
X150301890Y-72903569D01*
X150050000Y-72852560D01*
X148450000Y-72852560D01*
X148214683Y-72896838D01*
X147998559Y-73035910D01*
X147853569Y-73248110D01*
X147802560Y-73500000D01*
X147802560Y-75372638D01*
X147712599Y-75462599D01*
X147547852Y-75709161D01*
X147490000Y-76000000D01*
X147490000Y-76465000D01*
X145997440Y-76465000D01*
X145997440Y-73500000D01*
X145953162Y-73264683D01*
X145814090Y-73048559D01*
X145601890Y-72903569D01*
X145350000Y-72852560D01*
X143750000Y-72852560D01*
X143514683Y-72896838D01*
X143298559Y-73035910D01*
X143153569Y-73248110D01*
X143102560Y-73500000D01*
X143102560Y-76465000D01*
X132265854Y-76465000D01*
X132228162Y-76264683D01*
X132089090Y-76048559D01*
X131876890Y-75903569D01*
X131625000Y-75852560D01*
X130375000Y-75852560D01*
X130139683Y-75896838D01*
X129923559Y-76035910D01*
X129778569Y-76248110D01*
X129734648Y-76465000D01*
X129250000Y-76465000D01*
X128949593Y-76524755D01*
X128694921Y-76694921D01*
X128624842Y-76765000D01*
X127581563Y-76765000D01*
X127381890Y-76628569D01*
X127130000Y-76577560D01*
X126070000Y-76577560D01*
X125834683Y-76621838D01*
X125618559Y-76760910D01*
X125504558Y-76927755D01*
X125484830Y-76914574D01*
X125394090Y-76773559D01*
X125359936Y-76750222D01*
X127535051Y-74575107D01*
X127535910Y-74576441D01*
X127748110Y-74721431D01*
X128000000Y-74772440D01*
X129500000Y-74772440D01*
X129735317Y-74728162D01*
X129951441Y-74589090D01*
X129997969Y-74520994D01*
X130140302Y-74663327D01*
X130373691Y-74760000D01*
X130964250Y-74760000D01*
X131123000Y-74601250D01*
X131123000Y-73627000D01*
X131377000Y-73627000D01*
X131377000Y-74601250D01*
X131535750Y-74760000D01*
X132126309Y-74760000D01*
X132359698Y-74663327D01*
X132538327Y-74484699D01*
X132635000Y-74251310D01*
X132635000Y-73785750D01*
X132476250Y-73627000D01*
X131377000Y-73627000D01*
X131123000Y-73627000D01*
X131103000Y-73627000D01*
X131103000Y-73373000D01*
X131123000Y-73373000D01*
X131123000Y-72398750D01*
X131377000Y-72398750D01*
X131377000Y-73373000D01*
X132476250Y-73373000D01*
X132635000Y-73214250D01*
X132635000Y-72748690D01*
X132538327Y-72515301D01*
X132359698Y-72336673D01*
X132126309Y-72240000D01*
X131535750Y-72240000D01*
X131377000Y-72398750D01*
X131123000Y-72398750D01*
X130964250Y-72240000D01*
X130373691Y-72240000D01*
X130140302Y-72336673D01*
X129999064Y-72477910D01*
X129964090Y-72423559D01*
X129751890Y-72278569D01*
X129500000Y-72227560D01*
X128000000Y-72227560D01*
X127764683Y-72271838D01*
X127548559Y-72410910D01*
X127403569Y-72623110D01*
X127380132Y-72738843D01*
X127199593Y-72774755D01*
X126944921Y-72944921D01*
X123844921Y-76044921D01*
X123674755Y-76299593D01*
X123674755Y-76299594D01*
X123615000Y-76600000D01*
X123615000Y-76634504D01*
X123418559Y-76760910D01*
X123273569Y-76973110D01*
X123222560Y-77225000D01*
X123222560Y-77875000D01*
X123266838Y-78110317D01*
X123405910Y-78326441D01*
X123618110Y-78471431D01*
X123755120Y-78499176D01*
X123634683Y-78521838D01*
X123418559Y-78660910D01*
X123273569Y-78873110D01*
X123222560Y-79125000D01*
X123222560Y-79775000D01*
X123266838Y-80010317D01*
X123405910Y-80226441D01*
X123618110Y-80371431D01*
X123870000Y-80422440D01*
X124715000Y-80422440D01*
X124715000Y-84000000D01*
X124774755Y-84300407D01*
X124944921Y-84555079D01*
X126715000Y-86325158D01*
X126715000Y-88123443D01*
X126509003Y-87917086D01*
X125926659Y-87675276D01*
X125296107Y-87674725D01*
X124713343Y-87915519D01*
X124267086Y-88360997D01*
X124025276Y-88943341D01*
X124024725Y-89573893D01*
X124265519Y-90156657D01*
X124704211Y-90596116D01*
X124673255Y-90683650D01*
X125610000Y-91620395D01*
X125624143Y-91606253D01*
X125803748Y-91785858D01*
X125789605Y-91800000D01*
X125803748Y-91814143D01*
X125624143Y-91993748D01*
X125610000Y-91979605D01*
X124673255Y-92916350D01*
X124704407Y-93004439D01*
X124267086Y-93440997D01*
X124209367Y-93580000D01*
X122260000Y-93580000D01*
X122260000Y-91547398D01*
X124013812Y-91547398D01*
X124038648Y-92177461D01*
X124231981Y-92644208D01*
X124493650Y-92736745D01*
X125430395Y-91800000D01*
X124493650Y-90863255D01*
X124231981Y-90955792D01*
X124013812Y-91547398D01*
X122260000Y-91547398D01*
X122260000Y-82812463D01*
X122292192Y-82780327D01*
X122434838Y-82436799D01*
X122435162Y-82064833D01*
X122293117Y-81721057D01*
X122030327Y-81457808D01*
X121686799Y-81315162D01*
X121314833Y-81314838D01*
X120971057Y-81456883D01*
X120707808Y-81719673D01*
X120565162Y-82063201D01*
X120564838Y-82435167D01*
X120706883Y-82778943D01*
X120740000Y-82812118D01*
X120740000Y-83776528D01*
X120736310Y-83775000D01*
X120285750Y-83775000D01*
X120127000Y-83933750D01*
X120127000Y-84738000D01*
X120147000Y-84738000D01*
X120147000Y-84992000D01*
X120127000Y-84992000D01*
X120127000Y-85796250D01*
X120285750Y-85955000D01*
X120736310Y-85955000D01*
X120740000Y-85953472D01*
X120740000Y-87058886D01*
X120610000Y-87032560D01*
X119390000Y-87032560D01*
X119154683Y-87076838D01*
X118938559Y-87215910D01*
X118870854Y-87315000D01*
X118062630Y-87315000D01*
X118053162Y-87264683D01*
X117914090Y-87048559D01*
X117844289Y-87000866D01*
X117901441Y-86964090D01*
X118046431Y-86751890D01*
X118097440Y-86500000D01*
X118097440Y-85300000D01*
X118069357Y-85150750D01*
X118755000Y-85150750D01*
X118755000Y-85446309D01*
X118851673Y-85679698D01*
X119030301Y-85858327D01*
X119263690Y-85955000D01*
X119714250Y-85955000D01*
X119873000Y-85796250D01*
X119873000Y-84992000D01*
X118913750Y-84992000D01*
X118755000Y-85150750D01*
X118069357Y-85150750D01*
X118053162Y-85064683D01*
X117914090Y-84848559D01*
X117701890Y-84703569D01*
X117450000Y-84652560D01*
X116797546Y-84652560D01*
X116640839Y-84547852D01*
X116350000Y-84490000D01*
X107250000Y-84490000D01*
X107007414Y-84538254D01*
X106959160Y-84547852D01*
X106712599Y-84712599D01*
X103435198Y-87990000D01*
X98500000Y-87990000D01*
X98209161Y-88047852D01*
X97962599Y-88212599D01*
X96962599Y-89212599D01*
X96797852Y-89459161D01*
X96740000Y-89750000D01*
X96740000Y-128000000D01*
X96797852Y-128290839D01*
X96962599Y-128537401D01*
X99962599Y-131537401D01*
X100209161Y-131702148D01*
X100500000Y-131760000D01*
X104215000Y-131760000D01*
X104215000Y-133000000D01*
X104274755Y-133300407D01*
X104444921Y-133555079D01*
X105444921Y-134555079D01*
X105699594Y-134725245D01*
X106000000Y-134785001D01*
X106000005Y-134785000D01*
X120462494Y-134785000D01*
X120469673Y-134792192D01*
X120813201Y-134934838D01*
X121185167Y-134935162D01*
X121528943Y-134793117D01*
X121537074Y-134785000D01*
X167000000Y-134785000D01*
X167108384Y-134763441D01*
X167218479Y-134753983D01*
X167257402Y-134733799D01*
X167300406Y-134725245D01*
X167392286Y-134663853D01*
X167490386Y-134612982D01*
X172490385Y-130612982D01*
X172518620Y-130579440D01*
X172555079Y-130555079D01*
X172616475Y-130463192D01*
X172687634Y-130378659D01*
X172700884Y-130336864D01*
X172725245Y-130300406D01*
X172746803Y-130192027D01*
X172780199Y-130086689D01*
X172776446Y-130043003D01*
X172785000Y-130000000D01*
X172785000Y-79500000D01*
X172725245Y-79199594D01*
X172555079Y-78944921D01*
X172300406Y-78774755D01*
X172000000Y-78715000D01*
X165000000Y-78715000D01*
X164699594Y-78774755D01*
X164444921Y-78944921D01*
X164274755Y-79199594D01*
X164215000Y-79500000D01*
X164215000Y-82674842D01*
X163574842Y-83315000D01*
X155062630Y-83315000D01*
X155053162Y-83264683D01*
X154914090Y-83048559D01*
X154844289Y-83000866D01*
X154901441Y-82964090D01*
X155046431Y-82751890D01*
X155059977Y-82685000D01*
X155776672Y-82685000D01*
X155806838Y-82845317D01*
X155945910Y-83061441D01*
X156158110Y-83206431D01*
X156410000Y-83257440D01*
X157320000Y-83257440D01*
X157555317Y-83213162D01*
X157771441Y-83074090D01*
X157916431Y-82861890D01*
X157967440Y-82610000D01*
X157967440Y-81390000D01*
X159032560Y-81390000D01*
X159032560Y-82610000D01*
X159076838Y-82845317D01*
X159215910Y-83061441D01*
X159428110Y-83206431D01*
X159680000Y-83257440D01*
X160590000Y-83257440D01*
X160825317Y-83213162D01*
X161041441Y-83074090D01*
X161186431Y-82861890D01*
X161202002Y-82785000D01*
X161500000Y-82785000D01*
X161800407Y-82725245D01*
X162055079Y-82555079D01*
X162175005Y-82435153D01*
X162185167Y-82435162D01*
X162528943Y-82293117D01*
X162792192Y-82030327D01*
X162934838Y-81686799D01*
X162935162Y-81314833D01*
X162793117Y-80971057D01*
X162530327Y-80707808D01*
X162186799Y-80565162D01*
X161814833Y-80564838D01*
X161471057Y-80706883D01*
X161207808Y-80969673D01*
X161155371Y-81095954D01*
X161054090Y-80938559D01*
X160841890Y-80793569D01*
X160590000Y-80742560D01*
X159680000Y-80742560D01*
X159444683Y-80786838D01*
X159228559Y-80925910D01*
X159083569Y-81138110D01*
X159032560Y-81390000D01*
X157967440Y-81390000D01*
X157923162Y-81154683D01*
X157784090Y-80938559D01*
X157571890Y-80793569D01*
X157320000Y-80742560D01*
X156410000Y-80742560D01*
X156174683Y-80786838D01*
X155958559Y-80925910D01*
X155829359Y-81115000D01*
X155062630Y-81115000D01*
X155053162Y-81064683D01*
X154914090Y-80848559D01*
X154701890Y-80703569D01*
X154450000Y-80652560D01*
X153550000Y-80652560D01*
X153314683Y-80696838D01*
X153098559Y-80835910D01*
X152953569Y-81048110D01*
X152947111Y-81080000D01*
X152633712Y-81080000D01*
X152981853Y-80731858D01*
X152981856Y-80731856D01*
X153206215Y-80396077D01*
X153240196Y-80225245D01*
X153285001Y-80000000D01*
X153285000Y-79999995D01*
X153285000Y-77147440D01*
X154750000Y-77147440D01*
X154985317Y-77103162D01*
X155201441Y-76964090D01*
X155346431Y-76751890D01*
X155397440Y-76500000D01*
X155397440Y-73500000D01*
X155353162Y-73264683D01*
X155214090Y-73048559D01*
X155001890Y-72903569D01*
X154750000Y-72852560D01*
X153285000Y-72852560D01*
X153285000Y-69750000D01*
X153206215Y-69353923D01*
X152981856Y-69018144D01*
X152646077Y-68793785D01*
X152250000Y-68715000D01*
X136428711Y-68715000D01*
X134655838Y-66942126D01*
X134887401Y-66787401D01*
X139174802Y-62500000D01*
X143102560Y-62500000D01*
X143102560Y-65500000D01*
X143146838Y-65735317D01*
X143285910Y-65951441D01*
X143498110Y-66096431D01*
X143750000Y-66147440D01*
X145350000Y-66147440D01*
X145585317Y-66103162D01*
X145801441Y-65964090D01*
X145946431Y-65751890D01*
X145997440Y-65500000D01*
X145997440Y-62500000D01*
X147802560Y-62500000D01*
X147802560Y-65500000D01*
X147846838Y-65735317D01*
X147985910Y-65951441D01*
X148198110Y-66096431D01*
X148450000Y-66147440D01*
X150050000Y-66147440D01*
X150285317Y-66103162D01*
X150501441Y-65964090D01*
X150646431Y-65751890D01*
X150697440Y-65500000D01*
X150697440Y-62500000D01*
X150653162Y-62264683D01*
X150514090Y-62048559D01*
X150301890Y-61903569D01*
X150050000Y-61852560D01*
X148450000Y-61852560D01*
X148214683Y-61896838D01*
X147998559Y-62035910D01*
X147853569Y-62248110D01*
X147802560Y-62500000D01*
X145997440Y-62500000D01*
X145953162Y-62264683D01*
X145814090Y-62048559D01*
X145601890Y-61903569D01*
X145350000Y-61852560D01*
X143750000Y-61852560D01*
X143514683Y-61896838D01*
X143298559Y-62035910D01*
X143153569Y-62248110D01*
X143102560Y-62500000D01*
X139174802Y-62500000D01*
X149339680Y-52335122D01*
X149385167Y-52335162D01*
X149728943Y-52193117D01*
X149992192Y-51930327D01*
X150134838Y-51586799D01*
X150135162Y-51214833D01*
X149993117Y-50871057D01*
X149849311Y-50727000D01*
X158750731Y-50727000D01*
X158607808Y-50869673D01*
X158465162Y-51213201D01*
X158465121Y-51260077D01*
X153412599Y-56312599D01*
X153247852Y-56559161D01*
X153190000Y-56850000D01*
X153190000Y-61852560D01*
X153150000Y-61852560D01*
X152914683Y-61896838D01*
X152698559Y-62035910D01*
X152553569Y-62248110D01*
X152502560Y-62500000D01*
X152502560Y-65500000D01*
X152546838Y-65735317D01*
X152685910Y-65951441D01*
X152898110Y-66096431D01*
X153150000Y-66147440D01*
X154750000Y-66147440D01*
X154985317Y-66103162D01*
X155201441Y-65964090D01*
X155346431Y-65751890D01*
X155397440Y-65500000D01*
X155397440Y-63600000D01*
X156640000Y-63600000D01*
X156640000Y-76400000D01*
X156697852Y-76690839D01*
X156862599Y-76937401D01*
X157864878Y-77939680D01*
X157864838Y-77985167D01*
X158006883Y-78328943D01*
X158269673Y-78592192D01*
X158613201Y-78734838D01*
X158985167Y-78735162D01*
X159328943Y-78593117D01*
X159592192Y-78330327D01*
X159734838Y-77986799D01*
X159735162Y-77614833D01*
X159593117Y-77271057D01*
X159330327Y-77007808D01*
X158986799Y-76865162D01*
X158939923Y-76865121D01*
X158160000Y-76085198D01*
X158160000Y-74099039D01*
X159808096Y-74099039D01*
X159825633Y-74181819D01*
X160095500Y-74674896D01*
X160533517Y-75027166D01*
X161073000Y-75185000D01*
X161673000Y-75185000D01*
X161673000Y-73877000D01*
X161927000Y-73877000D01*
X161927000Y-75185000D01*
X162527000Y-75185000D01*
X163066483Y-75027166D01*
X163504500Y-74674896D01*
X163774367Y-74181819D01*
X163791904Y-74099039D01*
X164508096Y-74099039D01*
X164525633Y-74181819D01*
X164795500Y-74674896D01*
X165233517Y-75027166D01*
X165773000Y-75185000D01*
X166373000Y-75185000D01*
X166373000Y-73877000D01*
X166627000Y-73877000D01*
X166627000Y-75185000D01*
X167227000Y-75185000D01*
X167766483Y-75027166D01*
X168204500Y-74674896D01*
X168474367Y-74181819D01*
X168491904Y-74099039D01*
X168369915Y-73877000D01*
X166627000Y-73877000D01*
X166373000Y-73877000D01*
X164630085Y-73877000D01*
X164508096Y-74099039D01*
X163791904Y-74099039D01*
X163669915Y-73877000D01*
X161927000Y-73877000D01*
X161673000Y-73877000D01*
X159930085Y-73877000D01*
X159808096Y-74099039D01*
X158160000Y-74099039D01*
X158160000Y-73400961D01*
X159808096Y-73400961D01*
X159930085Y-73623000D01*
X161673000Y-73623000D01*
X161673000Y-72315000D01*
X161927000Y-72315000D01*
X161927000Y-73623000D01*
X163669915Y-73623000D01*
X163791904Y-73400961D01*
X164508096Y-73400961D01*
X164630085Y-73623000D01*
X166373000Y-73623000D01*
X166373000Y-72315000D01*
X166627000Y-72315000D01*
X166627000Y-73623000D01*
X168369915Y-73623000D01*
X168491904Y-73400961D01*
X168474367Y-73318181D01*
X168204500Y-72825104D01*
X167766483Y-72472834D01*
X167227000Y-72315000D01*
X166627000Y-72315000D01*
X166373000Y-72315000D01*
X165773000Y-72315000D01*
X165233517Y-72472834D01*
X164795500Y-72825104D01*
X164525633Y-73318181D01*
X164508096Y-73400961D01*
X163791904Y-73400961D01*
X163774367Y-73318181D01*
X163504500Y-72825104D01*
X163066483Y-72472834D01*
X162527000Y-72315000D01*
X161927000Y-72315000D01*
X161673000Y-72315000D01*
X161073000Y-72315000D01*
X160533517Y-72472834D01*
X160095500Y-72825104D01*
X159825633Y-73318181D01*
X159808096Y-73400961D01*
X158160000Y-73400961D01*
X158160000Y-69343599D01*
X158264699Y-69343599D01*
X158528281Y-69981515D01*
X159015918Y-70470004D01*
X159653373Y-70734699D01*
X160343599Y-70735301D01*
X160981515Y-70471719D01*
X161470004Y-69984082D01*
X161734699Y-69346627D01*
X161734890Y-69127000D01*
X164565000Y-69127000D01*
X164565000Y-70227000D01*
X164722834Y-70766483D01*
X165075104Y-71204500D01*
X165568181Y-71474367D01*
X165650961Y-71491904D01*
X165873000Y-71369915D01*
X165873000Y-69127000D01*
X164565000Y-69127000D01*
X161734890Y-69127000D01*
X161735301Y-68656401D01*
X161471719Y-68018485D01*
X161226663Y-67773000D01*
X164565000Y-67773000D01*
X164565000Y-68873000D01*
X165873000Y-68873000D01*
X165873000Y-66630085D01*
X166127000Y-66630085D01*
X166127000Y-68873000D01*
X166147000Y-68873000D01*
X166147000Y-69127000D01*
X166127000Y-69127000D01*
X166127000Y-71369915D01*
X166349039Y-71491904D01*
X166431819Y-71474367D01*
X166924896Y-71204500D01*
X167277166Y-70766483D01*
X167435000Y-70227000D01*
X167435000Y-69543507D01*
X167651043Y-70066372D01*
X168180839Y-70597093D01*
X168873405Y-70884672D01*
X169623305Y-70885326D01*
X170316372Y-70598957D01*
X170847093Y-70069161D01*
X171134672Y-69376595D01*
X171135326Y-68626695D01*
X170848957Y-67933628D01*
X170319161Y-67402907D01*
X169626595Y-67115328D01*
X168876695Y-67114674D01*
X168183628Y-67401043D01*
X167652907Y-67930839D01*
X167435000Y-68455616D01*
X167435000Y-67773000D01*
X167277166Y-67233517D01*
X166924896Y-66795500D01*
X166431819Y-66525633D01*
X166349039Y-66508096D01*
X166127000Y-66630085D01*
X165873000Y-66630085D01*
X165650961Y-66508096D01*
X165568181Y-66525633D01*
X165075104Y-66795500D01*
X164722834Y-67233517D01*
X164565000Y-67773000D01*
X161226663Y-67773000D01*
X160984082Y-67529996D01*
X160346627Y-67265301D01*
X159656401Y-67264699D01*
X159018485Y-67528281D01*
X158529996Y-68015918D01*
X158265301Y-68653373D01*
X158264699Y-69343599D01*
X158160000Y-69343599D01*
X158160000Y-64599039D01*
X159808096Y-64599039D01*
X159825633Y-64681819D01*
X160095500Y-65174896D01*
X160533517Y-65527166D01*
X161073000Y-65685000D01*
X161673000Y-65685000D01*
X161673000Y-64377000D01*
X161927000Y-64377000D01*
X161927000Y-65685000D01*
X162527000Y-65685000D01*
X163066483Y-65527166D01*
X163504500Y-65174896D01*
X163774367Y-64681819D01*
X163791904Y-64599039D01*
X164508096Y-64599039D01*
X164525633Y-64681819D01*
X164795500Y-65174896D01*
X165233517Y-65527166D01*
X165773000Y-65685000D01*
X166373000Y-65685000D01*
X166373000Y-64377000D01*
X166627000Y-64377000D01*
X166627000Y-65685000D01*
X167227000Y-65685000D01*
X167766483Y-65527166D01*
X168204500Y-65174896D01*
X168474367Y-64681819D01*
X168491904Y-64599039D01*
X168369915Y-64377000D01*
X166627000Y-64377000D01*
X166373000Y-64377000D01*
X164630085Y-64377000D01*
X164508096Y-64599039D01*
X163791904Y-64599039D01*
X163669915Y-64377000D01*
X161927000Y-64377000D01*
X161673000Y-64377000D01*
X159930085Y-64377000D01*
X159808096Y-64599039D01*
X158160000Y-64599039D01*
X158160000Y-63914802D01*
X158173841Y-63900961D01*
X159808096Y-63900961D01*
X159930085Y-64123000D01*
X161673000Y-64123000D01*
X161673000Y-62815000D01*
X161927000Y-62815000D01*
X161927000Y-64123000D01*
X163669915Y-64123000D01*
X163791904Y-63900961D01*
X164508096Y-63900961D01*
X164630085Y-64123000D01*
X166373000Y-64123000D01*
X166373000Y-62815000D01*
X166627000Y-62815000D01*
X166627000Y-64123000D01*
X168369915Y-64123000D01*
X168491904Y-63900961D01*
X168474367Y-63818181D01*
X168204500Y-63325104D01*
X167766483Y-62972834D01*
X167227000Y-62815000D01*
X166627000Y-62815000D01*
X166373000Y-62815000D01*
X165773000Y-62815000D01*
X165233517Y-62972834D01*
X164795500Y-63325104D01*
X164525633Y-63818181D01*
X164508096Y-63900961D01*
X163791904Y-63900961D01*
X163774367Y-63818181D01*
X163504500Y-63325104D01*
X163066483Y-62972834D01*
X162527000Y-62815000D01*
X161927000Y-62815000D01*
X161673000Y-62815000D01*
X161073000Y-62815000D01*
X160533517Y-62972834D01*
X160095500Y-63325104D01*
X159825633Y-63818181D01*
X159808096Y-63900961D01*
X158173841Y-63900961D01*
X164914802Y-57160000D01*
X169437537Y-57160000D01*
X169469673Y-57192192D01*
X169813201Y-57334838D01*
X170185167Y-57335162D01*
X170528943Y-57193117D01*
X170792192Y-56930327D01*
X170934838Y-56586799D01*
X170935162Y-56214833D01*
X170793117Y-55871057D01*
X170530327Y-55607808D01*
X170186799Y-55465162D01*
X169814833Y-55464838D01*
X169471057Y-55606883D01*
X169437882Y-55640000D01*
X164600000Y-55640000D01*
X164309161Y-55697852D01*
X164062599Y-55862599D01*
X156862599Y-63062599D01*
X156697852Y-63309161D01*
X156640000Y-63600000D01*
X155397440Y-63600000D01*
X155397440Y-62500000D01*
X155353162Y-62264683D01*
X155214090Y-62048559D01*
X155001890Y-61903569D01*
X154750000Y-61852560D01*
X154710000Y-61852560D01*
X154710000Y-57164802D01*
X156432183Y-55442619D01*
X175264613Y-55442619D01*
X175604155Y-56264372D01*
X176232321Y-56893636D01*
X177053481Y-57234611D01*
X177942619Y-57235387D01*
X178764372Y-56895845D01*
X179393636Y-56267679D01*
X179734611Y-55446519D01*
X179735387Y-54557381D01*
X179395845Y-53735628D01*
X178767679Y-53106364D01*
X177946519Y-52765389D01*
X177057381Y-52764613D01*
X176235628Y-53104155D01*
X175606364Y-53732321D01*
X175265389Y-54553481D01*
X175264613Y-55442619D01*
X156432183Y-55442619D01*
X159539680Y-52335122D01*
X159585167Y-52335162D01*
X159928943Y-52193117D01*
X160192192Y-51930327D01*
X160334838Y-51586799D01*
X160335162Y-51214833D01*
X160193117Y-50871057D01*
X160049311Y-50727000D01*
X181273000Y-50727000D01*
X181273000Y-139273000D01*
X92727000Y-139273000D01*
X92727000Y-135442619D01*
X94264613Y-135442619D01*
X94604155Y-136264372D01*
X95232321Y-136893636D01*
X96053481Y-137234611D01*
X96942619Y-137235387D01*
X97764372Y-136895845D01*
X98393636Y-136267679D01*
X98734611Y-135446519D01*
X98734614Y-135442619D01*
X175264613Y-135442619D01*
X175604155Y-136264372D01*
X176232321Y-136893636D01*
X177053481Y-137234611D01*
X177942619Y-137235387D01*
X178764372Y-136895845D01*
X179393636Y-136267679D01*
X179734611Y-135446519D01*
X179735387Y-134557381D01*
X179395845Y-133735628D01*
X178767679Y-133106364D01*
X177946519Y-132765389D01*
X177057381Y-132764613D01*
X176235628Y-133104155D01*
X175606364Y-133732321D01*
X175265389Y-134553481D01*
X175264613Y-135442619D01*
X98734614Y-135442619D01*
X98735387Y-134557381D01*
X98395845Y-133735628D01*
X97767679Y-133106364D01*
X96946519Y-132765389D01*
X96057381Y-132764613D01*
X95235628Y-133104155D01*
X94606364Y-133732321D01*
X94265389Y-134553481D01*
X94264613Y-135442619D01*
X92727000Y-135442619D01*
X92727000Y-87297175D01*
X99882430Y-87297175D01*
X100005565Y-87584788D01*
X100687734Y-87844707D01*
X101417443Y-87823786D01*
X101994435Y-87584788D01*
X102117570Y-87297175D01*
X101000000Y-86179605D01*
X99882430Y-87297175D01*
X92727000Y-87297175D01*
X92727000Y-85687734D01*
X99155293Y-85687734D01*
X99176214Y-86417443D01*
X99415212Y-86994435D01*
X99702825Y-87117570D01*
X100820395Y-86000000D01*
X101179605Y-86000000D01*
X102297175Y-87117570D01*
X102584788Y-86994435D01*
X102844707Y-86312266D01*
X102823786Y-85582557D01*
X102584788Y-85005565D01*
X102297175Y-84882430D01*
X101179605Y-86000000D01*
X100820395Y-86000000D01*
X99702825Y-84882430D01*
X99415212Y-85005565D01*
X99155293Y-85687734D01*
X92727000Y-85687734D01*
X92727000Y-81300000D01*
X99152560Y-81300000D01*
X99152560Y-83700000D01*
X99196838Y-83935317D01*
X99335910Y-84151441D01*
X99548110Y-84296431D01*
X99800000Y-84347440D01*
X100169181Y-84347440D01*
X100005565Y-84415212D01*
X99882430Y-84702825D01*
X101000000Y-85820395D01*
X102117570Y-84702825D01*
X101994435Y-84415212D01*
X101816564Y-84347440D01*
X102200000Y-84347440D01*
X102435317Y-84303162D01*
X102465575Y-84283691D01*
X118755000Y-84283691D01*
X118755000Y-84579250D01*
X118913750Y-84738000D01*
X119873000Y-84738000D01*
X119873000Y-83933750D01*
X119714250Y-83775000D01*
X119263690Y-83775000D01*
X119030301Y-83871673D01*
X118851673Y-84050302D01*
X118755000Y-84283691D01*
X102465575Y-84283691D01*
X102651441Y-84164090D01*
X102796431Y-83951890D01*
X102847440Y-83700000D01*
X102847440Y-82935167D01*
X109814838Y-82935167D01*
X109956883Y-83278943D01*
X110219673Y-83542192D01*
X110563201Y-83684838D01*
X110935167Y-83685162D01*
X111278943Y-83543117D01*
X111542192Y-83280327D01*
X111628560Y-83072330D01*
X112208521Y-82637359D01*
X119026907Y-77935024D01*
X119185167Y-77935162D01*
X119528943Y-77793117D01*
X119792192Y-77530327D01*
X119934838Y-77186799D01*
X119935162Y-76814833D01*
X119793117Y-76471057D01*
X119530327Y-76207808D01*
X119186799Y-76065162D01*
X118814833Y-76064838D01*
X118471057Y-76206883D01*
X118207808Y-76469673D01*
X118136189Y-76642151D01*
X111304330Y-81353778D01*
X111293290Y-81365147D01*
X111279000Y-81372000D01*
X110688406Y-81814946D01*
X110564833Y-81814838D01*
X110221057Y-81956883D01*
X109957808Y-82219673D01*
X109815162Y-82563201D01*
X109814838Y-82935167D01*
X102847440Y-82935167D01*
X102847440Y-81300000D01*
X102803162Y-81064683D01*
X102664090Y-80848559D01*
X102451890Y-80703569D01*
X102200000Y-80652560D01*
X99800000Y-80652560D01*
X99564683Y-80696838D01*
X99348559Y-80835910D01*
X99203569Y-81048110D01*
X99152560Y-81300000D01*
X92727000Y-81300000D01*
X92727000Y-55442619D01*
X94264613Y-55442619D01*
X94604155Y-56264372D01*
X95232321Y-56893636D01*
X96053481Y-57234611D01*
X96942619Y-57235387D01*
X97764372Y-56895845D01*
X98393636Y-56267679D01*
X98734611Y-55446519D01*
X98735387Y-54557381D01*
X98395845Y-53735628D01*
X97767679Y-53106364D01*
X96946519Y-52765389D01*
X96057381Y-52764613D01*
X95235628Y-53104155D01*
X94606364Y-53732321D01*
X94265389Y-54553481D01*
X94264613Y-55442619D01*
X92727000Y-55442619D01*
X92727000Y-50727000D01*
X148550731Y-50727000D01*
X148407808Y-50869673D01*
X148407808Y-50869673D01*
G37*
X148407808Y-50869673D02*
X148265162Y-51213201D01*
X148265121Y-51260077D01*
X134035198Y-65490000D01*
X133189735Y-65490000D01*
X132896077Y-65293785D01*
X132500000Y-65214999D01*
X132103923Y-65293785D01*
X131768144Y-65518144D01*
X131543785Y-65853923D01*
X131464999Y-66250000D01*
X131543785Y-66646077D01*
X131768144Y-66981856D01*
X135268142Y-70481853D01*
X135268144Y-70481856D01*
X135443399Y-70598957D01*
X135603922Y-70706215D01*
X136000000Y-70785000D01*
X151215000Y-70785000D01*
X151215000Y-79465000D01*
X142500000Y-79465000D01*
X142103923Y-79543785D01*
X141847680Y-79715000D01*
X134000000Y-79715000D01*
X133699594Y-79774755D01*
X133444921Y-79944921D01*
X133274755Y-80199594D01*
X133215000Y-80500000D01*
X133215000Y-80951750D01*
X132649950Y-80951750D01*
X132414633Y-80996028D01*
X132198509Y-81135100D01*
X132127353Y-81239240D01*
X131500760Y-81239240D01*
X131209921Y-81297092D01*
X130963359Y-81461839D01*
X128860320Y-83564878D01*
X128814833Y-83564838D01*
X128471057Y-83706883D01*
X128207808Y-83969673D01*
X128065162Y-84313201D01*
X128064838Y-84685167D01*
X128206883Y-85028943D01*
X128469673Y-85292192D01*
X128813201Y-85434838D01*
X129185167Y-85435162D01*
X129528943Y-85293117D01*
X129792192Y-85030327D01*
X129934838Y-84686799D01*
X129934879Y-84639923D01*
X131815562Y-82759240D01*
X132126987Y-82759240D01*
X132185860Y-82850731D01*
X132398060Y-82995721D01*
X132649950Y-83046730D01*
X133215000Y-83046730D01*
X133215000Y-83091294D01*
X133148509Y-83134080D01*
X133003519Y-83346280D01*
X132952510Y-83598170D01*
X132952510Y-84398270D01*
X132996788Y-84633587D01*
X133135860Y-84849711D01*
X133348060Y-84994701D01*
X133599950Y-85045710D01*
X134400050Y-85045710D01*
X134635367Y-85001432D01*
X134851491Y-84862360D01*
X134996481Y-84650160D01*
X135047490Y-84398270D01*
X135047490Y-83598170D01*
X135003212Y-83362853D01*
X134864140Y-83146729D01*
X134785000Y-83092655D01*
X134785000Y-83046730D01*
X134887332Y-83046730D01*
X138895681Y-87055079D01*
X139044072Y-87154230D01*
X140715000Y-88825158D01*
X140715000Y-97500000D01*
X140774755Y-97800407D01*
X140944921Y-98055079D01*
X141860409Y-98970567D01*
X141805276Y-99103341D01*
X141804725Y-99733893D01*
X142045519Y-100316657D01*
X142418471Y-100690261D01*
X142047086Y-101060997D01*
X141805276Y-101643341D01*
X141804725Y-102273893D01*
X142045519Y-102856657D01*
X142418471Y-103230261D01*
X142047086Y-103600997D01*
X141805276Y-104183341D01*
X141804725Y-104813893D01*
X142045519Y-105396657D01*
X142418471Y-105770261D01*
X142047086Y-106140997D01*
X141805276Y-106723341D01*
X141804725Y-107353893D01*
X142045519Y-107936657D01*
X142418471Y-108310261D01*
X142047086Y-108680997D01*
X141805276Y-109263341D01*
X141804725Y-109893893D01*
X142045519Y-110476657D01*
X142418471Y-110850261D01*
X142047086Y-111220997D01*
X141805276Y-111803341D01*
X141804725Y-112433893D01*
X142027480Y-112973000D01*
X126972016Y-112973000D01*
X127194724Y-112436659D01*
X127195275Y-111806107D01*
X126954481Y-111223343D01*
X126581529Y-110849739D01*
X126952914Y-110479003D01*
X127194724Y-109896659D01*
X127195275Y-109266107D01*
X126954481Y-108683343D01*
X126581529Y-108309739D01*
X126952914Y-107939003D01*
X127194724Y-107356659D01*
X127195275Y-106726107D01*
X126954481Y-106143343D01*
X126581529Y-105769739D01*
X126952914Y-105399003D01*
X127194724Y-104816659D01*
X127195275Y-104186107D01*
X126954481Y-103603343D01*
X126581529Y-103229739D01*
X126952914Y-102859003D01*
X127194724Y-102276659D01*
X127195275Y-101646107D01*
X126954481Y-101063343D01*
X126581529Y-100689739D01*
X126952914Y-100319003D01*
X127194724Y-99736659D01*
X127195275Y-99106107D01*
X126954481Y-98523343D01*
X126581529Y-98149739D01*
X126952914Y-97779003D01*
X127194724Y-97196659D01*
X127195275Y-96566107D01*
X127148136Y-96452022D01*
X128055079Y-95545079D01*
X128225245Y-95290406D01*
X128285001Y-94990000D01*
X128285000Y-94989995D01*
X128285000Y-86000000D01*
X128272779Y-85938559D01*
X128225245Y-85699593D01*
X128055079Y-85444921D01*
X126285000Y-83674842D01*
X126285000Y-80422440D01*
X127130000Y-80422440D01*
X127365317Y-80378162D01*
X127581441Y-80239090D01*
X127720377Y-80035750D01*
X129740000Y-80035750D01*
X129740000Y-80626309D01*
X129836673Y-80859698D01*
X130015301Y-81038327D01*
X130248690Y-81135000D01*
X130714250Y-81135000D01*
X130873000Y-80976250D01*
X130873000Y-79877000D01*
X131127000Y-79877000D01*
X131127000Y-80976250D01*
X131285750Y-81135000D01*
X131751310Y-81135000D01*
X131984699Y-81038327D01*
X132163327Y-80859698D01*
X132260000Y-80626309D01*
X132260000Y-80035750D01*
X132101250Y-79877000D01*
X131127000Y-79877000D01*
X130873000Y-79877000D01*
X129898750Y-79877000D01*
X129740000Y-80035750D01*
X127720377Y-80035750D01*
X127726431Y-80026890D01*
X127777440Y-79775000D01*
X127777440Y-79125000D01*
X127751081Y-78984914D01*
X127765000Y-78951310D01*
X127765000Y-78785750D01*
X127606250Y-78627000D01*
X127525949Y-78627000D01*
X127381890Y-78528569D01*
X127244880Y-78500824D01*
X127365317Y-78478162D01*
X127528743Y-78373000D01*
X127606250Y-78373000D01*
X127644250Y-78335000D01*
X128950000Y-78335000D01*
X129250407Y-78275245D01*
X129505079Y-78105079D01*
X129575158Y-78035000D01*
X129734146Y-78035000D01*
X129771838Y-78235317D01*
X129910910Y-78451441D01*
X129979006Y-78497969D01*
X129836673Y-78640302D01*
X129740000Y-78873691D01*
X129740000Y-79464250D01*
X129898750Y-79623000D01*
X130873000Y-79623000D01*
X130873000Y-79603000D01*
X131127000Y-79603000D01*
X131127000Y-79623000D01*
X132101250Y-79623000D01*
X132260000Y-79464250D01*
X132260000Y-78873691D01*
X132163327Y-78640302D01*
X132022090Y-78499064D01*
X132076441Y-78464090D01*
X132221431Y-78251890D01*
X132265352Y-78035000D01*
X148250000Y-78035000D01*
X148550406Y-77975245D01*
X148805079Y-77805079D01*
X148975245Y-77550406D01*
X149035000Y-77250000D01*
X149014599Y-77147440D01*
X150050000Y-77147440D01*
X150285317Y-77103162D01*
X150501441Y-76964090D01*
X150646431Y-76751890D01*
X150697440Y-76500000D01*
X150697440Y-73500000D01*
X150653162Y-73264683D01*
X150514090Y-73048559D01*
X150301890Y-72903569D01*
X150050000Y-72852560D01*
X148450000Y-72852560D01*
X148214683Y-72896838D01*
X147998559Y-73035910D01*
X147853569Y-73248110D01*
X147802560Y-73500000D01*
X147802560Y-75372638D01*
X147712599Y-75462599D01*
X147547852Y-75709161D01*
X147490000Y-76000000D01*
X147490000Y-76465000D01*
X145997440Y-76465000D01*
X145997440Y-73500000D01*
X145953162Y-73264683D01*
X145814090Y-73048559D01*
X145601890Y-72903569D01*
X145350000Y-72852560D01*
X143750000Y-72852560D01*
X143514683Y-72896838D01*
X143298559Y-73035910D01*
X143153569Y-73248110D01*
X143102560Y-73500000D01*
X143102560Y-76465000D01*
X132265854Y-76465000D01*
X132228162Y-76264683D01*
X132089090Y-76048559D01*
X131876890Y-75903569D01*
X131625000Y-75852560D01*
X130375000Y-75852560D01*
X130139683Y-75896838D01*
X129923559Y-76035910D01*
X129778569Y-76248110D01*
X129734648Y-76465000D01*
X129250000Y-76465000D01*
X128949593Y-76524755D01*
X128694921Y-76694921D01*
X128624842Y-76765000D01*
X127581563Y-76765000D01*
X127381890Y-76628569D01*
X127130000Y-76577560D01*
X126070000Y-76577560D01*
X125834683Y-76621838D01*
X125618559Y-76760910D01*
X125504558Y-76927755D01*
X125484830Y-76914574D01*
X125394090Y-76773559D01*
X125359936Y-76750222D01*
X127535051Y-74575107D01*
X127535910Y-74576441D01*
X127748110Y-74721431D01*
X128000000Y-74772440D01*
X129500000Y-74772440D01*
X129735317Y-74728162D01*
X129951441Y-74589090D01*
X129997969Y-74520994D01*
X130140302Y-74663327D01*
X130373691Y-74760000D01*
X130964250Y-74760000D01*
X131123000Y-74601250D01*
X131123000Y-73627000D01*
X131377000Y-73627000D01*
X131377000Y-74601250D01*
X131535750Y-74760000D01*
X132126309Y-74760000D01*
X132359698Y-74663327D01*
X132538327Y-74484699D01*
X132635000Y-74251310D01*
X132635000Y-73785750D01*
X132476250Y-73627000D01*
X131377000Y-73627000D01*
X131123000Y-73627000D01*
X131103000Y-73627000D01*
X131103000Y-73373000D01*
X131123000Y-73373000D01*
X131123000Y-72398750D01*
X131377000Y-72398750D01*
X131377000Y-73373000D01*
X132476250Y-73373000D01*
X132635000Y-73214250D01*
X132635000Y-72748690D01*
X132538327Y-72515301D01*
X132359698Y-72336673D01*
X132126309Y-72240000D01*
X131535750Y-72240000D01*
X131377000Y-72398750D01*
X131123000Y-72398750D01*
X130964250Y-72240000D01*
X130373691Y-72240000D01*
X130140302Y-72336673D01*
X129999064Y-72477910D01*
X129964090Y-72423559D01*
X129751890Y-72278569D01*
X129500000Y-72227560D01*
X128000000Y-72227560D01*
X127764683Y-72271838D01*
X127548559Y-72410910D01*
X127403569Y-72623110D01*
X127380132Y-72738843D01*
X127199593Y-72774755D01*
X126944921Y-72944921D01*
X123844921Y-76044921D01*
X123674755Y-76299593D01*
X123674755Y-76299594D01*
X123615000Y-76600000D01*
X123615000Y-76634504D01*
X123418559Y-76760910D01*
X123273569Y-76973110D01*
X123222560Y-77225000D01*
X123222560Y-77875000D01*
X123266838Y-78110317D01*
X123405910Y-78326441D01*
X123618110Y-78471431D01*
X123755120Y-78499176D01*
X123634683Y-78521838D01*
X123418559Y-78660910D01*
X123273569Y-78873110D01*
X123222560Y-79125000D01*
X123222560Y-79775000D01*
X123266838Y-80010317D01*
X123405910Y-80226441D01*
X123618110Y-80371431D01*
X123870000Y-80422440D01*
X124715000Y-80422440D01*
X124715000Y-84000000D01*
X124774755Y-84300407D01*
X124944921Y-84555079D01*
X126715000Y-86325158D01*
X126715000Y-88123443D01*
X126509003Y-87917086D01*
X125926659Y-87675276D01*
X125296107Y-87674725D01*
X124713343Y-87915519D01*
X124267086Y-88360997D01*
X124025276Y-88943341D01*
X124024725Y-89573893D01*
X124265519Y-90156657D01*
X124704211Y-90596116D01*
X124673255Y-90683650D01*
X125610000Y-91620395D01*
X125624143Y-91606253D01*
X125803748Y-91785858D01*
X125789605Y-91800000D01*
X125803748Y-91814143D01*
X125624143Y-91993748D01*
X125610000Y-91979605D01*
X124673255Y-92916350D01*
X124704407Y-93004439D01*
X124267086Y-93440997D01*
X124209367Y-93580000D01*
X122260000Y-93580000D01*
X122260000Y-91547398D01*
X124013812Y-91547398D01*
X124038648Y-92177461D01*
X124231981Y-92644208D01*
X124493650Y-92736745D01*
X125430395Y-91800000D01*
X124493650Y-90863255D01*
X124231981Y-90955792D01*
X124013812Y-91547398D01*
X122260000Y-91547398D01*
X122260000Y-82812463D01*
X122292192Y-82780327D01*
X122434838Y-82436799D01*
X122435162Y-82064833D01*
X122293117Y-81721057D01*
X122030327Y-81457808D01*
X121686799Y-81315162D01*
X121314833Y-81314838D01*
X120971057Y-81456883D01*
X120707808Y-81719673D01*
X120565162Y-82063201D01*
X120564838Y-82435167D01*
X120706883Y-82778943D01*
X120740000Y-82812118D01*
X120740000Y-83776528D01*
X120736310Y-83775000D01*
X120285750Y-83775000D01*
X120127000Y-83933750D01*
X120127000Y-84738000D01*
X120147000Y-84738000D01*
X120147000Y-84992000D01*
X120127000Y-84992000D01*
X120127000Y-85796250D01*
X120285750Y-85955000D01*
X120736310Y-85955000D01*
X120740000Y-85953472D01*
X120740000Y-87058886D01*
X120610000Y-87032560D01*
X119390000Y-87032560D01*
X119154683Y-87076838D01*
X118938559Y-87215910D01*
X118870854Y-87315000D01*
X118062630Y-87315000D01*
X118053162Y-87264683D01*
X117914090Y-87048559D01*
X117844289Y-87000866D01*
X117901441Y-86964090D01*
X118046431Y-86751890D01*
X118097440Y-86500000D01*
X118097440Y-85300000D01*
X118069357Y-85150750D01*
X118755000Y-85150750D01*
X118755000Y-85446309D01*
X118851673Y-85679698D01*
X119030301Y-85858327D01*
X119263690Y-85955000D01*
X119714250Y-85955000D01*
X119873000Y-85796250D01*
X119873000Y-84992000D01*
X118913750Y-84992000D01*
X118755000Y-85150750D01*
X118069357Y-85150750D01*
X118053162Y-85064683D01*
X117914090Y-84848559D01*
X117701890Y-84703569D01*
X117450000Y-84652560D01*
X116797546Y-84652560D01*
X116640839Y-84547852D01*
X116350000Y-84490000D01*
X107250000Y-84490000D01*
X107007414Y-84538254D01*
X106959160Y-84547852D01*
X106712599Y-84712599D01*
X103435198Y-87990000D01*
X98500000Y-87990000D01*
X98209161Y-88047852D01*
X97962599Y-88212599D01*
X96962599Y-89212599D01*
X96797852Y-89459161D01*
X96740000Y-89750000D01*
X96740000Y-128000000D01*
X96797852Y-128290839D01*
X96962599Y-128537401D01*
X99962599Y-131537401D01*
X100209161Y-131702148D01*
X100500000Y-131760000D01*
X104215000Y-131760000D01*
X104215000Y-133000000D01*
X104274755Y-133300407D01*
X104444921Y-133555079D01*
X105444921Y-134555079D01*
X105699594Y-134725245D01*
X106000000Y-134785001D01*
X106000005Y-134785000D01*
X120462494Y-134785000D01*
X120469673Y-134792192D01*
X120813201Y-134934838D01*
X121185167Y-134935162D01*
X121528943Y-134793117D01*
X121537074Y-134785000D01*
X167000000Y-134785000D01*
X167108384Y-134763441D01*
X167218479Y-134753983D01*
X167257402Y-134733799D01*
X167300406Y-134725245D01*
X167392286Y-134663853D01*
X167490386Y-134612982D01*
X172490385Y-130612982D01*
X172518620Y-130579440D01*
X172555079Y-130555079D01*
X172616475Y-130463192D01*
X172687634Y-130378659D01*
X172700884Y-130336864D01*
X172725245Y-130300406D01*
X172746803Y-130192027D01*
X172780199Y-130086689D01*
X172776446Y-130043003D01*
X172785000Y-130000000D01*
X172785000Y-79500000D01*
X172725245Y-79199594D01*
X172555079Y-78944921D01*
X172300406Y-78774755D01*
X172000000Y-78715000D01*
X165000000Y-78715000D01*
X164699594Y-78774755D01*
X164444921Y-78944921D01*
X164274755Y-79199594D01*
X164215000Y-79500000D01*
X164215000Y-82674842D01*
X163574842Y-83315000D01*
X155062630Y-83315000D01*
X155053162Y-83264683D01*
X154914090Y-83048559D01*
X154844289Y-83000866D01*
X154901441Y-82964090D01*
X155046431Y-82751890D01*
X155059977Y-82685000D01*
X155776672Y-82685000D01*
X155806838Y-82845317D01*
X155945910Y-83061441D01*
X156158110Y-83206431D01*
X156410000Y-83257440D01*
X157320000Y-83257440D01*
X157555317Y-83213162D01*
X157771441Y-83074090D01*
X157916431Y-82861890D01*
X157967440Y-82610000D01*
X157967440Y-81390000D01*
X159032560Y-81390000D01*
X159032560Y-82610000D01*
X159076838Y-82845317D01*
X159215910Y-83061441D01*
X159428110Y-83206431D01*
X159680000Y-83257440D01*
X160590000Y-83257440D01*
X160825317Y-83213162D01*
X161041441Y-83074090D01*
X161186431Y-82861890D01*
X161202002Y-82785000D01*
X161500000Y-82785000D01*
X161800407Y-82725245D01*
X162055079Y-82555079D01*
X162175005Y-82435153D01*
X162185167Y-82435162D01*
X162528943Y-82293117D01*
X162792192Y-82030327D01*
X162934838Y-81686799D01*
X162935162Y-81314833D01*
X162793117Y-80971057D01*
X162530327Y-80707808D01*
X162186799Y-80565162D01*
X161814833Y-80564838D01*
X161471057Y-80706883D01*
X161207808Y-80969673D01*
X161155371Y-81095954D01*
X161054090Y-80938559D01*
X160841890Y-80793569D01*
X160590000Y-80742560D01*
X159680000Y-80742560D01*
X159444683Y-80786838D01*
X159228559Y-80925910D01*
X159083569Y-81138110D01*
X159032560Y-81390000D01*
X157967440Y-81390000D01*
X157923162Y-81154683D01*
X157784090Y-80938559D01*
X157571890Y-80793569D01*
X157320000Y-80742560D01*
X156410000Y-80742560D01*
X156174683Y-80786838D01*
X155958559Y-80925910D01*
X155829359Y-81115000D01*
X155062630Y-81115000D01*
X155053162Y-81064683D01*
X154914090Y-80848559D01*
X154701890Y-80703569D01*
X154450000Y-80652560D01*
X153550000Y-80652560D01*
X153314683Y-80696838D01*
X153098559Y-80835910D01*
X152953569Y-81048110D01*
X152947111Y-81080000D01*
X152633712Y-81080000D01*
X152981853Y-80731858D01*
X152981856Y-80731856D01*
X153206215Y-80396077D01*
X153240196Y-80225245D01*
X153285001Y-80000000D01*
X153285000Y-79999995D01*
X153285000Y-77147440D01*
X154750000Y-77147440D01*
X154985317Y-77103162D01*
X155201441Y-76964090D01*
X155346431Y-76751890D01*
X155397440Y-76500000D01*
X155397440Y-73500000D01*
X155353162Y-73264683D01*
X155214090Y-73048559D01*
X155001890Y-72903569D01*
X154750000Y-72852560D01*
X153285000Y-72852560D01*
X153285000Y-69750000D01*
X153206215Y-69353923D01*
X152981856Y-69018144D01*
X152646077Y-68793785D01*
X152250000Y-68715000D01*
X136428711Y-68715000D01*
X134655838Y-66942126D01*
X134887401Y-66787401D01*
X139174802Y-62500000D01*
X143102560Y-62500000D01*
X143102560Y-65500000D01*
X143146838Y-65735317D01*
X143285910Y-65951441D01*
X143498110Y-66096431D01*
X143750000Y-66147440D01*
X145350000Y-66147440D01*
X145585317Y-66103162D01*
X145801441Y-65964090D01*
X145946431Y-65751890D01*
X145997440Y-65500000D01*
X145997440Y-62500000D01*
X147802560Y-62500000D01*
X147802560Y-65500000D01*
X147846838Y-65735317D01*
X147985910Y-65951441D01*
X148198110Y-66096431D01*
X148450000Y-66147440D01*
X150050000Y-66147440D01*
X150285317Y-66103162D01*
X150501441Y-65964090D01*
X150646431Y-65751890D01*
X150697440Y-65500000D01*
X150697440Y-62500000D01*
X150653162Y-62264683D01*
X150514090Y-62048559D01*
X150301890Y-61903569D01*
X150050000Y-61852560D01*
X148450000Y-61852560D01*
X148214683Y-61896838D01*
X147998559Y-62035910D01*
X147853569Y-62248110D01*
X147802560Y-62500000D01*
X145997440Y-62500000D01*
X145953162Y-62264683D01*
X145814090Y-62048559D01*
X145601890Y-61903569D01*
X145350000Y-61852560D01*
X143750000Y-61852560D01*
X143514683Y-61896838D01*
X143298559Y-62035910D01*
X143153569Y-62248110D01*
X143102560Y-62500000D01*
X139174802Y-62500000D01*
X149339680Y-52335122D01*
X149385167Y-52335162D01*
X149728943Y-52193117D01*
X149992192Y-51930327D01*
X150134838Y-51586799D01*
X150135162Y-51214833D01*
X149993117Y-50871057D01*
X149849311Y-50727000D01*
X158750731Y-50727000D01*
X158607808Y-50869673D01*
X158465162Y-51213201D01*
X158465121Y-51260077D01*
X153412599Y-56312599D01*
X153247852Y-56559161D01*
X153190000Y-56850000D01*
X153190000Y-61852560D01*
X153150000Y-61852560D01*
X152914683Y-61896838D01*
X152698559Y-62035910D01*
X152553569Y-62248110D01*
X152502560Y-62500000D01*
X152502560Y-65500000D01*
X152546838Y-65735317D01*
X152685910Y-65951441D01*
X152898110Y-66096431D01*
X153150000Y-66147440D01*
X154750000Y-66147440D01*
X154985317Y-66103162D01*
X155201441Y-65964090D01*
X155346431Y-65751890D01*
X155397440Y-65500000D01*
X155397440Y-63600000D01*
X156640000Y-63600000D01*
X156640000Y-76400000D01*
X156697852Y-76690839D01*
X156862599Y-76937401D01*
X157864878Y-77939680D01*
X157864838Y-77985167D01*
X158006883Y-78328943D01*
X158269673Y-78592192D01*
X158613201Y-78734838D01*
X158985167Y-78735162D01*
X159328943Y-78593117D01*
X159592192Y-78330327D01*
X159734838Y-77986799D01*
X159735162Y-77614833D01*
X159593117Y-77271057D01*
X159330327Y-77007808D01*
X158986799Y-76865162D01*
X158939923Y-76865121D01*
X158160000Y-76085198D01*
X158160000Y-74099039D01*
X159808096Y-74099039D01*
X159825633Y-74181819D01*
X160095500Y-74674896D01*
X160533517Y-75027166D01*
X161073000Y-75185000D01*
X161673000Y-75185000D01*
X161673000Y-73877000D01*
X161927000Y-73877000D01*
X161927000Y-75185000D01*
X162527000Y-75185000D01*
X163066483Y-75027166D01*
X163504500Y-74674896D01*
X163774367Y-74181819D01*
X163791904Y-74099039D01*
X164508096Y-74099039D01*
X164525633Y-74181819D01*
X164795500Y-74674896D01*
X165233517Y-75027166D01*
X165773000Y-75185000D01*
X166373000Y-75185000D01*
X166373000Y-73877000D01*
X166627000Y-73877000D01*
X166627000Y-75185000D01*
X167227000Y-75185000D01*
X167766483Y-75027166D01*
X168204500Y-74674896D01*
X168474367Y-74181819D01*
X168491904Y-74099039D01*
X168369915Y-73877000D01*
X166627000Y-73877000D01*
X166373000Y-73877000D01*
X164630085Y-73877000D01*
X164508096Y-74099039D01*
X163791904Y-74099039D01*
X163669915Y-73877000D01*
X161927000Y-73877000D01*
X161673000Y-73877000D01*
X159930085Y-73877000D01*
X159808096Y-74099039D01*
X158160000Y-74099039D01*
X158160000Y-73400961D01*
X159808096Y-73400961D01*
X159930085Y-73623000D01*
X161673000Y-73623000D01*
X161673000Y-72315000D01*
X161927000Y-72315000D01*
X161927000Y-73623000D01*
X163669915Y-73623000D01*
X163791904Y-73400961D01*
X164508096Y-73400961D01*
X164630085Y-73623000D01*
X166373000Y-73623000D01*
X166373000Y-72315000D01*
X166627000Y-72315000D01*
X166627000Y-73623000D01*
X168369915Y-73623000D01*
X168491904Y-73400961D01*
X168474367Y-73318181D01*
X168204500Y-72825104D01*
X167766483Y-72472834D01*
X167227000Y-72315000D01*
X166627000Y-72315000D01*
X166373000Y-72315000D01*
X165773000Y-72315000D01*
X165233517Y-72472834D01*
X164795500Y-72825104D01*
X164525633Y-73318181D01*
X164508096Y-73400961D01*
X163791904Y-73400961D01*
X163774367Y-73318181D01*
X163504500Y-72825104D01*
X163066483Y-72472834D01*
X162527000Y-72315000D01*
X161927000Y-72315000D01*
X161673000Y-72315000D01*
X161073000Y-72315000D01*
X160533517Y-72472834D01*
X160095500Y-72825104D01*
X159825633Y-73318181D01*
X159808096Y-73400961D01*
X158160000Y-73400961D01*
X158160000Y-69343599D01*
X158264699Y-69343599D01*
X158528281Y-69981515D01*
X159015918Y-70470004D01*
X159653373Y-70734699D01*
X160343599Y-70735301D01*
X160981515Y-70471719D01*
X161470004Y-69984082D01*
X161734699Y-69346627D01*
X161734890Y-69127000D01*
X164565000Y-69127000D01*
X164565000Y-70227000D01*
X164722834Y-70766483D01*
X165075104Y-71204500D01*
X165568181Y-71474367D01*
X165650961Y-71491904D01*
X165873000Y-71369915D01*
X165873000Y-69127000D01*
X164565000Y-69127000D01*
X161734890Y-69127000D01*
X161735301Y-68656401D01*
X161471719Y-68018485D01*
X161226663Y-67773000D01*
X164565000Y-67773000D01*
X164565000Y-68873000D01*
X165873000Y-68873000D01*
X165873000Y-66630085D01*
X166127000Y-66630085D01*
X166127000Y-68873000D01*
X166147000Y-68873000D01*
X166147000Y-69127000D01*
X166127000Y-69127000D01*
X166127000Y-71369915D01*
X166349039Y-71491904D01*
X166431819Y-71474367D01*
X166924896Y-71204500D01*
X167277166Y-70766483D01*
X167435000Y-70227000D01*
X167435000Y-69543507D01*
X167651043Y-70066372D01*
X168180839Y-70597093D01*
X168873405Y-70884672D01*
X169623305Y-70885326D01*
X170316372Y-70598957D01*
X170847093Y-70069161D01*
X171134672Y-69376595D01*
X171135326Y-68626695D01*
X170848957Y-67933628D01*
X170319161Y-67402907D01*
X169626595Y-67115328D01*
X168876695Y-67114674D01*
X168183628Y-67401043D01*
X167652907Y-67930839D01*
X167435000Y-68455616D01*
X167435000Y-67773000D01*
X167277166Y-67233517D01*
X166924896Y-66795500D01*
X166431819Y-66525633D01*
X166349039Y-66508096D01*
X166127000Y-66630085D01*
X165873000Y-66630085D01*
X165650961Y-66508096D01*
X165568181Y-66525633D01*
X165075104Y-66795500D01*
X164722834Y-67233517D01*
X164565000Y-67773000D01*
X161226663Y-67773000D01*
X160984082Y-67529996D01*
X160346627Y-67265301D01*
X159656401Y-67264699D01*
X159018485Y-67528281D01*
X158529996Y-68015918D01*
X158265301Y-68653373D01*
X158264699Y-69343599D01*
X158160000Y-69343599D01*
X158160000Y-64599039D01*
X159808096Y-64599039D01*
X159825633Y-64681819D01*
X160095500Y-65174896D01*
X160533517Y-65527166D01*
X161073000Y-65685000D01*
X161673000Y-65685000D01*
X161673000Y-64377000D01*
X161927000Y-64377000D01*
X161927000Y-65685000D01*
X162527000Y-65685000D01*
X163066483Y-65527166D01*
X163504500Y-65174896D01*
X163774367Y-64681819D01*
X163791904Y-64599039D01*
X164508096Y-64599039D01*
X164525633Y-64681819D01*
X164795500Y-65174896D01*
X165233517Y-65527166D01*
X165773000Y-65685000D01*
X166373000Y-65685000D01*
X166373000Y-64377000D01*
X166627000Y-64377000D01*
X166627000Y-65685000D01*
X167227000Y-65685000D01*
X167766483Y-65527166D01*
X168204500Y-65174896D01*
X168474367Y-64681819D01*
X168491904Y-64599039D01*
X168369915Y-64377000D01*
X166627000Y-64377000D01*
X166373000Y-64377000D01*
X164630085Y-64377000D01*
X164508096Y-64599039D01*
X163791904Y-64599039D01*
X163669915Y-64377000D01*
X161927000Y-64377000D01*
X161673000Y-64377000D01*
X159930085Y-64377000D01*
X159808096Y-64599039D01*
X158160000Y-64599039D01*
X158160000Y-63914802D01*
X158173841Y-63900961D01*
X159808096Y-63900961D01*
X159930085Y-64123000D01*
X161673000Y-64123000D01*
X161673000Y-62815000D01*
X161927000Y-62815000D01*
X161927000Y-64123000D01*
X163669915Y-64123000D01*
X163791904Y-63900961D01*
X164508096Y-63900961D01*
X164630085Y-64123000D01*
X166373000Y-64123000D01*
X166373000Y-62815000D01*
X166627000Y-62815000D01*
X166627000Y-64123000D01*
X168369915Y-64123000D01*
X168491904Y-63900961D01*
X168474367Y-63818181D01*
X168204500Y-63325104D01*
X167766483Y-62972834D01*
X167227000Y-62815000D01*
X166627000Y-62815000D01*
X166373000Y-62815000D01*
X165773000Y-62815000D01*
X165233517Y-62972834D01*
X164795500Y-63325104D01*
X164525633Y-63818181D01*
X164508096Y-63900961D01*
X163791904Y-63900961D01*
X163774367Y-63818181D01*
X163504500Y-63325104D01*
X163066483Y-62972834D01*
X162527000Y-62815000D01*
X161927000Y-62815000D01*
X161673000Y-62815000D01*
X161073000Y-62815000D01*
X160533517Y-62972834D01*
X160095500Y-63325104D01*
X159825633Y-63818181D01*
X159808096Y-63900961D01*
X158173841Y-63900961D01*
X164914802Y-57160000D01*
X169437537Y-57160000D01*
X169469673Y-57192192D01*
X169813201Y-57334838D01*
X170185167Y-57335162D01*
X170528943Y-57193117D01*
X170792192Y-56930327D01*
X170934838Y-56586799D01*
X170935162Y-56214833D01*
X170793117Y-55871057D01*
X170530327Y-55607808D01*
X170186799Y-55465162D01*
X169814833Y-55464838D01*
X169471057Y-55606883D01*
X169437882Y-55640000D01*
X164600000Y-55640000D01*
X164309161Y-55697852D01*
X164062599Y-55862599D01*
X156862599Y-63062599D01*
X156697852Y-63309161D01*
X156640000Y-63600000D01*
X155397440Y-63600000D01*
X155397440Y-62500000D01*
X155353162Y-62264683D01*
X155214090Y-62048559D01*
X155001890Y-61903569D01*
X154750000Y-61852560D01*
X154710000Y-61852560D01*
X154710000Y-57164802D01*
X156432183Y-55442619D01*
X175264613Y-55442619D01*
X175604155Y-56264372D01*
X176232321Y-56893636D01*
X177053481Y-57234611D01*
X177942619Y-57235387D01*
X178764372Y-56895845D01*
X179393636Y-56267679D01*
X179734611Y-55446519D01*
X179735387Y-54557381D01*
X179395845Y-53735628D01*
X178767679Y-53106364D01*
X177946519Y-52765389D01*
X177057381Y-52764613D01*
X176235628Y-53104155D01*
X175606364Y-53732321D01*
X175265389Y-54553481D01*
X175264613Y-55442619D01*
X156432183Y-55442619D01*
X159539680Y-52335122D01*
X159585167Y-52335162D01*
X159928943Y-52193117D01*
X160192192Y-51930327D01*
X160334838Y-51586799D01*
X160335162Y-51214833D01*
X160193117Y-50871057D01*
X160049311Y-50727000D01*
X181273000Y-50727000D01*
X181273000Y-139273000D01*
X92727000Y-139273000D01*
X92727000Y-135442619D01*
X94264613Y-135442619D01*
X94604155Y-136264372D01*
X95232321Y-136893636D01*
X96053481Y-137234611D01*
X96942619Y-137235387D01*
X97764372Y-136895845D01*
X98393636Y-136267679D01*
X98734611Y-135446519D01*
X98734614Y-135442619D01*
X175264613Y-135442619D01*
X175604155Y-136264372D01*
X176232321Y-136893636D01*
X177053481Y-137234611D01*
X177942619Y-137235387D01*
X178764372Y-136895845D01*
X179393636Y-136267679D01*
X179734611Y-135446519D01*
X179735387Y-134557381D01*
X179395845Y-133735628D01*
X178767679Y-133106364D01*
X177946519Y-132765389D01*
X177057381Y-132764613D01*
X176235628Y-133104155D01*
X175606364Y-133732321D01*
X175265389Y-134553481D01*
X175264613Y-135442619D01*
X98734614Y-135442619D01*
X98735387Y-134557381D01*
X98395845Y-133735628D01*
X97767679Y-133106364D01*
X96946519Y-132765389D01*
X96057381Y-132764613D01*
X95235628Y-133104155D01*
X94606364Y-133732321D01*
X94265389Y-134553481D01*
X94264613Y-135442619D01*
X92727000Y-135442619D01*
X92727000Y-87297175D01*
X99882430Y-87297175D01*
X100005565Y-87584788D01*
X100687734Y-87844707D01*
X101417443Y-87823786D01*
X101994435Y-87584788D01*
X102117570Y-87297175D01*
X101000000Y-86179605D01*
X99882430Y-87297175D01*
X92727000Y-87297175D01*
X92727000Y-85687734D01*
X99155293Y-85687734D01*
X99176214Y-86417443D01*
X99415212Y-86994435D01*
X99702825Y-87117570D01*
X100820395Y-86000000D01*
X101179605Y-86000000D01*
X102297175Y-87117570D01*
X102584788Y-86994435D01*
X102844707Y-86312266D01*
X102823786Y-85582557D01*
X102584788Y-85005565D01*
X102297175Y-84882430D01*
X101179605Y-86000000D01*
X100820395Y-86000000D01*
X99702825Y-84882430D01*
X99415212Y-85005565D01*
X99155293Y-85687734D01*
X92727000Y-85687734D01*
X92727000Y-81300000D01*
X99152560Y-81300000D01*
X99152560Y-83700000D01*
X99196838Y-83935317D01*
X99335910Y-84151441D01*
X99548110Y-84296431D01*
X99800000Y-84347440D01*
X100169181Y-84347440D01*
X100005565Y-84415212D01*
X99882430Y-84702825D01*
X101000000Y-85820395D01*
X102117570Y-84702825D01*
X101994435Y-84415212D01*
X101816564Y-84347440D01*
X102200000Y-84347440D01*
X102435317Y-84303162D01*
X102465575Y-84283691D01*
X118755000Y-84283691D01*
X118755000Y-84579250D01*
X118913750Y-84738000D01*
X119873000Y-84738000D01*
X119873000Y-83933750D01*
X119714250Y-83775000D01*
X119263690Y-83775000D01*
X119030301Y-83871673D01*
X118851673Y-84050302D01*
X118755000Y-84283691D01*
X102465575Y-84283691D01*
X102651441Y-84164090D01*
X102796431Y-83951890D01*
X102847440Y-83700000D01*
X102847440Y-82935167D01*
X109814838Y-82935167D01*
X109956883Y-83278943D01*
X110219673Y-83542192D01*
X110563201Y-83684838D01*
X110935167Y-83685162D01*
X111278943Y-83543117D01*
X111542192Y-83280327D01*
X111628560Y-83072330D01*
X112208521Y-82637359D01*
X119026907Y-77935024D01*
X119185167Y-77935162D01*
X119528943Y-77793117D01*
X119792192Y-77530327D01*
X119934838Y-77186799D01*
X119935162Y-76814833D01*
X119793117Y-76471057D01*
X119530327Y-76207808D01*
X119186799Y-76065162D01*
X118814833Y-76064838D01*
X118471057Y-76206883D01*
X118207808Y-76469673D01*
X118136189Y-76642151D01*
X111304330Y-81353778D01*
X111293290Y-81365147D01*
X111279000Y-81372000D01*
X110688406Y-81814946D01*
X110564833Y-81814838D01*
X110221057Y-81956883D01*
X109957808Y-82219673D01*
X109815162Y-82563201D01*
X109814838Y-82935167D01*
X102847440Y-82935167D01*
X102847440Y-81300000D01*
X102803162Y-81064683D01*
X102664090Y-80848559D01*
X102451890Y-80703569D01*
X102200000Y-80652560D01*
X99800000Y-80652560D01*
X99564683Y-80696838D01*
X99348559Y-80835910D01*
X99203569Y-81048110D01*
X99152560Y-81300000D01*
X92727000Y-81300000D01*
X92727000Y-55442619D01*
X94264613Y-55442619D01*
X94604155Y-56264372D01*
X95232321Y-56893636D01*
X96053481Y-57234611D01*
X96942619Y-57235387D01*
X97764372Y-56895845D01*
X98393636Y-56267679D01*
X98734611Y-55446519D01*
X98735387Y-54557381D01*
X98395845Y-53735628D01*
X97767679Y-53106364D01*
X96946519Y-52765389D01*
X96057381Y-52764613D01*
X95235628Y-53104155D01*
X94606364Y-53732321D01*
X94265389Y-54553481D01*
X94264613Y-55442619D01*
X92727000Y-55442619D01*
X92727000Y-50727000D01*
X148550731Y-50727000D01*
X148407808Y-50869673D01*
G36*
X149742560Y-82012282D02*
X145944921Y-85809921D01*
X145774755Y-86064593D01*
X145747740Y-86200406D01*
X145715000Y-86365000D01*
X145715000Y-122424842D01*
X143324995Y-124814847D01*
X143314833Y-124814838D01*
X142971057Y-124956883D01*
X142707808Y-125219673D01*
X142565162Y-125563201D01*
X142564838Y-125935167D01*
X142706883Y-126278943D01*
X142969673Y-126542192D01*
X143313201Y-126684838D01*
X143685167Y-126685162D01*
X144028943Y-126543117D01*
X144292192Y-126280327D01*
X144434838Y-125936799D01*
X144434848Y-125925310D01*
X146965000Y-123395158D01*
X146965000Y-123674842D01*
X143074995Y-127564847D01*
X143064833Y-127564838D01*
X142721057Y-127706883D01*
X142457808Y-127969673D01*
X142315162Y-128313201D01*
X142314838Y-128685167D01*
X142456883Y-129028943D01*
X142719673Y-129292192D01*
X143063201Y-129434838D01*
X143435167Y-129435162D01*
X143565103Y-129381474D01*
X143564838Y-129685167D01*
X143706883Y-130028943D01*
X143969673Y-130292192D01*
X144313201Y-130434838D01*
X144685167Y-130435162D01*
X145028943Y-130293117D01*
X145105048Y-130217144D01*
X145065162Y-130313201D01*
X145064838Y-130685167D01*
X145206883Y-131028943D01*
X145469673Y-131292192D01*
X145813201Y-131434838D01*
X146185167Y-131435162D01*
X146528943Y-131293117D01*
X146792192Y-131030327D01*
X146934838Y-130686799D01*
X146934848Y-130675310D01*
X150810158Y-126800000D01*
X167152560Y-126800000D01*
X167152560Y-129200000D01*
X167196838Y-129435317D01*
X167335910Y-129651441D01*
X167548110Y-129796431D01*
X167800000Y-129847440D01*
X170200000Y-129847440D01*
X170435317Y-129803162D01*
X170651441Y-129664090D01*
X170796431Y-129451890D01*
X170847440Y-129200000D01*
X170847440Y-126800000D01*
X170803162Y-126564683D01*
X170664090Y-126348559D01*
X170451890Y-126203569D01*
X170200000Y-126152560D01*
X169830819Y-126152560D01*
X169994435Y-126084788D01*
X170117570Y-125797175D01*
X169000000Y-124679605D01*
X167882430Y-125797175D01*
X168005565Y-126084788D01*
X168183436Y-126152560D01*
X167800000Y-126152560D01*
X167564683Y-126196838D01*
X167348559Y-126335910D01*
X167203569Y-126548110D01*
X167152560Y-126800000D01*
X150810158Y-126800000D01*
X151325158Y-126285000D01*
X152100000Y-126285000D01*
X152400407Y-126225245D01*
X152655079Y-126055079D01*
X153862718Y-124847440D01*
X154450000Y-124847440D01*
X154685317Y-124803162D01*
X154901441Y-124664090D01*
X155046431Y-124451890D01*
X155059977Y-124385000D01*
X155832373Y-124385000D01*
X155945910Y-124561441D01*
X156158110Y-124706431D01*
X156410000Y-124757440D01*
X157320000Y-124757440D01*
X157555317Y-124713162D01*
X157771441Y-124574090D01*
X157916431Y-124361890D01*
X157967440Y-124110000D01*
X157967440Y-122890000D01*
X159032560Y-122890000D01*
X159032560Y-124110000D01*
X159076838Y-124345317D01*
X159215910Y-124561441D01*
X159428110Y-124706431D01*
X159680000Y-124757440D01*
X160590000Y-124757440D01*
X160825317Y-124713162D01*
X161041441Y-124574090D01*
X161186431Y-124361890D01*
X161202002Y-124285000D01*
X161500000Y-124285000D01*
X161800407Y-124225245D01*
X161856546Y-124187734D01*
X167155293Y-124187734D01*
X167176214Y-124917443D01*
X167415212Y-125494435D01*
X167702825Y-125617570D01*
X168820395Y-124500000D01*
X169179605Y-124500000D01*
X170297175Y-125617570D01*
X170584788Y-125494435D01*
X170844707Y-124812266D01*
X170823786Y-124082557D01*
X170584788Y-123505565D01*
X170297175Y-123382430D01*
X169179605Y-124500000D01*
X168820395Y-124500000D01*
X167702825Y-123382430D01*
X167415212Y-123505565D01*
X167155293Y-124187734D01*
X161856546Y-124187734D01*
X162055079Y-124055079D01*
X162175005Y-123935153D01*
X162185167Y-123935162D01*
X162528943Y-123793117D01*
X162792192Y-123530327D01*
X162928183Y-123202825D01*
X167882430Y-123202825D01*
X169000000Y-124320395D01*
X170117570Y-123202825D01*
X169994435Y-122915212D01*
X169312266Y-122655293D01*
X168582557Y-122676214D01*
X168005565Y-122915212D01*
X167882430Y-123202825D01*
X162928183Y-123202825D01*
X162934838Y-123186799D01*
X162935162Y-122814833D01*
X162793117Y-122471057D01*
X162530327Y-122207808D01*
X162186799Y-122065162D01*
X161814833Y-122064838D01*
X161471057Y-122206883D01*
X161207808Y-122469673D01*
X161155371Y-122595954D01*
X161054090Y-122438559D01*
X160841890Y-122293569D01*
X160590000Y-122242560D01*
X159680000Y-122242560D01*
X159444683Y-122286838D01*
X159228559Y-122425910D01*
X159083569Y-122638110D01*
X159032560Y-122890000D01*
X157967440Y-122890000D01*
X157923162Y-122654683D01*
X157784090Y-122438559D01*
X157571890Y-122293569D01*
X157320000Y-122242560D01*
X156410000Y-122242560D01*
X156174683Y-122286838D01*
X155958559Y-122425910D01*
X155813569Y-122638110D01*
X155777748Y-122815000D01*
X155062630Y-122815000D01*
X155053162Y-122764683D01*
X154914090Y-122548559D01*
X154844289Y-122500866D01*
X154901441Y-122464090D01*
X155046431Y-122251890D01*
X155059977Y-122185000D01*
X155600000Y-122185000D01*
X155900407Y-122125245D01*
X156155079Y-121955079D01*
X156825158Y-121285000D01*
X171215000Y-121285000D01*
X171215000Y-129622709D01*
X166724637Y-133215000D01*
X121537506Y-133215000D01*
X121530327Y-133207808D01*
X121186799Y-133065162D01*
X120814833Y-133064838D01*
X120471057Y-133206883D01*
X120462926Y-133215000D01*
X106325158Y-133215000D01*
X105785000Y-132674842D01*
X105785000Y-128785000D01*
X109104842Y-128785000D01*
X108824995Y-129064847D01*
X108814833Y-129064838D01*
X108471057Y-129206883D01*
X108207808Y-129469673D01*
X108065162Y-129813201D01*
X108064838Y-130185167D01*
X108206883Y-130528943D01*
X108469673Y-130792192D01*
X108813201Y-130934838D01*
X109185167Y-130935162D01*
X109528943Y-130793117D01*
X109792192Y-130530327D01*
X109934838Y-130186799D01*
X109934848Y-130175310D01*
X110006986Y-130103172D01*
X110158110Y-130206431D01*
X110410000Y-130257440D01*
X111320000Y-130257440D01*
X111555317Y-130213162D01*
X111771441Y-130074090D01*
X111916431Y-129861890D01*
X111967440Y-129610000D01*
X111967440Y-128390000D01*
X111923162Y-128154683D01*
X111784090Y-127938559D01*
X111571890Y-127793569D01*
X111359582Y-127750576D01*
X111425158Y-127685000D01*
X115937370Y-127685000D01*
X115946838Y-127735317D01*
X116085910Y-127951441D01*
X116155711Y-127999134D01*
X116098559Y-128035910D01*
X115976192Y-128215000D01*
X115204511Y-128215000D01*
X115193162Y-128154683D01*
X115054090Y-127938559D01*
X114841890Y-127793569D01*
X114590000Y-127742560D01*
X113680000Y-127742560D01*
X113444683Y-127786838D01*
X113228559Y-127925910D01*
X113083569Y-128138110D01*
X113032560Y-128390000D01*
X113032560Y-129610000D01*
X113076838Y-129845317D01*
X113215910Y-130061441D01*
X113428110Y-130206431D01*
X113680000Y-130257440D01*
X114590000Y-130257440D01*
X114825317Y-130213162D01*
X115041441Y-130074090D01*
X115186431Y-129861890D01*
X115202002Y-129785000D01*
X115918554Y-129785000D01*
X115946838Y-129935317D01*
X116085910Y-130151441D01*
X116298110Y-130296431D01*
X116550000Y-130347440D01*
X117450000Y-130347440D01*
X117685317Y-130303162D01*
X117901441Y-130164090D01*
X118046431Y-129951890D01*
X118059977Y-129885000D01*
X118825243Y-129885000D01*
X118925910Y-130041441D01*
X119138110Y-130186431D01*
X119390000Y-130237440D01*
X120610000Y-130237440D01*
X120845317Y-130193162D01*
X121061441Y-130054090D01*
X121206431Y-129841890D01*
X121257440Y-129590000D01*
X121257440Y-129201698D01*
X121715000Y-128496362D01*
X121715000Y-130712494D01*
X121707808Y-130719673D01*
X121565162Y-131063201D01*
X121564838Y-131435167D01*
X121706883Y-131778943D01*
X121969673Y-132042192D01*
X122313201Y-132184838D01*
X122685167Y-132185162D01*
X123028943Y-132043117D01*
X123292192Y-131780327D01*
X123434838Y-131436799D01*
X123435162Y-131064833D01*
X123293117Y-130721057D01*
X123285000Y-130712926D01*
X123285000Y-130145158D01*
X124814847Y-131675005D01*
X124814838Y-131685167D01*
X124956883Y-132028943D01*
X125219673Y-132292192D01*
X125563201Y-132434838D01*
X125935167Y-132435162D01*
X126278943Y-132293117D01*
X126542192Y-132030327D01*
X126684838Y-131686799D01*
X126685022Y-131476034D01*
X126706883Y-131528943D01*
X126969673Y-131792192D01*
X127313201Y-131934838D01*
X127685167Y-131935162D01*
X128028943Y-131793117D01*
X128292192Y-131530327D01*
X128434838Y-131186799D01*
X128435162Y-130814833D01*
X128293117Y-130471057D01*
X128030327Y-130207808D01*
X127686799Y-130065162D01*
X127675309Y-130065152D01*
X124785000Y-127174842D01*
X124785000Y-118573643D01*
X124825000Y-118590252D01*
X124825000Y-126610000D01*
X124884755Y-126910407D01*
X125054921Y-127165079D01*
X128944921Y-131055079D01*
X129199594Y-131225245D01*
X129500000Y-131285000D01*
X130462494Y-131285000D01*
X130469673Y-131292192D01*
X130813201Y-131434838D01*
X131185167Y-131435162D01*
X131528943Y-131293117D01*
X131792192Y-131030327D01*
X131934838Y-130686799D01*
X131935162Y-130314833D01*
X131793117Y-129971057D01*
X131530327Y-129707808D01*
X131186799Y-129565162D01*
X130814833Y-129564838D01*
X130471057Y-129706883D01*
X130462926Y-129715000D01*
X129825158Y-129715000D01*
X126395000Y-126284842D01*
X126395000Y-118590617D01*
X126506657Y-118544481D01*
X126673000Y-118378428D01*
X126673000Y-126400000D01*
X126681685Y-126446159D01*
X126708965Y-126488553D01*
X126750590Y-126516994D01*
X126800000Y-126527000D01*
X142200000Y-126527000D01*
X142246159Y-126518315D01*
X142288553Y-126491035D01*
X142316994Y-126449410D01*
X142327000Y-126400000D01*
X142327000Y-118378630D01*
X142490997Y-118542914D01*
X143073341Y-118784724D01*
X143703893Y-118785275D01*
X144286657Y-118544481D01*
X144732914Y-118099003D01*
X144974724Y-117516659D01*
X144975275Y-116886107D01*
X144734481Y-116303343D01*
X144361529Y-115929739D01*
X144732914Y-115559003D01*
X144974724Y-114976659D01*
X144975275Y-114346107D01*
X144734481Y-113763343D01*
X144361529Y-113389739D01*
X144732914Y-113019003D01*
X144974724Y-112436659D01*
X144975275Y-111806107D01*
X144734481Y-111223343D01*
X144361529Y-110849739D01*
X144732914Y-110479003D01*
X144974724Y-109896659D01*
X144975275Y-109266107D01*
X144734481Y-108683343D01*
X144361529Y-108309739D01*
X144732914Y-107939003D01*
X144974724Y-107356659D01*
X144975275Y-106726107D01*
X144734481Y-106143343D01*
X144361529Y-105769739D01*
X144732914Y-105399003D01*
X144974724Y-104816659D01*
X144975275Y-104186107D01*
X144734481Y-103603343D01*
X144361529Y-103229739D01*
X144732914Y-102859003D01*
X144974724Y-102276659D01*
X144975275Y-101646107D01*
X144734481Y-101063343D01*
X144361529Y-100689739D01*
X144732914Y-100319003D01*
X144974724Y-99736659D01*
X144975275Y-99106107D01*
X144734481Y-98523343D01*
X144361529Y-98149739D01*
X144732914Y-97779003D01*
X144974724Y-97196659D01*
X144975275Y-96566107D01*
X144734481Y-95983343D01*
X144361529Y-95609739D01*
X144732914Y-95239003D01*
X144974724Y-94656659D01*
X144975275Y-94026107D01*
X144734481Y-93443343D01*
X144361529Y-93069739D01*
X144732914Y-92699003D01*
X144974724Y-92116659D01*
X144975275Y-91486107D01*
X144734481Y-90903343D01*
X144361529Y-90529739D01*
X144732914Y-90159003D01*
X144974724Y-89576659D01*
X144975275Y-88946107D01*
X144734481Y-88363343D01*
X144289003Y-87917086D01*
X143911844Y-87760476D01*
X143535000Y-86803547D01*
X143535000Y-81535000D01*
X149742560Y-81535000D01*
X149742560Y-82012282D01*
X149742560Y-82012282D01*
G37*
X149742560Y-82012282D02*
X145944921Y-85809921D01*
X145774755Y-86064593D01*
X145747740Y-86200406D01*
X145715000Y-86365000D01*
X145715000Y-122424842D01*
X143324995Y-124814847D01*
X143314833Y-124814838D01*
X142971057Y-124956883D01*
X142707808Y-125219673D01*
X142565162Y-125563201D01*
X142564838Y-125935167D01*
X142706883Y-126278943D01*
X142969673Y-126542192D01*
X143313201Y-126684838D01*
X143685167Y-126685162D01*
X144028943Y-126543117D01*
X144292192Y-126280327D01*
X144434838Y-125936799D01*
X144434848Y-125925310D01*
X146965000Y-123395158D01*
X146965000Y-123674842D01*
X143074995Y-127564847D01*
X143064833Y-127564838D01*
X142721057Y-127706883D01*
X142457808Y-127969673D01*
X142315162Y-128313201D01*
X142314838Y-128685167D01*
X142456883Y-129028943D01*
X142719673Y-129292192D01*
X143063201Y-129434838D01*
X143435167Y-129435162D01*
X143565103Y-129381474D01*
X143564838Y-129685167D01*
X143706883Y-130028943D01*
X143969673Y-130292192D01*
X144313201Y-130434838D01*
X144685167Y-130435162D01*
X145028943Y-130293117D01*
X145105048Y-130217144D01*
X145065162Y-130313201D01*
X145064838Y-130685167D01*
X145206883Y-131028943D01*
X145469673Y-131292192D01*
X145813201Y-131434838D01*
X146185167Y-131435162D01*
X146528943Y-131293117D01*
X146792192Y-131030327D01*
X146934838Y-130686799D01*
X146934848Y-130675310D01*
X150810158Y-126800000D01*
X167152560Y-126800000D01*
X167152560Y-129200000D01*
X167196838Y-129435317D01*
X167335910Y-129651441D01*
X167548110Y-129796431D01*
X167800000Y-129847440D01*
X170200000Y-129847440D01*
X170435317Y-129803162D01*
X170651441Y-129664090D01*
X170796431Y-129451890D01*
X170847440Y-129200000D01*
X170847440Y-126800000D01*
X170803162Y-126564683D01*
X170664090Y-126348559D01*
X170451890Y-126203569D01*
X170200000Y-126152560D01*
X169830819Y-126152560D01*
X169994435Y-126084788D01*
X170117570Y-125797175D01*
X169000000Y-124679605D01*
X167882430Y-125797175D01*
X168005565Y-126084788D01*
X168183436Y-126152560D01*
X167800000Y-126152560D01*
X167564683Y-126196838D01*
X167348559Y-126335910D01*
X167203569Y-126548110D01*
X167152560Y-126800000D01*
X150810158Y-126800000D01*
X151325158Y-126285000D01*
X152100000Y-126285000D01*
X152400407Y-126225245D01*
X152655079Y-126055079D01*
X153862718Y-124847440D01*
X154450000Y-124847440D01*
X154685317Y-124803162D01*
X154901441Y-124664090D01*
X155046431Y-124451890D01*
X155059977Y-124385000D01*
X155832373Y-124385000D01*
X155945910Y-124561441D01*
X156158110Y-124706431D01*
X156410000Y-124757440D01*
X157320000Y-124757440D01*
X157555317Y-124713162D01*
X157771441Y-124574090D01*
X157916431Y-124361890D01*
X157967440Y-124110000D01*
X157967440Y-122890000D01*
X159032560Y-122890000D01*
X159032560Y-124110000D01*
X159076838Y-124345317D01*
X159215910Y-124561441D01*
X159428110Y-124706431D01*
X159680000Y-124757440D01*
X160590000Y-124757440D01*
X160825317Y-124713162D01*
X161041441Y-124574090D01*
X161186431Y-124361890D01*
X161202002Y-124285000D01*
X161500000Y-124285000D01*
X161800407Y-124225245D01*
X161856546Y-124187734D01*
X167155293Y-124187734D01*
X167176214Y-124917443D01*
X167415212Y-125494435D01*
X167702825Y-125617570D01*
X168820395Y-124500000D01*
X169179605Y-124500000D01*
X170297175Y-125617570D01*
X170584788Y-125494435D01*
X170844707Y-124812266D01*
X170823786Y-124082557D01*
X170584788Y-123505565D01*
X170297175Y-123382430D01*
X169179605Y-124500000D01*
X168820395Y-124500000D01*
X167702825Y-123382430D01*
X167415212Y-123505565D01*
X167155293Y-124187734D01*
X161856546Y-124187734D01*
X162055079Y-124055079D01*
X162175005Y-123935153D01*
X162185167Y-123935162D01*
X162528943Y-123793117D01*
X162792192Y-123530327D01*
X162928183Y-123202825D01*
X167882430Y-123202825D01*
X169000000Y-124320395D01*
X170117570Y-123202825D01*
X169994435Y-122915212D01*
X169312266Y-122655293D01*
X168582557Y-122676214D01*
X168005565Y-122915212D01*
X167882430Y-123202825D01*
X162928183Y-123202825D01*
X162934838Y-123186799D01*
X162935162Y-122814833D01*
X162793117Y-122471057D01*
X162530327Y-122207808D01*
X162186799Y-122065162D01*
X161814833Y-122064838D01*
X161471057Y-122206883D01*
X161207808Y-122469673D01*
X161155371Y-122595954D01*
X161054090Y-122438559D01*
X160841890Y-122293569D01*
X160590000Y-122242560D01*
X159680000Y-122242560D01*
X159444683Y-122286838D01*
X159228559Y-122425910D01*
X159083569Y-122638110D01*
X159032560Y-122890000D01*
X157967440Y-122890000D01*
X157923162Y-122654683D01*
X157784090Y-122438559D01*
X157571890Y-122293569D01*
X157320000Y-122242560D01*
X156410000Y-122242560D01*
X156174683Y-122286838D01*
X155958559Y-122425910D01*
X155813569Y-122638110D01*
X155777748Y-122815000D01*
X155062630Y-122815000D01*
X155053162Y-122764683D01*
X154914090Y-122548559D01*
X154844289Y-122500866D01*
X154901441Y-122464090D01*
X155046431Y-122251890D01*
X155059977Y-122185000D01*
X155600000Y-122185000D01*
X155900407Y-122125245D01*
X156155079Y-121955079D01*
X156825158Y-121285000D01*
X171215000Y-121285000D01*
X171215000Y-129622709D01*
X166724637Y-133215000D01*
X121537506Y-133215000D01*
X121530327Y-133207808D01*
X121186799Y-133065162D01*
X120814833Y-133064838D01*
X120471057Y-133206883D01*
X120462926Y-133215000D01*
X106325158Y-133215000D01*
X105785000Y-132674842D01*
X105785000Y-128785000D01*
X109104842Y-128785000D01*
X108824995Y-129064847D01*
X108814833Y-129064838D01*
X108471057Y-129206883D01*
X108207808Y-129469673D01*
X108065162Y-129813201D01*
X108064838Y-130185167D01*
X108206883Y-130528943D01*
X108469673Y-130792192D01*
X108813201Y-130934838D01*
X109185167Y-130935162D01*
X109528943Y-130793117D01*
X109792192Y-130530327D01*
X109934838Y-130186799D01*
X109934848Y-130175310D01*
X110006986Y-130103172D01*
X110158110Y-130206431D01*
X110410000Y-130257440D01*
X111320000Y-130257440D01*
X111555317Y-130213162D01*
X111771441Y-130074090D01*
X111916431Y-129861890D01*
X111967440Y-129610000D01*
X111967440Y-128390000D01*
X111923162Y-128154683D01*
X111784090Y-127938559D01*
X111571890Y-127793569D01*
X111359582Y-127750576D01*
X111425158Y-127685000D01*
X115937370Y-127685000D01*
X115946838Y-127735317D01*
X116085910Y-127951441D01*
X116155711Y-127999134D01*
X116098559Y-128035910D01*
X115976192Y-128215000D01*
X115204511Y-128215000D01*
X115193162Y-128154683D01*
X115054090Y-127938559D01*
X114841890Y-127793569D01*
X114590000Y-127742560D01*
X113680000Y-127742560D01*
X113444683Y-127786838D01*
X113228559Y-127925910D01*
X113083569Y-128138110D01*
X113032560Y-128390000D01*
X113032560Y-129610000D01*
X113076838Y-129845317D01*
X113215910Y-130061441D01*
X113428110Y-130206431D01*
X113680000Y-130257440D01*
X114590000Y-130257440D01*
X114825317Y-130213162D01*
X115041441Y-130074090D01*
X115186431Y-129861890D01*
X115202002Y-129785000D01*
X115918554Y-129785000D01*
X115946838Y-129935317D01*
X116085910Y-130151441D01*
X116298110Y-130296431D01*
X116550000Y-130347440D01*
X117450000Y-130347440D01*
X117685317Y-130303162D01*
X117901441Y-130164090D01*
X118046431Y-129951890D01*
X118059977Y-129885000D01*
X118825243Y-129885000D01*
X118925910Y-130041441D01*
X119138110Y-130186431D01*
X119390000Y-130237440D01*
X120610000Y-130237440D01*
X120845317Y-130193162D01*
X121061441Y-130054090D01*
X121206431Y-129841890D01*
X121257440Y-129590000D01*
X121257440Y-129201698D01*
X121715000Y-128496362D01*
X121715000Y-130712494D01*
X121707808Y-130719673D01*
X121565162Y-131063201D01*
X121564838Y-131435167D01*
X121706883Y-131778943D01*
X121969673Y-132042192D01*
X122313201Y-132184838D01*
X122685167Y-132185162D01*
X123028943Y-132043117D01*
X123292192Y-131780327D01*
X123434838Y-131436799D01*
X123435162Y-131064833D01*
X123293117Y-130721057D01*
X123285000Y-130712926D01*
X123285000Y-130145158D01*
X124814847Y-131675005D01*
X124814838Y-131685167D01*
X124956883Y-132028943D01*
X125219673Y-132292192D01*
X125563201Y-132434838D01*
X125935167Y-132435162D01*
X126278943Y-132293117D01*
X126542192Y-132030327D01*
X126684838Y-131686799D01*
X126685022Y-131476034D01*
X126706883Y-131528943D01*
X126969673Y-131792192D01*
X127313201Y-131934838D01*
X127685167Y-131935162D01*
X128028943Y-131793117D01*
X128292192Y-131530327D01*
X128434838Y-131186799D01*
X128435162Y-130814833D01*
X128293117Y-130471057D01*
X128030327Y-130207808D01*
X127686799Y-130065162D01*
X127675309Y-130065152D01*
X124785000Y-127174842D01*
X124785000Y-118573643D01*
X124825000Y-118590252D01*
X124825000Y-126610000D01*
X124884755Y-126910407D01*
X125054921Y-127165079D01*
X128944921Y-131055079D01*
X129199594Y-131225245D01*
X129500000Y-131285000D01*
X130462494Y-131285000D01*
X130469673Y-131292192D01*
X130813201Y-131434838D01*
X131185167Y-131435162D01*
X131528943Y-131293117D01*
X131792192Y-131030327D01*
X131934838Y-130686799D01*
X131935162Y-130314833D01*
X131793117Y-129971057D01*
X131530327Y-129707808D01*
X131186799Y-129565162D01*
X130814833Y-129564838D01*
X130471057Y-129706883D01*
X130462926Y-129715000D01*
X129825158Y-129715000D01*
X126395000Y-126284842D01*
X126395000Y-118590617D01*
X126506657Y-118544481D01*
X126673000Y-118378428D01*
X126673000Y-126400000D01*
X126681685Y-126446159D01*
X126708965Y-126488553D01*
X126750590Y-126516994D01*
X126800000Y-126527000D01*
X142200000Y-126527000D01*
X142246159Y-126518315D01*
X142288553Y-126491035D01*
X142316994Y-126449410D01*
X142327000Y-126400000D01*
X142327000Y-118378630D01*
X142490997Y-118542914D01*
X143073341Y-118784724D01*
X143703893Y-118785275D01*
X144286657Y-118544481D01*
X144732914Y-118099003D01*
X144974724Y-117516659D01*
X144975275Y-116886107D01*
X144734481Y-116303343D01*
X144361529Y-115929739D01*
X144732914Y-115559003D01*
X144974724Y-114976659D01*
X144975275Y-114346107D01*
X144734481Y-113763343D01*
X144361529Y-113389739D01*
X144732914Y-113019003D01*
X144974724Y-112436659D01*
X144975275Y-111806107D01*
X144734481Y-111223343D01*
X144361529Y-110849739D01*
X144732914Y-110479003D01*
X144974724Y-109896659D01*
X144975275Y-109266107D01*
X144734481Y-108683343D01*
X144361529Y-108309739D01*
X144732914Y-107939003D01*
X144974724Y-107356659D01*
X144975275Y-106726107D01*
X144734481Y-106143343D01*
X144361529Y-105769739D01*
X144732914Y-105399003D01*
X144974724Y-104816659D01*
X144975275Y-104186107D01*
X144734481Y-103603343D01*
X144361529Y-103229739D01*
X144732914Y-102859003D01*
X144974724Y-102276659D01*
X144975275Y-101646107D01*
X144734481Y-101063343D01*
X144361529Y-100689739D01*
X144732914Y-100319003D01*
X144974724Y-99736659D01*
X144975275Y-99106107D01*
X144734481Y-98523343D01*
X144361529Y-98149739D01*
X144732914Y-97779003D01*
X144974724Y-97196659D01*
X144975275Y-96566107D01*
X144734481Y-95983343D01*
X144361529Y-95609739D01*
X144732914Y-95239003D01*
X144974724Y-94656659D01*
X144975275Y-94026107D01*
X144734481Y-93443343D01*
X144361529Y-93069739D01*
X144732914Y-92699003D01*
X144974724Y-92116659D01*
X144975275Y-91486107D01*
X144734481Y-90903343D01*
X144361529Y-90529739D01*
X144732914Y-90159003D01*
X144974724Y-89576659D01*
X144975275Y-88946107D01*
X144734481Y-88363343D01*
X144289003Y-87917086D01*
X143911844Y-87760476D01*
X143535000Y-86803547D01*
X143535000Y-81535000D01*
X149742560Y-81535000D01*
X149742560Y-82012282D01*
G36*
X109313569Y-114138110D02*
X109297998Y-114215000D01*
X109000005Y-114215000D01*
X109000000Y-114214999D01*
X108699594Y-114274755D01*
X108444921Y-114444921D01*
X107824995Y-115064847D01*
X107814833Y-115064838D01*
X107471057Y-115206883D01*
X107207808Y-115469673D01*
X107065162Y-115813201D01*
X107064838Y-116185167D01*
X107206883Y-116528943D01*
X107469673Y-116792192D01*
X107813201Y-116934838D01*
X108185167Y-116935162D01*
X108528943Y-116793117D01*
X108792192Y-116530327D01*
X108934838Y-116186799D01*
X108934848Y-116175310D01*
X109300187Y-115809971D01*
X109306838Y-115845317D01*
X109445910Y-116061441D01*
X109658110Y-116206431D01*
X109910000Y-116257440D01*
X110820000Y-116257440D01*
X111055317Y-116213162D01*
X111271441Y-116074090D01*
X111416431Y-115861890D01*
X111467440Y-115610000D01*
X111467440Y-114390000D01*
X111423162Y-114154683D01*
X111330061Y-114010000D01*
X112671103Y-114010000D01*
X112583569Y-114138110D01*
X112532560Y-114390000D01*
X112532560Y-115610000D01*
X112576838Y-115845317D01*
X112715910Y-116061441D01*
X112928110Y-116206431D01*
X113180000Y-116257440D01*
X114090000Y-116257440D01*
X114325317Y-116213162D01*
X114541441Y-116074090D01*
X114686431Y-115861890D01*
X114702002Y-115785000D01*
X115918554Y-115785000D01*
X115946838Y-115935317D01*
X116085910Y-116151441D01*
X116298110Y-116296431D01*
X116550000Y-116347440D01*
X117450000Y-116347440D01*
X117685317Y-116303162D01*
X117901441Y-116164090D01*
X118046431Y-115951890D01*
X118059977Y-115885000D01*
X118825243Y-115885000D01*
X118925910Y-116041441D01*
X118960338Y-116064965D01*
X118814833Y-116064838D01*
X118471057Y-116206883D01*
X118207808Y-116469673D01*
X118080637Y-116775933D01*
X110360504Y-123814878D01*
X110314833Y-123814838D01*
X109971057Y-123956883D01*
X109707808Y-124219673D01*
X109565162Y-124563201D01*
X109564838Y-124935167D01*
X109706883Y-125278943D01*
X109969673Y-125542192D01*
X110313201Y-125684838D01*
X110685167Y-125685162D01*
X111028943Y-125543117D01*
X111288822Y-125283691D01*
X118755000Y-125283691D01*
X118755000Y-125579250D01*
X118913750Y-125738000D01*
X119873000Y-125738000D01*
X119873000Y-124933750D01*
X119714250Y-124775000D01*
X119263690Y-124775000D01*
X119030301Y-124871673D01*
X118851673Y-125050302D01*
X118755000Y-125283691D01*
X111288822Y-125283691D01*
X111292192Y-125280327D01*
X111419363Y-124974067D01*
X119139496Y-117935122D01*
X119185167Y-117935162D01*
X119528943Y-117793117D01*
X119792192Y-117530327D01*
X119934838Y-117186799D01*
X119935162Y-116814833D01*
X119793117Y-116471057D01*
X119559907Y-116237440D01*
X120610000Y-116237440D01*
X120845317Y-116193162D01*
X120965000Y-116116148D01*
X120965000Y-124869727D01*
X120736310Y-124775000D01*
X120285750Y-124775000D01*
X120127000Y-124933750D01*
X120127000Y-125738000D01*
X120147000Y-125738000D01*
X120147000Y-125992000D01*
X120127000Y-125992000D01*
X120127000Y-126796250D01*
X120285750Y-126955000D01*
X120736310Y-126955000D01*
X120882864Y-126894295D01*
X120144458Y-128032560D01*
X119390000Y-128032560D01*
X119154683Y-128076838D01*
X118938559Y-128215910D01*
X118870854Y-128315000D01*
X118062630Y-128315000D01*
X118053162Y-128264683D01*
X117914090Y-128048559D01*
X117844289Y-128000866D01*
X117901441Y-127964090D01*
X118046431Y-127751890D01*
X118097440Y-127500000D01*
X118097440Y-126300000D01*
X118069357Y-126150750D01*
X118755000Y-126150750D01*
X118755000Y-126446309D01*
X118851673Y-126679698D01*
X119030301Y-126858327D01*
X119263690Y-126955000D01*
X119714250Y-126955000D01*
X119873000Y-126796250D01*
X119873000Y-125992000D01*
X118913750Y-125992000D01*
X118755000Y-126150750D01*
X118069357Y-126150750D01*
X118053162Y-126064683D01*
X117914090Y-125848559D01*
X117701890Y-125703569D01*
X117450000Y-125652560D01*
X116550000Y-125652560D01*
X116314683Y-125696838D01*
X116098559Y-125835910D01*
X115953569Y-126048110D01*
X115940023Y-126115000D01*
X111100000Y-126115000D01*
X110799594Y-126174755D01*
X110544921Y-126344921D01*
X109674842Y-127215000D01*
X105000000Y-127215000D01*
X104699594Y-127274755D01*
X104444921Y-127444921D01*
X104274755Y-127699594D01*
X104215000Y-128000000D01*
X104215000Y-130240000D01*
X100814802Y-130240000D01*
X100254401Y-129679599D01*
X100687734Y-129844707D01*
X101417443Y-129823786D01*
X101994435Y-129584788D01*
X102117570Y-129297175D01*
X101000000Y-128179605D01*
X100985858Y-128193748D01*
X100806253Y-128014143D01*
X100820395Y-128000000D01*
X101179605Y-128000000D01*
X102297175Y-129117570D01*
X102584788Y-128994435D01*
X102844707Y-128312266D01*
X102823786Y-127582557D01*
X102584788Y-127005565D01*
X102297175Y-126882430D01*
X101179605Y-128000000D01*
X100820395Y-128000000D01*
X99702825Y-126882430D01*
X99415212Y-127005565D01*
X99155293Y-127687734D01*
X99176214Y-128417443D01*
X99306300Y-128731498D01*
X98260000Y-127685198D01*
X98260000Y-124523315D01*
X99152560Y-123442848D01*
X99152560Y-125700000D01*
X99196838Y-125935317D01*
X99335910Y-126151441D01*
X99548110Y-126296431D01*
X99800000Y-126347440D01*
X100169181Y-126347440D01*
X100005565Y-126415212D01*
X99882430Y-126702825D01*
X101000000Y-127820395D01*
X102117570Y-126702825D01*
X101994435Y-126415212D01*
X101816564Y-126347440D01*
X102200000Y-126347440D01*
X102435317Y-126303162D01*
X102651441Y-126164090D01*
X102796431Y-125951890D01*
X102847440Y-125700000D01*
X102847440Y-123300000D01*
X102803162Y-123064683D01*
X102664090Y-122848559D01*
X102451890Y-122703569D01*
X102200000Y-122652560D01*
X99805406Y-122652560D01*
X102812936Y-119011866D01*
X107814802Y-114010000D01*
X109401103Y-114010000D01*
X109313569Y-114138110D01*
X109313569Y-114138110D01*
G37*
X109313569Y-114138110D02*
X109297998Y-114215000D01*
X109000005Y-114215000D01*
X109000000Y-114214999D01*
X108699594Y-114274755D01*
X108444921Y-114444921D01*
X107824995Y-115064847D01*
X107814833Y-115064838D01*
X107471057Y-115206883D01*
X107207808Y-115469673D01*
X107065162Y-115813201D01*
X107064838Y-116185167D01*
X107206883Y-116528943D01*
X107469673Y-116792192D01*
X107813201Y-116934838D01*
X108185167Y-116935162D01*
X108528943Y-116793117D01*
X108792192Y-116530327D01*
X108934838Y-116186799D01*
X108934848Y-116175310D01*
X109300187Y-115809971D01*
X109306838Y-115845317D01*
X109445910Y-116061441D01*
X109658110Y-116206431D01*
X109910000Y-116257440D01*
X110820000Y-116257440D01*
X111055317Y-116213162D01*
X111271441Y-116074090D01*
X111416431Y-115861890D01*
X111467440Y-115610000D01*
X111467440Y-114390000D01*
X111423162Y-114154683D01*
X111330061Y-114010000D01*
X112671103Y-114010000D01*
X112583569Y-114138110D01*
X112532560Y-114390000D01*
X112532560Y-115610000D01*
X112576838Y-115845317D01*
X112715910Y-116061441D01*
X112928110Y-116206431D01*
X113180000Y-116257440D01*
X114090000Y-116257440D01*
X114325317Y-116213162D01*
X114541441Y-116074090D01*
X114686431Y-115861890D01*
X114702002Y-115785000D01*
X115918554Y-115785000D01*
X115946838Y-115935317D01*
X116085910Y-116151441D01*
X116298110Y-116296431D01*
X116550000Y-116347440D01*
X117450000Y-116347440D01*
X117685317Y-116303162D01*
X117901441Y-116164090D01*
X118046431Y-115951890D01*
X118059977Y-115885000D01*
X118825243Y-115885000D01*
X118925910Y-116041441D01*
X118960338Y-116064965D01*
X118814833Y-116064838D01*
X118471057Y-116206883D01*
X118207808Y-116469673D01*
X118080637Y-116775933D01*
X110360504Y-123814878D01*
X110314833Y-123814838D01*
X109971057Y-123956883D01*
X109707808Y-124219673D01*
X109565162Y-124563201D01*
X109564838Y-124935167D01*
X109706883Y-125278943D01*
X109969673Y-125542192D01*
X110313201Y-125684838D01*
X110685167Y-125685162D01*
X111028943Y-125543117D01*
X111288822Y-125283691D01*
X118755000Y-125283691D01*
X118755000Y-125579250D01*
X118913750Y-125738000D01*
X119873000Y-125738000D01*
X119873000Y-124933750D01*
X119714250Y-124775000D01*
X119263690Y-124775000D01*
X119030301Y-124871673D01*
X118851673Y-125050302D01*
X118755000Y-125283691D01*
X111288822Y-125283691D01*
X111292192Y-125280327D01*
X111419363Y-124974067D01*
X119139496Y-117935122D01*
X119185167Y-117935162D01*
X119528943Y-117793117D01*
X119792192Y-117530327D01*
X119934838Y-117186799D01*
X119935162Y-116814833D01*
X119793117Y-116471057D01*
X119559907Y-116237440D01*
X120610000Y-116237440D01*
X120845317Y-116193162D01*
X120965000Y-116116148D01*
X120965000Y-124869727D01*
X120736310Y-124775000D01*
X120285750Y-124775000D01*
X120127000Y-124933750D01*
X120127000Y-125738000D01*
X120147000Y-125738000D01*
X120147000Y-125992000D01*
X120127000Y-125992000D01*
X120127000Y-126796250D01*
X120285750Y-126955000D01*
X120736310Y-126955000D01*
X120882864Y-126894295D01*
X120144458Y-128032560D01*
X119390000Y-128032560D01*
X119154683Y-128076838D01*
X118938559Y-128215910D01*
X118870854Y-128315000D01*
X118062630Y-128315000D01*
X118053162Y-128264683D01*
X117914090Y-128048559D01*
X117844289Y-128000866D01*
X117901441Y-127964090D01*
X118046431Y-127751890D01*
X118097440Y-127500000D01*
X118097440Y-126300000D01*
X118069357Y-126150750D01*
X118755000Y-126150750D01*
X118755000Y-126446309D01*
X118851673Y-126679698D01*
X119030301Y-126858327D01*
X119263690Y-126955000D01*
X119714250Y-126955000D01*
X119873000Y-126796250D01*
X119873000Y-125992000D01*
X118913750Y-125992000D01*
X118755000Y-126150750D01*
X118069357Y-126150750D01*
X118053162Y-126064683D01*
X117914090Y-125848559D01*
X117701890Y-125703569D01*
X117450000Y-125652560D01*
X116550000Y-125652560D01*
X116314683Y-125696838D01*
X116098559Y-125835910D01*
X115953569Y-126048110D01*
X115940023Y-126115000D01*
X111100000Y-126115000D01*
X110799594Y-126174755D01*
X110544921Y-126344921D01*
X109674842Y-127215000D01*
X105000000Y-127215000D01*
X104699594Y-127274755D01*
X104444921Y-127444921D01*
X104274755Y-127699594D01*
X104215000Y-128000000D01*
X104215000Y-130240000D01*
X100814802Y-130240000D01*
X100254401Y-129679599D01*
X100687734Y-129844707D01*
X101417443Y-129823786D01*
X101994435Y-129584788D01*
X102117570Y-129297175D01*
X101000000Y-128179605D01*
X100985858Y-128193748D01*
X100806253Y-128014143D01*
X100820395Y-128000000D01*
X101179605Y-128000000D01*
X102297175Y-129117570D01*
X102584788Y-128994435D01*
X102844707Y-128312266D01*
X102823786Y-127582557D01*
X102584788Y-127005565D01*
X102297175Y-126882430D01*
X101179605Y-128000000D01*
X100820395Y-128000000D01*
X99702825Y-126882430D01*
X99415212Y-127005565D01*
X99155293Y-127687734D01*
X99176214Y-128417443D01*
X99306300Y-128731498D01*
X98260000Y-127685198D01*
X98260000Y-124523315D01*
X99152560Y-123442848D01*
X99152560Y-125700000D01*
X99196838Y-125935317D01*
X99335910Y-126151441D01*
X99548110Y-126296431D01*
X99800000Y-126347440D01*
X100169181Y-126347440D01*
X100005565Y-126415212D01*
X99882430Y-126702825D01*
X101000000Y-127820395D01*
X102117570Y-126702825D01*
X101994435Y-126415212D01*
X101816564Y-126347440D01*
X102200000Y-126347440D01*
X102435317Y-126303162D01*
X102651441Y-126164090D01*
X102796431Y-125951890D01*
X102847440Y-125700000D01*
X102847440Y-123300000D01*
X102803162Y-123064683D01*
X102664090Y-122848559D01*
X102451890Y-122703569D01*
X102200000Y-122652560D01*
X99805406Y-122652560D01*
X102812936Y-119011866D01*
X107814802Y-114010000D01*
X109401103Y-114010000D01*
X109313569Y-114138110D01*
G36*
X162142274Y-108565123D02*
X161814833Y-108564838D01*
X161471057Y-108706883D01*
X161207808Y-108969673D01*
X161155371Y-109095954D01*
X161054090Y-108938559D01*
X160841890Y-108793569D01*
X160590000Y-108742560D01*
X159680000Y-108742560D01*
X159444683Y-108786838D01*
X159228559Y-108925910D01*
X159083569Y-109138110D01*
X159032560Y-109390000D01*
X159032560Y-110610000D01*
X159076838Y-110845317D01*
X159215910Y-111061441D01*
X159428110Y-111206431D01*
X159680000Y-111257440D01*
X160590000Y-111257440D01*
X160825317Y-111213162D01*
X161041441Y-111074090D01*
X161186431Y-110861890D01*
X161202002Y-110785000D01*
X161500000Y-110785000D01*
X161800407Y-110725245D01*
X161856546Y-110687734D01*
X167155293Y-110687734D01*
X167176214Y-111417443D01*
X167415212Y-111994435D01*
X167702825Y-112117570D01*
X168820395Y-111000000D01*
X167702825Y-109882430D01*
X167415212Y-110005565D01*
X167155293Y-110687734D01*
X161856546Y-110687734D01*
X162055079Y-110555079D01*
X162175005Y-110435153D01*
X162185167Y-110435162D01*
X162528943Y-110293117D01*
X162792192Y-110030327D01*
X162934838Y-109686799D01*
X162935162Y-109314833D01*
X162793117Y-108971057D01*
X162530327Y-108707808D01*
X162211833Y-108575557D01*
X167993736Y-109442843D01*
X167882430Y-109702825D01*
X169000000Y-110820395D01*
X169014143Y-110806253D01*
X169193748Y-110985858D01*
X169179605Y-111000000D01*
X170297175Y-112117570D01*
X170584788Y-111994435D01*
X170844707Y-111312266D01*
X170823786Y-110582557D01*
X170584788Y-110005565D01*
X170297177Y-109882431D01*
X170378979Y-109800629D01*
X171215000Y-109926032D01*
X171215000Y-119715000D01*
X156500000Y-119715000D01*
X156199593Y-119774755D01*
X155944921Y-119944921D01*
X155274842Y-120615000D01*
X155062630Y-120615000D01*
X155053162Y-120564683D01*
X154914090Y-120348559D01*
X154701890Y-120203569D01*
X154450000Y-120152560D01*
X153550000Y-120152560D01*
X153314683Y-120196838D01*
X153098559Y-120335910D01*
X152953569Y-120548110D01*
X152902560Y-120800000D01*
X152902560Y-122000000D01*
X152946838Y-122235317D01*
X153085910Y-122451441D01*
X153155711Y-122499134D01*
X153098559Y-122535910D01*
X152953569Y-122748110D01*
X152932936Y-122850000D01*
X152152235Y-122850000D01*
X152074090Y-122728559D01*
X151861890Y-122583569D01*
X151610000Y-122532560D01*
X150390000Y-122532560D01*
X150154683Y-122576838D01*
X149938559Y-122715910D01*
X149793569Y-122928110D01*
X149785000Y-122970425D01*
X149785000Y-121018735D01*
X149851673Y-121179698D01*
X150030301Y-121358327D01*
X150263690Y-121455000D01*
X150714250Y-121455000D01*
X150873000Y-121296250D01*
X150873000Y-120492000D01*
X151127000Y-120492000D01*
X151127000Y-121296250D01*
X151285750Y-121455000D01*
X151736310Y-121455000D01*
X151969699Y-121358327D01*
X152148327Y-121179698D01*
X152245000Y-120946309D01*
X152245000Y-120650750D01*
X152086250Y-120492000D01*
X151127000Y-120492000D01*
X150873000Y-120492000D01*
X150853000Y-120492000D01*
X150853000Y-120238000D01*
X150873000Y-120238000D01*
X150873000Y-119433750D01*
X151127000Y-119433750D01*
X151127000Y-120238000D01*
X152086250Y-120238000D01*
X152245000Y-120079250D01*
X152245000Y-119783691D01*
X152148327Y-119550302D01*
X151969699Y-119371673D01*
X151736310Y-119275000D01*
X151285750Y-119275000D01*
X151127000Y-119433750D01*
X150873000Y-119433750D01*
X150714250Y-119275000D01*
X150263690Y-119275000D01*
X150030301Y-119371673D01*
X149851673Y-119550302D01*
X149785000Y-119711265D01*
X149785000Y-116185167D01*
X151064838Y-116185167D01*
X151206883Y-116528943D01*
X151469673Y-116792192D01*
X151813201Y-116934838D01*
X152185167Y-116935162D01*
X152528943Y-116793117D01*
X152792192Y-116530327D01*
X152934838Y-116186799D01*
X152934848Y-116175310D01*
X153825158Y-115285000D01*
X158962494Y-115285000D01*
X158969673Y-115292192D01*
X159313201Y-115434838D01*
X159685167Y-115435162D01*
X160028943Y-115293117D01*
X160292192Y-115030327D01*
X160434838Y-114686799D01*
X160435162Y-114314833D01*
X160293117Y-113971057D01*
X160030327Y-113707808D01*
X159686799Y-113565162D01*
X159314833Y-113564838D01*
X158971057Y-113706883D01*
X158962926Y-113715000D01*
X153500000Y-113715000D01*
X153199593Y-113774755D01*
X152944921Y-113944921D01*
X151824995Y-115064847D01*
X151814833Y-115064838D01*
X151471057Y-115206883D01*
X151207808Y-115469673D01*
X151065162Y-115813201D01*
X151064838Y-116185167D01*
X149785000Y-116185167D01*
X149785000Y-115825158D01*
X151555079Y-114055079D01*
X151725245Y-113800407D01*
X151785000Y-113500000D01*
X151785000Y-113300000D01*
X167152560Y-113300000D01*
X167152560Y-115700000D01*
X167196838Y-115935317D01*
X167335910Y-116151441D01*
X167548110Y-116296431D01*
X167800000Y-116347440D01*
X170200000Y-116347440D01*
X170435317Y-116303162D01*
X170651441Y-116164090D01*
X170796431Y-115951890D01*
X170847440Y-115700000D01*
X170847440Y-113300000D01*
X170803162Y-113064683D01*
X170664090Y-112848559D01*
X170451890Y-112703569D01*
X170200000Y-112652560D01*
X169830819Y-112652560D01*
X169994435Y-112584788D01*
X170117570Y-112297175D01*
X169000000Y-111179605D01*
X167882430Y-112297175D01*
X168005565Y-112584788D01*
X168183436Y-112652560D01*
X167800000Y-112652560D01*
X167564683Y-112696838D01*
X167348559Y-112835910D01*
X167203569Y-113048110D01*
X167152560Y-113300000D01*
X151785000Y-113300000D01*
X151785000Y-111204511D01*
X151845317Y-111193162D01*
X152061441Y-111054090D01*
X152153061Y-110920000D01*
X152943956Y-110920000D01*
X152946838Y-110935317D01*
X153085910Y-111151441D01*
X153298110Y-111296431D01*
X153550000Y-111347440D01*
X154450000Y-111347440D01*
X154685317Y-111303162D01*
X154901441Y-111164090D01*
X155046431Y-110951890D01*
X155059977Y-110885000D01*
X155832373Y-110885000D01*
X155945910Y-111061441D01*
X156158110Y-111206431D01*
X156410000Y-111257440D01*
X157320000Y-111257440D01*
X157555317Y-111213162D01*
X157771441Y-111074090D01*
X157916431Y-110861890D01*
X157967440Y-110610000D01*
X157967440Y-109390000D01*
X157923162Y-109154683D01*
X157784090Y-108938559D01*
X157571890Y-108793569D01*
X157320000Y-108742560D01*
X156410000Y-108742560D01*
X156174683Y-108786838D01*
X155958559Y-108925910D01*
X155813569Y-109138110D01*
X155777748Y-109315000D01*
X155062630Y-109315000D01*
X155053162Y-109264683D01*
X154914090Y-109048559D01*
X154844289Y-109000866D01*
X154901441Y-108964090D01*
X155046431Y-108751890D01*
X155059977Y-108685000D01*
X156100000Y-108685000D01*
X156400407Y-108625245D01*
X156655079Y-108455079D01*
X157275110Y-107835048D01*
X162142274Y-108565123D01*
X162142274Y-108565123D01*
G37*
X162142274Y-108565123D02*
X161814833Y-108564838D01*
X161471057Y-108706883D01*
X161207808Y-108969673D01*
X161155371Y-109095954D01*
X161054090Y-108938559D01*
X160841890Y-108793569D01*
X160590000Y-108742560D01*
X159680000Y-108742560D01*
X159444683Y-108786838D01*
X159228559Y-108925910D01*
X159083569Y-109138110D01*
X159032560Y-109390000D01*
X159032560Y-110610000D01*
X159076838Y-110845317D01*
X159215910Y-111061441D01*
X159428110Y-111206431D01*
X159680000Y-111257440D01*
X160590000Y-111257440D01*
X160825317Y-111213162D01*
X161041441Y-111074090D01*
X161186431Y-110861890D01*
X161202002Y-110785000D01*
X161500000Y-110785000D01*
X161800407Y-110725245D01*
X161856546Y-110687734D01*
X167155293Y-110687734D01*
X167176214Y-111417443D01*
X167415212Y-111994435D01*
X167702825Y-112117570D01*
X168820395Y-111000000D01*
X167702825Y-109882430D01*
X167415212Y-110005565D01*
X167155293Y-110687734D01*
X161856546Y-110687734D01*
X162055079Y-110555079D01*
X162175005Y-110435153D01*
X162185167Y-110435162D01*
X162528943Y-110293117D01*
X162792192Y-110030327D01*
X162934838Y-109686799D01*
X162935162Y-109314833D01*
X162793117Y-108971057D01*
X162530327Y-108707808D01*
X162211833Y-108575557D01*
X167993736Y-109442843D01*
X167882430Y-109702825D01*
X169000000Y-110820395D01*
X169014143Y-110806253D01*
X169193748Y-110985858D01*
X169179605Y-111000000D01*
X170297175Y-112117570D01*
X170584788Y-111994435D01*
X170844707Y-111312266D01*
X170823786Y-110582557D01*
X170584788Y-110005565D01*
X170297177Y-109882431D01*
X170378979Y-109800629D01*
X171215000Y-109926032D01*
X171215000Y-119715000D01*
X156500000Y-119715000D01*
X156199593Y-119774755D01*
X155944921Y-119944921D01*
X155274842Y-120615000D01*
X155062630Y-120615000D01*
X155053162Y-120564683D01*
X154914090Y-120348559D01*
X154701890Y-120203569D01*
X154450000Y-120152560D01*
X153550000Y-120152560D01*
X153314683Y-120196838D01*
X153098559Y-120335910D01*
X152953569Y-120548110D01*
X152902560Y-120800000D01*
X152902560Y-122000000D01*
X152946838Y-122235317D01*
X153085910Y-122451441D01*
X153155711Y-122499134D01*
X153098559Y-122535910D01*
X152953569Y-122748110D01*
X152932936Y-122850000D01*
X152152235Y-122850000D01*
X152074090Y-122728559D01*
X151861890Y-122583569D01*
X151610000Y-122532560D01*
X150390000Y-122532560D01*
X150154683Y-122576838D01*
X149938559Y-122715910D01*
X149793569Y-122928110D01*
X149785000Y-122970425D01*
X149785000Y-121018735D01*
X149851673Y-121179698D01*
X150030301Y-121358327D01*
X150263690Y-121455000D01*
X150714250Y-121455000D01*
X150873000Y-121296250D01*
X150873000Y-120492000D01*
X151127000Y-120492000D01*
X151127000Y-121296250D01*
X151285750Y-121455000D01*
X151736310Y-121455000D01*
X151969699Y-121358327D01*
X152148327Y-121179698D01*
X152245000Y-120946309D01*
X152245000Y-120650750D01*
X152086250Y-120492000D01*
X151127000Y-120492000D01*
X150873000Y-120492000D01*
X150853000Y-120492000D01*
X150853000Y-120238000D01*
X150873000Y-120238000D01*
X150873000Y-119433750D01*
X151127000Y-119433750D01*
X151127000Y-120238000D01*
X152086250Y-120238000D01*
X152245000Y-120079250D01*
X152245000Y-119783691D01*
X152148327Y-119550302D01*
X151969699Y-119371673D01*
X151736310Y-119275000D01*
X151285750Y-119275000D01*
X151127000Y-119433750D01*
X150873000Y-119433750D01*
X150714250Y-119275000D01*
X150263690Y-119275000D01*
X150030301Y-119371673D01*
X149851673Y-119550302D01*
X149785000Y-119711265D01*
X149785000Y-116185167D01*
X151064838Y-116185167D01*
X151206883Y-116528943D01*
X151469673Y-116792192D01*
X151813201Y-116934838D01*
X152185167Y-116935162D01*
X152528943Y-116793117D01*
X152792192Y-116530327D01*
X152934838Y-116186799D01*
X152934848Y-116175310D01*
X153825158Y-115285000D01*
X158962494Y-115285000D01*
X158969673Y-115292192D01*
X159313201Y-115434838D01*
X159685167Y-115435162D01*
X160028943Y-115293117D01*
X160292192Y-115030327D01*
X160434838Y-114686799D01*
X160435162Y-114314833D01*
X160293117Y-113971057D01*
X160030327Y-113707808D01*
X159686799Y-113565162D01*
X159314833Y-113564838D01*
X158971057Y-113706883D01*
X158962926Y-113715000D01*
X153500000Y-113715000D01*
X153199593Y-113774755D01*
X152944921Y-113944921D01*
X151824995Y-115064847D01*
X151814833Y-115064838D01*
X151471057Y-115206883D01*
X151207808Y-115469673D01*
X151065162Y-115813201D01*
X151064838Y-116185167D01*
X149785000Y-116185167D01*
X149785000Y-115825158D01*
X151555079Y-114055079D01*
X151725245Y-113800407D01*
X151785000Y-113500000D01*
X151785000Y-113300000D01*
X167152560Y-113300000D01*
X167152560Y-115700000D01*
X167196838Y-115935317D01*
X167335910Y-116151441D01*
X167548110Y-116296431D01*
X167800000Y-116347440D01*
X170200000Y-116347440D01*
X170435317Y-116303162D01*
X170651441Y-116164090D01*
X170796431Y-115951890D01*
X170847440Y-115700000D01*
X170847440Y-113300000D01*
X170803162Y-113064683D01*
X170664090Y-112848559D01*
X170451890Y-112703569D01*
X170200000Y-112652560D01*
X169830819Y-112652560D01*
X169994435Y-112584788D01*
X170117570Y-112297175D01*
X169000000Y-111179605D01*
X167882430Y-112297175D01*
X168005565Y-112584788D01*
X168183436Y-112652560D01*
X167800000Y-112652560D01*
X167564683Y-112696838D01*
X167348559Y-112835910D01*
X167203569Y-113048110D01*
X167152560Y-113300000D01*
X151785000Y-113300000D01*
X151785000Y-111204511D01*
X151845317Y-111193162D01*
X152061441Y-111054090D01*
X152153061Y-110920000D01*
X152943956Y-110920000D01*
X152946838Y-110935317D01*
X153085910Y-111151441D01*
X153298110Y-111296431D01*
X153550000Y-111347440D01*
X154450000Y-111347440D01*
X154685317Y-111303162D01*
X154901441Y-111164090D01*
X155046431Y-110951890D01*
X155059977Y-110885000D01*
X155832373Y-110885000D01*
X155945910Y-111061441D01*
X156158110Y-111206431D01*
X156410000Y-111257440D01*
X157320000Y-111257440D01*
X157555317Y-111213162D01*
X157771441Y-111074090D01*
X157916431Y-110861890D01*
X157967440Y-110610000D01*
X157967440Y-109390000D01*
X157923162Y-109154683D01*
X157784090Y-108938559D01*
X157571890Y-108793569D01*
X157320000Y-108742560D01*
X156410000Y-108742560D01*
X156174683Y-108786838D01*
X155958559Y-108925910D01*
X155813569Y-109138110D01*
X155777748Y-109315000D01*
X155062630Y-109315000D01*
X155053162Y-109264683D01*
X154914090Y-109048559D01*
X154844289Y-109000866D01*
X154901441Y-108964090D01*
X155046431Y-108751890D01*
X155059977Y-108685000D01*
X156100000Y-108685000D01*
X156400407Y-108625245D01*
X156655079Y-108455079D01*
X157275110Y-107835048D01*
X162142274Y-108565123D01*
G36*
X109813569Y-100138110D02*
X109797998Y-100215000D01*
X108000000Y-100215000D01*
X107699594Y-100274755D01*
X107444921Y-100444921D01*
X107324995Y-100564847D01*
X107314833Y-100564838D01*
X106971057Y-100706883D01*
X106707808Y-100969673D01*
X106565162Y-101313201D01*
X106564838Y-101685167D01*
X106706883Y-102028943D01*
X106969673Y-102292192D01*
X107313201Y-102434838D01*
X107685167Y-102435162D01*
X108028943Y-102293117D01*
X108292192Y-102030327D01*
X108394061Y-101785000D01*
X109795489Y-101785000D01*
X109806838Y-101845317D01*
X109945910Y-102061441D01*
X110158110Y-102206431D01*
X110410000Y-102257440D01*
X111320000Y-102257440D01*
X111555317Y-102213162D01*
X111771441Y-102074090D01*
X111916431Y-101861890D01*
X111967440Y-101610000D01*
X111967440Y-100390000D01*
X111923162Y-100154683D01*
X111830061Y-100010000D01*
X113171103Y-100010000D01*
X113083569Y-100138110D01*
X113032560Y-100390000D01*
X113032560Y-101610000D01*
X113076838Y-101845317D01*
X113215910Y-102061441D01*
X113428110Y-102206431D01*
X113680000Y-102257440D01*
X114590000Y-102257440D01*
X114825317Y-102213162D01*
X115041441Y-102074090D01*
X115172346Y-101882504D01*
X115402560Y-102112718D01*
X115402560Y-102700000D01*
X115446838Y-102935317D01*
X115585910Y-103151441D01*
X115798110Y-103296431D01*
X116050000Y-103347440D01*
X116950000Y-103347440D01*
X117176199Y-103304878D01*
X110580001Y-109814851D01*
X110564833Y-109814838D01*
X110221057Y-109956883D01*
X109957808Y-110219673D01*
X109815162Y-110563201D01*
X109814838Y-110935167D01*
X109956883Y-111278943D01*
X110219673Y-111542192D01*
X110563201Y-111684838D01*
X110935167Y-111685162D01*
X111278943Y-111543117D01*
X111538822Y-111283691D01*
X118755000Y-111283691D01*
X118755000Y-111579250D01*
X118913750Y-111738000D01*
X119873000Y-111738000D01*
X119873000Y-110933750D01*
X119714250Y-110775000D01*
X119263690Y-110775000D01*
X119030301Y-110871673D01*
X118851673Y-111050302D01*
X118755000Y-111283691D01*
X111538822Y-111283691D01*
X111542192Y-111280327D01*
X111684838Y-110936799D01*
X111684844Y-110930302D01*
X118569998Y-104135149D01*
X118585167Y-104135162D01*
X118928943Y-103993117D01*
X119192192Y-103730327D01*
X119334838Y-103386799D01*
X119334978Y-103226298D01*
X119390000Y-103237440D01*
X120610000Y-103237440D01*
X120845317Y-103193162D01*
X121061441Y-103054090D01*
X121153061Y-102920000D01*
X124328751Y-102920000D01*
X124638471Y-103230261D01*
X124267086Y-103600997D01*
X124219748Y-103715000D01*
X122500000Y-103715000D01*
X122424569Y-103730004D01*
X122347660Y-103729924D01*
X122275822Y-103759592D01*
X122199594Y-103774755D01*
X122135648Y-103817482D01*
X122064561Y-103846840D01*
X120564560Y-104846841D01*
X120509546Y-104901740D01*
X120444921Y-104944921D01*
X120402191Y-105008872D01*
X120347754Y-105063195D01*
X120317936Y-105134968D01*
X120274755Y-105199594D01*
X120259751Y-105275024D01*
X120230244Y-105346049D01*
X120230163Y-105423772D01*
X120215000Y-105500000D01*
X120215000Y-110845750D01*
X120127000Y-110933750D01*
X120127000Y-111738000D01*
X120147000Y-111738000D01*
X120147000Y-111992000D01*
X120127000Y-111992000D01*
X120127000Y-112796250D01*
X120215000Y-112884250D01*
X120215000Y-114032560D01*
X119390000Y-114032560D01*
X119154683Y-114076838D01*
X118938559Y-114215910D01*
X118870854Y-114315000D01*
X118062630Y-114315000D01*
X118053162Y-114264683D01*
X117914090Y-114048559D01*
X117844289Y-114000866D01*
X117901441Y-113964090D01*
X118046431Y-113751890D01*
X118097440Y-113500000D01*
X118097440Y-112300000D01*
X118069357Y-112150750D01*
X118755000Y-112150750D01*
X118755000Y-112446309D01*
X118851673Y-112679698D01*
X119030301Y-112858327D01*
X119263690Y-112955000D01*
X119714250Y-112955000D01*
X119873000Y-112796250D01*
X119873000Y-111992000D01*
X118913750Y-111992000D01*
X118755000Y-112150750D01*
X118069357Y-112150750D01*
X118053162Y-112064683D01*
X117914090Y-111848559D01*
X117701890Y-111703569D01*
X117450000Y-111652560D01*
X116550000Y-111652560D01*
X116314683Y-111696838D01*
X116098559Y-111835910D01*
X115953569Y-112048110D01*
X115902560Y-112300000D01*
X115902560Y-112490000D01*
X107500000Y-112490000D01*
X107209160Y-112547852D01*
X106962599Y-112712599D01*
X101712599Y-117962599D01*
X101692337Y-117992923D01*
X101664069Y-118015970D01*
X98260000Y-122136685D01*
X98260000Y-115297175D01*
X99882430Y-115297175D01*
X100005565Y-115584788D01*
X100687734Y-115844707D01*
X101417443Y-115823786D01*
X101994435Y-115584788D01*
X102117570Y-115297175D01*
X101000000Y-114179605D01*
X99882430Y-115297175D01*
X98260000Y-115297175D01*
X98260000Y-113687734D01*
X99155293Y-113687734D01*
X99176214Y-114417443D01*
X99415212Y-114994435D01*
X99702825Y-115117570D01*
X100820395Y-114000000D01*
X101179605Y-114000000D01*
X102297175Y-115117570D01*
X102584788Y-114994435D01*
X102844707Y-114312266D01*
X102823786Y-113582557D01*
X102584788Y-113005565D01*
X102297175Y-112882430D01*
X101179605Y-114000000D01*
X100820395Y-114000000D01*
X99702825Y-112882430D01*
X99415212Y-113005565D01*
X99155293Y-113687734D01*
X98260000Y-113687734D01*
X98260000Y-109300000D01*
X99152560Y-109300000D01*
X99152560Y-111700000D01*
X99196838Y-111935317D01*
X99335910Y-112151441D01*
X99548110Y-112296431D01*
X99800000Y-112347440D01*
X100169181Y-112347440D01*
X100005565Y-112415212D01*
X99882430Y-112702825D01*
X101000000Y-113820395D01*
X102117570Y-112702825D01*
X101994435Y-112415212D01*
X101816564Y-112347440D01*
X102200000Y-112347440D01*
X102435317Y-112303162D01*
X102651441Y-112164090D01*
X102796431Y-111951890D01*
X102847440Y-111700000D01*
X102847440Y-109300000D01*
X102803162Y-109064683D01*
X102664090Y-108848559D01*
X102451890Y-108703569D01*
X102200000Y-108652560D01*
X99800000Y-108652560D01*
X99564683Y-108696838D01*
X99348559Y-108835910D01*
X99203569Y-109048110D01*
X99152560Y-109300000D01*
X98260000Y-109300000D01*
X98260000Y-102510000D01*
X102500000Y-102510000D01*
X102562160Y-102497636D01*
X102625507Y-102499565D01*
X102706204Y-102468983D01*
X102790839Y-102452148D01*
X102843533Y-102416939D01*
X102902799Y-102394479D01*
X106717965Y-100010000D01*
X109901103Y-100010000D01*
X109813569Y-100138110D01*
X109813569Y-100138110D01*
G37*
X109813569Y-100138110D02*
X109797998Y-100215000D01*
X108000000Y-100215000D01*
X107699594Y-100274755D01*
X107444921Y-100444921D01*
X107324995Y-100564847D01*
X107314833Y-100564838D01*
X106971057Y-100706883D01*
X106707808Y-100969673D01*
X106565162Y-101313201D01*
X106564838Y-101685167D01*
X106706883Y-102028943D01*
X106969673Y-102292192D01*
X107313201Y-102434838D01*
X107685167Y-102435162D01*
X108028943Y-102293117D01*
X108292192Y-102030327D01*
X108394061Y-101785000D01*
X109795489Y-101785000D01*
X109806838Y-101845317D01*
X109945910Y-102061441D01*
X110158110Y-102206431D01*
X110410000Y-102257440D01*
X111320000Y-102257440D01*
X111555317Y-102213162D01*
X111771441Y-102074090D01*
X111916431Y-101861890D01*
X111967440Y-101610000D01*
X111967440Y-100390000D01*
X111923162Y-100154683D01*
X111830061Y-100010000D01*
X113171103Y-100010000D01*
X113083569Y-100138110D01*
X113032560Y-100390000D01*
X113032560Y-101610000D01*
X113076838Y-101845317D01*
X113215910Y-102061441D01*
X113428110Y-102206431D01*
X113680000Y-102257440D01*
X114590000Y-102257440D01*
X114825317Y-102213162D01*
X115041441Y-102074090D01*
X115172346Y-101882504D01*
X115402560Y-102112718D01*
X115402560Y-102700000D01*
X115446838Y-102935317D01*
X115585910Y-103151441D01*
X115798110Y-103296431D01*
X116050000Y-103347440D01*
X116950000Y-103347440D01*
X117176199Y-103304878D01*
X110580001Y-109814851D01*
X110564833Y-109814838D01*
X110221057Y-109956883D01*
X109957808Y-110219673D01*
X109815162Y-110563201D01*
X109814838Y-110935167D01*
X109956883Y-111278943D01*
X110219673Y-111542192D01*
X110563201Y-111684838D01*
X110935167Y-111685162D01*
X111278943Y-111543117D01*
X111538822Y-111283691D01*
X118755000Y-111283691D01*
X118755000Y-111579250D01*
X118913750Y-111738000D01*
X119873000Y-111738000D01*
X119873000Y-110933750D01*
X119714250Y-110775000D01*
X119263690Y-110775000D01*
X119030301Y-110871673D01*
X118851673Y-111050302D01*
X118755000Y-111283691D01*
X111538822Y-111283691D01*
X111542192Y-111280327D01*
X111684838Y-110936799D01*
X111684844Y-110930302D01*
X118569998Y-104135149D01*
X118585167Y-104135162D01*
X118928943Y-103993117D01*
X119192192Y-103730327D01*
X119334838Y-103386799D01*
X119334978Y-103226298D01*
X119390000Y-103237440D01*
X120610000Y-103237440D01*
X120845317Y-103193162D01*
X121061441Y-103054090D01*
X121153061Y-102920000D01*
X124328751Y-102920000D01*
X124638471Y-103230261D01*
X124267086Y-103600997D01*
X124219748Y-103715000D01*
X122500000Y-103715000D01*
X122424569Y-103730004D01*
X122347660Y-103729924D01*
X122275822Y-103759592D01*
X122199594Y-103774755D01*
X122135648Y-103817482D01*
X122064561Y-103846840D01*
X120564560Y-104846841D01*
X120509546Y-104901740D01*
X120444921Y-104944921D01*
X120402191Y-105008872D01*
X120347754Y-105063195D01*
X120317936Y-105134968D01*
X120274755Y-105199594D01*
X120259751Y-105275024D01*
X120230244Y-105346049D01*
X120230163Y-105423772D01*
X120215000Y-105500000D01*
X120215000Y-110845750D01*
X120127000Y-110933750D01*
X120127000Y-111738000D01*
X120147000Y-111738000D01*
X120147000Y-111992000D01*
X120127000Y-111992000D01*
X120127000Y-112796250D01*
X120215000Y-112884250D01*
X120215000Y-114032560D01*
X119390000Y-114032560D01*
X119154683Y-114076838D01*
X118938559Y-114215910D01*
X118870854Y-114315000D01*
X118062630Y-114315000D01*
X118053162Y-114264683D01*
X117914090Y-114048559D01*
X117844289Y-114000866D01*
X117901441Y-113964090D01*
X118046431Y-113751890D01*
X118097440Y-113500000D01*
X118097440Y-112300000D01*
X118069357Y-112150750D01*
X118755000Y-112150750D01*
X118755000Y-112446309D01*
X118851673Y-112679698D01*
X119030301Y-112858327D01*
X119263690Y-112955000D01*
X119714250Y-112955000D01*
X119873000Y-112796250D01*
X119873000Y-111992000D01*
X118913750Y-111992000D01*
X118755000Y-112150750D01*
X118069357Y-112150750D01*
X118053162Y-112064683D01*
X117914090Y-111848559D01*
X117701890Y-111703569D01*
X117450000Y-111652560D01*
X116550000Y-111652560D01*
X116314683Y-111696838D01*
X116098559Y-111835910D01*
X115953569Y-112048110D01*
X115902560Y-112300000D01*
X115902560Y-112490000D01*
X107500000Y-112490000D01*
X107209160Y-112547852D01*
X106962599Y-112712599D01*
X101712599Y-117962599D01*
X101692337Y-117992923D01*
X101664069Y-118015970D01*
X98260000Y-122136685D01*
X98260000Y-115297175D01*
X99882430Y-115297175D01*
X100005565Y-115584788D01*
X100687734Y-115844707D01*
X101417443Y-115823786D01*
X101994435Y-115584788D01*
X102117570Y-115297175D01*
X101000000Y-114179605D01*
X99882430Y-115297175D01*
X98260000Y-115297175D01*
X98260000Y-113687734D01*
X99155293Y-113687734D01*
X99176214Y-114417443D01*
X99415212Y-114994435D01*
X99702825Y-115117570D01*
X100820395Y-114000000D01*
X101179605Y-114000000D01*
X102297175Y-115117570D01*
X102584788Y-114994435D01*
X102844707Y-114312266D01*
X102823786Y-113582557D01*
X102584788Y-113005565D01*
X102297175Y-112882430D01*
X101179605Y-114000000D01*
X100820395Y-114000000D01*
X99702825Y-112882430D01*
X99415212Y-113005565D01*
X99155293Y-113687734D01*
X98260000Y-113687734D01*
X98260000Y-109300000D01*
X99152560Y-109300000D01*
X99152560Y-111700000D01*
X99196838Y-111935317D01*
X99335910Y-112151441D01*
X99548110Y-112296431D01*
X99800000Y-112347440D01*
X100169181Y-112347440D01*
X100005565Y-112415212D01*
X99882430Y-112702825D01*
X101000000Y-113820395D01*
X102117570Y-112702825D01*
X101994435Y-112415212D01*
X101816564Y-112347440D01*
X102200000Y-112347440D01*
X102435317Y-112303162D01*
X102651441Y-112164090D01*
X102796431Y-111951890D01*
X102847440Y-111700000D01*
X102847440Y-109300000D01*
X102803162Y-109064683D01*
X102664090Y-108848559D01*
X102451890Y-108703569D01*
X102200000Y-108652560D01*
X99800000Y-108652560D01*
X99564683Y-108696838D01*
X99348559Y-108835910D01*
X99203569Y-109048110D01*
X99152560Y-109300000D01*
X98260000Y-109300000D01*
X98260000Y-102510000D01*
X102500000Y-102510000D01*
X102562160Y-102497636D01*
X102625507Y-102499565D01*
X102706204Y-102468983D01*
X102790839Y-102452148D01*
X102843533Y-102416939D01*
X102902799Y-102394479D01*
X106717965Y-100010000D01*
X109901103Y-100010000D01*
X109813569Y-100138110D01*
G36*
X161471057Y-94706883D02*
X161207808Y-94969673D01*
X161155371Y-95095954D01*
X161054090Y-94938559D01*
X160841890Y-94793569D01*
X160590000Y-94742560D01*
X159680000Y-94742560D01*
X159444683Y-94786838D01*
X159228559Y-94925910D01*
X159083569Y-95138110D01*
X159032560Y-95390000D01*
X159032560Y-96610000D01*
X159076838Y-96845317D01*
X159215910Y-97061441D01*
X159428110Y-97206431D01*
X159680000Y-97257440D01*
X160590000Y-97257440D01*
X160825317Y-97213162D01*
X161041441Y-97074090D01*
X161186431Y-96861890D01*
X161202002Y-96785000D01*
X161500000Y-96785000D01*
X161800407Y-96725245D01*
X161856546Y-96687734D01*
X167155293Y-96687734D01*
X167176214Y-97417443D01*
X167415212Y-97994435D01*
X167702825Y-98117570D01*
X168820395Y-97000000D01*
X169179605Y-97000000D01*
X170297175Y-98117570D01*
X170584788Y-97994435D01*
X170844707Y-97312266D01*
X170823786Y-96582557D01*
X170584788Y-96005565D01*
X170297175Y-95882430D01*
X169179605Y-97000000D01*
X168820395Y-97000000D01*
X167702825Y-95882430D01*
X167415212Y-96005565D01*
X167155293Y-96687734D01*
X161856546Y-96687734D01*
X162055079Y-96555079D01*
X162175005Y-96435153D01*
X162185167Y-96435162D01*
X162528943Y-96293117D01*
X162792192Y-96030327D01*
X162928183Y-95702825D01*
X167882430Y-95702825D01*
X169000000Y-96820395D01*
X170117570Y-95702825D01*
X169994435Y-95415212D01*
X169312266Y-95155293D01*
X168582557Y-95176214D01*
X168005565Y-95415212D01*
X167882430Y-95702825D01*
X162928183Y-95702825D01*
X162934838Y-95686799D01*
X162935162Y-95314833D01*
X162793117Y-94971057D01*
X162530327Y-94707808D01*
X162415193Y-94660000D01*
X171215000Y-94660000D01*
X171215000Y-108338468D01*
X157116447Y-106223685D01*
X157057691Y-106226476D01*
X157000000Y-106215000D01*
X156906116Y-106233675D01*
X156810501Y-106238216D01*
X156757285Y-106263279D01*
X156699593Y-106274755D01*
X156620001Y-106327937D01*
X156533403Y-106368722D01*
X156493831Y-106412241D01*
X156444921Y-106444921D01*
X155774842Y-107115000D01*
X155062630Y-107115000D01*
X155053162Y-107064683D01*
X154914090Y-106848559D01*
X154701890Y-106703569D01*
X154450000Y-106652560D01*
X153550000Y-106652560D01*
X153314683Y-106696838D01*
X153098559Y-106835910D01*
X152953569Y-107048110D01*
X152902560Y-107300000D01*
X152902560Y-108500000D01*
X152946838Y-108735317D01*
X153085910Y-108951441D01*
X153155711Y-108999134D01*
X153098559Y-109035910D01*
X152953569Y-109248110D01*
X152932936Y-109350000D01*
X152152235Y-109350000D01*
X152074090Y-109228559D01*
X151861890Y-109083569D01*
X151610000Y-109032560D01*
X150390000Y-109032560D01*
X150154683Y-109076838D01*
X149938559Y-109215910D01*
X149793569Y-109428110D01*
X149742560Y-109680000D01*
X149742560Y-110590000D01*
X149786838Y-110825317D01*
X149925910Y-111041441D01*
X150138110Y-111186431D01*
X150215000Y-111202002D01*
X150215000Y-113174842D01*
X148535000Y-114854842D01*
X148535000Y-107150750D01*
X149755000Y-107150750D01*
X149755000Y-107446309D01*
X149851673Y-107679698D01*
X150030301Y-107858327D01*
X150263690Y-107955000D01*
X150714250Y-107955000D01*
X150873000Y-107796250D01*
X150873000Y-106992000D01*
X151127000Y-106992000D01*
X151127000Y-107796250D01*
X151285750Y-107955000D01*
X151736310Y-107955000D01*
X151969699Y-107858327D01*
X152148327Y-107679698D01*
X152245000Y-107446309D01*
X152245000Y-107150750D01*
X152086250Y-106992000D01*
X151127000Y-106992000D01*
X150873000Y-106992000D01*
X149913750Y-106992000D01*
X149755000Y-107150750D01*
X148535000Y-107150750D01*
X148535000Y-106283691D01*
X149755000Y-106283691D01*
X149755000Y-106579250D01*
X149913750Y-106738000D01*
X150873000Y-106738000D01*
X150873000Y-105933750D01*
X151127000Y-105933750D01*
X151127000Y-106738000D01*
X152086250Y-106738000D01*
X152245000Y-106579250D01*
X152245000Y-106283691D01*
X152148327Y-106050302D01*
X151969699Y-105871673D01*
X151736310Y-105775000D01*
X151285750Y-105775000D01*
X151127000Y-105933750D01*
X150873000Y-105933750D01*
X150714250Y-105775000D01*
X150263690Y-105775000D01*
X150030301Y-105871673D01*
X149851673Y-106050302D01*
X149755000Y-106283691D01*
X148535000Y-106283691D01*
X148535000Y-102185167D01*
X151064838Y-102185167D01*
X151206883Y-102528943D01*
X151469673Y-102792192D01*
X151813201Y-102934838D01*
X152185167Y-102935162D01*
X152528943Y-102793117D01*
X152792192Y-102530327D01*
X152934838Y-102186799D01*
X152934848Y-102175310D01*
X153825158Y-101285000D01*
X158962494Y-101285000D01*
X158969673Y-101292192D01*
X159313201Y-101434838D01*
X159685167Y-101435162D01*
X160028943Y-101293117D01*
X160292192Y-101030327D01*
X160434838Y-100686799D01*
X160435162Y-100314833D01*
X160293117Y-99971057D01*
X160030327Y-99707808D01*
X159686799Y-99565162D01*
X159314833Y-99564838D01*
X158971057Y-99706883D01*
X158962926Y-99715000D01*
X153500000Y-99715000D01*
X153199593Y-99774755D01*
X152944921Y-99944921D01*
X151824995Y-101064847D01*
X151814833Y-101064838D01*
X151471057Y-101206883D01*
X151207808Y-101469673D01*
X151065162Y-101813201D01*
X151064838Y-102185167D01*
X148535000Y-102185167D01*
X148535000Y-99300000D01*
X167152560Y-99300000D01*
X167152560Y-101700000D01*
X167196838Y-101935317D01*
X167335910Y-102151441D01*
X167548110Y-102296431D01*
X167800000Y-102347440D01*
X170200000Y-102347440D01*
X170435317Y-102303162D01*
X170651441Y-102164090D01*
X170796431Y-101951890D01*
X170847440Y-101700000D01*
X170847440Y-99300000D01*
X170803162Y-99064683D01*
X170664090Y-98848559D01*
X170451890Y-98703569D01*
X170200000Y-98652560D01*
X169830819Y-98652560D01*
X169994435Y-98584788D01*
X170117570Y-98297175D01*
X169000000Y-97179605D01*
X167882430Y-98297175D01*
X168005565Y-98584788D01*
X168183436Y-98652560D01*
X167800000Y-98652560D01*
X167564683Y-98696838D01*
X167348559Y-98835910D01*
X167203569Y-99048110D01*
X167152560Y-99300000D01*
X148535000Y-99300000D01*
X148535000Y-97825158D01*
X149440157Y-96920000D01*
X149847765Y-96920000D01*
X149925910Y-97041441D01*
X150138110Y-97186431D01*
X150390000Y-97237440D01*
X151610000Y-97237440D01*
X151845317Y-97193162D01*
X152061441Y-97054090D01*
X152153061Y-96920000D01*
X152943956Y-96920000D01*
X152946838Y-96935317D01*
X153085910Y-97151441D01*
X153298110Y-97296431D01*
X153550000Y-97347440D01*
X154450000Y-97347440D01*
X154685317Y-97303162D01*
X154901441Y-97164090D01*
X155046431Y-96951890D01*
X155059977Y-96885000D01*
X155832373Y-96885000D01*
X155945910Y-97061441D01*
X156158110Y-97206431D01*
X156410000Y-97257440D01*
X157320000Y-97257440D01*
X157555317Y-97213162D01*
X157771441Y-97074090D01*
X157916431Y-96861890D01*
X157967440Y-96610000D01*
X157967440Y-95390000D01*
X157923162Y-95154683D01*
X157784090Y-94938559D01*
X157571890Y-94793569D01*
X157320000Y-94742560D01*
X156410000Y-94742560D01*
X156174683Y-94786838D01*
X155958559Y-94925910D01*
X155813569Y-95138110D01*
X155777748Y-95315000D01*
X155062630Y-95315000D01*
X155053162Y-95264683D01*
X154914090Y-95048559D01*
X154844289Y-95000866D01*
X154901441Y-94964090D01*
X155046431Y-94751890D01*
X155065039Y-94660000D01*
X161584523Y-94660000D01*
X161471057Y-94706883D01*
X161471057Y-94706883D01*
G37*
X161471057Y-94706883D02*
X161207808Y-94969673D01*
X161155371Y-95095954D01*
X161054090Y-94938559D01*
X160841890Y-94793569D01*
X160590000Y-94742560D01*
X159680000Y-94742560D01*
X159444683Y-94786838D01*
X159228559Y-94925910D01*
X159083569Y-95138110D01*
X159032560Y-95390000D01*
X159032560Y-96610000D01*
X159076838Y-96845317D01*
X159215910Y-97061441D01*
X159428110Y-97206431D01*
X159680000Y-97257440D01*
X160590000Y-97257440D01*
X160825317Y-97213162D01*
X161041441Y-97074090D01*
X161186431Y-96861890D01*
X161202002Y-96785000D01*
X161500000Y-96785000D01*
X161800407Y-96725245D01*
X161856546Y-96687734D01*
X167155293Y-96687734D01*
X167176214Y-97417443D01*
X167415212Y-97994435D01*
X167702825Y-98117570D01*
X168820395Y-97000000D01*
X169179605Y-97000000D01*
X170297175Y-98117570D01*
X170584788Y-97994435D01*
X170844707Y-97312266D01*
X170823786Y-96582557D01*
X170584788Y-96005565D01*
X170297175Y-95882430D01*
X169179605Y-97000000D01*
X168820395Y-97000000D01*
X167702825Y-95882430D01*
X167415212Y-96005565D01*
X167155293Y-96687734D01*
X161856546Y-96687734D01*
X162055079Y-96555079D01*
X162175005Y-96435153D01*
X162185167Y-96435162D01*
X162528943Y-96293117D01*
X162792192Y-96030327D01*
X162928183Y-95702825D01*
X167882430Y-95702825D01*
X169000000Y-96820395D01*
X170117570Y-95702825D01*
X169994435Y-95415212D01*
X169312266Y-95155293D01*
X168582557Y-95176214D01*
X168005565Y-95415212D01*
X167882430Y-95702825D01*
X162928183Y-95702825D01*
X162934838Y-95686799D01*
X162935162Y-95314833D01*
X162793117Y-94971057D01*
X162530327Y-94707808D01*
X162415193Y-94660000D01*
X171215000Y-94660000D01*
X171215000Y-108338468D01*
X157116447Y-106223685D01*
X157057691Y-106226476D01*
X157000000Y-106215000D01*
X156906116Y-106233675D01*
X156810501Y-106238216D01*
X156757285Y-106263279D01*
X156699593Y-106274755D01*
X156620001Y-106327937D01*
X156533403Y-106368722D01*
X156493831Y-106412241D01*
X156444921Y-106444921D01*
X155774842Y-107115000D01*
X155062630Y-107115000D01*
X155053162Y-107064683D01*
X154914090Y-106848559D01*
X154701890Y-106703569D01*
X154450000Y-106652560D01*
X153550000Y-106652560D01*
X153314683Y-106696838D01*
X153098559Y-106835910D01*
X152953569Y-107048110D01*
X152902560Y-107300000D01*
X152902560Y-108500000D01*
X152946838Y-108735317D01*
X153085910Y-108951441D01*
X153155711Y-108999134D01*
X153098559Y-109035910D01*
X152953569Y-109248110D01*
X152932936Y-109350000D01*
X152152235Y-109350000D01*
X152074090Y-109228559D01*
X151861890Y-109083569D01*
X151610000Y-109032560D01*
X150390000Y-109032560D01*
X150154683Y-109076838D01*
X149938559Y-109215910D01*
X149793569Y-109428110D01*
X149742560Y-109680000D01*
X149742560Y-110590000D01*
X149786838Y-110825317D01*
X149925910Y-111041441D01*
X150138110Y-111186431D01*
X150215000Y-111202002D01*
X150215000Y-113174842D01*
X148535000Y-114854842D01*
X148535000Y-107150750D01*
X149755000Y-107150750D01*
X149755000Y-107446309D01*
X149851673Y-107679698D01*
X150030301Y-107858327D01*
X150263690Y-107955000D01*
X150714250Y-107955000D01*
X150873000Y-107796250D01*
X150873000Y-106992000D01*
X151127000Y-106992000D01*
X151127000Y-107796250D01*
X151285750Y-107955000D01*
X151736310Y-107955000D01*
X151969699Y-107858327D01*
X152148327Y-107679698D01*
X152245000Y-107446309D01*
X152245000Y-107150750D01*
X152086250Y-106992000D01*
X151127000Y-106992000D01*
X150873000Y-106992000D01*
X149913750Y-106992000D01*
X149755000Y-107150750D01*
X148535000Y-107150750D01*
X148535000Y-106283691D01*
X149755000Y-106283691D01*
X149755000Y-106579250D01*
X149913750Y-106738000D01*
X150873000Y-106738000D01*
X150873000Y-105933750D01*
X151127000Y-105933750D01*
X151127000Y-106738000D01*
X152086250Y-106738000D01*
X152245000Y-106579250D01*
X152245000Y-106283691D01*
X152148327Y-106050302D01*
X151969699Y-105871673D01*
X151736310Y-105775000D01*
X151285750Y-105775000D01*
X151127000Y-105933750D01*
X150873000Y-105933750D01*
X150714250Y-105775000D01*
X150263690Y-105775000D01*
X150030301Y-105871673D01*
X149851673Y-106050302D01*
X149755000Y-106283691D01*
X148535000Y-106283691D01*
X148535000Y-102185167D01*
X151064838Y-102185167D01*
X151206883Y-102528943D01*
X151469673Y-102792192D01*
X151813201Y-102934838D01*
X152185167Y-102935162D01*
X152528943Y-102793117D01*
X152792192Y-102530327D01*
X152934838Y-102186799D01*
X152934848Y-102175310D01*
X153825158Y-101285000D01*
X158962494Y-101285000D01*
X158969673Y-101292192D01*
X159313201Y-101434838D01*
X159685167Y-101435162D01*
X160028943Y-101293117D01*
X160292192Y-101030327D01*
X160434838Y-100686799D01*
X160435162Y-100314833D01*
X160293117Y-99971057D01*
X160030327Y-99707808D01*
X159686799Y-99565162D01*
X159314833Y-99564838D01*
X158971057Y-99706883D01*
X158962926Y-99715000D01*
X153500000Y-99715000D01*
X153199593Y-99774755D01*
X152944921Y-99944921D01*
X151824995Y-101064847D01*
X151814833Y-101064838D01*
X151471057Y-101206883D01*
X151207808Y-101469673D01*
X151065162Y-101813201D01*
X151064838Y-102185167D01*
X148535000Y-102185167D01*
X148535000Y-99300000D01*
X167152560Y-99300000D01*
X167152560Y-101700000D01*
X167196838Y-101935317D01*
X167335910Y-102151441D01*
X167548110Y-102296431D01*
X167800000Y-102347440D01*
X170200000Y-102347440D01*
X170435317Y-102303162D01*
X170651441Y-102164090D01*
X170796431Y-101951890D01*
X170847440Y-101700000D01*
X170847440Y-99300000D01*
X170803162Y-99064683D01*
X170664090Y-98848559D01*
X170451890Y-98703569D01*
X170200000Y-98652560D01*
X169830819Y-98652560D01*
X169994435Y-98584788D01*
X170117570Y-98297175D01*
X169000000Y-97179605D01*
X167882430Y-98297175D01*
X168005565Y-98584788D01*
X168183436Y-98652560D01*
X167800000Y-98652560D01*
X167564683Y-98696838D01*
X167348559Y-98835910D01*
X167203569Y-99048110D01*
X167152560Y-99300000D01*
X148535000Y-99300000D01*
X148535000Y-97825158D01*
X149440157Y-96920000D01*
X149847765Y-96920000D01*
X149925910Y-97041441D01*
X150138110Y-97186431D01*
X150390000Y-97237440D01*
X151610000Y-97237440D01*
X151845317Y-97193162D01*
X152061441Y-97054090D01*
X152153061Y-96920000D01*
X152943956Y-96920000D01*
X152946838Y-96935317D01*
X153085910Y-97151441D01*
X153298110Y-97296431D01*
X153550000Y-97347440D01*
X154450000Y-97347440D01*
X154685317Y-97303162D01*
X154901441Y-97164090D01*
X155046431Y-96951890D01*
X155059977Y-96885000D01*
X155832373Y-96885000D01*
X155945910Y-97061441D01*
X156158110Y-97206431D01*
X156410000Y-97257440D01*
X157320000Y-97257440D01*
X157555317Y-97213162D01*
X157771441Y-97074090D01*
X157916431Y-96861890D01*
X157967440Y-96610000D01*
X157967440Y-95390000D01*
X157923162Y-95154683D01*
X157784090Y-94938559D01*
X157571890Y-94793569D01*
X157320000Y-94742560D01*
X156410000Y-94742560D01*
X156174683Y-94786838D01*
X155958559Y-94925910D01*
X155813569Y-95138110D01*
X155777748Y-95315000D01*
X155062630Y-95315000D01*
X155053162Y-95264683D01*
X154914090Y-95048559D01*
X154844289Y-95000866D01*
X154901441Y-94964090D01*
X155046431Y-94751890D01*
X155065039Y-94660000D01*
X161584523Y-94660000D01*
X161471057Y-94706883D01*
G36*
X109813569Y-86138110D02*
X109797998Y-86215000D01*
X109000005Y-86215000D01*
X109000000Y-86214999D01*
X108699594Y-86274755D01*
X108444921Y-86444921D01*
X107824995Y-87064847D01*
X107814833Y-87064838D01*
X107471057Y-87206883D01*
X107207808Y-87469673D01*
X107065162Y-87813201D01*
X107064838Y-88185167D01*
X107206883Y-88528943D01*
X107469673Y-88792192D01*
X107813201Y-88934838D01*
X108185167Y-88935162D01*
X108528943Y-88793117D01*
X108792192Y-88530327D01*
X108934838Y-88186799D01*
X108934848Y-88175310D01*
X109325158Y-87785000D01*
X109795489Y-87785000D01*
X109806838Y-87845317D01*
X109945910Y-88061441D01*
X110158110Y-88206431D01*
X110410000Y-88257440D01*
X111320000Y-88257440D01*
X111555317Y-88213162D01*
X111771441Y-88074090D01*
X111916431Y-87861890D01*
X111967440Y-87610000D01*
X111967440Y-86390000D01*
X111923162Y-86154683D01*
X111830061Y-86010000D01*
X113171103Y-86010000D01*
X113083569Y-86138110D01*
X113032560Y-86390000D01*
X113032560Y-87610000D01*
X113076838Y-87845317D01*
X113215910Y-88061441D01*
X113428110Y-88206431D01*
X113680000Y-88257440D01*
X114590000Y-88257440D01*
X114825317Y-88213162D01*
X115041441Y-88074090D01*
X115186431Y-87861890D01*
X115202002Y-87785000D01*
X115574842Y-87785000D01*
X115902560Y-88112718D01*
X115902560Y-88700000D01*
X115946838Y-88935317D01*
X116085910Y-89151441D01*
X116298110Y-89296431D01*
X116550000Y-89347440D01*
X117450000Y-89347440D01*
X117685317Y-89303162D01*
X117901441Y-89164090D01*
X118046431Y-88951890D01*
X118059977Y-88885000D01*
X118825243Y-88885000D01*
X118925910Y-89041441D01*
X119138110Y-89186431D01*
X119240000Y-89207064D01*
X119240000Y-89587253D01*
X119186799Y-89565162D01*
X118814833Y-89564838D01*
X118471057Y-89706883D01*
X118207808Y-89969673D01*
X118109074Y-90207450D01*
X111224637Y-95715000D01*
X111037506Y-95715000D01*
X111030327Y-95707808D01*
X110686799Y-95565162D01*
X110314833Y-95564838D01*
X109971057Y-95706883D01*
X109707808Y-95969673D01*
X109565162Y-96313201D01*
X109564838Y-96685167D01*
X109706883Y-97028943D01*
X109969673Y-97292192D01*
X110313201Y-97434838D01*
X110685167Y-97435162D01*
X111028943Y-97293117D01*
X111037074Y-97285000D01*
X111500000Y-97285000D01*
X111608384Y-97263441D01*
X111718479Y-97253983D01*
X111757402Y-97233799D01*
X111800406Y-97225245D01*
X111892286Y-97163853D01*
X111990386Y-97112982D01*
X119087766Y-91435077D01*
X119185167Y-91435162D01*
X119240000Y-91412506D01*
X119240000Y-93810000D01*
X119297852Y-94100839D01*
X119462599Y-94347401D01*
X124081980Y-98966782D01*
X124025276Y-99103341D01*
X124024725Y-99733893D01*
X124265519Y-100316657D01*
X124638471Y-100690261D01*
X124267086Y-101060997D01*
X124147082Y-101350000D01*
X121152235Y-101350000D01*
X121074090Y-101228559D01*
X120861890Y-101083569D01*
X120610000Y-101032560D01*
X119390000Y-101032560D01*
X119154683Y-101076838D01*
X118938559Y-101215910D01*
X118870854Y-101315000D01*
X117562630Y-101315000D01*
X117553162Y-101264683D01*
X117414090Y-101048559D01*
X117344289Y-101000866D01*
X117401441Y-100964090D01*
X117546431Y-100751890D01*
X117597440Y-100500000D01*
X117597440Y-99300000D01*
X117569357Y-99150750D01*
X118755000Y-99150750D01*
X118755000Y-99446309D01*
X118851673Y-99679698D01*
X119030301Y-99858327D01*
X119263690Y-99955000D01*
X119714250Y-99955000D01*
X119873000Y-99796250D01*
X119873000Y-98992000D01*
X120127000Y-98992000D01*
X120127000Y-99796250D01*
X120285750Y-99955000D01*
X120736310Y-99955000D01*
X120969699Y-99858327D01*
X121148327Y-99679698D01*
X121245000Y-99446309D01*
X121245000Y-99150750D01*
X121086250Y-98992000D01*
X120127000Y-98992000D01*
X119873000Y-98992000D01*
X118913750Y-98992000D01*
X118755000Y-99150750D01*
X117569357Y-99150750D01*
X117553162Y-99064683D01*
X117414090Y-98848559D01*
X117201890Y-98703569D01*
X116950000Y-98652560D01*
X116297546Y-98652560D01*
X116140839Y-98547852D01*
X115850000Y-98490000D01*
X106500000Y-98490000D01*
X106437840Y-98502364D01*
X106374494Y-98500435D01*
X106293798Y-98531017D01*
X106209161Y-98547852D01*
X106156467Y-98583061D01*
X106097201Y-98605521D01*
X102681638Y-100740248D01*
X102844707Y-100312266D01*
X102823786Y-99582557D01*
X102584788Y-99005565D01*
X102297175Y-98882430D01*
X101179605Y-100000000D01*
X101193748Y-100014143D01*
X101014143Y-100193748D01*
X101000000Y-100179605D01*
X100985858Y-100193748D01*
X100806253Y-100014143D01*
X100820395Y-100000000D01*
X99702825Y-98882430D01*
X99415212Y-99005565D01*
X99155293Y-99687734D01*
X99176214Y-100417443D01*
X99413375Y-100990000D01*
X98260000Y-100990000D01*
X98260000Y-95300000D01*
X99152560Y-95300000D01*
X99152560Y-97700000D01*
X99196838Y-97935317D01*
X99335910Y-98151441D01*
X99548110Y-98296431D01*
X99800000Y-98347440D01*
X100169181Y-98347440D01*
X100005565Y-98415212D01*
X99882430Y-98702825D01*
X101000000Y-99820395D01*
X102117570Y-98702825D01*
X101994435Y-98415212D01*
X101816564Y-98347440D01*
X102200000Y-98347440D01*
X102435317Y-98303162D01*
X102465575Y-98283691D01*
X118755000Y-98283691D01*
X118755000Y-98579250D01*
X118913750Y-98738000D01*
X119873000Y-98738000D01*
X119873000Y-97933750D01*
X120127000Y-97933750D01*
X120127000Y-98738000D01*
X121086250Y-98738000D01*
X121245000Y-98579250D01*
X121245000Y-98283691D01*
X121148327Y-98050302D01*
X120969699Y-97871673D01*
X120736310Y-97775000D01*
X120285750Y-97775000D01*
X120127000Y-97933750D01*
X119873000Y-97933750D01*
X119714250Y-97775000D01*
X119263690Y-97775000D01*
X119030301Y-97871673D01*
X118851673Y-98050302D01*
X118755000Y-98283691D01*
X102465575Y-98283691D01*
X102651441Y-98164090D01*
X102796431Y-97951890D01*
X102847440Y-97700000D01*
X102847440Y-95300000D01*
X102803162Y-95064683D01*
X102664090Y-94848559D01*
X102451890Y-94703569D01*
X102200000Y-94652560D01*
X99800000Y-94652560D01*
X99564683Y-94696838D01*
X99348559Y-94835910D01*
X99203569Y-95048110D01*
X99152560Y-95300000D01*
X98260000Y-95300000D01*
X98260000Y-90064802D01*
X98814802Y-89510000D01*
X103750000Y-89510000D01*
X104040839Y-89452148D01*
X104287401Y-89287401D01*
X107564802Y-86010000D01*
X109901103Y-86010000D01*
X109813569Y-86138110D01*
X109813569Y-86138110D01*
G37*
X109813569Y-86138110D02*
X109797998Y-86215000D01*
X109000005Y-86215000D01*
X109000000Y-86214999D01*
X108699594Y-86274755D01*
X108444921Y-86444921D01*
X107824995Y-87064847D01*
X107814833Y-87064838D01*
X107471057Y-87206883D01*
X107207808Y-87469673D01*
X107065162Y-87813201D01*
X107064838Y-88185167D01*
X107206883Y-88528943D01*
X107469673Y-88792192D01*
X107813201Y-88934838D01*
X108185167Y-88935162D01*
X108528943Y-88793117D01*
X108792192Y-88530327D01*
X108934838Y-88186799D01*
X108934848Y-88175310D01*
X109325158Y-87785000D01*
X109795489Y-87785000D01*
X109806838Y-87845317D01*
X109945910Y-88061441D01*
X110158110Y-88206431D01*
X110410000Y-88257440D01*
X111320000Y-88257440D01*
X111555317Y-88213162D01*
X111771441Y-88074090D01*
X111916431Y-87861890D01*
X111967440Y-87610000D01*
X111967440Y-86390000D01*
X111923162Y-86154683D01*
X111830061Y-86010000D01*
X113171103Y-86010000D01*
X113083569Y-86138110D01*
X113032560Y-86390000D01*
X113032560Y-87610000D01*
X113076838Y-87845317D01*
X113215910Y-88061441D01*
X113428110Y-88206431D01*
X113680000Y-88257440D01*
X114590000Y-88257440D01*
X114825317Y-88213162D01*
X115041441Y-88074090D01*
X115186431Y-87861890D01*
X115202002Y-87785000D01*
X115574842Y-87785000D01*
X115902560Y-88112718D01*
X115902560Y-88700000D01*
X115946838Y-88935317D01*
X116085910Y-89151441D01*
X116298110Y-89296431D01*
X116550000Y-89347440D01*
X117450000Y-89347440D01*
X117685317Y-89303162D01*
X117901441Y-89164090D01*
X118046431Y-88951890D01*
X118059977Y-88885000D01*
X118825243Y-88885000D01*
X118925910Y-89041441D01*
X119138110Y-89186431D01*
X119240000Y-89207064D01*
X119240000Y-89587253D01*
X119186799Y-89565162D01*
X118814833Y-89564838D01*
X118471057Y-89706883D01*
X118207808Y-89969673D01*
X118109074Y-90207450D01*
X111224637Y-95715000D01*
X111037506Y-95715000D01*
X111030327Y-95707808D01*
X110686799Y-95565162D01*
X110314833Y-95564838D01*
X109971057Y-95706883D01*
X109707808Y-95969673D01*
X109565162Y-96313201D01*
X109564838Y-96685167D01*
X109706883Y-97028943D01*
X109969673Y-97292192D01*
X110313201Y-97434838D01*
X110685167Y-97435162D01*
X111028943Y-97293117D01*
X111037074Y-97285000D01*
X111500000Y-97285000D01*
X111608384Y-97263441D01*
X111718479Y-97253983D01*
X111757402Y-97233799D01*
X111800406Y-97225245D01*
X111892286Y-97163853D01*
X111990386Y-97112982D01*
X119087766Y-91435077D01*
X119185167Y-91435162D01*
X119240000Y-91412506D01*
X119240000Y-93810000D01*
X119297852Y-94100839D01*
X119462599Y-94347401D01*
X124081980Y-98966782D01*
X124025276Y-99103341D01*
X124024725Y-99733893D01*
X124265519Y-100316657D01*
X124638471Y-100690261D01*
X124267086Y-101060997D01*
X124147082Y-101350000D01*
X121152235Y-101350000D01*
X121074090Y-101228559D01*
X120861890Y-101083569D01*
X120610000Y-101032560D01*
X119390000Y-101032560D01*
X119154683Y-101076838D01*
X118938559Y-101215910D01*
X118870854Y-101315000D01*
X117562630Y-101315000D01*
X117553162Y-101264683D01*
X117414090Y-101048559D01*
X117344289Y-101000866D01*
X117401441Y-100964090D01*
X117546431Y-100751890D01*
X117597440Y-100500000D01*
X117597440Y-99300000D01*
X117569357Y-99150750D01*
X118755000Y-99150750D01*
X118755000Y-99446309D01*
X118851673Y-99679698D01*
X119030301Y-99858327D01*
X119263690Y-99955000D01*
X119714250Y-99955000D01*
X119873000Y-99796250D01*
X119873000Y-98992000D01*
X120127000Y-98992000D01*
X120127000Y-99796250D01*
X120285750Y-99955000D01*
X120736310Y-99955000D01*
X120969699Y-99858327D01*
X121148327Y-99679698D01*
X121245000Y-99446309D01*
X121245000Y-99150750D01*
X121086250Y-98992000D01*
X120127000Y-98992000D01*
X119873000Y-98992000D01*
X118913750Y-98992000D01*
X118755000Y-99150750D01*
X117569357Y-99150750D01*
X117553162Y-99064683D01*
X117414090Y-98848559D01*
X117201890Y-98703569D01*
X116950000Y-98652560D01*
X116297546Y-98652560D01*
X116140839Y-98547852D01*
X115850000Y-98490000D01*
X106500000Y-98490000D01*
X106437840Y-98502364D01*
X106374494Y-98500435D01*
X106293798Y-98531017D01*
X106209161Y-98547852D01*
X106156467Y-98583061D01*
X106097201Y-98605521D01*
X102681638Y-100740248D01*
X102844707Y-100312266D01*
X102823786Y-99582557D01*
X102584788Y-99005565D01*
X102297175Y-98882430D01*
X101179605Y-100000000D01*
X101193748Y-100014143D01*
X101014143Y-100193748D01*
X101000000Y-100179605D01*
X100985858Y-100193748D01*
X100806253Y-100014143D01*
X100820395Y-100000000D01*
X99702825Y-98882430D01*
X99415212Y-99005565D01*
X99155293Y-99687734D01*
X99176214Y-100417443D01*
X99413375Y-100990000D01*
X98260000Y-100990000D01*
X98260000Y-95300000D01*
X99152560Y-95300000D01*
X99152560Y-97700000D01*
X99196838Y-97935317D01*
X99335910Y-98151441D01*
X99548110Y-98296431D01*
X99800000Y-98347440D01*
X100169181Y-98347440D01*
X100005565Y-98415212D01*
X99882430Y-98702825D01*
X101000000Y-99820395D01*
X102117570Y-98702825D01*
X101994435Y-98415212D01*
X101816564Y-98347440D01*
X102200000Y-98347440D01*
X102435317Y-98303162D01*
X102465575Y-98283691D01*
X118755000Y-98283691D01*
X118755000Y-98579250D01*
X118913750Y-98738000D01*
X119873000Y-98738000D01*
X119873000Y-97933750D01*
X120127000Y-97933750D01*
X120127000Y-98738000D01*
X121086250Y-98738000D01*
X121245000Y-98579250D01*
X121245000Y-98283691D01*
X121148327Y-98050302D01*
X120969699Y-97871673D01*
X120736310Y-97775000D01*
X120285750Y-97775000D01*
X120127000Y-97933750D01*
X119873000Y-97933750D01*
X119714250Y-97775000D01*
X119263690Y-97775000D01*
X119030301Y-97871673D01*
X118851673Y-98050302D01*
X118755000Y-98283691D01*
X102465575Y-98283691D01*
X102651441Y-98164090D01*
X102796431Y-97951890D01*
X102847440Y-97700000D01*
X102847440Y-95300000D01*
X102803162Y-95064683D01*
X102664090Y-94848559D01*
X102451890Y-94703569D01*
X102200000Y-94652560D01*
X99800000Y-94652560D01*
X99564683Y-94696838D01*
X99348559Y-94835910D01*
X99203569Y-95048110D01*
X99152560Y-95300000D01*
X98260000Y-95300000D01*
X98260000Y-90064802D01*
X98814802Y-89510000D01*
X103750000Y-89510000D01*
X104040839Y-89452148D01*
X104287401Y-89287401D01*
X107564802Y-86010000D01*
X109901103Y-86010000D01*
X109813569Y-86138110D01*
G36*
X171215000Y-93140000D02*
X155067334Y-93140000D01*
X155053162Y-93064683D01*
X154914090Y-92848559D01*
X154701890Y-92703569D01*
X154450000Y-92652560D01*
X153550000Y-92652560D01*
X153314683Y-92696838D01*
X153098559Y-92835910D01*
X152953569Y-93048110D01*
X152902560Y-93300000D01*
X152902560Y-94500000D01*
X152946838Y-94735317D01*
X153085910Y-94951441D01*
X153155711Y-94999134D01*
X153098559Y-95035910D01*
X152953569Y-95248110D01*
X152932936Y-95350000D01*
X152152235Y-95350000D01*
X152074090Y-95228559D01*
X151861890Y-95083569D01*
X151610000Y-95032560D01*
X150390000Y-95032560D01*
X150154683Y-95076838D01*
X149938559Y-95215910D01*
X149846939Y-95350000D01*
X149115005Y-95350000D01*
X149115000Y-95349999D01*
X148814594Y-95409755D01*
X148559921Y-95579921D01*
X148559919Y-95579924D01*
X147285000Y-96854842D01*
X147285000Y-93150750D01*
X149755000Y-93150750D01*
X149755000Y-93446309D01*
X149851673Y-93679698D01*
X150030301Y-93858327D01*
X150263690Y-93955000D01*
X150714250Y-93955000D01*
X150873000Y-93796250D01*
X150873000Y-92992000D01*
X151127000Y-92992000D01*
X151127000Y-93796250D01*
X151285750Y-93955000D01*
X151736310Y-93955000D01*
X151969699Y-93858327D01*
X152148327Y-93679698D01*
X152245000Y-93446309D01*
X152245000Y-93150750D01*
X152086250Y-92992000D01*
X151127000Y-92992000D01*
X150873000Y-92992000D01*
X149913750Y-92992000D01*
X149755000Y-93150750D01*
X147285000Y-93150750D01*
X147285000Y-92283691D01*
X149755000Y-92283691D01*
X149755000Y-92579250D01*
X149913750Y-92738000D01*
X150873000Y-92738000D01*
X150873000Y-91933750D01*
X151127000Y-91933750D01*
X151127000Y-92738000D01*
X152086250Y-92738000D01*
X152245000Y-92579250D01*
X152245000Y-92283691D01*
X152148327Y-92050302D01*
X151969699Y-91871673D01*
X151736310Y-91775000D01*
X151285750Y-91775000D01*
X151127000Y-91933750D01*
X150873000Y-91933750D01*
X150714250Y-91775000D01*
X150263690Y-91775000D01*
X150030301Y-91871673D01*
X149851673Y-92050302D01*
X149755000Y-92283691D01*
X147285000Y-92283691D01*
X147285000Y-88185167D01*
X151064838Y-88185167D01*
X151206883Y-88528943D01*
X151469673Y-88792192D01*
X151813201Y-88934838D01*
X152185167Y-88935162D01*
X152528943Y-88793117D01*
X152792192Y-88530327D01*
X152934838Y-88186799D01*
X152934848Y-88175310D01*
X153825158Y-87285000D01*
X158962494Y-87285000D01*
X158969673Y-87292192D01*
X159313201Y-87434838D01*
X159685167Y-87435162D01*
X160028943Y-87293117D01*
X160292192Y-87030327D01*
X160434838Y-86686799D01*
X160435162Y-86314833D01*
X160293117Y-85971057D01*
X160030327Y-85707808D01*
X159686799Y-85565162D01*
X159314833Y-85564838D01*
X158971057Y-85706883D01*
X158962926Y-85715000D01*
X153500000Y-85715000D01*
X153199593Y-85774755D01*
X152944921Y-85944921D01*
X151824995Y-87064847D01*
X151814833Y-87064838D01*
X151471057Y-87206883D01*
X151207808Y-87469673D01*
X151065162Y-87813201D01*
X151064838Y-88185167D01*
X147285000Y-88185167D01*
X147285000Y-86690158D01*
X148554408Y-85420750D01*
X149755000Y-85420750D01*
X149755000Y-85716309D01*
X149851673Y-85949698D01*
X150030301Y-86128327D01*
X150263690Y-86225000D01*
X150714250Y-86225000D01*
X150873000Y-86066250D01*
X150873000Y-85262000D01*
X151127000Y-85262000D01*
X151127000Y-86066250D01*
X151285750Y-86225000D01*
X151736310Y-86225000D01*
X151969699Y-86128327D01*
X152148327Y-85949698D01*
X152245000Y-85716309D01*
X152245000Y-85420750D01*
X152086250Y-85262000D01*
X151127000Y-85262000D01*
X150873000Y-85262000D01*
X149913750Y-85262000D01*
X149755000Y-85420750D01*
X148554408Y-85420750D01*
X149421467Y-84553691D01*
X149755000Y-84553691D01*
X149755000Y-84849250D01*
X149913750Y-85008000D01*
X150873000Y-85008000D01*
X150873000Y-84203750D01*
X151127000Y-84203750D01*
X151127000Y-85008000D01*
X152086250Y-85008000D01*
X152245000Y-84849250D01*
X152245000Y-84553691D01*
X152148327Y-84320302D01*
X151969699Y-84141673D01*
X151736310Y-84045000D01*
X151285750Y-84045000D01*
X151127000Y-84203750D01*
X150873000Y-84203750D01*
X150714250Y-84045000D01*
X150263690Y-84045000D01*
X150030301Y-84141673D01*
X149851673Y-84320302D01*
X149755000Y-84553691D01*
X149421467Y-84553691D01*
X151007718Y-82967440D01*
X151610000Y-82967440D01*
X151845317Y-82923162D01*
X152061441Y-82784090D01*
X152153061Y-82650000D01*
X152930784Y-82650000D01*
X152946838Y-82735317D01*
X153085910Y-82951441D01*
X153155711Y-82999134D01*
X153098559Y-83035910D01*
X152953569Y-83248110D01*
X152902560Y-83500000D01*
X152902560Y-84700000D01*
X152946838Y-84935317D01*
X153085910Y-85151441D01*
X153298110Y-85296431D01*
X153550000Y-85347440D01*
X154450000Y-85347440D01*
X154685317Y-85303162D01*
X154690230Y-85300000D01*
X167152560Y-85300000D01*
X167152560Y-87700000D01*
X167196838Y-87935317D01*
X167335910Y-88151441D01*
X167548110Y-88296431D01*
X167800000Y-88347440D01*
X170200000Y-88347440D01*
X170435317Y-88303162D01*
X170651441Y-88164090D01*
X170796431Y-87951890D01*
X170847440Y-87700000D01*
X170847440Y-85300000D01*
X170803162Y-85064683D01*
X170664090Y-84848559D01*
X170451890Y-84703569D01*
X170200000Y-84652560D01*
X169830819Y-84652560D01*
X169994435Y-84584788D01*
X170117570Y-84297175D01*
X169000000Y-83179605D01*
X167882430Y-84297175D01*
X168005565Y-84584788D01*
X168183436Y-84652560D01*
X167800000Y-84652560D01*
X167564683Y-84696838D01*
X167348559Y-84835910D01*
X167203569Y-85048110D01*
X167152560Y-85300000D01*
X154690230Y-85300000D01*
X154901441Y-85164090D01*
X155046431Y-84951890D01*
X155059977Y-84885000D01*
X163900000Y-84885000D01*
X164200407Y-84825245D01*
X164455079Y-84655079D01*
X165555079Y-83555079D01*
X165725245Y-83300406D01*
X165785000Y-83000000D01*
X165785000Y-82687734D01*
X167155293Y-82687734D01*
X167176214Y-83417443D01*
X167415212Y-83994435D01*
X167702825Y-84117570D01*
X168820395Y-83000000D01*
X169179605Y-83000000D01*
X170297175Y-84117570D01*
X170584788Y-83994435D01*
X170844707Y-83312266D01*
X170823786Y-82582557D01*
X170584788Y-82005565D01*
X170297175Y-81882430D01*
X169179605Y-83000000D01*
X168820395Y-83000000D01*
X167702825Y-81882430D01*
X167415212Y-82005565D01*
X167155293Y-82687734D01*
X165785000Y-82687734D01*
X165785000Y-81702825D01*
X167882430Y-81702825D01*
X169000000Y-82820395D01*
X170117570Y-81702825D01*
X169994435Y-81415212D01*
X169312266Y-81155293D01*
X168582557Y-81176214D01*
X168005565Y-81415212D01*
X167882430Y-81702825D01*
X165785000Y-81702825D01*
X165785000Y-80285000D01*
X171215000Y-80285000D01*
X171215000Y-93140000D01*
X171215000Y-93140000D01*
G37*
X171215000Y-93140000D02*
X155067334Y-93140000D01*
X155053162Y-93064683D01*
X154914090Y-92848559D01*
X154701890Y-92703569D01*
X154450000Y-92652560D01*
X153550000Y-92652560D01*
X153314683Y-92696838D01*
X153098559Y-92835910D01*
X152953569Y-93048110D01*
X152902560Y-93300000D01*
X152902560Y-94500000D01*
X152946838Y-94735317D01*
X153085910Y-94951441D01*
X153155711Y-94999134D01*
X153098559Y-95035910D01*
X152953569Y-95248110D01*
X152932936Y-95350000D01*
X152152235Y-95350000D01*
X152074090Y-95228559D01*
X151861890Y-95083569D01*
X151610000Y-95032560D01*
X150390000Y-95032560D01*
X150154683Y-95076838D01*
X149938559Y-95215910D01*
X149846939Y-95350000D01*
X149115005Y-95350000D01*
X149115000Y-95349999D01*
X148814594Y-95409755D01*
X148559921Y-95579921D01*
X148559919Y-95579924D01*
X147285000Y-96854842D01*
X147285000Y-93150750D01*
X149755000Y-93150750D01*
X149755000Y-93446309D01*
X149851673Y-93679698D01*
X150030301Y-93858327D01*
X150263690Y-93955000D01*
X150714250Y-93955000D01*
X150873000Y-93796250D01*
X150873000Y-92992000D01*
X151127000Y-92992000D01*
X151127000Y-93796250D01*
X151285750Y-93955000D01*
X151736310Y-93955000D01*
X151969699Y-93858327D01*
X152148327Y-93679698D01*
X152245000Y-93446309D01*
X152245000Y-93150750D01*
X152086250Y-92992000D01*
X151127000Y-92992000D01*
X150873000Y-92992000D01*
X149913750Y-92992000D01*
X149755000Y-93150750D01*
X147285000Y-93150750D01*
X147285000Y-92283691D01*
X149755000Y-92283691D01*
X149755000Y-92579250D01*
X149913750Y-92738000D01*
X150873000Y-92738000D01*
X150873000Y-91933750D01*
X151127000Y-91933750D01*
X151127000Y-92738000D01*
X152086250Y-92738000D01*
X152245000Y-92579250D01*
X152245000Y-92283691D01*
X152148327Y-92050302D01*
X151969699Y-91871673D01*
X151736310Y-91775000D01*
X151285750Y-91775000D01*
X151127000Y-91933750D01*
X150873000Y-91933750D01*
X150714250Y-91775000D01*
X150263690Y-91775000D01*
X150030301Y-91871673D01*
X149851673Y-92050302D01*
X149755000Y-92283691D01*
X147285000Y-92283691D01*
X147285000Y-88185167D01*
X151064838Y-88185167D01*
X151206883Y-88528943D01*
X151469673Y-88792192D01*
X151813201Y-88934838D01*
X152185167Y-88935162D01*
X152528943Y-88793117D01*
X152792192Y-88530327D01*
X152934838Y-88186799D01*
X152934848Y-88175310D01*
X153825158Y-87285000D01*
X158962494Y-87285000D01*
X158969673Y-87292192D01*
X159313201Y-87434838D01*
X159685167Y-87435162D01*
X160028943Y-87293117D01*
X160292192Y-87030327D01*
X160434838Y-86686799D01*
X160435162Y-86314833D01*
X160293117Y-85971057D01*
X160030327Y-85707808D01*
X159686799Y-85565162D01*
X159314833Y-85564838D01*
X158971057Y-85706883D01*
X158962926Y-85715000D01*
X153500000Y-85715000D01*
X153199593Y-85774755D01*
X152944921Y-85944921D01*
X151824995Y-87064847D01*
X151814833Y-87064838D01*
X151471057Y-87206883D01*
X151207808Y-87469673D01*
X151065162Y-87813201D01*
X151064838Y-88185167D01*
X147285000Y-88185167D01*
X147285000Y-86690158D01*
X148554408Y-85420750D01*
X149755000Y-85420750D01*
X149755000Y-85716309D01*
X149851673Y-85949698D01*
X150030301Y-86128327D01*
X150263690Y-86225000D01*
X150714250Y-86225000D01*
X150873000Y-86066250D01*
X150873000Y-85262000D01*
X151127000Y-85262000D01*
X151127000Y-86066250D01*
X151285750Y-86225000D01*
X151736310Y-86225000D01*
X151969699Y-86128327D01*
X152148327Y-85949698D01*
X152245000Y-85716309D01*
X152245000Y-85420750D01*
X152086250Y-85262000D01*
X151127000Y-85262000D01*
X150873000Y-85262000D01*
X149913750Y-85262000D01*
X149755000Y-85420750D01*
X148554408Y-85420750D01*
X149421467Y-84553691D01*
X149755000Y-84553691D01*
X149755000Y-84849250D01*
X149913750Y-85008000D01*
X150873000Y-85008000D01*
X150873000Y-84203750D01*
X151127000Y-84203750D01*
X151127000Y-85008000D01*
X152086250Y-85008000D01*
X152245000Y-84849250D01*
X152245000Y-84553691D01*
X152148327Y-84320302D01*
X151969699Y-84141673D01*
X151736310Y-84045000D01*
X151285750Y-84045000D01*
X151127000Y-84203750D01*
X150873000Y-84203750D01*
X150714250Y-84045000D01*
X150263690Y-84045000D01*
X150030301Y-84141673D01*
X149851673Y-84320302D01*
X149755000Y-84553691D01*
X149421467Y-84553691D01*
X151007718Y-82967440D01*
X151610000Y-82967440D01*
X151845317Y-82923162D01*
X152061441Y-82784090D01*
X152153061Y-82650000D01*
X152930784Y-82650000D01*
X152946838Y-82735317D01*
X153085910Y-82951441D01*
X153155711Y-82999134D01*
X153098559Y-83035910D01*
X152953569Y-83248110D01*
X152902560Y-83500000D01*
X152902560Y-84700000D01*
X152946838Y-84935317D01*
X153085910Y-85151441D01*
X153298110Y-85296431D01*
X153550000Y-85347440D01*
X154450000Y-85347440D01*
X154685317Y-85303162D01*
X154690230Y-85300000D01*
X167152560Y-85300000D01*
X167152560Y-87700000D01*
X167196838Y-87935317D01*
X167335910Y-88151441D01*
X167548110Y-88296431D01*
X167800000Y-88347440D01*
X170200000Y-88347440D01*
X170435317Y-88303162D01*
X170651441Y-88164090D01*
X170796431Y-87951890D01*
X170847440Y-87700000D01*
X170847440Y-85300000D01*
X170803162Y-85064683D01*
X170664090Y-84848559D01*
X170451890Y-84703569D01*
X170200000Y-84652560D01*
X169830819Y-84652560D01*
X169994435Y-84584788D01*
X170117570Y-84297175D01*
X169000000Y-83179605D01*
X167882430Y-84297175D01*
X168005565Y-84584788D01*
X168183436Y-84652560D01*
X167800000Y-84652560D01*
X167564683Y-84696838D01*
X167348559Y-84835910D01*
X167203569Y-85048110D01*
X167152560Y-85300000D01*
X154690230Y-85300000D01*
X154901441Y-85164090D01*
X155046431Y-84951890D01*
X155059977Y-84885000D01*
X163900000Y-84885000D01*
X164200407Y-84825245D01*
X164455079Y-84655079D01*
X165555079Y-83555079D01*
X165725245Y-83300406D01*
X165785000Y-83000000D01*
X165785000Y-82687734D01*
X167155293Y-82687734D01*
X167176214Y-83417443D01*
X167415212Y-83994435D01*
X167702825Y-84117570D01*
X168820395Y-83000000D01*
X169179605Y-83000000D01*
X170297175Y-84117570D01*
X170584788Y-83994435D01*
X170844707Y-83312266D01*
X170823786Y-82582557D01*
X170584788Y-82005565D01*
X170297175Y-81882430D01*
X169179605Y-83000000D01*
X168820395Y-83000000D01*
X167702825Y-81882430D01*
X167415212Y-82005565D01*
X167155293Y-82687734D01*
X165785000Y-82687734D01*
X165785000Y-81702825D01*
X167882430Y-81702825D01*
X169000000Y-82820395D01*
X170117570Y-81702825D01*
X169994435Y-81415212D01*
X169312266Y-81155293D01*
X168582557Y-81176214D01*
X168005565Y-81415212D01*
X167882430Y-81702825D01*
X165785000Y-81702825D01*
X165785000Y-80285000D01*
X171215000Y-80285000D01*
X171215000Y-93140000D01*
M02*
