G04 #@! TF.FileFunction,Legend,Top*
%FSLAX46Y46*%
G04 Gerber Fmt 4.6, Leading zero omitted, Abs format (unit mm)*
G04 Created by KiCad (PCBNEW 4.0.1-stable) date 22-Mar-16 21:49:02*
%MOMM*%
G01*
G04 APERTURE LIST*
%ADD10C,0.100000*%
%ADD11C,0.300000*%
%ADD12C,0.150000*%
%ADD13C,0.010000*%
G04 APERTURE END LIST*
D10*
D11*
X153171429Y-68978571D02*
X153457143Y-68978571D01*
X153600001Y-69050000D01*
X153742858Y-69192857D01*
X153814286Y-69478571D01*
X153814286Y-69978571D01*
X153742858Y-70264286D01*
X153600001Y-70407143D01*
X153457143Y-70478571D01*
X153171429Y-70478571D01*
X153028572Y-70407143D01*
X152885715Y-70264286D01*
X152814286Y-69978571D01*
X152814286Y-69478571D01*
X152885715Y-69192857D01*
X153028572Y-69050000D01*
X153171429Y-68978571D01*
X154957144Y-69692857D02*
X154457144Y-69692857D01*
X154457144Y-70478571D02*
X154457144Y-68978571D01*
X155171430Y-68978571D01*
X156242858Y-69692857D02*
X155742858Y-69692857D01*
X155742858Y-70478571D02*
X155742858Y-68978571D01*
X156457144Y-68978571D01*
X143007143Y-70050000D02*
X143721429Y-70050000D01*
X142864286Y-70478571D02*
X143364286Y-68978571D01*
X143864286Y-70478571D01*
X145221429Y-70478571D02*
X144721429Y-69764286D01*
X144364286Y-70478571D02*
X144364286Y-68978571D01*
X144935714Y-68978571D01*
X145078572Y-69050000D01*
X145150000Y-69121429D01*
X145221429Y-69264286D01*
X145221429Y-69478571D01*
X145150000Y-69621429D01*
X145078572Y-69692857D01*
X144935714Y-69764286D01*
X144364286Y-69764286D01*
X145864286Y-70478571D02*
X145864286Y-68978571D01*
X146364286Y-70050000D01*
X146864286Y-68978571D01*
X146864286Y-70478571D01*
X147578572Y-69692857D02*
X148078572Y-69692857D01*
X148292858Y-70478571D02*
X147578572Y-70478571D01*
X147578572Y-68978571D01*
X148292858Y-68978571D01*
X148935715Y-70478571D02*
X148935715Y-68978571D01*
X149292858Y-68978571D01*
X149507143Y-69050000D01*
X149650001Y-69192857D01*
X149721429Y-69335714D01*
X149792858Y-69621429D01*
X149792858Y-69835714D01*
X149721429Y-70121429D01*
X149650001Y-70264286D01*
X149507143Y-70407143D01*
X149292858Y-70478571D01*
X148935715Y-70478571D01*
X152971429Y-57978571D02*
X153257143Y-57978571D01*
X153400001Y-58050000D01*
X153542858Y-58192857D01*
X153614286Y-58478571D01*
X153614286Y-58978571D01*
X153542858Y-59264286D01*
X153400001Y-59407143D01*
X153257143Y-59478571D01*
X152971429Y-59478571D01*
X152828572Y-59407143D01*
X152685715Y-59264286D01*
X152614286Y-58978571D01*
X152614286Y-58478571D01*
X152685715Y-58192857D01*
X152828572Y-58050000D01*
X152971429Y-57978571D01*
X154757144Y-58692857D02*
X154257144Y-58692857D01*
X154257144Y-59478571D02*
X154257144Y-57978571D01*
X154971430Y-57978571D01*
X156042858Y-58692857D02*
X155542858Y-58692857D01*
X155542858Y-59478571D02*
X155542858Y-57978571D01*
X156257144Y-57978571D01*
X143271428Y-57978571D02*
X143557142Y-57978571D01*
X143700000Y-58050000D01*
X143842857Y-58192857D01*
X143914285Y-58478571D01*
X143914285Y-58978571D01*
X143842857Y-59264286D01*
X143700000Y-59407143D01*
X143557142Y-59478571D01*
X143271428Y-59478571D01*
X143128571Y-59407143D01*
X142985714Y-59264286D01*
X142914285Y-58978571D01*
X142914285Y-58478571D01*
X142985714Y-58192857D01*
X143128571Y-58050000D01*
X143271428Y-57978571D01*
X144557143Y-59478571D02*
X144557143Y-57978571D01*
X145414286Y-59478571D01*
X145414286Y-57978571D01*
D12*
X173100000Y-84750000D02*
X173500000Y-84750000D01*
X172000000Y-88250000D02*
X172000000Y-81250000D01*
X173100000Y-88250000D02*
X173100000Y-81250000D01*
X165900000Y-88250000D02*
X173500000Y-88250000D01*
X173500000Y-81250000D02*
X165900000Y-81250000D01*
X165900000Y-81250000D02*
X165900000Y-88250000D01*
X96900000Y-98250000D02*
X96500000Y-98250000D01*
X98000000Y-94750000D02*
X98000000Y-101750000D01*
X96900000Y-94750000D02*
X96900000Y-101750000D01*
X104100000Y-94750000D02*
X96500000Y-94750000D01*
X96500000Y-101750000D02*
X104100000Y-101750000D01*
X104100000Y-101750000D02*
X104100000Y-94750000D01*
X125500000Y-57150000D02*
X124500000Y-57150000D01*
X124500000Y-58850000D02*
X125500000Y-58850000D01*
X129350000Y-68000000D02*
X129350000Y-67000000D01*
X127650000Y-67000000D02*
X127650000Y-68000000D01*
X173100000Y-112750000D02*
X173500000Y-112750000D01*
X172000000Y-116250000D02*
X172000000Y-109250000D01*
X173100000Y-116250000D02*
X173100000Y-109250000D01*
X165900000Y-116250000D02*
X173500000Y-116250000D01*
X173500000Y-109250000D02*
X165900000Y-109250000D01*
X165900000Y-109250000D02*
X165900000Y-116250000D01*
X173100000Y-98750000D02*
X173500000Y-98750000D01*
X172000000Y-102250000D02*
X172000000Y-95250000D01*
X173100000Y-102250000D02*
X173100000Y-95250000D01*
X165900000Y-102250000D02*
X173500000Y-102250000D01*
X173500000Y-95250000D02*
X165900000Y-95250000D01*
X165900000Y-95250000D02*
X165900000Y-102250000D01*
X96900000Y-126250000D02*
X96500000Y-126250000D01*
X98000000Y-122750000D02*
X98000000Y-129750000D01*
X96900000Y-122750000D02*
X96900000Y-129750000D01*
X104100000Y-122750000D02*
X96500000Y-122750000D01*
X96500000Y-129750000D02*
X104100000Y-129750000D01*
X104100000Y-129750000D02*
X104100000Y-122750000D01*
X96900000Y-112250000D02*
X96500000Y-112250000D01*
X98000000Y-108750000D02*
X98000000Y-115750000D01*
X96900000Y-108750000D02*
X96900000Y-115750000D01*
X104100000Y-108750000D02*
X96500000Y-108750000D01*
X96500000Y-115750000D02*
X104100000Y-115750000D01*
X104100000Y-115750000D02*
X104100000Y-108750000D01*
X96900000Y-84250000D02*
X96500000Y-84250000D01*
X98000000Y-80750000D02*
X98000000Y-87750000D01*
X96900000Y-80750000D02*
X96900000Y-87750000D01*
X104100000Y-80750000D02*
X96500000Y-80750000D01*
X96500000Y-87750000D02*
X104100000Y-87750000D01*
X104100000Y-87750000D02*
X104100000Y-80750000D01*
X158603000Y-127024000D02*
X158603000Y-123849000D01*
X158603000Y-123849000D02*
X156825000Y-123849000D01*
X156825000Y-123849000D02*
X156825000Y-127024000D01*
X163175000Y-127024000D02*
X163175000Y-123849000D01*
X163175000Y-123849000D02*
X161397000Y-123849000D01*
X161397000Y-123849000D02*
X161397000Y-127024000D01*
X156571000Y-133120000D02*
X156571000Y-127024000D01*
X156571000Y-127024000D02*
X163429000Y-127024000D01*
X163429000Y-127024000D02*
X163429000Y-134898000D01*
X163429000Y-135025000D02*
X156571000Y-135025000D01*
X156571000Y-134898000D02*
X156571000Y-133120000D01*
X158603000Y-113524000D02*
X158603000Y-110349000D01*
X158603000Y-110349000D02*
X156825000Y-110349000D01*
X156825000Y-110349000D02*
X156825000Y-113524000D01*
X163175000Y-113524000D02*
X163175000Y-110349000D01*
X163175000Y-110349000D02*
X161397000Y-110349000D01*
X161397000Y-110349000D02*
X161397000Y-113524000D01*
X156571000Y-119620000D02*
X156571000Y-113524000D01*
X156571000Y-113524000D02*
X163429000Y-113524000D01*
X163429000Y-113524000D02*
X163429000Y-121398000D01*
X163429000Y-121525000D02*
X156571000Y-121525000D01*
X156571000Y-121398000D02*
X156571000Y-119620000D01*
X158603000Y-99524000D02*
X158603000Y-96349000D01*
X158603000Y-96349000D02*
X156825000Y-96349000D01*
X156825000Y-96349000D02*
X156825000Y-99524000D01*
X163175000Y-99524000D02*
X163175000Y-96349000D01*
X163175000Y-96349000D02*
X161397000Y-96349000D01*
X161397000Y-96349000D02*
X161397000Y-99524000D01*
X156571000Y-105620000D02*
X156571000Y-99524000D01*
X156571000Y-99524000D02*
X163429000Y-99524000D01*
X163429000Y-99524000D02*
X163429000Y-107398000D01*
X163429000Y-107525000D02*
X156571000Y-107525000D01*
X156571000Y-107398000D02*
X156571000Y-105620000D01*
X158603000Y-85524000D02*
X158603000Y-82349000D01*
X158603000Y-82349000D02*
X156825000Y-82349000D01*
X156825000Y-82349000D02*
X156825000Y-85524000D01*
X163175000Y-85524000D02*
X163175000Y-82349000D01*
X163175000Y-82349000D02*
X161397000Y-82349000D01*
X161397000Y-82349000D02*
X161397000Y-85524000D01*
X156571000Y-91620000D02*
X156571000Y-85524000D01*
X156571000Y-85524000D02*
X163429000Y-85524000D01*
X163429000Y-85524000D02*
X163429000Y-93398000D01*
X163429000Y-93525000D02*
X156571000Y-93525000D01*
X156571000Y-93398000D02*
X156571000Y-91620000D01*
X111397000Y-125476000D02*
X111397000Y-128651000D01*
X111397000Y-128651000D02*
X113175000Y-128651000D01*
X113175000Y-128651000D02*
X113175000Y-125476000D01*
X106825000Y-125476000D02*
X106825000Y-128651000D01*
X106825000Y-128651000D02*
X108603000Y-128651000D01*
X108603000Y-128651000D02*
X108603000Y-125476000D01*
X113429000Y-119380000D02*
X113429000Y-125476000D01*
X113429000Y-125476000D02*
X106571000Y-125476000D01*
X106571000Y-125476000D02*
X106571000Y-117602000D01*
X106571000Y-117475000D02*
X113429000Y-117475000D01*
X113429000Y-117602000D02*
X113429000Y-119380000D01*
X111397000Y-111476000D02*
X111397000Y-114651000D01*
X111397000Y-114651000D02*
X113175000Y-114651000D01*
X113175000Y-114651000D02*
X113175000Y-111476000D01*
X106825000Y-111476000D02*
X106825000Y-114651000D01*
X106825000Y-114651000D02*
X108603000Y-114651000D01*
X108603000Y-114651000D02*
X108603000Y-111476000D01*
X113429000Y-105380000D02*
X113429000Y-111476000D01*
X113429000Y-111476000D02*
X106571000Y-111476000D01*
X106571000Y-111476000D02*
X106571000Y-103602000D01*
X106571000Y-103475000D02*
X113429000Y-103475000D01*
X113429000Y-103602000D02*
X113429000Y-105380000D01*
X111397000Y-97476000D02*
X111397000Y-100651000D01*
X111397000Y-100651000D02*
X113175000Y-100651000D01*
X113175000Y-100651000D02*
X113175000Y-97476000D01*
X106825000Y-97476000D02*
X106825000Y-100651000D01*
X106825000Y-100651000D02*
X108603000Y-100651000D01*
X108603000Y-100651000D02*
X108603000Y-97476000D01*
X113429000Y-91380000D02*
X113429000Y-97476000D01*
X113429000Y-97476000D02*
X106571000Y-97476000D01*
X106571000Y-97476000D02*
X106571000Y-89602000D01*
X106571000Y-89475000D02*
X113429000Y-89475000D01*
X113429000Y-89602000D02*
X113429000Y-91380000D01*
X111397000Y-83476000D02*
X111397000Y-86651000D01*
X111397000Y-86651000D02*
X113175000Y-86651000D01*
X113175000Y-86651000D02*
X113175000Y-83476000D01*
X106825000Y-83476000D02*
X106825000Y-86651000D01*
X106825000Y-86651000D02*
X108603000Y-86651000D01*
X108603000Y-86651000D02*
X108603000Y-83476000D01*
X113429000Y-77380000D02*
X113429000Y-83476000D01*
X113429000Y-83476000D02*
X106571000Y-83476000D01*
X106571000Y-83476000D02*
X106571000Y-75602000D01*
X106571000Y-75475000D02*
X113429000Y-75475000D01*
X113429000Y-75602000D02*
X113429000Y-77380000D01*
X149175000Y-126500000D02*
X149175000Y-127500000D01*
X147825000Y-127500000D02*
X147825000Y-126500000D01*
X150325000Y-127500000D02*
X150325000Y-126500000D01*
X151675000Y-126500000D02*
X151675000Y-127500000D01*
X149175000Y-112500000D02*
X149175000Y-113500000D01*
X147825000Y-113500000D02*
X147825000Y-112500000D01*
X150325000Y-113500000D02*
X150325000Y-112500000D01*
X151675000Y-112500000D02*
X151675000Y-113500000D01*
X149175000Y-98500000D02*
X149175000Y-99500000D01*
X147825000Y-99500000D02*
X147825000Y-98500000D01*
X150325000Y-99500000D02*
X150325000Y-98500000D01*
X151675000Y-98500000D02*
X151675000Y-99500000D01*
X149175000Y-84500000D02*
X149175000Y-85500000D01*
X147825000Y-85500000D02*
X147825000Y-84500000D01*
X150325000Y-85500000D02*
X150325000Y-84500000D01*
X151675000Y-84500000D02*
X151675000Y-85500000D01*
X120825000Y-126000000D02*
X120825000Y-125000000D01*
X122175000Y-125000000D02*
X122175000Y-126000000D01*
X119675000Y-125000000D02*
X119675000Y-126000000D01*
X118325000Y-126000000D02*
X118325000Y-125000000D01*
X120825000Y-112500000D02*
X120825000Y-111500000D01*
X122175000Y-111500000D02*
X122175000Y-112500000D01*
X119675000Y-111500000D02*
X119675000Y-112500000D01*
X118325000Y-112500000D02*
X118325000Y-111500000D01*
X120825000Y-99500000D02*
X120825000Y-98500000D01*
X122175000Y-98500000D02*
X122175000Y-99500000D01*
X119675000Y-98500000D02*
X119675000Y-99500000D01*
X118325000Y-99500000D02*
X118325000Y-98500000D01*
X120825000Y-85500000D02*
X120825000Y-84500000D01*
X122175000Y-84500000D02*
X122175000Y-85500000D01*
X119675000Y-84500000D02*
X119675000Y-85500000D01*
X118325000Y-85500000D02*
X118325000Y-84500000D01*
X142750000Y-68000000D02*
X142750000Y-60000000D01*
X155750000Y-68000000D02*
X155750000Y-60000000D01*
X142750000Y-60000000D02*
X155750000Y-60000000D01*
X142750000Y-68000000D02*
X155750000Y-68000000D01*
X142750000Y-79000000D02*
X142750000Y-71000000D01*
X155750000Y-79000000D02*
X155750000Y-71000000D01*
X142750000Y-71000000D02*
X155750000Y-71000000D01*
X142750000Y-79000000D02*
X155750000Y-79000000D01*
X121000000Y-61500000D02*
X121000000Y-62750000D01*
X121000000Y-61500000D02*
X119500000Y-61500000D01*
X121000000Y-71500000D02*
X119500000Y-71500000D01*
X121000000Y-71500000D02*
X121000000Y-70250000D01*
X144660000Y-118470000D02*
X143136000Y-121518000D01*
X124340000Y-118470000D02*
X125864000Y-121518000D01*
X125864000Y-121518000D02*
X143136000Y-121518000D01*
X144660000Y-84942000D02*
X144660000Y-118470000D01*
X124340000Y-84942000D02*
X124340000Y-118470000D01*
X138513200Y-84942000D02*
X144660000Y-84942000D01*
X130486800Y-84942000D02*
X124340000Y-84942000D01*
X130486800Y-83037000D02*
X130486800Y-84942000D01*
X138513200Y-83037000D02*
X138513200Y-84942000D01*
X130486800Y-83037000D02*
X138513200Y-83037000D01*
X173100000Y-126250000D02*
X173500000Y-126250000D01*
X172000000Y-129750000D02*
X172000000Y-122750000D01*
X173100000Y-129750000D02*
X173100000Y-122750000D01*
X165900000Y-129750000D02*
X173500000Y-129750000D01*
X173500000Y-122750000D02*
X165900000Y-122750000D01*
X165900000Y-122750000D02*
X165900000Y-129750000D01*
X148700840Y-132650240D02*
X148749100Y-132650240D01*
X151499820Y-131949200D02*
X151499820Y-132650240D01*
X151499820Y-132650240D02*
X151250900Y-132650240D01*
X148700840Y-132650240D02*
X148500180Y-132650240D01*
X148500180Y-132650240D02*
X148500180Y-131949200D01*
X148700840Y-118650240D02*
X148749100Y-118650240D01*
X151499820Y-117949200D02*
X151499820Y-118650240D01*
X151499820Y-118650240D02*
X151250900Y-118650240D01*
X148700840Y-118650240D02*
X148500180Y-118650240D01*
X148500180Y-118650240D02*
X148500180Y-117949200D01*
X148700840Y-104650240D02*
X148749100Y-104650240D01*
X151499820Y-103949200D02*
X151499820Y-104650240D01*
X151499820Y-104650240D02*
X151250900Y-104650240D01*
X148700840Y-104650240D02*
X148500180Y-104650240D01*
X148500180Y-104650240D02*
X148500180Y-103949200D01*
X148700840Y-90650240D02*
X148749100Y-90650240D01*
X151499820Y-89949200D02*
X151499820Y-90650240D01*
X151499820Y-90650240D02*
X151250900Y-90650240D01*
X148700840Y-90650240D02*
X148500180Y-90650240D01*
X148500180Y-90650240D02*
X148500180Y-89949200D01*
X121299160Y-119849760D02*
X121250900Y-119849760D01*
X118500180Y-120550800D02*
X118500180Y-119849760D01*
X118500180Y-119849760D02*
X118749100Y-119849760D01*
X121299160Y-119849760D02*
X121499820Y-119849760D01*
X121499820Y-119849760D02*
X121499820Y-120550800D01*
X121299160Y-105849760D02*
X121250900Y-105849760D01*
X118500180Y-106550800D02*
X118500180Y-105849760D01*
X118500180Y-105849760D02*
X118749100Y-105849760D01*
X121299160Y-105849760D02*
X121499820Y-105849760D01*
X121499820Y-105849760D02*
X121499820Y-106550800D01*
X121299160Y-93349760D02*
X121250900Y-93349760D01*
X118500180Y-94050800D02*
X118500180Y-93349760D01*
X118500180Y-93349760D02*
X118749100Y-93349760D01*
X121299160Y-93349760D02*
X121499820Y-93349760D01*
X121499820Y-93349760D02*
X121499820Y-94050800D01*
X121299160Y-79349760D02*
X121250900Y-79349760D01*
X118500180Y-80050800D02*
X118500180Y-79349760D01*
X118500180Y-79349760D02*
X118749100Y-79349760D01*
X121299160Y-79349760D02*
X121499820Y-79349760D01*
X121499820Y-79349760D02*
X121499820Y-80050800D01*
X172000000Y-63000000D02*
X172000000Y-75000000D01*
X172000000Y-75000000D02*
X158000000Y-75000000D01*
X158000000Y-75000000D02*
X158000000Y-63000000D01*
X172000000Y-63000000D02*
X158000000Y-63000000D01*
X151700000Y-51325000D02*
X152700000Y-51325000D01*
X152700000Y-52675000D02*
X151700000Y-52675000D01*
X141700000Y-51325000D02*
X142700000Y-51325000D01*
X142700000Y-52675000D02*
X141700000Y-52675000D01*
X161700000Y-51325000D02*
X162700000Y-51325000D01*
X162700000Y-52675000D02*
X161700000Y-52675000D01*
X156100000Y-52550000D02*
X158000000Y-52550000D01*
X156100000Y-51450000D02*
X158000000Y-51450000D01*
X157000000Y-52000000D02*
X157450000Y-52000000D01*
X156950000Y-51750000D02*
X156950000Y-52250000D01*
X156950000Y-52000000D02*
X157200000Y-51750000D01*
X157200000Y-51750000D02*
X157200000Y-52250000D01*
X157200000Y-52250000D02*
X156950000Y-52000000D01*
X146100000Y-52550000D02*
X148000000Y-52550000D01*
X146100000Y-51450000D02*
X148000000Y-51450000D01*
X147000000Y-52000000D02*
X147450000Y-52000000D01*
X146950000Y-51750000D02*
X146950000Y-52250000D01*
X146950000Y-52000000D02*
X147200000Y-51750000D01*
X147200000Y-51750000D02*
X147200000Y-52250000D01*
X147200000Y-52250000D02*
X146950000Y-52000000D01*
X166100000Y-52550000D02*
X168000000Y-52550000D01*
X166100000Y-51450000D02*
X168000000Y-51450000D01*
X167000000Y-52000000D02*
X167450000Y-52000000D01*
X166950000Y-51750000D02*
X166950000Y-52250000D01*
X166950000Y-52000000D02*
X167200000Y-51750000D01*
X167200000Y-51750000D02*
X167200000Y-52250000D01*
X167200000Y-52250000D02*
X166950000Y-52000000D01*
D13*
G36*
X97728558Y-60855250D02*
X97044381Y-62185089D01*
X96861093Y-63610414D01*
X97106697Y-64982526D01*
X97462941Y-66490562D01*
X97502789Y-67651742D01*
X97222639Y-68539248D01*
X96911030Y-68958594D01*
X96116765Y-69647628D01*
X95300905Y-70101490D01*
X94593343Y-70263939D01*
X94183961Y-70139336D01*
X93959504Y-69732899D01*
X94009106Y-69297210D01*
X94300618Y-69081000D01*
X94320829Y-69080412D01*
X94445462Y-69271407D01*
X94405889Y-69446709D01*
X94409106Y-69859914D01*
X94701451Y-69980052D01*
X95086223Y-69735503D01*
X95296412Y-69213892D01*
X95120339Y-68794390D01*
X94979248Y-68720395D01*
X95518083Y-68720395D01*
X95545850Y-68862199D01*
X95810991Y-69263739D01*
X96024421Y-69342268D01*
X96424383Y-69135985D01*
X96634375Y-68862199D01*
X96744592Y-68519522D01*
X96489751Y-68394443D01*
X96155805Y-68382130D01*
X95637178Y-68451943D01*
X95518083Y-68720395D01*
X94979248Y-68720395D01*
X94695401Y-68571533D01*
X94158994Y-68639861D01*
X93829691Y-68870927D01*
X93570864Y-69445109D01*
X93693508Y-70122338D01*
X94111863Y-70769086D01*
X94740165Y-71251828D01*
X95477911Y-71437113D01*
X96359445Y-71258670D01*
X97363232Y-70800803D01*
X98268363Y-70179703D01*
X98700048Y-69742357D01*
X99102442Y-69285117D01*
X99366463Y-69081118D01*
X99374117Y-69080412D01*
X99575448Y-69291225D01*
X99900080Y-69821242D01*
X100039442Y-70083900D01*
X100977397Y-71459045D01*
X102150905Y-72393079D01*
X102722338Y-72651759D01*
X103253683Y-72859022D01*
X103319531Y-72951681D01*
X102952228Y-72977694D01*
X102942268Y-72977841D01*
X102223875Y-72857805D01*
X101576383Y-72601257D01*
X101035845Y-72150628D01*
X100445528Y-71429091D01*
X100155039Y-70975143D01*
X99755166Y-70278180D01*
X99478237Y-69798070D01*
X99400854Y-69666183D01*
X99204677Y-69788668D01*
X98750187Y-70177273D01*
X98388915Y-70510114D01*
X97247669Y-71350955D01*
X96095331Y-71770160D01*
X95019740Y-71743222D01*
X94574933Y-71574270D01*
X93766836Y-70946170D01*
X93339939Y-70177100D01*
X93275864Y-69381070D01*
X93556236Y-68672087D01*
X94162680Y-68164161D01*
X95076819Y-67971299D01*
X95155441Y-67972655D01*
X96199150Y-67955587D01*
X96822153Y-67791203D01*
X97117796Y-67432316D01*
X97181444Y-66948515D01*
X97132497Y-66415444D01*
X96958541Y-66331114D01*
X96854124Y-66400186D01*
X96403388Y-66605389D01*
X95670452Y-66799906D01*
X95395902Y-66851092D01*
X94682776Y-67015319D01*
X94403170Y-67227580D01*
X94419938Y-67441448D01*
X94475435Y-67702429D01*
X94237894Y-67565034D01*
X94186238Y-67522669D01*
X93773500Y-66949758D01*
X93667098Y-66411845D01*
X94065277Y-66411845D01*
X94091379Y-67116494D01*
X94301031Y-66461855D01*
X94460451Y-66089374D01*
X94534645Y-66233623D01*
X94536785Y-66265464D01*
X94699002Y-66671798D01*
X94993356Y-66635269D01*
X95173945Y-66350073D01*
X95127121Y-65913565D01*
X94796786Y-65569394D01*
X94381870Y-65505027D01*
X94312502Y-65538271D01*
X94117538Y-65900265D01*
X94065277Y-66411845D01*
X93667098Y-66411845D01*
X93638266Y-66266088D01*
X93762811Y-65636454D01*
X94118947Y-65237372D01*
X95507318Y-65237372D01*
X95553488Y-65414433D01*
X95670582Y-65952163D01*
X95685142Y-66098608D01*
X95867900Y-66292567D01*
X96237165Y-66236137D01*
X96568518Y-66003602D01*
X96657732Y-65776676D01*
X96440589Y-65478811D01*
X96155842Y-65414433D01*
X95685146Y-65324863D01*
X95544120Y-65218041D01*
X95507318Y-65237372D01*
X94118947Y-65237372D01*
X94129407Y-65225651D01*
X94441172Y-65152577D01*
X94760256Y-64936742D01*
X94824743Y-64669450D01*
X94892571Y-64464537D01*
X95369127Y-64464537D01*
X95446437Y-64575580D01*
X95521876Y-64432474D01*
X95772857Y-64114631D01*
X95961894Y-64233667D01*
X95948038Y-64628866D01*
X95966409Y-65059612D01*
X96226190Y-65152577D01*
X96535026Y-64992228D01*
X96543707Y-64825257D01*
X96305839Y-64066677D01*
X96134774Y-63719271D01*
X95954316Y-63690404D01*
X95738139Y-63845870D01*
X95419304Y-64255249D01*
X95369127Y-64464537D01*
X94892571Y-64464537D01*
X94985814Y-64182847D01*
X95361959Y-63709349D01*
X95792576Y-63411821D01*
X96067367Y-63409321D01*
X96264044Y-63271604D01*
X96495682Y-62760067D01*
X96589932Y-62449774D01*
X96951715Y-61580673D01*
X97474548Y-60822216D01*
X97598047Y-60697791D01*
X98311802Y-60046391D01*
X97728558Y-60855250D01*
X97728558Y-60855250D01*
G37*
X97728558Y-60855250D02*
X97044381Y-62185089D01*
X96861093Y-63610414D01*
X97106697Y-64982526D01*
X97462941Y-66490562D01*
X97502789Y-67651742D01*
X97222639Y-68539248D01*
X96911030Y-68958594D01*
X96116765Y-69647628D01*
X95300905Y-70101490D01*
X94593343Y-70263939D01*
X94183961Y-70139336D01*
X93959504Y-69732899D01*
X94009106Y-69297210D01*
X94300618Y-69081000D01*
X94320829Y-69080412D01*
X94445462Y-69271407D01*
X94405889Y-69446709D01*
X94409106Y-69859914D01*
X94701451Y-69980052D01*
X95086223Y-69735503D01*
X95296412Y-69213892D01*
X95120339Y-68794390D01*
X94979248Y-68720395D01*
X95518083Y-68720395D01*
X95545850Y-68862199D01*
X95810991Y-69263739D01*
X96024421Y-69342268D01*
X96424383Y-69135985D01*
X96634375Y-68862199D01*
X96744592Y-68519522D01*
X96489751Y-68394443D01*
X96155805Y-68382130D01*
X95637178Y-68451943D01*
X95518083Y-68720395D01*
X94979248Y-68720395D01*
X94695401Y-68571533D01*
X94158994Y-68639861D01*
X93829691Y-68870927D01*
X93570864Y-69445109D01*
X93693508Y-70122338D01*
X94111863Y-70769086D01*
X94740165Y-71251828D01*
X95477911Y-71437113D01*
X96359445Y-71258670D01*
X97363232Y-70800803D01*
X98268363Y-70179703D01*
X98700048Y-69742357D01*
X99102442Y-69285117D01*
X99366463Y-69081118D01*
X99374117Y-69080412D01*
X99575448Y-69291225D01*
X99900080Y-69821242D01*
X100039442Y-70083900D01*
X100977397Y-71459045D01*
X102150905Y-72393079D01*
X102722338Y-72651759D01*
X103253683Y-72859022D01*
X103319531Y-72951681D01*
X102952228Y-72977694D01*
X102942268Y-72977841D01*
X102223875Y-72857805D01*
X101576383Y-72601257D01*
X101035845Y-72150628D01*
X100445528Y-71429091D01*
X100155039Y-70975143D01*
X99755166Y-70278180D01*
X99478237Y-69798070D01*
X99400854Y-69666183D01*
X99204677Y-69788668D01*
X98750187Y-70177273D01*
X98388915Y-70510114D01*
X97247669Y-71350955D01*
X96095331Y-71770160D01*
X95019740Y-71743222D01*
X94574933Y-71574270D01*
X93766836Y-70946170D01*
X93339939Y-70177100D01*
X93275864Y-69381070D01*
X93556236Y-68672087D01*
X94162680Y-68164161D01*
X95076819Y-67971299D01*
X95155441Y-67972655D01*
X96199150Y-67955587D01*
X96822153Y-67791203D01*
X97117796Y-67432316D01*
X97181444Y-66948515D01*
X97132497Y-66415444D01*
X96958541Y-66331114D01*
X96854124Y-66400186D01*
X96403388Y-66605389D01*
X95670452Y-66799906D01*
X95395902Y-66851092D01*
X94682776Y-67015319D01*
X94403170Y-67227580D01*
X94419938Y-67441448D01*
X94475435Y-67702429D01*
X94237894Y-67565034D01*
X94186238Y-67522669D01*
X93773500Y-66949758D01*
X93667098Y-66411845D01*
X94065277Y-66411845D01*
X94091379Y-67116494D01*
X94301031Y-66461855D01*
X94460451Y-66089374D01*
X94534645Y-66233623D01*
X94536785Y-66265464D01*
X94699002Y-66671798D01*
X94993356Y-66635269D01*
X95173945Y-66350073D01*
X95127121Y-65913565D01*
X94796786Y-65569394D01*
X94381870Y-65505027D01*
X94312502Y-65538271D01*
X94117538Y-65900265D01*
X94065277Y-66411845D01*
X93667098Y-66411845D01*
X93638266Y-66266088D01*
X93762811Y-65636454D01*
X94118947Y-65237372D01*
X95507318Y-65237372D01*
X95553488Y-65414433D01*
X95670582Y-65952163D01*
X95685142Y-66098608D01*
X95867900Y-66292567D01*
X96237165Y-66236137D01*
X96568518Y-66003602D01*
X96657732Y-65776676D01*
X96440589Y-65478811D01*
X96155842Y-65414433D01*
X95685146Y-65324863D01*
X95544120Y-65218041D01*
X95507318Y-65237372D01*
X94118947Y-65237372D01*
X94129407Y-65225651D01*
X94441172Y-65152577D01*
X94760256Y-64936742D01*
X94824743Y-64669450D01*
X94892571Y-64464537D01*
X95369127Y-64464537D01*
X95446437Y-64575580D01*
X95521876Y-64432474D01*
X95772857Y-64114631D01*
X95961894Y-64233667D01*
X95948038Y-64628866D01*
X95966409Y-65059612D01*
X96226190Y-65152577D01*
X96535026Y-64992228D01*
X96543707Y-64825257D01*
X96305839Y-64066677D01*
X96134774Y-63719271D01*
X95954316Y-63690404D01*
X95738139Y-63845870D01*
X95419304Y-64255249D01*
X95369127Y-64464537D01*
X94892571Y-64464537D01*
X94985814Y-64182847D01*
X95361959Y-63709349D01*
X95792576Y-63411821D01*
X96067367Y-63409321D01*
X96264044Y-63271604D01*
X96495682Y-62760067D01*
X96589932Y-62449774D01*
X96951715Y-61580673D01*
X97474548Y-60822216D01*
X97598047Y-60697791D01*
X98311802Y-60046391D01*
X97728558Y-60855250D01*
G36*
X102027576Y-59243886D02*
X103027110Y-59645598D01*
X103959275Y-60390526D01*
X104732162Y-61352616D01*
X105253861Y-62405814D01*
X105432464Y-63424065D01*
X105376499Y-63836961D01*
X105395363Y-64279314D01*
X105620628Y-64367010D01*
X106137550Y-64582630D01*
X106615184Y-65088492D01*
X106864140Y-65673095D01*
X106870103Y-65762371D01*
X106695219Y-66272152D01*
X106381692Y-66688411D01*
X106051410Y-67233077D01*
X106120254Y-67582401D01*
X106223141Y-68155403D01*
X106157605Y-68468732D01*
X106012460Y-68716835D01*
X105900817Y-68520602D01*
X105827296Y-68163917D01*
X105628685Y-67588726D01*
X105225282Y-67387627D01*
X105038128Y-67378350D01*
X104523093Y-67540607D01*
X104283485Y-67906266D01*
X104386866Y-68293659D01*
X104636271Y-68458914D01*
X105121824Y-68512376D01*
X105233232Y-68242876D01*
X105042365Y-67908389D01*
X104858820Y-67582564D01*
X105013269Y-67509278D01*
X105376480Y-67709700D01*
X105479082Y-68168235D01*
X105286946Y-68670789D01*
X105212000Y-68755894D01*
X104855532Y-69031765D01*
X104536040Y-68932000D01*
X104304543Y-68735589D01*
X103851403Y-68397455D01*
X103596907Y-68294845D01*
X103249111Y-68136290D01*
X102913923Y-67876410D01*
X102384481Y-67609337D01*
X102009115Y-67807517D01*
X101894846Y-68295451D01*
X102127386Y-68880519D01*
X102730813Y-69315604D01*
X103563834Y-69560022D01*
X104485158Y-69573092D01*
X105353492Y-69314132D01*
X105381648Y-69299397D01*
X105768912Y-69114072D01*
X105756976Y-69224654D01*
X105594226Y-69430325D01*
X105139735Y-69786849D01*
X104859275Y-69865979D01*
X104633494Y-69932676D01*
X104736451Y-70216594D01*
X104891338Y-70447955D01*
X105202762Y-71058538D01*
X105298969Y-71495378D01*
X105110710Y-72030773D01*
X104667541Y-72582304D01*
X104151878Y-72949999D01*
X103924227Y-73002424D01*
X103867752Y-72868564D01*
X104175790Y-72551665D01*
X104208083Y-72526456D01*
X104678104Y-71946557D01*
X104731794Y-71295137D01*
X104596893Y-70797915D01*
X104242370Y-70448829D01*
X103532223Y-70123095D01*
X103400516Y-70073671D01*
X102698940Y-69847499D01*
X102249749Y-69767011D01*
X102160711Y-69805142D01*
X102265055Y-70135616D01*
X102475739Y-70457132D01*
X102656424Y-70586428D01*
X102693001Y-70520618D01*
X102785986Y-70520483D01*
X102950428Y-70847938D01*
X103241747Y-71302053D01*
X103485557Y-71437113D01*
X103670777Y-71248088D01*
X103638259Y-71057665D01*
X103649879Y-70791967D01*
X103872099Y-70823825D01*
X104212448Y-71159940D01*
X104163083Y-71599170D01*
X103817851Y-71881830D01*
X103333874Y-71813626D01*
X102785349Y-71362822D01*
X102245075Y-70652197D01*
X101785851Y-69804531D01*
X101480475Y-68942605D01*
X101401745Y-68189199D01*
X101462822Y-67909896D01*
X101775110Y-67559075D01*
X103204124Y-67559075D01*
X103378663Y-67632901D01*
X103771468Y-67482270D01*
X104186322Y-67202847D01*
X104383345Y-66984158D01*
X104737090Y-66795637D01*
X105305210Y-66723711D01*
X106011232Y-66524381D01*
X106437933Y-66023565D01*
X106469743Y-65367024D01*
X106443052Y-65288629D01*
X106104822Y-64957043D01*
X105627058Y-64968873D01*
X105216910Y-65274997D01*
X105084365Y-65610824D01*
X105151862Y-66096344D01*
X105411685Y-66200000D01*
X105752401Y-66019338D01*
X105793798Y-65645980D01*
X105511661Y-65332867D01*
X105495361Y-65325999D01*
X105384053Y-65209244D01*
X105598273Y-65173250D01*
X106050313Y-65357952D01*
X106219747Y-65812068D01*
X106120093Y-66142468D01*
X105758197Y-66335425D01*
X105127012Y-66406856D01*
X105096110Y-66406170D01*
X104381314Y-66531593D01*
X103713704Y-66871310D01*
X103277994Y-67312764D01*
X103204124Y-67559075D01*
X101775110Y-67559075D01*
X101799765Y-67531378D01*
X102412543Y-67159133D01*
X102514465Y-67114251D01*
X103291006Y-66651729D01*
X104016221Y-66011028D01*
X104089357Y-65927542D01*
X104783875Y-64765249D01*
X105021583Y-63564234D01*
X104857293Y-62397668D01*
X104345815Y-61338717D01*
X103541960Y-60460552D01*
X102500536Y-59836339D01*
X101276356Y-59539248D01*
X99924230Y-59642448D01*
X99477262Y-59770676D01*
X98830555Y-59979027D01*
X98613369Y-60005295D01*
X98764321Y-59849843D01*
X98863535Y-59774297D01*
X99771187Y-59354900D01*
X100935004Y-59171932D01*
X102027576Y-59243886D01*
X102027576Y-59243886D01*
G37*
X102027576Y-59243886D02*
X103027110Y-59645598D01*
X103959275Y-60390526D01*
X104732162Y-61352616D01*
X105253861Y-62405814D01*
X105432464Y-63424065D01*
X105376499Y-63836961D01*
X105395363Y-64279314D01*
X105620628Y-64367010D01*
X106137550Y-64582630D01*
X106615184Y-65088492D01*
X106864140Y-65673095D01*
X106870103Y-65762371D01*
X106695219Y-66272152D01*
X106381692Y-66688411D01*
X106051410Y-67233077D01*
X106120254Y-67582401D01*
X106223141Y-68155403D01*
X106157605Y-68468732D01*
X106012460Y-68716835D01*
X105900817Y-68520602D01*
X105827296Y-68163917D01*
X105628685Y-67588726D01*
X105225282Y-67387627D01*
X105038128Y-67378350D01*
X104523093Y-67540607D01*
X104283485Y-67906266D01*
X104386866Y-68293659D01*
X104636271Y-68458914D01*
X105121824Y-68512376D01*
X105233232Y-68242876D01*
X105042365Y-67908389D01*
X104858820Y-67582564D01*
X105013269Y-67509278D01*
X105376480Y-67709700D01*
X105479082Y-68168235D01*
X105286946Y-68670789D01*
X105212000Y-68755894D01*
X104855532Y-69031765D01*
X104536040Y-68932000D01*
X104304543Y-68735589D01*
X103851403Y-68397455D01*
X103596907Y-68294845D01*
X103249111Y-68136290D01*
X102913923Y-67876410D01*
X102384481Y-67609337D01*
X102009115Y-67807517D01*
X101894846Y-68295451D01*
X102127386Y-68880519D01*
X102730813Y-69315604D01*
X103563834Y-69560022D01*
X104485158Y-69573092D01*
X105353492Y-69314132D01*
X105381648Y-69299397D01*
X105768912Y-69114072D01*
X105756976Y-69224654D01*
X105594226Y-69430325D01*
X105139735Y-69786849D01*
X104859275Y-69865979D01*
X104633494Y-69932676D01*
X104736451Y-70216594D01*
X104891338Y-70447955D01*
X105202762Y-71058538D01*
X105298969Y-71495378D01*
X105110710Y-72030773D01*
X104667541Y-72582304D01*
X104151878Y-72949999D01*
X103924227Y-73002424D01*
X103867752Y-72868564D01*
X104175790Y-72551665D01*
X104208083Y-72526456D01*
X104678104Y-71946557D01*
X104731794Y-71295137D01*
X104596893Y-70797915D01*
X104242370Y-70448829D01*
X103532223Y-70123095D01*
X103400516Y-70073671D01*
X102698940Y-69847499D01*
X102249749Y-69767011D01*
X102160711Y-69805142D01*
X102265055Y-70135616D01*
X102475739Y-70457132D01*
X102656424Y-70586428D01*
X102693001Y-70520618D01*
X102785986Y-70520483D01*
X102950428Y-70847938D01*
X103241747Y-71302053D01*
X103485557Y-71437113D01*
X103670777Y-71248088D01*
X103638259Y-71057665D01*
X103649879Y-70791967D01*
X103872099Y-70823825D01*
X104212448Y-71159940D01*
X104163083Y-71599170D01*
X103817851Y-71881830D01*
X103333874Y-71813626D01*
X102785349Y-71362822D01*
X102245075Y-70652197D01*
X101785851Y-69804531D01*
X101480475Y-68942605D01*
X101401745Y-68189199D01*
X101462822Y-67909896D01*
X101775110Y-67559075D01*
X103204124Y-67559075D01*
X103378663Y-67632901D01*
X103771468Y-67482270D01*
X104186322Y-67202847D01*
X104383345Y-66984158D01*
X104737090Y-66795637D01*
X105305210Y-66723711D01*
X106011232Y-66524381D01*
X106437933Y-66023565D01*
X106469743Y-65367024D01*
X106443052Y-65288629D01*
X106104822Y-64957043D01*
X105627058Y-64968873D01*
X105216910Y-65274997D01*
X105084365Y-65610824D01*
X105151862Y-66096344D01*
X105411685Y-66200000D01*
X105752401Y-66019338D01*
X105793798Y-65645980D01*
X105511661Y-65332867D01*
X105495361Y-65325999D01*
X105384053Y-65209244D01*
X105598273Y-65173250D01*
X106050313Y-65357952D01*
X106219747Y-65812068D01*
X106120093Y-66142468D01*
X105758197Y-66335425D01*
X105127012Y-66406856D01*
X105096110Y-66406170D01*
X104381314Y-66531593D01*
X103713704Y-66871310D01*
X103277994Y-67312764D01*
X103204124Y-67559075D01*
X101775110Y-67559075D01*
X101799765Y-67531378D01*
X102412543Y-67159133D01*
X102514465Y-67114251D01*
X103291006Y-66651729D01*
X104016221Y-66011028D01*
X104089357Y-65927542D01*
X104783875Y-64765249D01*
X105021583Y-63564234D01*
X104857293Y-62397668D01*
X104345815Y-61338717D01*
X103541960Y-60460552D01*
X102500536Y-59836339D01*
X101276356Y-59539248D01*
X99924230Y-59642448D01*
X99477262Y-59770676D01*
X98830555Y-59979027D01*
X98613369Y-60005295D01*
X98764321Y-59849843D01*
X98863535Y-59774297D01*
X99771187Y-59354900D01*
X100935004Y-59171932D01*
X102027576Y-59243886D01*
G36*
X100315407Y-67130669D02*
X100284465Y-67231056D01*
X99983387Y-67639726D01*
X99593418Y-67679079D01*
X99404992Y-67505679D01*
X99335335Y-67135940D01*
X99380996Y-67055430D01*
X99522724Y-67105865D01*
X99538145Y-67235843D01*
X99619607Y-67431551D01*
X99935992Y-67244689D01*
X99973511Y-67214021D01*
X100289698Y-66989626D01*
X100315407Y-67130669D01*
X100315407Y-67130669D01*
G37*
X100315407Y-67130669D02*
X100284465Y-67231056D01*
X99983387Y-67639726D01*
X99593418Y-67679079D01*
X99404992Y-67505679D01*
X99335335Y-67135940D01*
X99380996Y-67055430D01*
X99522724Y-67105865D01*
X99538145Y-67235843D01*
X99619607Y-67431551D01*
X99935992Y-67244689D01*
X99973511Y-67214021D01*
X100289698Y-66989626D01*
X100315407Y-67130669D01*
G36*
X102031653Y-64751976D02*
X102444881Y-65116380D01*
X102569719Y-65624867D01*
X102538860Y-65740479D01*
X102135156Y-66231644D01*
X101552756Y-66263527D01*
X101223112Y-66088953D01*
X100920283Y-65613727D01*
X101039873Y-65089196D01*
X101516428Y-64718047D01*
X102031653Y-64751976D01*
X102031653Y-64751976D01*
G37*
X102031653Y-64751976D02*
X102444881Y-65116380D01*
X102569719Y-65624867D01*
X102538860Y-65740479D01*
X102135156Y-66231644D01*
X101552756Y-66263527D01*
X101223112Y-66088953D01*
X100920283Y-65613727D01*
X101039873Y-65089196D01*
X101516428Y-64718047D01*
X102031653Y-64751976D01*
G36*
X99057494Y-64548248D02*
X99216930Y-65060972D01*
X99144617Y-65416776D01*
X98792044Y-65844910D01*
X98251565Y-65899006D01*
X97718862Y-65561584D01*
X97705155Y-65545360D01*
X97563698Y-65057496D01*
X97821453Y-64613296D01*
X98367636Y-64375495D01*
X98507331Y-64367010D01*
X99057494Y-64548248D01*
X99057494Y-64548248D01*
G37*
X99057494Y-64548248D02*
X99216930Y-65060972D01*
X99144617Y-65416776D01*
X98792044Y-65844910D01*
X98251565Y-65899006D01*
X97718862Y-65561584D01*
X97705155Y-65545360D01*
X97563698Y-65057496D01*
X97821453Y-64613296D01*
X98367636Y-64375495D01*
X98507331Y-64367010D01*
X99057494Y-64548248D01*
D12*
X172000476Y-89492381D02*
X172000476Y-88492381D01*
X172333810Y-89206667D01*
X172667143Y-88492381D01*
X172667143Y-89492381D01*
X173048095Y-88492381D02*
X173667143Y-88492381D01*
X173333809Y-88873333D01*
X173476667Y-88873333D01*
X173571905Y-88920952D01*
X173619524Y-88968571D01*
X173667143Y-89063810D01*
X173667143Y-89301905D01*
X173619524Y-89397143D01*
X173571905Y-89444762D01*
X173476667Y-89492381D01*
X173190952Y-89492381D01*
X173095714Y-89444762D01*
X173048095Y-89397143D01*
X96380476Y-103302381D02*
X96380476Y-102302381D01*
X96713810Y-103016667D01*
X97047143Y-102302381D01*
X97047143Y-103302381D01*
X97951905Y-102302381D02*
X97761428Y-102302381D01*
X97666190Y-102350000D01*
X97618571Y-102397619D01*
X97523333Y-102540476D01*
X97475714Y-102730952D01*
X97475714Y-103111905D01*
X97523333Y-103207143D01*
X97570952Y-103254762D01*
X97666190Y-103302381D01*
X97856667Y-103302381D01*
X97951905Y-103254762D01*
X97999524Y-103207143D01*
X98047143Y-103111905D01*
X98047143Y-102873810D01*
X97999524Y-102778571D01*
X97951905Y-102730952D01*
X97856667Y-102683333D01*
X97666190Y-102683333D01*
X97570952Y-102730952D01*
X97523333Y-102778571D01*
X97475714Y-102873810D01*
X124833334Y-56257143D02*
X124785715Y-56304762D01*
X124642858Y-56352381D01*
X124547620Y-56352381D01*
X124404762Y-56304762D01*
X124309524Y-56209524D01*
X124261905Y-56114286D01*
X124214286Y-55923810D01*
X124214286Y-55780952D01*
X124261905Y-55590476D01*
X124309524Y-55495238D01*
X124404762Y-55400000D01*
X124547620Y-55352381D01*
X124642858Y-55352381D01*
X124785715Y-55400000D01*
X124833334Y-55447619D01*
X125785715Y-56352381D02*
X125214286Y-56352381D01*
X125500000Y-56352381D02*
X125500000Y-55352381D01*
X125404762Y-55495238D01*
X125309524Y-55590476D01*
X125214286Y-55638095D01*
X131397143Y-68936666D02*
X131444762Y-68984285D01*
X131492381Y-69127142D01*
X131492381Y-69222380D01*
X131444762Y-69365238D01*
X131349524Y-69460476D01*
X131254286Y-69508095D01*
X131063810Y-69555714D01*
X130920952Y-69555714D01*
X130730476Y-69508095D01*
X130635238Y-69460476D01*
X130540000Y-69365238D01*
X130492381Y-69222380D01*
X130492381Y-69127142D01*
X130540000Y-68984285D01*
X130587619Y-68936666D01*
X130587619Y-68555714D02*
X130540000Y-68508095D01*
X130492381Y-68412857D01*
X130492381Y-68174761D01*
X130540000Y-68079523D01*
X130587619Y-68031904D01*
X130682857Y-67984285D01*
X130778095Y-67984285D01*
X130920952Y-68031904D01*
X131492381Y-68603333D01*
X131492381Y-67984285D01*
X172000476Y-117492381D02*
X172000476Y-116492381D01*
X172333810Y-117206667D01*
X172667143Y-116492381D01*
X172667143Y-117492381D01*
X173667143Y-117492381D02*
X173095714Y-117492381D01*
X173381428Y-117492381D02*
X173381428Y-116492381D01*
X173286190Y-116635238D01*
X173190952Y-116730476D01*
X173095714Y-116778095D01*
X172000476Y-103492381D02*
X172000476Y-102492381D01*
X172333810Y-103206667D01*
X172667143Y-102492381D01*
X172667143Y-103492381D01*
X173095714Y-102587619D02*
X173143333Y-102540000D01*
X173238571Y-102492381D01*
X173476667Y-102492381D01*
X173571905Y-102540000D01*
X173619524Y-102587619D01*
X173667143Y-102682857D01*
X173667143Y-102778095D01*
X173619524Y-102920952D01*
X173048095Y-103492381D01*
X173667143Y-103492381D01*
X96380476Y-131302381D02*
X96380476Y-130302381D01*
X96713810Y-131016667D01*
X97047143Y-130302381D01*
X97047143Y-131302381D01*
X97951905Y-130635714D02*
X97951905Y-131302381D01*
X97713809Y-130254762D02*
X97475714Y-130969048D01*
X98094762Y-130969048D01*
X96380476Y-117302381D02*
X96380476Y-116302381D01*
X96713810Y-117016667D01*
X97047143Y-116302381D01*
X97047143Y-117302381D01*
X97999524Y-116302381D02*
X97523333Y-116302381D01*
X97475714Y-116778571D01*
X97523333Y-116730952D01*
X97618571Y-116683333D01*
X97856667Y-116683333D01*
X97951905Y-116730952D01*
X97999524Y-116778571D01*
X98047143Y-116873810D01*
X98047143Y-117111905D01*
X97999524Y-117207143D01*
X97951905Y-117254762D01*
X97856667Y-117302381D01*
X97618571Y-117302381D01*
X97523333Y-117254762D01*
X97475714Y-117207143D01*
X96380476Y-89302381D02*
X96380476Y-88302381D01*
X96713810Y-89016667D01*
X97047143Y-88302381D01*
X97047143Y-89302381D01*
X97428095Y-88302381D02*
X98094762Y-88302381D01*
X97666190Y-89302381D01*
X159904762Y-136461619D02*
X159809524Y-136414000D01*
X159714286Y-136318762D01*
X159571429Y-136175905D01*
X159476190Y-136128286D01*
X159380952Y-136128286D01*
X159428571Y-136366381D02*
X159333333Y-136318762D01*
X159238095Y-136223524D01*
X159190476Y-136033048D01*
X159190476Y-135699714D01*
X159238095Y-135509238D01*
X159333333Y-135414000D01*
X159428571Y-135366381D01*
X159619048Y-135366381D01*
X159714286Y-135414000D01*
X159809524Y-135509238D01*
X159857143Y-135699714D01*
X159857143Y-136033048D01*
X159809524Y-136223524D01*
X159714286Y-136318762D01*
X159619048Y-136366381D01*
X159428571Y-136366381D01*
X160190476Y-135366381D02*
X160809524Y-135366381D01*
X160476190Y-135747333D01*
X160619048Y-135747333D01*
X160714286Y-135794952D01*
X160761905Y-135842571D01*
X160809524Y-135937810D01*
X160809524Y-136175905D01*
X160761905Y-136271143D01*
X160714286Y-136318762D01*
X160619048Y-136366381D01*
X160333333Y-136366381D01*
X160238095Y-136318762D01*
X160190476Y-136271143D01*
X159904762Y-122961619D02*
X159809524Y-122914000D01*
X159714286Y-122818762D01*
X159571429Y-122675905D01*
X159476190Y-122628286D01*
X159380952Y-122628286D01*
X159428571Y-122866381D02*
X159333333Y-122818762D01*
X159238095Y-122723524D01*
X159190476Y-122533048D01*
X159190476Y-122199714D01*
X159238095Y-122009238D01*
X159333333Y-121914000D01*
X159428571Y-121866381D01*
X159619048Y-121866381D01*
X159714286Y-121914000D01*
X159809524Y-122009238D01*
X159857143Y-122199714D01*
X159857143Y-122533048D01*
X159809524Y-122723524D01*
X159714286Y-122818762D01*
X159619048Y-122866381D01*
X159428571Y-122866381D01*
X160761905Y-121866381D02*
X160285714Y-121866381D01*
X160238095Y-122342571D01*
X160285714Y-122294952D01*
X160380952Y-122247333D01*
X160619048Y-122247333D01*
X160714286Y-122294952D01*
X160761905Y-122342571D01*
X160809524Y-122437810D01*
X160809524Y-122675905D01*
X160761905Y-122771143D01*
X160714286Y-122818762D01*
X160619048Y-122866381D01*
X160380952Y-122866381D01*
X160285714Y-122818762D01*
X160238095Y-122771143D01*
X159904762Y-108961619D02*
X159809524Y-108914000D01*
X159714286Y-108818762D01*
X159571429Y-108675905D01*
X159476190Y-108628286D01*
X159380952Y-108628286D01*
X159428571Y-108866381D02*
X159333333Y-108818762D01*
X159238095Y-108723524D01*
X159190476Y-108533048D01*
X159190476Y-108199714D01*
X159238095Y-108009238D01*
X159333333Y-107914000D01*
X159428571Y-107866381D01*
X159619048Y-107866381D01*
X159714286Y-107914000D01*
X159809524Y-108009238D01*
X159857143Y-108199714D01*
X159857143Y-108533048D01*
X159809524Y-108723524D01*
X159714286Y-108818762D01*
X159619048Y-108866381D01*
X159428571Y-108866381D01*
X160190476Y-107866381D02*
X160857143Y-107866381D01*
X160428571Y-108866381D01*
X159904762Y-94961619D02*
X159809524Y-94914000D01*
X159714286Y-94818762D01*
X159571429Y-94675905D01*
X159476190Y-94628286D01*
X159380952Y-94628286D01*
X159428571Y-94866381D02*
X159333333Y-94818762D01*
X159238095Y-94723524D01*
X159190476Y-94533048D01*
X159190476Y-94199714D01*
X159238095Y-94009238D01*
X159333333Y-93914000D01*
X159428571Y-93866381D01*
X159619048Y-93866381D01*
X159714286Y-93914000D01*
X159809524Y-94009238D01*
X159857143Y-94199714D01*
X159857143Y-94533048D01*
X159809524Y-94723524D01*
X159714286Y-94818762D01*
X159619048Y-94866381D01*
X159428571Y-94866381D01*
X160333333Y-94866381D02*
X160523809Y-94866381D01*
X160619048Y-94818762D01*
X160666667Y-94771143D01*
X160761905Y-94628286D01*
X160809524Y-94437810D01*
X160809524Y-94056857D01*
X160761905Y-93961619D01*
X160714286Y-93914000D01*
X160619048Y-93866381D01*
X160428571Y-93866381D01*
X160333333Y-93914000D01*
X160285714Y-93961619D01*
X160238095Y-94056857D01*
X160238095Y-94294952D01*
X160285714Y-94390190D01*
X160333333Y-94437810D01*
X160428571Y-94485429D01*
X160619048Y-94485429D01*
X160714286Y-94437810D01*
X160761905Y-94390190D01*
X160809524Y-94294952D01*
X109428572Y-117133619D02*
X109333334Y-117086000D01*
X109238096Y-116990762D01*
X109095239Y-116847905D01*
X109000000Y-116800286D01*
X108904762Y-116800286D01*
X108952381Y-117038381D02*
X108857143Y-116990762D01*
X108761905Y-116895524D01*
X108714286Y-116705048D01*
X108714286Y-116371714D01*
X108761905Y-116181238D01*
X108857143Y-116086000D01*
X108952381Y-116038381D01*
X109142858Y-116038381D01*
X109238096Y-116086000D01*
X109333334Y-116181238D01*
X109380953Y-116371714D01*
X109380953Y-116705048D01*
X109333334Y-116895524D01*
X109238096Y-116990762D01*
X109142858Y-117038381D01*
X108952381Y-117038381D01*
X110333334Y-117038381D02*
X109761905Y-117038381D01*
X110047619Y-117038381D02*
X110047619Y-116038381D01*
X109952381Y-116181238D01*
X109857143Y-116276476D01*
X109761905Y-116324095D01*
X111285715Y-117038381D02*
X110714286Y-117038381D01*
X111000000Y-117038381D02*
X111000000Y-116038381D01*
X110904762Y-116181238D01*
X110809524Y-116276476D01*
X110714286Y-116324095D01*
X109428572Y-103133619D02*
X109333334Y-103086000D01*
X109238096Y-102990762D01*
X109095239Y-102847905D01*
X109000000Y-102800286D01*
X108904762Y-102800286D01*
X108952381Y-103038381D02*
X108857143Y-102990762D01*
X108761905Y-102895524D01*
X108714286Y-102705048D01*
X108714286Y-102371714D01*
X108761905Y-102181238D01*
X108857143Y-102086000D01*
X108952381Y-102038381D01*
X109142858Y-102038381D01*
X109238096Y-102086000D01*
X109333334Y-102181238D01*
X109380953Y-102371714D01*
X109380953Y-102705048D01*
X109333334Y-102895524D01*
X109238096Y-102990762D01*
X109142858Y-103038381D01*
X108952381Y-103038381D01*
X110333334Y-103038381D02*
X109761905Y-103038381D01*
X110047619Y-103038381D02*
X110047619Y-102038381D01*
X109952381Y-102181238D01*
X109857143Y-102276476D01*
X109761905Y-102324095D01*
X110666667Y-102038381D02*
X111285715Y-102038381D01*
X110952381Y-102419333D01*
X111095239Y-102419333D01*
X111190477Y-102466952D01*
X111238096Y-102514571D01*
X111285715Y-102609810D01*
X111285715Y-102847905D01*
X111238096Y-102943143D01*
X111190477Y-102990762D01*
X111095239Y-103038381D01*
X110809524Y-103038381D01*
X110714286Y-102990762D01*
X110666667Y-102943143D01*
X109428572Y-89133619D02*
X109333334Y-89086000D01*
X109238096Y-88990762D01*
X109095239Y-88847905D01*
X109000000Y-88800286D01*
X108904762Y-88800286D01*
X108952381Y-89038381D02*
X108857143Y-88990762D01*
X108761905Y-88895524D01*
X108714286Y-88705048D01*
X108714286Y-88371714D01*
X108761905Y-88181238D01*
X108857143Y-88086000D01*
X108952381Y-88038381D01*
X109142858Y-88038381D01*
X109238096Y-88086000D01*
X109333334Y-88181238D01*
X109380953Y-88371714D01*
X109380953Y-88705048D01*
X109333334Y-88895524D01*
X109238096Y-88990762D01*
X109142858Y-89038381D01*
X108952381Y-89038381D01*
X110333334Y-89038381D02*
X109761905Y-89038381D01*
X110047619Y-89038381D02*
X110047619Y-88038381D01*
X109952381Y-88181238D01*
X109857143Y-88276476D01*
X109761905Y-88324095D01*
X111238096Y-88038381D02*
X110761905Y-88038381D01*
X110714286Y-88514571D01*
X110761905Y-88466952D01*
X110857143Y-88419333D01*
X111095239Y-88419333D01*
X111190477Y-88466952D01*
X111238096Y-88514571D01*
X111285715Y-88609810D01*
X111285715Y-88847905D01*
X111238096Y-88943143D01*
X111190477Y-88990762D01*
X111095239Y-89038381D01*
X110857143Y-89038381D01*
X110761905Y-88990762D01*
X110714286Y-88943143D01*
X109428572Y-75133619D02*
X109333334Y-75086000D01*
X109238096Y-74990762D01*
X109095239Y-74847905D01*
X109000000Y-74800286D01*
X108904762Y-74800286D01*
X108952381Y-75038381D02*
X108857143Y-74990762D01*
X108761905Y-74895524D01*
X108714286Y-74705048D01*
X108714286Y-74371714D01*
X108761905Y-74181238D01*
X108857143Y-74086000D01*
X108952381Y-74038381D01*
X109142858Y-74038381D01*
X109238096Y-74086000D01*
X109333334Y-74181238D01*
X109380953Y-74371714D01*
X109380953Y-74705048D01*
X109333334Y-74895524D01*
X109238096Y-74990762D01*
X109142858Y-75038381D01*
X108952381Y-75038381D01*
X110333334Y-75038381D02*
X109761905Y-75038381D01*
X110047619Y-75038381D02*
X110047619Y-74038381D01*
X109952381Y-74181238D01*
X109857143Y-74276476D01*
X109761905Y-74324095D01*
X110666667Y-74038381D02*
X111333334Y-74038381D01*
X110904762Y-75038381D01*
X146252381Y-127642857D02*
X145776190Y-127976191D01*
X146252381Y-128214286D02*
X145252381Y-128214286D01*
X145252381Y-127833333D01*
X145300000Y-127738095D01*
X145347619Y-127690476D01*
X145442857Y-127642857D01*
X145585714Y-127642857D01*
X145680952Y-127690476D01*
X145728571Y-127738095D01*
X145776190Y-127833333D01*
X145776190Y-128214286D01*
X146252381Y-126690476D02*
X146252381Y-127261905D01*
X146252381Y-126976191D02*
X145252381Y-126976191D01*
X145395238Y-127071429D01*
X145490476Y-127166667D01*
X145538095Y-127261905D01*
X145252381Y-126071429D02*
X145252381Y-125976190D01*
X145300000Y-125880952D01*
X145347619Y-125833333D01*
X145442857Y-125785714D01*
X145633333Y-125738095D01*
X145871429Y-125738095D01*
X146061905Y-125785714D01*
X146157143Y-125833333D01*
X146204762Y-125880952D01*
X146252381Y-125976190D01*
X146252381Y-126071429D01*
X146204762Y-126166667D01*
X146157143Y-126214286D01*
X146061905Y-126261905D01*
X145871429Y-126309524D01*
X145633333Y-126309524D01*
X145442857Y-126261905D01*
X145347619Y-126214286D01*
X145300000Y-126166667D01*
X145252381Y-126071429D01*
X154252381Y-127642857D02*
X153776190Y-127976191D01*
X154252381Y-128214286D02*
X153252381Y-128214286D01*
X153252381Y-127833333D01*
X153300000Y-127738095D01*
X153347619Y-127690476D01*
X153442857Y-127642857D01*
X153585714Y-127642857D01*
X153680952Y-127690476D01*
X153728571Y-127738095D01*
X153776190Y-127833333D01*
X153776190Y-128214286D01*
X154252381Y-126690476D02*
X154252381Y-127261905D01*
X154252381Y-126976191D02*
X153252381Y-126976191D01*
X153395238Y-127071429D01*
X153490476Y-127166667D01*
X153538095Y-127261905D01*
X154252381Y-125738095D02*
X154252381Y-126309524D01*
X154252381Y-126023810D02*
X153252381Y-126023810D01*
X153395238Y-126119048D01*
X153490476Y-126214286D01*
X153538095Y-126309524D01*
X146252381Y-113642857D02*
X145776190Y-113976191D01*
X146252381Y-114214286D02*
X145252381Y-114214286D01*
X145252381Y-113833333D01*
X145300000Y-113738095D01*
X145347619Y-113690476D01*
X145442857Y-113642857D01*
X145585714Y-113642857D01*
X145680952Y-113690476D01*
X145728571Y-113738095D01*
X145776190Y-113833333D01*
X145776190Y-114214286D01*
X146252381Y-112690476D02*
X146252381Y-113261905D01*
X146252381Y-112976191D02*
X145252381Y-112976191D01*
X145395238Y-113071429D01*
X145490476Y-113166667D01*
X145538095Y-113261905D01*
X145252381Y-112357143D02*
X145252381Y-111738095D01*
X145633333Y-112071429D01*
X145633333Y-111928571D01*
X145680952Y-111833333D01*
X145728571Y-111785714D01*
X145823810Y-111738095D01*
X146061905Y-111738095D01*
X146157143Y-111785714D01*
X146204762Y-111833333D01*
X146252381Y-111928571D01*
X146252381Y-112214286D01*
X146204762Y-112309524D01*
X146157143Y-112357143D01*
X154252381Y-113642857D02*
X153776190Y-113976191D01*
X154252381Y-114214286D02*
X153252381Y-114214286D01*
X153252381Y-113833333D01*
X153300000Y-113738095D01*
X153347619Y-113690476D01*
X153442857Y-113642857D01*
X153585714Y-113642857D01*
X153680952Y-113690476D01*
X153728571Y-113738095D01*
X153776190Y-113833333D01*
X153776190Y-114214286D01*
X154252381Y-112690476D02*
X154252381Y-113261905D01*
X154252381Y-112976191D02*
X153252381Y-112976191D01*
X153395238Y-113071429D01*
X153490476Y-113166667D01*
X153538095Y-113261905D01*
X153585714Y-111833333D02*
X154252381Y-111833333D01*
X153204762Y-112071429D02*
X153919048Y-112309524D01*
X153919048Y-111690476D01*
X146252381Y-99642857D02*
X145776190Y-99976191D01*
X146252381Y-100214286D02*
X145252381Y-100214286D01*
X145252381Y-99833333D01*
X145300000Y-99738095D01*
X145347619Y-99690476D01*
X145442857Y-99642857D01*
X145585714Y-99642857D01*
X145680952Y-99690476D01*
X145728571Y-99738095D01*
X145776190Y-99833333D01*
X145776190Y-100214286D01*
X146252381Y-98690476D02*
X146252381Y-99261905D01*
X146252381Y-98976191D02*
X145252381Y-98976191D01*
X145395238Y-99071429D01*
X145490476Y-99166667D01*
X145538095Y-99261905D01*
X145252381Y-97833333D02*
X145252381Y-98023810D01*
X145300000Y-98119048D01*
X145347619Y-98166667D01*
X145490476Y-98261905D01*
X145680952Y-98309524D01*
X146061905Y-98309524D01*
X146157143Y-98261905D01*
X146204762Y-98214286D01*
X146252381Y-98119048D01*
X146252381Y-97928571D01*
X146204762Y-97833333D01*
X146157143Y-97785714D01*
X146061905Y-97738095D01*
X145823810Y-97738095D01*
X145728571Y-97785714D01*
X145680952Y-97833333D01*
X145633333Y-97928571D01*
X145633333Y-98119048D01*
X145680952Y-98214286D01*
X145728571Y-98261905D01*
X145823810Y-98309524D01*
X154252381Y-99642857D02*
X153776190Y-99976191D01*
X154252381Y-100214286D02*
X153252381Y-100214286D01*
X153252381Y-99833333D01*
X153300000Y-99738095D01*
X153347619Y-99690476D01*
X153442857Y-99642857D01*
X153585714Y-99642857D01*
X153680952Y-99690476D01*
X153728571Y-99738095D01*
X153776190Y-99833333D01*
X153776190Y-100214286D01*
X154252381Y-98690476D02*
X154252381Y-99261905D01*
X154252381Y-98976191D02*
X153252381Y-98976191D01*
X153395238Y-99071429D01*
X153490476Y-99166667D01*
X153538095Y-99261905D01*
X153252381Y-98357143D02*
X153252381Y-97690476D01*
X154252381Y-98119048D01*
X146252381Y-85642857D02*
X145776190Y-85976191D01*
X146252381Y-86214286D02*
X145252381Y-86214286D01*
X145252381Y-85833333D01*
X145300000Y-85738095D01*
X145347619Y-85690476D01*
X145442857Y-85642857D01*
X145585714Y-85642857D01*
X145680952Y-85690476D01*
X145728571Y-85738095D01*
X145776190Y-85833333D01*
X145776190Y-86214286D01*
X146252381Y-84690476D02*
X146252381Y-85261905D01*
X146252381Y-84976191D02*
X145252381Y-84976191D01*
X145395238Y-85071429D01*
X145490476Y-85166667D01*
X145538095Y-85261905D01*
X146252381Y-84214286D02*
X146252381Y-84023810D01*
X146204762Y-83928571D01*
X146157143Y-83880952D01*
X146014286Y-83785714D01*
X145823810Y-83738095D01*
X145442857Y-83738095D01*
X145347619Y-83785714D01*
X145300000Y-83833333D01*
X145252381Y-83928571D01*
X145252381Y-84119048D01*
X145300000Y-84214286D01*
X145347619Y-84261905D01*
X145442857Y-84309524D01*
X145680952Y-84309524D01*
X145776190Y-84261905D01*
X145823810Y-84214286D01*
X145871429Y-84119048D01*
X145871429Y-83928571D01*
X145823810Y-83833333D01*
X145776190Y-83785714D01*
X145680952Y-83738095D01*
X154252381Y-85642857D02*
X153776190Y-85976191D01*
X154252381Y-86214286D02*
X153252381Y-86214286D01*
X153252381Y-85833333D01*
X153300000Y-85738095D01*
X153347619Y-85690476D01*
X153442857Y-85642857D01*
X153585714Y-85642857D01*
X153680952Y-85690476D01*
X153728571Y-85738095D01*
X153776190Y-85833333D01*
X153776190Y-86214286D01*
X153347619Y-85261905D02*
X153300000Y-85214286D01*
X153252381Y-85119048D01*
X153252381Y-84880952D01*
X153300000Y-84785714D01*
X153347619Y-84738095D01*
X153442857Y-84690476D01*
X153538095Y-84690476D01*
X153680952Y-84738095D01*
X154252381Y-85309524D01*
X154252381Y-84690476D01*
X153252381Y-84071429D02*
X153252381Y-83976190D01*
X153300000Y-83880952D01*
X153347619Y-83833333D01*
X153442857Y-83785714D01*
X153633333Y-83738095D01*
X153871429Y-83738095D01*
X154061905Y-83785714D01*
X154157143Y-83833333D01*
X154204762Y-83880952D01*
X154252381Y-83976190D01*
X154252381Y-84071429D01*
X154204762Y-84166667D01*
X154157143Y-84214286D01*
X154061905Y-84261905D01*
X153871429Y-84309524D01*
X153633333Y-84309524D01*
X153442857Y-84261905D01*
X153347619Y-84214286D01*
X153300000Y-84166667D01*
X153252381Y-84071429D01*
X125052381Y-126242857D02*
X124576190Y-126576191D01*
X125052381Y-126814286D02*
X124052381Y-126814286D01*
X124052381Y-126433333D01*
X124100000Y-126338095D01*
X124147619Y-126290476D01*
X124242857Y-126242857D01*
X124385714Y-126242857D01*
X124480952Y-126290476D01*
X124528571Y-126338095D01*
X124576190Y-126433333D01*
X124576190Y-126814286D01*
X124147619Y-125861905D02*
X124100000Y-125814286D01*
X124052381Y-125719048D01*
X124052381Y-125480952D01*
X124100000Y-125385714D01*
X124147619Y-125338095D01*
X124242857Y-125290476D01*
X124338095Y-125290476D01*
X124480952Y-125338095D01*
X125052381Y-125909524D01*
X125052381Y-125290476D01*
X124147619Y-124909524D02*
X124100000Y-124861905D01*
X124052381Y-124766667D01*
X124052381Y-124528571D01*
X124100000Y-124433333D01*
X124147619Y-124385714D01*
X124242857Y-124338095D01*
X124338095Y-124338095D01*
X124480952Y-124385714D01*
X125052381Y-124957143D01*
X125052381Y-124338095D01*
X116652381Y-126242857D02*
X116176190Y-126576191D01*
X116652381Y-126814286D02*
X115652381Y-126814286D01*
X115652381Y-126433333D01*
X115700000Y-126338095D01*
X115747619Y-126290476D01*
X115842857Y-126242857D01*
X115985714Y-126242857D01*
X116080952Y-126290476D01*
X116128571Y-126338095D01*
X116176190Y-126433333D01*
X116176190Y-126814286D01*
X115747619Y-125861905D02*
X115700000Y-125814286D01*
X115652381Y-125719048D01*
X115652381Y-125480952D01*
X115700000Y-125385714D01*
X115747619Y-125338095D01*
X115842857Y-125290476D01*
X115938095Y-125290476D01*
X116080952Y-125338095D01*
X116652381Y-125909524D01*
X116652381Y-125290476D01*
X115652381Y-124957143D02*
X115652381Y-124338095D01*
X116033333Y-124671429D01*
X116033333Y-124528571D01*
X116080952Y-124433333D01*
X116128571Y-124385714D01*
X116223810Y-124338095D01*
X116461905Y-124338095D01*
X116557143Y-124385714D01*
X116604762Y-124433333D01*
X116652381Y-124528571D01*
X116652381Y-124814286D01*
X116604762Y-124909524D01*
X116557143Y-124957143D01*
X123452381Y-115142857D02*
X122976190Y-115476191D01*
X123452381Y-115714286D02*
X122452381Y-115714286D01*
X122452381Y-115333333D01*
X122500000Y-115238095D01*
X122547619Y-115190476D01*
X122642857Y-115142857D01*
X122785714Y-115142857D01*
X122880952Y-115190476D01*
X122928571Y-115238095D01*
X122976190Y-115333333D01*
X122976190Y-115714286D01*
X122547619Y-114761905D02*
X122500000Y-114714286D01*
X122452381Y-114619048D01*
X122452381Y-114380952D01*
X122500000Y-114285714D01*
X122547619Y-114238095D01*
X122642857Y-114190476D01*
X122738095Y-114190476D01*
X122880952Y-114238095D01*
X123452381Y-114809524D01*
X123452381Y-114190476D01*
X122452381Y-113285714D02*
X122452381Y-113761905D01*
X122928571Y-113809524D01*
X122880952Y-113761905D01*
X122833333Y-113666667D01*
X122833333Y-113428571D01*
X122880952Y-113333333D01*
X122928571Y-113285714D01*
X123023810Y-113238095D01*
X123261905Y-113238095D01*
X123357143Y-113285714D01*
X123404762Y-113333333D01*
X123452381Y-113428571D01*
X123452381Y-113666667D01*
X123404762Y-113761905D01*
X123357143Y-113809524D01*
X116652381Y-112642857D02*
X116176190Y-112976191D01*
X116652381Y-113214286D02*
X115652381Y-113214286D01*
X115652381Y-112833333D01*
X115700000Y-112738095D01*
X115747619Y-112690476D01*
X115842857Y-112642857D01*
X115985714Y-112642857D01*
X116080952Y-112690476D01*
X116128571Y-112738095D01*
X116176190Y-112833333D01*
X116176190Y-113214286D01*
X115747619Y-112261905D02*
X115700000Y-112214286D01*
X115652381Y-112119048D01*
X115652381Y-111880952D01*
X115700000Y-111785714D01*
X115747619Y-111738095D01*
X115842857Y-111690476D01*
X115938095Y-111690476D01*
X116080952Y-111738095D01*
X116652381Y-112309524D01*
X116652381Y-111690476D01*
X115652381Y-110833333D02*
X115652381Y-111023810D01*
X115700000Y-111119048D01*
X115747619Y-111166667D01*
X115890476Y-111261905D01*
X116080952Y-111309524D01*
X116461905Y-111309524D01*
X116557143Y-111261905D01*
X116604762Y-111214286D01*
X116652381Y-111119048D01*
X116652381Y-110928571D01*
X116604762Y-110833333D01*
X116557143Y-110785714D01*
X116461905Y-110738095D01*
X116223810Y-110738095D01*
X116128571Y-110785714D01*
X116080952Y-110833333D01*
X116033333Y-110928571D01*
X116033333Y-111119048D01*
X116080952Y-111214286D01*
X116128571Y-111261905D01*
X116223810Y-111309524D01*
X123452381Y-101642857D02*
X122976190Y-101976191D01*
X123452381Y-102214286D02*
X122452381Y-102214286D01*
X122452381Y-101833333D01*
X122500000Y-101738095D01*
X122547619Y-101690476D01*
X122642857Y-101642857D01*
X122785714Y-101642857D01*
X122880952Y-101690476D01*
X122928571Y-101738095D01*
X122976190Y-101833333D01*
X122976190Y-102214286D01*
X122547619Y-101261905D02*
X122500000Y-101214286D01*
X122452381Y-101119048D01*
X122452381Y-100880952D01*
X122500000Y-100785714D01*
X122547619Y-100738095D01*
X122642857Y-100690476D01*
X122738095Y-100690476D01*
X122880952Y-100738095D01*
X123452381Y-101309524D01*
X123452381Y-100690476D01*
X122880952Y-100119048D02*
X122833333Y-100214286D01*
X122785714Y-100261905D01*
X122690476Y-100309524D01*
X122642857Y-100309524D01*
X122547619Y-100261905D01*
X122500000Y-100214286D01*
X122452381Y-100119048D01*
X122452381Y-99928571D01*
X122500000Y-99833333D01*
X122547619Y-99785714D01*
X122642857Y-99738095D01*
X122690476Y-99738095D01*
X122785714Y-99785714D01*
X122833333Y-99833333D01*
X122880952Y-99928571D01*
X122880952Y-100119048D01*
X122928571Y-100214286D01*
X122976190Y-100261905D01*
X123071429Y-100309524D01*
X123261905Y-100309524D01*
X123357143Y-100261905D01*
X123404762Y-100214286D01*
X123452381Y-100119048D01*
X123452381Y-99928571D01*
X123404762Y-99833333D01*
X123357143Y-99785714D01*
X123261905Y-99738095D01*
X123071429Y-99738095D01*
X122976190Y-99785714D01*
X122928571Y-99833333D01*
X122880952Y-99928571D01*
X116652381Y-99582857D02*
X116176190Y-99916191D01*
X116652381Y-100154286D02*
X115652381Y-100154286D01*
X115652381Y-99773333D01*
X115700000Y-99678095D01*
X115747619Y-99630476D01*
X115842857Y-99582857D01*
X115985714Y-99582857D01*
X116080952Y-99630476D01*
X116128571Y-99678095D01*
X116176190Y-99773333D01*
X116176190Y-100154286D01*
X115747619Y-99201905D02*
X115700000Y-99154286D01*
X115652381Y-99059048D01*
X115652381Y-98820952D01*
X115700000Y-98725714D01*
X115747619Y-98678095D01*
X115842857Y-98630476D01*
X115938095Y-98630476D01*
X116080952Y-98678095D01*
X116652381Y-99249524D01*
X116652381Y-98630476D01*
X116652381Y-98154286D02*
X116652381Y-97963810D01*
X116604762Y-97868571D01*
X116557143Y-97820952D01*
X116414286Y-97725714D01*
X116223810Y-97678095D01*
X115842857Y-97678095D01*
X115747619Y-97725714D01*
X115700000Y-97773333D01*
X115652381Y-97868571D01*
X115652381Y-98059048D01*
X115700000Y-98154286D01*
X115747619Y-98201905D01*
X115842857Y-98249524D01*
X116080952Y-98249524D01*
X116176190Y-98201905D01*
X116223810Y-98154286D01*
X116271429Y-98059048D01*
X116271429Y-97868571D01*
X116223810Y-97773333D01*
X116176190Y-97725714D01*
X116080952Y-97678095D01*
X123452381Y-87042857D02*
X122976190Y-87376191D01*
X123452381Y-87614286D02*
X122452381Y-87614286D01*
X122452381Y-87233333D01*
X122500000Y-87138095D01*
X122547619Y-87090476D01*
X122642857Y-87042857D01*
X122785714Y-87042857D01*
X122880952Y-87090476D01*
X122928571Y-87138095D01*
X122976190Y-87233333D01*
X122976190Y-87614286D01*
X122452381Y-86709524D02*
X122452381Y-86090476D01*
X122833333Y-86423810D01*
X122833333Y-86280952D01*
X122880952Y-86185714D01*
X122928571Y-86138095D01*
X123023810Y-86090476D01*
X123261905Y-86090476D01*
X123357143Y-86138095D01*
X123404762Y-86185714D01*
X123452381Y-86280952D01*
X123452381Y-86566667D01*
X123404762Y-86661905D01*
X123357143Y-86709524D01*
X123452381Y-85138095D02*
X123452381Y-85709524D01*
X123452381Y-85423810D02*
X122452381Y-85423810D01*
X122595238Y-85519048D01*
X122690476Y-85614286D01*
X122738095Y-85709524D01*
X116652381Y-85642857D02*
X116176190Y-85976191D01*
X116652381Y-86214286D02*
X115652381Y-86214286D01*
X115652381Y-85833333D01*
X115700000Y-85738095D01*
X115747619Y-85690476D01*
X115842857Y-85642857D01*
X115985714Y-85642857D01*
X116080952Y-85690476D01*
X116128571Y-85738095D01*
X116176190Y-85833333D01*
X116176190Y-86214286D01*
X115652381Y-85309524D02*
X115652381Y-84690476D01*
X116033333Y-85023810D01*
X116033333Y-84880952D01*
X116080952Y-84785714D01*
X116128571Y-84738095D01*
X116223810Y-84690476D01*
X116461905Y-84690476D01*
X116557143Y-84738095D01*
X116604762Y-84785714D01*
X116652381Y-84880952D01*
X116652381Y-85166667D01*
X116604762Y-85261905D01*
X116557143Y-85309524D01*
X115747619Y-84309524D02*
X115700000Y-84261905D01*
X115652381Y-84166667D01*
X115652381Y-83928571D01*
X115700000Y-83833333D01*
X115747619Y-83785714D01*
X115842857Y-83738095D01*
X115938095Y-83738095D01*
X116080952Y-83785714D01*
X116652381Y-84357143D01*
X116652381Y-83738095D01*
X157204762Y-67933333D02*
X157252381Y-67790476D01*
X157252381Y-67552380D01*
X157204762Y-67457142D01*
X157157143Y-67409523D01*
X157061905Y-67361904D01*
X156966667Y-67361904D01*
X156871429Y-67409523D01*
X156823810Y-67457142D01*
X156776190Y-67552380D01*
X156728571Y-67742857D01*
X156680952Y-67838095D01*
X156633333Y-67885714D01*
X156538095Y-67933333D01*
X156442857Y-67933333D01*
X156347619Y-67885714D01*
X156300000Y-67838095D01*
X156252381Y-67742857D01*
X156252381Y-67504761D01*
X156300000Y-67361904D01*
X156252381Y-67028571D02*
X157252381Y-66790476D01*
X156538095Y-66599999D01*
X157252381Y-66409523D01*
X156252381Y-66171428D01*
X157252381Y-65266666D02*
X157252381Y-65838095D01*
X157252381Y-65552381D02*
X156252381Y-65552381D01*
X156395238Y-65647619D01*
X156490476Y-65742857D01*
X156538095Y-65838095D01*
X157004762Y-78933333D02*
X157052381Y-78790476D01*
X157052381Y-78552380D01*
X157004762Y-78457142D01*
X156957143Y-78409523D01*
X156861905Y-78361904D01*
X156766667Y-78361904D01*
X156671429Y-78409523D01*
X156623810Y-78457142D01*
X156576190Y-78552380D01*
X156528571Y-78742857D01*
X156480952Y-78838095D01*
X156433333Y-78885714D01*
X156338095Y-78933333D01*
X156242857Y-78933333D01*
X156147619Y-78885714D01*
X156100000Y-78838095D01*
X156052381Y-78742857D01*
X156052381Y-78504761D01*
X156100000Y-78361904D01*
X156052381Y-78028571D02*
X157052381Y-77790476D01*
X156338095Y-77599999D01*
X157052381Y-77409523D01*
X156052381Y-77171428D01*
X156147619Y-76838095D02*
X156100000Y-76790476D01*
X156052381Y-76695238D01*
X156052381Y-76457142D01*
X156100000Y-76361904D01*
X156147619Y-76314285D01*
X156242857Y-76266666D01*
X156338095Y-76266666D01*
X156480952Y-76314285D01*
X157052381Y-76885714D01*
X157052381Y-76266666D01*
X119452381Y-67261905D02*
X120261905Y-67261905D01*
X120357143Y-67214286D01*
X120404762Y-67166667D01*
X120452381Y-67071429D01*
X120452381Y-66880952D01*
X120404762Y-66785714D01*
X120357143Y-66738095D01*
X120261905Y-66690476D01*
X119452381Y-66690476D01*
X120452381Y-65690476D02*
X120452381Y-66261905D01*
X120452381Y-65976191D02*
X119452381Y-65976191D01*
X119595238Y-66071429D01*
X119690476Y-66166667D01*
X119738095Y-66261905D01*
X133738095Y-87442381D02*
X133738095Y-88251905D01*
X133785714Y-88347143D01*
X133833333Y-88394762D01*
X133928571Y-88442381D01*
X134119048Y-88442381D01*
X134214286Y-88394762D01*
X134261905Y-88347143D01*
X134309524Y-88251905D01*
X134309524Y-87442381D01*
X134738095Y-87537619D02*
X134785714Y-87490000D01*
X134880952Y-87442381D01*
X135119048Y-87442381D01*
X135214286Y-87490000D01*
X135261905Y-87537619D01*
X135309524Y-87632857D01*
X135309524Y-87728095D01*
X135261905Y-87870952D01*
X134690476Y-88442381D01*
X135309524Y-88442381D01*
X131761905Y-90982381D02*
X131761905Y-89982381D01*
X132142858Y-89982381D01*
X132238096Y-90030000D01*
X132285715Y-90077619D01*
X132333334Y-90172857D01*
X132333334Y-90315714D01*
X132285715Y-90410952D01*
X132238096Y-90458571D01*
X132142858Y-90506190D01*
X131761905Y-90506190D01*
X132761905Y-90982381D02*
X132761905Y-89982381D01*
X132761905Y-90458571D02*
X133333334Y-90458571D01*
X133333334Y-90982381D02*
X133333334Y-89982381D01*
X134000000Y-89982381D02*
X134190477Y-89982381D01*
X134285715Y-90030000D01*
X134380953Y-90125238D01*
X134428572Y-90315714D01*
X134428572Y-90649048D01*
X134380953Y-90839524D01*
X134285715Y-90934762D01*
X134190477Y-90982381D01*
X134000000Y-90982381D01*
X133904762Y-90934762D01*
X133809524Y-90839524D01*
X133761905Y-90649048D01*
X133761905Y-90315714D01*
X133809524Y-90125238D01*
X133904762Y-90030000D01*
X134000000Y-89982381D01*
X134714286Y-89982381D02*
X135285715Y-89982381D01*
X135000000Y-90982381D02*
X135000000Y-89982381D01*
X135809524Y-89982381D02*
X136000001Y-89982381D01*
X136095239Y-90030000D01*
X136190477Y-90125238D01*
X136238096Y-90315714D01*
X136238096Y-90649048D01*
X136190477Y-90839524D01*
X136095239Y-90934762D01*
X136000001Y-90982381D01*
X135809524Y-90982381D01*
X135714286Y-90934762D01*
X135619048Y-90839524D01*
X135571429Y-90649048D01*
X135571429Y-90315714D01*
X135619048Y-90125238D01*
X135714286Y-90030000D01*
X135809524Y-89982381D01*
X136666667Y-90982381D02*
X136666667Y-89982381D01*
X137238096Y-90982381D01*
X137238096Y-89982381D01*
X131571428Y-124002381D02*
X131571428Y-123478571D01*
X131523809Y-123383333D01*
X131428571Y-123335714D01*
X131238094Y-123335714D01*
X131142856Y-123383333D01*
X131571428Y-123954762D02*
X131476190Y-124002381D01*
X131238094Y-124002381D01*
X131142856Y-123954762D01*
X131095237Y-123859524D01*
X131095237Y-123764286D01*
X131142856Y-123669048D01*
X131238094Y-123621429D01*
X131476190Y-123621429D01*
X131571428Y-123573810D01*
X132190475Y-124002381D02*
X132095237Y-123954762D01*
X132047618Y-123859524D01*
X132047618Y-123002381D01*
X132714285Y-124002381D02*
X132619047Y-123954762D01*
X132571428Y-123859524D01*
X132571428Y-123002381D01*
X134000000Y-124002381D02*
X133904762Y-123954762D01*
X133857143Y-123859524D01*
X133857143Y-123002381D01*
X134809525Y-124002381D02*
X134809525Y-123478571D01*
X134761906Y-123383333D01*
X134666668Y-123335714D01*
X134476191Y-123335714D01*
X134380953Y-123383333D01*
X134809525Y-123954762D02*
X134714287Y-124002381D01*
X134476191Y-124002381D01*
X134380953Y-123954762D01*
X134333334Y-123859524D01*
X134333334Y-123764286D01*
X134380953Y-123669048D01*
X134476191Y-123621429D01*
X134714287Y-123621429D01*
X134809525Y-123573810D01*
X135190477Y-123335714D02*
X135428572Y-124002381D01*
X135666668Y-123335714D02*
X135428572Y-124002381D01*
X135333334Y-124240476D01*
X135285715Y-124288095D01*
X135190477Y-124335714D01*
X136428573Y-123954762D02*
X136333335Y-124002381D01*
X136142858Y-124002381D01*
X136047620Y-123954762D01*
X136000001Y-123859524D01*
X136000001Y-123478571D01*
X136047620Y-123383333D01*
X136142858Y-123335714D01*
X136333335Y-123335714D01*
X136428573Y-123383333D01*
X136476192Y-123478571D01*
X136476192Y-123573810D01*
X136000001Y-123669048D01*
X136904763Y-124002381D02*
X136904763Y-123335714D01*
X136904763Y-123526190D02*
X136952382Y-123430952D01*
X137000001Y-123383333D01*
X137095239Y-123335714D01*
X137190478Y-123335714D01*
X137476192Y-123954762D02*
X137571430Y-124002381D01*
X137761906Y-124002381D01*
X137857145Y-123954762D01*
X137904764Y-123859524D01*
X137904764Y-123811905D01*
X137857145Y-123716667D01*
X137761906Y-123669048D01*
X137619049Y-123669048D01*
X137523811Y-123621429D01*
X137476192Y-123526190D01*
X137476192Y-123478571D01*
X137523811Y-123383333D01*
X137619049Y-123335714D01*
X137761906Y-123335714D01*
X137857145Y-123383333D01*
X128285714Y-121462381D02*
X128285714Y-120795714D01*
X128285714Y-120986190D02*
X128333333Y-120890952D01*
X128380952Y-120843333D01*
X128476190Y-120795714D01*
X128571429Y-120795714D01*
X129285715Y-121414762D02*
X129190477Y-121462381D01*
X129000000Y-121462381D01*
X128904762Y-121414762D01*
X128857143Y-121319524D01*
X128857143Y-120938571D01*
X128904762Y-120843333D01*
X129000000Y-120795714D01*
X129190477Y-120795714D01*
X129285715Y-120843333D01*
X129333334Y-120938571D01*
X129333334Y-121033810D01*
X128857143Y-121129048D01*
X130190477Y-121414762D02*
X130095239Y-121462381D01*
X129904762Y-121462381D01*
X129809524Y-121414762D01*
X129761905Y-121367143D01*
X129714286Y-121271905D01*
X129714286Y-120986190D01*
X129761905Y-120890952D01*
X129809524Y-120843333D01*
X129904762Y-120795714D01*
X130095239Y-120795714D01*
X130190477Y-120843333D01*
X130761905Y-121462381D02*
X130666667Y-121414762D01*
X130619048Y-121367143D01*
X130571429Y-121271905D01*
X130571429Y-120986190D01*
X130619048Y-120890952D01*
X130666667Y-120843333D01*
X130761905Y-120795714D01*
X130904763Y-120795714D01*
X131000001Y-120843333D01*
X131047620Y-120890952D01*
X131095239Y-120986190D01*
X131095239Y-121271905D01*
X131047620Y-121367143D01*
X131000001Y-121414762D01*
X130904763Y-121462381D01*
X130761905Y-121462381D01*
X131523810Y-121462381D02*
X131523810Y-120795714D01*
X131523810Y-120890952D02*
X131571429Y-120843333D01*
X131666667Y-120795714D01*
X131809525Y-120795714D01*
X131904763Y-120843333D01*
X131952382Y-120938571D01*
X131952382Y-121462381D01*
X131952382Y-120938571D02*
X132000001Y-120843333D01*
X132095239Y-120795714D01*
X132238096Y-120795714D01*
X132333334Y-120843333D01*
X132380953Y-120938571D01*
X132380953Y-121462381D01*
X132857143Y-121462381D02*
X132857143Y-120795714D01*
X132857143Y-120890952D02*
X132904762Y-120843333D01*
X133000000Y-120795714D01*
X133142858Y-120795714D01*
X133238096Y-120843333D01*
X133285715Y-120938571D01*
X133285715Y-121462381D01*
X133285715Y-120938571D02*
X133333334Y-120843333D01*
X133428572Y-120795714D01*
X133571429Y-120795714D01*
X133666667Y-120843333D01*
X133714286Y-120938571D01*
X133714286Y-121462381D01*
X134571429Y-121414762D02*
X134476191Y-121462381D01*
X134285714Y-121462381D01*
X134190476Y-121414762D01*
X134142857Y-121319524D01*
X134142857Y-120938571D01*
X134190476Y-120843333D01*
X134285714Y-120795714D01*
X134476191Y-120795714D01*
X134571429Y-120843333D01*
X134619048Y-120938571D01*
X134619048Y-121033810D01*
X134142857Y-121129048D01*
X135047619Y-120795714D02*
X135047619Y-121462381D01*
X135047619Y-120890952D02*
X135095238Y-120843333D01*
X135190476Y-120795714D01*
X135333334Y-120795714D01*
X135428572Y-120843333D01*
X135476191Y-120938571D01*
X135476191Y-121462381D01*
X136380953Y-121462381D02*
X136380953Y-120462381D01*
X136380953Y-121414762D02*
X136285715Y-121462381D01*
X136095238Y-121462381D01*
X136000000Y-121414762D01*
X135952381Y-121367143D01*
X135904762Y-121271905D01*
X135904762Y-120986190D01*
X135952381Y-120890952D01*
X136000000Y-120843333D01*
X136095238Y-120795714D01*
X136285715Y-120795714D01*
X136380953Y-120843333D01*
X137238096Y-121414762D02*
X137142858Y-121462381D01*
X136952381Y-121462381D01*
X136857143Y-121414762D01*
X136809524Y-121319524D01*
X136809524Y-120938571D01*
X136857143Y-120843333D01*
X136952381Y-120795714D01*
X137142858Y-120795714D01*
X137238096Y-120843333D01*
X137285715Y-120938571D01*
X137285715Y-121033810D01*
X136809524Y-121129048D01*
X138142858Y-121462381D02*
X138142858Y-120462381D01*
X138142858Y-121414762D02*
X138047620Y-121462381D01*
X137857143Y-121462381D01*
X137761905Y-121414762D01*
X137714286Y-121367143D01*
X137666667Y-121271905D01*
X137666667Y-120986190D01*
X137714286Y-120890952D01*
X137761905Y-120843333D01*
X137857143Y-120795714D01*
X138047620Y-120795714D01*
X138142858Y-120843333D01*
X139523810Y-121462381D02*
X139428572Y-121414762D01*
X139380953Y-121367143D01*
X139333334Y-121271905D01*
X139333334Y-120986190D01*
X139380953Y-120890952D01*
X139428572Y-120843333D01*
X139523810Y-120795714D01*
X139666668Y-120795714D01*
X139761906Y-120843333D01*
X139809525Y-120890952D01*
X139857144Y-120986190D01*
X139857144Y-121271905D01*
X139809525Y-121367143D01*
X139761906Y-121414762D01*
X139666668Y-121462381D01*
X139523810Y-121462381D01*
X140285715Y-120795714D02*
X140285715Y-121462381D01*
X140285715Y-120890952D02*
X140333334Y-120843333D01*
X140428572Y-120795714D01*
X140571430Y-120795714D01*
X140666668Y-120843333D01*
X140714287Y-120938571D01*
X140714287Y-121462381D01*
X128761904Y-118874762D02*
X128857142Y-118922381D01*
X129047618Y-118922381D01*
X129142857Y-118874762D01*
X129190476Y-118779524D01*
X129190476Y-118731905D01*
X129142857Y-118636667D01*
X129047618Y-118589048D01*
X128904761Y-118589048D01*
X128809523Y-118541429D01*
X128761904Y-118446190D01*
X128761904Y-118398571D01*
X128809523Y-118303333D01*
X128904761Y-118255714D01*
X129047618Y-118255714D01*
X129142857Y-118303333D01*
X129619047Y-118922381D02*
X129619047Y-118255714D01*
X129619047Y-117922381D02*
X129571428Y-117970000D01*
X129619047Y-118017619D01*
X129666666Y-117970000D01*
X129619047Y-117922381D01*
X129619047Y-118017619D01*
X130523809Y-118255714D02*
X130523809Y-119065238D01*
X130476190Y-119160476D01*
X130428571Y-119208095D01*
X130333332Y-119255714D01*
X130190475Y-119255714D01*
X130095237Y-119208095D01*
X130523809Y-118874762D02*
X130428571Y-118922381D01*
X130238094Y-118922381D01*
X130142856Y-118874762D01*
X130095237Y-118827143D01*
X130047618Y-118731905D01*
X130047618Y-118446190D01*
X130095237Y-118350952D01*
X130142856Y-118303333D01*
X130238094Y-118255714D01*
X130428571Y-118255714D01*
X130523809Y-118303333D01*
X130999999Y-118255714D02*
X130999999Y-118922381D01*
X130999999Y-118350952D02*
X131047618Y-118303333D01*
X131142856Y-118255714D01*
X131285714Y-118255714D01*
X131380952Y-118303333D01*
X131428571Y-118398571D01*
X131428571Y-118922381D01*
X132333333Y-118922381D02*
X132333333Y-118398571D01*
X132285714Y-118303333D01*
X132190476Y-118255714D01*
X131999999Y-118255714D01*
X131904761Y-118303333D01*
X132333333Y-118874762D02*
X132238095Y-118922381D01*
X131999999Y-118922381D01*
X131904761Y-118874762D01*
X131857142Y-118779524D01*
X131857142Y-118684286D01*
X131904761Y-118589048D01*
X131999999Y-118541429D01*
X132238095Y-118541429D01*
X132333333Y-118493810D01*
X132952380Y-118922381D02*
X132857142Y-118874762D01*
X132809523Y-118779524D01*
X132809523Y-117922381D01*
X134095238Y-118922381D02*
X134095238Y-117922381D01*
X134190476Y-118541429D02*
X134476191Y-118922381D01*
X134476191Y-118255714D02*
X134095238Y-118636667D01*
X135285715Y-118874762D02*
X135190477Y-118922381D01*
X135000000Y-118922381D01*
X134904762Y-118874762D01*
X134857143Y-118779524D01*
X134857143Y-118398571D01*
X134904762Y-118303333D01*
X135000000Y-118255714D01*
X135190477Y-118255714D01*
X135285715Y-118303333D01*
X135333334Y-118398571D01*
X135333334Y-118493810D01*
X134857143Y-118589048D01*
X136142858Y-118874762D02*
X136047620Y-118922381D01*
X135857143Y-118922381D01*
X135761905Y-118874762D01*
X135714286Y-118779524D01*
X135714286Y-118398571D01*
X135761905Y-118303333D01*
X135857143Y-118255714D01*
X136047620Y-118255714D01*
X136142858Y-118303333D01*
X136190477Y-118398571D01*
X136190477Y-118493810D01*
X135714286Y-118589048D01*
X136619048Y-118255714D02*
X136619048Y-119255714D01*
X136619048Y-118303333D02*
X136714286Y-118255714D01*
X136904763Y-118255714D01*
X137000001Y-118303333D01*
X137047620Y-118350952D01*
X137095239Y-118446190D01*
X137095239Y-118731905D01*
X137047620Y-118827143D01*
X137000001Y-118874762D01*
X136904763Y-118922381D01*
X136714286Y-118922381D01*
X136619048Y-118874762D01*
X138428572Y-118922381D02*
X138333334Y-118874762D01*
X138285715Y-118827143D01*
X138238096Y-118731905D01*
X138238096Y-118446190D01*
X138285715Y-118350952D01*
X138333334Y-118303333D01*
X138428572Y-118255714D01*
X138571430Y-118255714D01*
X138666668Y-118303333D01*
X138714287Y-118350952D01*
X138761906Y-118446190D01*
X138761906Y-118731905D01*
X138714287Y-118827143D01*
X138666668Y-118874762D01*
X138571430Y-118922381D01*
X138428572Y-118922381D01*
X139619049Y-118255714D02*
X139619049Y-118922381D01*
X139190477Y-118255714D02*
X139190477Y-118779524D01*
X139238096Y-118874762D01*
X139333334Y-118922381D01*
X139476192Y-118922381D01*
X139571430Y-118874762D01*
X139619049Y-118827143D01*
X139952382Y-118255714D02*
X140333334Y-118255714D01*
X140095239Y-117922381D02*
X140095239Y-118779524D01*
X140142858Y-118874762D01*
X140238096Y-118922381D01*
X140333334Y-118922381D01*
X128428571Y-115715714D02*
X128428571Y-116525238D01*
X128380952Y-116620476D01*
X128333333Y-116668095D01*
X128238094Y-116715714D01*
X128095237Y-116715714D01*
X127999999Y-116668095D01*
X128428571Y-116334762D02*
X128333333Y-116382381D01*
X128142856Y-116382381D01*
X128047618Y-116334762D01*
X127999999Y-116287143D01*
X127952380Y-116191905D01*
X127952380Y-115906190D01*
X127999999Y-115810952D01*
X128047618Y-115763333D01*
X128142856Y-115715714D01*
X128333333Y-115715714D01*
X128428571Y-115763333D01*
X128904761Y-116382381D02*
X128904761Y-115715714D01*
X128904761Y-115906190D02*
X128952380Y-115810952D01*
X128999999Y-115763333D01*
X129095237Y-115715714D01*
X129190476Y-115715714D01*
X129666666Y-116382381D02*
X129571428Y-116334762D01*
X129523809Y-116287143D01*
X129476190Y-116191905D01*
X129476190Y-115906190D01*
X129523809Y-115810952D01*
X129571428Y-115763333D01*
X129666666Y-115715714D01*
X129809524Y-115715714D01*
X129904762Y-115763333D01*
X129952381Y-115810952D01*
X130000000Y-115906190D01*
X130000000Y-116191905D01*
X129952381Y-116287143D01*
X129904762Y-116334762D01*
X129809524Y-116382381D01*
X129666666Y-116382381D01*
X130857143Y-115715714D02*
X130857143Y-116382381D01*
X130428571Y-115715714D02*
X130428571Y-116239524D01*
X130476190Y-116334762D01*
X130571428Y-116382381D01*
X130714286Y-116382381D01*
X130809524Y-116334762D01*
X130857143Y-116287143D01*
X131333333Y-115715714D02*
X131333333Y-116382381D01*
X131333333Y-115810952D02*
X131380952Y-115763333D01*
X131476190Y-115715714D01*
X131619048Y-115715714D01*
X131714286Y-115763333D01*
X131761905Y-115858571D01*
X131761905Y-116382381D01*
X132666667Y-116382381D02*
X132666667Y-115382381D01*
X132666667Y-116334762D02*
X132571429Y-116382381D01*
X132380952Y-116382381D01*
X132285714Y-116334762D01*
X132238095Y-116287143D01*
X132190476Y-116191905D01*
X132190476Y-115906190D01*
X132238095Y-115810952D01*
X132285714Y-115763333D01*
X132380952Y-115715714D01*
X132571429Y-115715714D01*
X132666667Y-115763333D01*
X133904762Y-115715714D02*
X133904762Y-116715714D01*
X133904762Y-115763333D02*
X134000000Y-115715714D01*
X134190477Y-115715714D01*
X134285715Y-115763333D01*
X134333334Y-115810952D01*
X134380953Y-115906190D01*
X134380953Y-116191905D01*
X134333334Y-116287143D01*
X134285715Y-116334762D01*
X134190477Y-116382381D01*
X134000000Y-116382381D01*
X133904762Y-116334762D01*
X134952381Y-116382381D02*
X134857143Y-116334762D01*
X134809524Y-116239524D01*
X134809524Y-115382381D01*
X135761906Y-116382381D02*
X135761906Y-115858571D01*
X135714287Y-115763333D01*
X135619049Y-115715714D01*
X135428572Y-115715714D01*
X135333334Y-115763333D01*
X135761906Y-116334762D02*
X135666668Y-116382381D01*
X135428572Y-116382381D01*
X135333334Y-116334762D01*
X135285715Y-116239524D01*
X135285715Y-116144286D01*
X135333334Y-116049048D01*
X135428572Y-116001429D01*
X135666668Y-116001429D01*
X135761906Y-115953810D01*
X136238096Y-115715714D02*
X136238096Y-116382381D01*
X136238096Y-115810952D02*
X136285715Y-115763333D01*
X136380953Y-115715714D01*
X136523811Y-115715714D01*
X136619049Y-115763333D01*
X136666668Y-115858571D01*
X136666668Y-116382381D01*
X137523811Y-116334762D02*
X137428573Y-116382381D01*
X137238096Y-116382381D01*
X137142858Y-116334762D01*
X137095239Y-116239524D01*
X137095239Y-115858571D01*
X137142858Y-115763333D01*
X137238096Y-115715714D01*
X137428573Y-115715714D01*
X137523811Y-115763333D01*
X137571430Y-115858571D01*
X137571430Y-115953810D01*
X137095239Y-116049048D01*
X139190478Y-116382381D02*
X139190478Y-115858571D01*
X139142859Y-115763333D01*
X139047621Y-115715714D01*
X138857144Y-115715714D01*
X138761906Y-115763333D01*
X139190478Y-116334762D02*
X139095240Y-116382381D01*
X138857144Y-116382381D01*
X138761906Y-116334762D01*
X138714287Y-116239524D01*
X138714287Y-116144286D01*
X138761906Y-116049048D01*
X138857144Y-116001429D01*
X139095240Y-116001429D01*
X139190478Y-115953810D01*
X139666668Y-115715714D02*
X139666668Y-116382381D01*
X139666668Y-115810952D02*
X139714287Y-115763333D01*
X139809525Y-115715714D01*
X139952383Y-115715714D01*
X140047621Y-115763333D01*
X140095240Y-115858571D01*
X140095240Y-116382381D01*
X141000002Y-116382381D02*
X141000002Y-115382381D01*
X141000002Y-116334762D02*
X140904764Y-116382381D01*
X140714287Y-116382381D01*
X140619049Y-116334762D01*
X140571430Y-116287143D01*
X140523811Y-116191905D01*
X140523811Y-115906190D01*
X140571430Y-115810952D01*
X140619049Y-115763333D01*
X140714287Y-115715714D01*
X140904764Y-115715714D01*
X141000002Y-115763333D01*
X172000476Y-130992381D02*
X172000476Y-129992381D01*
X172333810Y-130706667D01*
X172667143Y-129992381D01*
X172667143Y-130992381D01*
X173333809Y-129992381D02*
X173429048Y-129992381D01*
X173524286Y-130040000D01*
X173571905Y-130087619D01*
X173619524Y-130182857D01*
X173667143Y-130373333D01*
X173667143Y-130611429D01*
X173619524Y-130801905D01*
X173571905Y-130897143D01*
X173524286Y-130944762D01*
X173429048Y-130992381D01*
X173333809Y-130992381D01*
X173238571Y-130944762D01*
X173190952Y-130897143D01*
X173143333Y-130801905D01*
X173095714Y-130611429D01*
X173095714Y-130373333D01*
X173143333Y-130182857D01*
X173190952Y-130087619D01*
X173238571Y-130040000D01*
X173333809Y-129992381D01*
X149904762Y-134797619D02*
X149809524Y-134750000D01*
X149714286Y-134654762D01*
X149571429Y-134511905D01*
X149476190Y-134464286D01*
X149380952Y-134464286D01*
X149428571Y-134702381D02*
X149333333Y-134654762D01*
X149238095Y-134559524D01*
X149190476Y-134369048D01*
X149190476Y-134035714D01*
X149238095Y-133845238D01*
X149333333Y-133750000D01*
X149428571Y-133702381D01*
X149619048Y-133702381D01*
X149714286Y-133750000D01*
X149809524Y-133845238D01*
X149857143Y-134035714D01*
X149857143Y-134369048D01*
X149809524Y-134559524D01*
X149714286Y-134654762D01*
X149619048Y-134702381D01*
X149428571Y-134702381D01*
X150238095Y-133797619D02*
X150285714Y-133750000D01*
X150380952Y-133702381D01*
X150619048Y-133702381D01*
X150714286Y-133750000D01*
X150761905Y-133797619D01*
X150809524Y-133892857D01*
X150809524Y-133988095D01*
X150761905Y-134130952D01*
X150190476Y-134702381D01*
X150809524Y-134702381D01*
X149904762Y-120797619D02*
X149809524Y-120750000D01*
X149714286Y-120654762D01*
X149571429Y-120511905D01*
X149476190Y-120464286D01*
X149380952Y-120464286D01*
X149428571Y-120702381D02*
X149333333Y-120654762D01*
X149238095Y-120559524D01*
X149190476Y-120369048D01*
X149190476Y-120035714D01*
X149238095Y-119845238D01*
X149333333Y-119750000D01*
X149428571Y-119702381D01*
X149619048Y-119702381D01*
X149714286Y-119750000D01*
X149809524Y-119845238D01*
X149857143Y-120035714D01*
X149857143Y-120369048D01*
X149809524Y-120559524D01*
X149714286Y-120654762D01*
X149619048Y-120702381D01*
X149428571Y-120702381D01*
X150714286Y-120035714D02*
X150714286Y-120702381D01*
X150476190Y-119654762D02*
X150238095Y-120369048D01*
X150857143Y-120369048D01*
X149904762Y-106797619D02*
X149809524Y-106750000D01*
X149714286Y-106654762D01*
X149571429Y-106511905D01*
X149476190Y-106464286D01*
X149380952Y-106464286D01*
X149428571Y-106702381D02*
X149333333Y-106654762D01*
X149238095Y-106559524D01*
X149190476Y-106369048D01*
X149190476Y-106035714D01*
X149238095Y-105845238D01*
X149333333Y-105750000D01*
X149428571Y-105702381D01*
X149619048Y-105702381D01*
X149714286Y-105750000D01*
X149809524Y-105845238D01*
X149857143Y-106035714D01*
X149857143Y-106369048D01*
X149809524Y-106559524D01*
X149714286Y-106654762D01*
X149619048Y-106702381D01*
X149428571Y-106702381D01*
X150714286Y-105702381D02*
X150523809Y-105702381D01*
X150428571Y-105750000D01*
X150380952Y-105797619D01*
X150285714Y-105940476D01*
X150238095Y-106130952D01*
X150238095Y-106511905D01*
X150285714Y-106607143D01*
X150333333Y-106654762D01*
X150428571Y-106702381D01*
X150619048Y-106702381D01*
X150714286Y-106654762D01*
X150761905Y-106607143D01*
X150809524Y-106511905D01*
X150809524Y-106273810D01*
X150761905Y-106178571D01*
X150714286Y-106130952D01*
X150619048Y-106083333D01*
X150428571Y-106083333D01*
X150333333Y-106130952D01*
X150285714Y-106178571D01*
X150238095Y-106273810D01*
X149904762Y-92797619D02*
X149809524Y-92750000D01*
X149714286Y-92654762D01*
X149571429Y-92511905D01*
X149476190Y-92464286D01*
X149380952Y-92464286D01*
X149428571Y-92702381D02*
X149333333Y-92654762D01*
X149238095Y-92559524D01*
X149190476Y-92369048D01*
X149190476Y-92035714D01*
X149238095Y-91845238D01*
X149333333Y-91750000D01*
X149428571Y-91702381D01*
X149619048Y-91702381D01*
X149714286Y-91750000D01*
X149809524Y-91845238D01*
X149857143Y-92035714D01*
X149857143Y-92369048D01*
X149809524Y-92559524D01*
X149714286Y-92654762D01*
X149619048Y-92702381D01*
X149428571Y-92702381D01*
X150428571Y-92130952D02*
X150333333Y-92083333D01*
X150285714Y-92035714D01*
X150238095Y-91940476D01*
X150238095Y-91892857D01*
X150285714Y-91797619D01*
X150333333Y-91750000D01*
X150428571Y-91702381D01*
X150619048Y-91702381D01*
X150714286Y-91750000D01*
X150761905Y-91797619D01*
X150809524Y-91892857D01*
X150809524Y-91940476D01*
X150761905Y-92035714D01*
X150714286Y-92083333D01*
X150619048Y-92130952D01*
X150428571Y-92130952D01*
X150333333Y-92178571D01*
X150285714Y-92226190D01*
X150238095Y-92321429D01*
X150238095Y-92511905D01*
X150285714Y-92607143D01*
X150333333Y-92654762D01*
X150428571Y-92702381D01*
X150619048Y-92702381D01*
X150714286Y-92654762D01*
X150761905Y-92607143D01*
X150809524Y-92511905D01*
X150809524Y-92321429D01*
X150761905Y-92226190D01*
X150714286Y-92178571D01*
X150619048Y-92130952D01*
X119428572Y-118797619D02*
X119333334Y-118750000D01*
X119238096Y-118654762D01*
X119095239Y-118511905D01*
X119000000Y-118464286D01*
X118904762Y-118464286D01*
X118952381Y-118702381D02*
X118857143Y-118654762D01*
X118761905Y-118559524D01*
X118714286Y-118369048D01*
X118714286Y-118035714D01*
X118761905Y-117845238D01*
X118857143Y-117750000D01*
X118952381Y-117702381D01*
X119142858Y-117702381D01*
X119238096Y-117750000D01*
X119333334Y-117845238D01*
X119380953Y-118035714D01*
X119380953Y-118369048D01*
X119333334Y-118559524D01*
X119238096Y-118654762D01*
X119142858Y-118702381D01*
X118952381Y-118702381D01*
X120333334Y-118702381D02*
X119761905Y-118702381D01*
X120047619Y-118702381D02*
X120047619Y-117702381D01*
X119952381Y-117845238D01*
X119857143Y-117940476D01*
X119761905Y-117988095D01*
X120952381Y-117702381D02*
X121047620Y-117702381D01*
X121142858Y-117750000D01*
X121190477Y-117797619D01*
X121238096Y-117892857D01*
X121285715Y-118083333D01*
X121285715Y-118321429D01*
X121238096Y-118511905D01*
X121190477Y-118607143D01*
X121142858Y-118654762D01*
X121047620Y-118702381D01*
X120952381Y-118702381D01*
X120857143Y-118654762D01*
X120809524Y-118607143D01*
X120761905Y-118511905D01*
X120714286Y-118321429D01*
X120714286Y-118083333D01*
X120761905Y-117892857D01*
X120809524Y-117797619D01*
X120857143Y-117750000D01*
X120952381Y-117702381D01*
X119428572Y-104797619D02*
X119333334Y-104750000D01*
X119238096Y-104654762D01*
X119095239Y-104511905D01*
X119000000Y-104464286D01*
X118904762Y-104464286D01*
X118952381Y-104702381D02*
X118857143Y-104654762D01*
X118761905Y-104559524D01*
X118714286Y-104369048D01*
X118714286Y-104035714D01*
X118761905Y-103845238D01*
X118857143Y-103750000D01*
X118952381Y-103702381D01*
X119142858Y-103702381D01*
X119238096Y-103750000D01*
X119333334Y-103845238D01*
X119380953Y-104035714D01*
X119380953Y-104369048D01*
X119333334Y-104559524D01*
X119238096Y-104654762D01*
X119142858Y-104702381D01*
X118952381Y-104702381D01*
X120333334Y-104702381D02*
X119761905Y-104702381D01*
X120047619Y-104702381D02*
X120047619Y-103702381D01*
X119952381Y-103845238D01*
X119857143Y-103940476D01*
X119761905Y-103988095D01*
X120714286Y-103797619D02*
X120761905Y-103750000D01*
X120857143Y-103702381D01*
X121095239Y-103702381D01*
X121190477Y-103750000D01*
X121238096Y-103797619D01*
X121285715Y-103892857D01*
X121285715Y-103988095D01*
X121238096Y-104130952D01*
X120666667Y-104702381D01*
X121285715Y-104702381D01*
X119428572Y-92297619D02*
X119333334Y-92250000D01*
X119238096Y-92154762D01*
X119095239Y-92011905D01*
X119000000Y-91964286D01*
X118904762Y-91964286D01*
X118952381Y-92202381D02*
X118857143Y-92154762D01*
X118761905Y-92059524D01*
X118714286Y-91869048D01*
X118714286Y-91535714D01*
X118761905Y-91345238D01*
X118857143Y-91250000D01*
X118952381Y-91202381D01*
X119142858Y-91202381D01*
X119238096Y-91250000D01*
X119333334Y-91345238D01*
X119380953Y-91535714D01*
X119380953Y-91869048D01*
X119333334Y-92059524D01*
X119238096Y-92154762D01*
X119142858Y-92202381D01*
X118952381Y-92202381D01*
X120333334Y-92202381D02*
X119761905Y-92202381D01*
X120047619Y-92202381D02*
X120047619Y-91202381D01*
X119952381Y-91345238D01*
X119857143Y-91440476D01*
X119761905Y-91488095D01*
X121190477Y-91535714D02*
X121190477Y-92202381D01*
X120952381Y-91154762D02*
X120714286Y-91869048D01*
X121333334Y-91869048D01*
X118147619Y-80971428D02*
X118100000Y-81066666D01*
X118004762Y-81161904D01*
X117861905Y-81304761D01*
X117814286Y-81400000D01*
X117814286Y-81495238D01*
X118052381Y-81447619D02*
X118004762Y-81542857D01*
X117909524Y-81638095D01*
X117719048Y-81685714D01*
X117385714Y-81685714D01*
X117195238Y-81638095D01*
X117100000Y-81542857D01*
X117052381Y-81447619D01*
X117052381Y-81257142D01*
X117100000Y-81161904D01*
X117195238Y-81066666D01*
X117385714Y-81019047D01*
X117719048Y-81019047D01*
X117909524Y-81066666D01*
X118004762Y-81161904D01*
X118052381Y-81257142D01*
X118052381Y-81447619D01*
X118052381Y-80066666D02*
X118052381Y-80638095D01*
X118052381Y-80352381D02*
X117052381Y-80352381D01*
X117195238Y-80447619D01*
X117290476Y-80542857D01*
X117338095Y-80638095D01*
X117052381Y-79209523D02*
X117052381Y-79400000D01*
X117100000Y-79495238D01*
X117147619Y-79542857D01*
X117290476Y-79638095D01*
X117480952Y-79685714D01*
X117861905Y-79685714D01*
X117957143Y-79638095D01*
X118004762Y-79590476D01*
X118052381Y-79495238D01*
X118052381Y-79304761D01*
X118004762Y-79209523D01*
X117957143Y-79161904D01*
X117861905Y-79114285D01*
X117623810Y-79114285D01*
X117528571Y-79161904D01*
X117480952Y-79209523D01*
X117433333Y-79304761D01*
X117433333Y-79495238D01*
X117480952Y-79590476D01*
X117528571Y-79638095D01*
X117623810Y-79685714D01*
X170526667Y-75742381D02*
X170526667Y-76456667D01*
X170479047Y-76599524D01*
X170383809Y-76694762D01*
X170240952Y-76742381D01*
X170145714Y-76742381D01*
X171526667Y-76742381D02*
X170955238Y-76742381D01*
X171240952Y-76742381D02*
X171240952Y-75742381D01*
X171145714Y-75885238D01*
X171050476Y-75980476D01*
X170955238Y-76028095D01*
X152033334Y-55252381D02*
X151700000Y-54776190D01*
X151461905Y-55252381D02*
X151461905Y-54252381D01*
X151842858Y-54252381D01*
X151938096Y-54300000D01*
X151985715Y-54347619D01*
X152033334Y-54442857D01*
X152033334Y-54585714D01*
X151985715Y-54680952D01*
X151938096Y-54728571D01*
X151842858Y-54776190D01*
X151461905Y-54776190D01*
X152985715Y-55252381D02*
X152414286Y-55252381D01*
X152700000Y-55252381D02*
X152700000Y-54252381D01*
X152604762Y-54395238D01*
X152509524Y-54490476D01*
X152414286Y-54538095D01*
X142033334Y-55452381D02*
X141700000Y-54976190D01*
X141461905Y-55452381D02*
X141461905Y-54452381D01*
X141842858Y-54452381D01*
X141938096Y-54500000D01*
X141985715Y-54547619D01*
X142033334Y-54642857D01*
X142033334Y-54785714D01*
X141985715Y-54880952D01*
X141938096Y-54928571D01*
X141842858Y-54976190D01*
X141461905Y-54976190D01*
X142414286Y-54547619D02*
X142461905Y-54500000D01*
X142557143Y-54452381D01*
X142795239Y-54452381D01*
X142890477Y-54500000D01*
X142938096Y-54547619D01*
X142985715Y-54642857D01*
X142985715Y-54738095D01*
X142938096Y-54880952D01*
X142366667Y-55452381D01*
X142985715Y-55452381D01*
X162033334Y-55252381D02*
X161700000Y-54776190D01*
X161461905Y-55252381D02*
X161461905Y-54252381D01*
X161842858Y-54252381D01*
X161938096Y-54300000D01*
X161985715Y-54347619D01*
X162033334Y-54442857D01*
X162033334Y-54585714D01*
X161985715Y-54680952D01*
X161938096Y-54728571D01*
X161842858Y-54776190D01*
X161461905Y-54776190D01*
X162366667Y-54252381D02*
X162985715Y-54252381D01*
X162652381Y-54633333D01*
X162795239Y-54633333D01*
X162890477Y-54680952D01*
X162938096Y-54728571D01*
X162985715Y-54823810D01*
X162985715Y-55061905D01*
X162938096Y-55157143D01*
X162890477Y-55204762D01*
X162795239Y-55252381D01*
X162509524Y-55252381D01*
X162414286Y-55204762D01*
X162366667Y-55157143D01*
X156080953Y-55252381D02*
X155604762Y-55252381D01*
X155604762Y-54252381D01*
X156414286Y-54728571D02*
X156747620Y-54728571D01*
X156890477Y-55252381D02*
X156414286Y-55252381D01*
X156414286Y-54252381D01*
X156890477Y-54252381D01*
X157319048Y-55252381D02*
X157319048Y-54252381D01*
X157557143Y-54252381D01*
X157700001Y-54300000D01*
X157795239Y-54395238D01*
X157842858Y-54490476D01*
X157890477Y-54680952D01*
X157890477Y-54823810D01*
X157842858Y-55014286D01*
X157795239Y-55109524D01*
X157700001Y-55204762D01*
X157557143Y-55252381D01*
X157319048Y-55252381D01*
X158842858Y-55252381D02*
X158271429Y-55252381D01*
X158557143Y-55252381D02*
X158557143Y-54252381D01*
X158461905Y-54395238D01*
X158366667Y-54490476D01*
X158271429Y-54538095D01*
X146080953Y-55452381D02*
X145604762Y-55452381D01*
X145604762Y-54452381D01*
X146414286Y-54928571D02*
X146747620Y-54928571D01*
X146890477Y-55452381D02*
X146414286Y-55452381D01*
X146414286Y-54452381D01*
X146890477Y-54452381D01*
X147319048Y-55452381D02*
X147319048Y-54452381D01*
X147557143Y-54452381D01*
X147700001Y-54500000D01*
X147795239Y-54595238D01*
X147842858Y-54690476D01*
X147890477Y-54880952D01*
X147890477Y-55023810D01*
X147842858Y-55214286D01*
X147795239Y-55309524D01*
X147700001Y-55404762D01*
X147557143Y-55452381D01*
X147319048Y-55452381D01*
X148271429Y-54547619D02*
X148319048Y-54500000D01*
X148414286Y-54452381D01*
X148652382Y-54452381D01*
X148747620Y-54500000D01*
X148795239Y-54547619D01*
X148842858Y-54642857D01*
X148842858Y-54738095D01*
X148795239Y-54880952D01*
X148223810Y-55452381D01*
X148842858Y-55452381D01*
X166280953Y-55252381D02*
X165804762Y-55252381D01*
X165804762Y-54252381D01*
X166614286Y-54728571D02*
X166947620Y-54728571D01*
X167090477Y-55252381D02*
X166614286Y-55252381D01*
X166614286Y-54252381D01*
X167090477Y-54252381D01*
X167519048Y-55252381D02*
X167519048Y-54252381D01*
X167757143Y-54252381D01*
X167900001Y-54300000D01*
X167995239Y-54395238D01*
X168042858Y-54490476D01*
X168090477Y-54680952D01*
X168090477Y-54823810D01*
X168042858Y-55014286D01*
X167995239Y-55109524D01*
X167900001Y-55204762D01*
X167757143Y-55252381D01*
X167519048Y-55252381D01*
X168423810Y-54252381D02*
X169042858Y-54252381D01*
X168709524Y-54633333D01*
X168852382Y-54633333D01*
X168947620Y-54680952D01*
X168995239Y-54728571D01*
X169042858Y-54823810D01*
X169042858Y-55061905D01*
X168995239Y-55157143D01*
X168947620Y-55204762D01*
X168852382Y-55252381D01*
X168566667Y-55252381D01*
X168471429Y-55204762D01*
X168423810Y-55157143D01*
M02*
