M48
INCH,TZ
T1C0.016
T2C0.035
T3C0.040
T4C0.043
T5C0.047
T6C0.059
T7C0.067
T8C0.126
%
G90
G05
T1
X37323Y-33858
X37323Y-34764
X37323Y-39370
X37323Y-40315
X37323Y-44882
X37323Y-45669
X37323Y-50394
X37323Y-51102
X42323Y-39961
X42520Y-34646
X42520Y-45669
X42913Y-51181
X43504Y-37992
X43504Y-49114
X43602Y-32579
X43602Y-43602
X46614Y-40630
X46850Y-30315
X46850Y-35630
X46850Y-46063
X47244Y-37874
X47244Y-42913
X47244Y-48346
X47402Y-46063
X47638Y-52756
X47717Y-23622
X47717Y-30551
X47835Y-32382
X48228Y-51673
X48898Y-32835
X49508Y-51772
X50197Y-51575
X50787Y-33268
X51575Y-27165
X51575Y-51378
X52165Y-26083
X54724Y-20472
X56398Y-50591
X56496Y-49508
X56890Y-50984
X56929Y-48031
X57480Y-32441
X57480Y-51378
X57874Y-52205
X58740Y-20236
X58976Y-34567
X58976Y-39921
X59055Y-22126
X59843Y-34646
X59843Y-40157
X59843Y-45669
X62520Y-30630
X62756Y-20236
X62795Y-34055
X62795Y-39567
X62795Y-45079
X62992Y-22047
X63780Y-32087
X63780Y-37598
X63780Y-43110
X63780Y-48425
X66929Y-22205
X69606Y-31417
X69606Y-32677
X69606Y-37126
X69606Y-38189
X69606Y-42205
X69606Y-43701
X69606Y-47992
X69606Y-49016
T3
X49453Y-35142
X49453Y-36142
X49453Y-37142
X49453Y-38142
X49453Y-39142
X49453Y-40142
X49453Y-41142
X49453Y-42142
X49453Y-43142
X49453Y-44142
X49453Y-45142
X49453Y-46142
X56453Y-35142
X56453Y-36142
X56453Y-37142
X56453Y-38142
X56453Y-39142
X56453Y-40142
X56453Y-41142
X56453Y-42142
X56453Y-43142
X56453Y-44142
X56453Y-45142
X56453Y-46142
T5
X39764Y-32480
X39764Y-33858
X39764Y-37992
X39764Y-39370
X39764Y-43504
X39764Y-44882
X39764Y-49016
X39764Y-50394
X66535Y-32677
X66535Y-34055
X66535Y-38189
X66535Y-39567
X66535Y-43701
X66535Y-45079
X66535Y-49016
X66535Y-50394
T6
X62992Y-27165
T7
X66634Y-27165
T8
X37992Y-21654
X37992Y-53150
X69882Y-21654
X69882Y-53150
T2
X63937Y-25295G85X63465Y-25295
G05
X63937Y-29035G85X63465Y-29035
G05
X65354Y-27598G85X65354Y-26732
G05
X65787Y-25295G85X65315Y-25295
G05
X65787Y-29035G85X65315Y-29035
G05
T4
X56909Y-25492G85X56909Y-24902
G05
X56909Y-29823G85X56909Y-29232
G05
X58760Y-25492G85X58760Y-24902
G05
X58760Y-29823G85X58760Y-29232
G05
X60610Y-25492G85X60610Y-24902
G05
X60610Y-29823G85X60610Y-29232
G05
T0
M30
