G04 #@! TF.FileFunction,Soldermask,Top*
%FSLAX46Y46*%
G04 Gerber Fmt 4.6, Leading zero omitted, Abs format (unit mm)*
G04 Created by KiCad (PCBNEW 4.0.1-stable) date 22-Mar-16 21:49:02*
%MOMM*%
G01*
G04 APERTURE LIST*
%ADD10C,0.100000*%
%ADD11C,2.400000*%
%ADD12R,2.400000X2.400000*%
%ADD13R,1.500000X1.250000*%
%ADD14R,1.250000X1.500000*%
%ADD15R,1.651000X3.048000*%
%ADD16R,6.096000X6.096000*%
%ADD17R,0.900000X1.200000*%
%ADD18R,1.600000X3.000000*%
%ADD19R,4.600000X1.390000*%
%ADD20R,9.400000X10.800000*%
%ADD21C,1.900000*%
%ADD22R,0.800100X0.800100*%
%ADD23O,2.800000X1.600000*%
%ADD24C,2.500000*%
%ADD25O,1.600000X3.800000*%
%ADD26C,2.200000*%
%ADD27C,3.200000*%
%ADD28R,1.200000X0.900000*%
%ADD29R,0.797560X0.797560*%
G04 APERTURE END LIST*
D10*
D11*
X169000000Y-83000000D03*
D12*
X169000000Y-86500000D03*
D11*
X101000000Y-100000000D03*
D12*
X101000000Y-96500000D03*
D13*
X123750000Y-58000000D03*
X126250000Y-58000000D03*
D14*
X128500000Y-66250000D03*
X128500000Y-68750000D03*
D11*
X169000000Y-111000000D03*
D12*
X169000000Y-114500000D03*
D11*
X169000000Y-97000000D03*
D12*
X169000000Y-100500000D03*
D11*
X101000000Y-128000000D03*
D12*
X101000000Y-124500000D03*
D11*
X101000000Y-114000000D03*
D12*
X101000000Y-110500000D03*
D11*
X101000000Y-86000000D03*
D12*
X101000000Y-82500000D03*
D15*
X162286000Y-125500000D03*
D16*
X160000000Y-131850000D03*
D15*
X157714000Y-125500000D03*
X162286000Y-112000000D03*
D16*
X160000000Y-118350000D03*
D15*
X157714000Y-112000000D03*
X162286000Y-98000000D03*
D16*
X160000000Y-104350000D03*
D15*
X157714000Y-98000000D03*
X162286000Y-84000000D03*
D16*
X160000000Y-90350000D03*
D15*
X157714000Y-84000000D03*
X107714000Y-127000000D03*
D16*
X110000000Y-120650000D03*
D15*
X112286000Y-127000000D03*
X107714000Y-113000000D03*
D16*
X110000000Y-106650000D03*
D15*
X112286000Y-113000000D03*
X107714000Y-99000000D03*
D16*
X110000000Y-92650000D03*
D15*
X112286000Y-99000000D03*
X107714000Y-85000000D03*
D16*
X110000000Y-78650000D03*
D15*
X112286000Y-85000000D03*
D17*
X148500000Y-128100000D03*
X148500000Y-125900000D03*
X151000000Y-125900000D03*
X151000000Y-128100000D03*
X148500000Y-114100000D03*
X148500000Y-111900000D03*
X151000000Y-111900000D03*
X151000000Y-114100000D03*
X148500000Y-100100000D03*
X148500000Y-97900000D03*
X151000000Y-97900000D03*
X151000000Y-100100000D03*
X148500000Y-86100000D03*
X148500000Y-83900000D03*
X151000000Y-83900000D03*
X151000000Y-86100000D03*
X121500000Y-124400000D03*
X121500000Y-126600000D03*
X119000000Y-126600000D03*
X119000000Y-124400000D03*
X121500000Y-110900000D03*
X121500000Y-113100000D03*
X119000000Y-113100000D03*
X119000000Y-110900000D03*
X121500000Y-97900000D03*
X121500000Y-100100000D03*
X119000000Y-100100000D03*
X119000000Y-97900000D03*
X121500000Y-83900000D03*
X121500000Y-86100000D03*
X119000000Y-86100000D03*
X119000000Y-83900000D03*
D18*
X153950000Y-64000000D03*
X149250000Y-64000000D03*
X144550000Y-64000000D03*
X153950000Y-75000000D03*
X149250000Y-75000000D03*
X144550000Y-75000000D03*
D19*
X123500000Y-66500000D03*
D20*
X114350000Y-66500000D03*
D19*
X123500000Y-63960000D03*
X123500000Y-69040000D03*
D21*
X125610000Y-89260000D03*
X125610000Y-91800000D03*
X125610000Y-94340000D03*
X125610000Y-96880000D03*
X125610000Y-99420000D03*
X125610000Y-101960000D03*
X125610000Y-104500000D03*
X125610000Y-107040000D03*
X125610000Y-109580000D03*
X125610000Y-112120000D03*
X125610000Y-114660000D03*
X125610000Y-117200000D03*
X143390000Y-89260000D03*
X143390000Y-91800000D03*
X143390000Y-94340000D03*
X143390000Y-96880000D03*
X143390000Y-99420000D03*
X143390000Y-101960000D03*
X143390000Y-104500000D03*
X143390000Y-107040000D03*
X143390000Y-109580000D03*
X143390000Y-112120000D03*
X143390000Y-114660000D03*
X143390000Y-117200000D03*
D11*
X169000000Y-124500000D03*
D12*
X169000000Y-128000000D03*
D22*
X150950000Y-130999240D03*
X149050000Y-130999240D03*
X150000000Y-132998220D03*
X150950000Y-116999240D03*
X149050000Y-116999240D03*
X150000000Y-118998220D03*
X150950000Y-102999240D03*
X149050000Y-102999240D03*
X150000000Y-104998220D03*
X150950000Y-88999240D03*
X149050000Y-88999240D03*
X150000000Y-90998220D03*
X119050000Y-121500760D03*
X120950000Y-121500760D03*
X120000000Y-119501780D03*
X119050000Y-107500760D03*
X120950000Y-107500760D03*
X120000000Y-105501780D03*
X119050000Y-95000760D03*
X120950000Y-95000760D03*
X120000000Y-93001780D03*
X119050000Y-81000760D03*
X120950000Y-81000760D03*
X120000000Y-79001780D03*
D23*
X161800000Y-64250000D03*
X166500000Y-73750000D03*
X166500000Y-64250000D03*
D24*
X169250000Y-69000000D03*
D25*
X166000000Y-69000000D03*
D26*
X160000000Y-69000000D03*
D23*
X161800000Y-73750000D03*
D27*
X96500000Y-55000000D03*
X177500000Y-55000000D03*
X96500000Y-135000000D03*
X177500000Y-135000000D03*
D28*
X153300000Y-52000000D03*
X151100000Y-52000000D03*
X143300000Y-52000000D03*
X141100000Y-52000000D03*
X163300000Y-52000000D03*
X161100000Y-52000000D03*
D29*
X157949300Y-52000000D03*
X156450700Y-52000000D03*
X147949300Y-52000000D03*
X146450700Y-52000000D03*
X167949300Y-52000000D03*
X166450700Y-52000000D03*
M02*
