G04 #@! TF.FileFunction,Soldermask,Bot*
%FSLAX46Y46*%
G04 Gerber Fmt 4.6, Leading zero omitted, Abs format (unit mm)*
G04 Created by KiCad (PCBNEW 4.0.1-stable) date 22-Mar-16 21:49:02*
%MOMM*%
G01*
G04 APERTURE LIST*
%ADD10C,0.100000*%
%ADD11C,2.400000*%
%ADD12R,2.400000X2.400000*%
%ADD13R,1.500000X1.250000*%
%ADD14R,1.250000X1.500000*%
%ADD15R,1.220000X0.910000*%
%ADD16R,0.910000X1.220000*%
%ADD17R,0.900000X1.200000*%
%ADD18R,1.600000X3.000000*%
%ADD19C,1.900000*%
%ADD20R,0.800100X0.800100*%
%ADD21O,2.800000X1.600000*%
%ADD22C,2.500000*%
%ADD23O,1.600000X3.800000*%
%ADD24C,2.200000*%
%ADD25R,1.060000X0.650000*%
%ADD26C,3.200000*%
G04 APERTURE END LIST*
D10*
D11*
X169000000Y-83000000D03*
D12*
X169000000Y-86500000D03*
D11*
X101000000Y-100000000D03*
D12*
X101000000Y-96500000D03*
D13*
X128750000Y-73500000D03*
X131250000Y-73500000D03*
D14*
X131000000Y-77250000D03*
X131000000Y-79750000D03*
D15*
X151000000Y-123635000D03*
X151000000Y-120365000D03*
D16*
X160135000Y-123500000D03*
X156865000Y-123500000D03*
D15*
X151000000Y-110135000D03*
X151000000Y-106865000D03*
D16*
X160135000Y-110000000D03*
X156865000Y-110000000D03*
D15*
X151000000Y-96135000D03*
X151000000Y-92865000D03*
D16*
X160135000Y-96000000D03*
X156865000Y-96000000D03*
D15*
X151000000Y-81865000D03*
X151000000Y-85135000D03*
D16*
X160135000Y-82000000D03*
X156865000Y-82000000D03*
D15*
X120000000Y-129135000D03*
X120000000Y-125865000D03*
D16*
X110865000Y-129000000D03*
X114135000Y-129000000D03*
D15*
X120000000Y-115135000D03*
X120000000Y-111865000D03*
D16*
X110365000Y-115000000D03*
X113635000Y-115000000D03*
D15*
X120000000Y-102135000D03*
X120000000Y-98865000D03*
D16*
X110865000Y-101000000D03*
X114135000Y-101000000D03*
D15*
X120000000Y-88135000D03*
X120000000Y-84865000D03*
D16*
X110865000Y-87000000D03*
X114135000Y-87000000D03*
D11*
X169000000Y-111000000D03*
D12*
X169000000Y-114500000D03*
D11*
X169000000Y-97000000D03*
D12*
X169000000Y-100500000D03*
D11*
X101000000Y-128000000D03*
D12*
X101000000Y-124500000D03*
D11*
X101000000Y-114000000D03*
D12*
X101000000Y-110500000D03*
D11*
X101000000Y-86000000D03*
D12*
X101000000Y-82500000D03*
D17*
X154000000Y-123600000D03*
X154000000Y-121400000D03*
X154000000Y-110100000D03*
X154000000Y-107900000D03*
X154000000Y-96100000D03*
X154000000Y-93900000D03*
X154000000Y-81900000D03*
X154000000Y-84100000D03*
X117000000Y-129100000D03*
X117000000Y-126900000D03*
X117000000Y-115100000D03*
X117000000Y-112900000D03*
X116500000Y-102100000D03*
X116500000Y-99900000D03*
X117000000Y-88100000D03*
X117000000Y-85900000D03*
D18*
X153950000Y-64000000D03*
X149250000Y-64000000D03*
X144550000Y-64000000D03*
X153950000Y-75000000D03*
X149250000Y-75000000D03*
X144550000Y-75000000D03*
D19*
X125610000Y-89260000D03*
X125610000Y-91800000D03*
X125610000Y-94340000D03*
X125610000Y-96880000D03*
X125610000Y-99420000D03*
X125610000Y-101960000D03*
X125610000Y-104500000D03*
X125610000Y-107040000D03*
X125610000Y-109580000D03*
X125610000Y-112120000D03*
X125610000Y-114660000D03*
X125610000Y-117200000D03*
X143390000Y-89260000D03*
X143390000Y-91800000D03*
X143390000Y-94340000D03*
X143390000Y-96880000D03*
X143390000Y-99420000D03*
X143390000Y-101960000D03*
X143390000Y-104500000D03*
X143390000Y-107040000D03*
X143390000Y-109580000D03*
X143390000Y-112120000D03*
X143390000Y-114660000D03*
X143390000Y-117200000D03*
D11*
X169000000Y-124500000D03*
D12*
X169000000Y-128000000D03*
D20*
X133050000Y-81999240D03*
X134950000Y-81999240D03*
X134000000Y-83998220D03*
D21*
X161800000Y-64250000D03*
X166500000Y-73750000D03*
X166500000Y-64250000D03*
D22*
X169250000Y-69000000D03*
D23*
X166000000Y-69000000D03*
D24*
X160000000Y-69000000D03*
D21*
X161800000Y-73750000D03*
D25*
X126600000Y-77550000D03*
X126600000Y-78500000D03*
X126600000Y-79450000D03*
X124400000Y-79450000D03*
X124400000Y-77550000D03*
D26*
X96500000Y-55000000D03*
X177500000Y-55000000D03*
X96500000Y-135000000D03*
X177500000Y-135000000D03*
M02*
