G04 #@! TF.FileFunction,Legend,Bot*
%FSLAX46Y46*%
G04 Gerber Fmt 4.6, Leading zero omitted, Abs format (unit mm)*
G04 Created by KiCad (PCBNEW 4.0.1-stable) date 22-Mar-16 21:49:02*
%MOMM*%
G01*
G04 APERTURE LIST*
%ADD10C,0.100000*%
%ADD11C,0.150000*%
G04 APERTURE END LIST*
D10*
D11*
X130500000Y-74350000D02*
X129500000Y-74350000D01*
X129500000Y-72650000D02*
X130500000Y-72650000D01*
X130150000Y-79000000D02*
X130150000Y-78000000D01*
X131850000Y-78000000D02*
X131850000Y-79000000D01*
X151000000Y-121682500D02*
X151000000Y-121301500D01*
X151000000Y-122698500D02*
X151000000Y-122317500D01*
X151000000Y-122317500D02*
X151381000Y-121682500D01*
X151381000Y-121682500D02*
X150619000Y-121682500D01*
X150619000Y-121682500D02*
X151000000Y-122317500D01*
X151508000Y-122317500D02*
X150492000Y-122317500D01*
X150100000Y-124000000D02*
X150100000Y-120460000D01*
X151900000Y-124000000D02*
X151900000Y-120460000D01*
X158182500Y-123500000D02*
X157801500Y-123500000D01*
X159198500Y-123500000D02*
X158817500Y-123500000D01*
X158817500Y-123500000D02*
X158182500Y-123119000D01*
X158182500Y-123119000D02*
X158182500Y-123881000D01*
X158182500Y-123881000D02*
X158817500Y-123500000D01*
X158817500Y-122992000D02*
X158817500Y-124008000D01*
X160500000Y-124400000D02*
X156960000Y-124400000D01*
X160500000Y-122600000D02*
X156960000Y-122600000D01*
X151000000Y-108182500D02*
X151000000Y-107801500D01*
X151000000Y-109198500D02*
X151000000Y-108817500D01*
X151000000Y-108817500D02*
X151381000Y-108182500D01*
X151381000Y-108182500D02*
X150619000Y-108182500D01*
X150619000Y-108182500D02*
X151000000Y-108817500D01*
X151508000Y-108817500D02*
X150492000Y-108817500D01*
X150100000Y-110500000D02*
X150100000Y-106960000D01*
X151900000Y-110500000D02*
X151900000Y-106960000D01*
X158182500Y-110000000D02*
X157801500Y-110000000D01*
X159198500Y-110000000D02*
X158817500Y-110000000D01*
X158817500Y-110000000D02*
X158182500Y-109619000D01*
X158182500Y-109619000D02*
X158182500Y-110381000D01*
X158182500Y-110381000D02*
X158817500Y-110000000D01*
X158817500Y-109492000D02*
X158817500Y-110508000D01*
X160500000Y-110900000D02*
X156960000Y-110900000D01*
X160500000Y-109100000D02*
X156960000Y-109100000D01*
X151000000Y-94182500D02*
X151000000Y-93801500D01*
X151000000Y-95198500D02*
X151000000Y-94817500D01*
X151000000Y-94817500D02*
X151381000Y-94182500D01*
X151381000Y-94182500D02*
X150619000Y-94182500D01*
X150619000Y-94182500D02*
X151000000Y-94817500D01*
X151508000Y-94817500D02*
X150492000Y-94817500D01*
X150100000Y-96500000D02*
X150100000Y-92960000D01*
X151900000Y-96500000D02*
X151900000Y-92960000D01*
X158182500Y-96000000D02*
X157801500Y-96000000D01*
X159198500Y-96000000D02*
X158817500Y-96000000D01*
X158817500Y-96000000D02*
X158182500Y-95619000D01*
X158182500Y-95619000D02*
X158182500Y-96381000D01*
X158182500Y-96381000D02*
X158817500Y-96000000D01*
X158817500Y-95492000D02*
X158817500Y-96508000D01*
X160500000Y-96900000D02*
X156960000Y-96900000D01*
X160500000Y-95100000D02*
X156960000Y-95100000D01*
X151000000Y-83817500D02*
X151000000Y-84198500D01*
X151000000Y-82801500D02*
X151000000Y-83182500D01*
X151000000Y-83182500D02*
X150619000Y-83817500D01*
X150619000Y-83817500D02*
X151381000Y-83817500D01*
X151381000Y-83817500D02*
X151000000Y-83182500D01*
X150492000Y-83182500D02*
X151508000Y-83182500D01*
X151900000Y-81500000D02*
X151900000Y-85040000D01*
X150100000Y-81500000D02*
X150100000Y-85040000D01*
X158182500Y-82000000D02*
X157801500Y-82000000D01*
X159198500Y-82000000D02*
X158817500Y-82000000D01*
X158817500Y-82000000D02*
X158182500Y-81619000D01*
X158182500Y-81619000D02*
X158182500Y-82381000D01*
X158182500Y-82381000D02*
X158817500Y-82000000D01*
X158817500Y-81492000D02*
X158817500Y-82508000D01*
X160500000Y-82900000D02*
X156960000Y-82900000D01*
X160500000Y-81100000D02*
X156960000Y-81100000D01*
X120000000Y-127182500D02*
X120000000Y-126801500D01*
X120000000Y-128198500D02*
X120000000Y-127817500D01*
X120000000Y-127817500D02*
X120381000Y-127182500D01*
X120381000Y-127182500D02*
X119619000Y-127182500D01*
X119619000Y-127182500D02*
X120000000Y-127817500D01*
X120508000Y-127817500D02*
X119492000Y-127817500D01*
X119100000Y-129500000D02*
X119100000Y-125960000D01*
X120900000Y-129500000D02*
X120900000Y-125960000D01*
X112817500Y-129000000D02*
X113198500Y-129000000D01*
X111801500Y-129000000D02*
X112182500Y-129000000D01*
X112182500Y-129000000D02*
X112817500Y-129381000D01*
X112817500Y-129381000D02*
X112817500Y-128619000D01*
X112817500Y-128619000D02*
X112182500Y-129000000D01*
X112182500Y-129508000D02*
X112182500Y-128492000D01*
X110500000Y-128100000D02*
X114040000Y-128100000D01*
X110500000Y-129900000D02*
X114040000Y-129900000D01*
X120000000Y-113182500D02*
X120000000Y-112801500D01*
X120000000Y-114198500D02*
X120000000Y-113817500D01*
X120000000Y-113817500D02*
X120381000Y-113182500D01*
X120381000Y-113182500D02*
X119619000Y-113182500D01*
X119619000Y-113182500D02*
X120000000Y-113817500D01*
X120508000Y-113817500D02*
X119492000Y-113817500D01*
X119100000Y-115500000D02*
X119100000Y-111960000D01*
X120900000Y-115500000D02*
X120900000Y-111960000D01*
X112317500Y-115000000D02*
X112698500Y-115000000D01*
X111301500Y-115000000D02*
X111682500Y-115000000D01*
X111682500Y-115000000D02*
X112317500Y-115381000D01*
X112317500Y-115381000D02*
X112317500Y-114619000D01*
X112317500Y-114619000D02*
X111682500Y-115000000D01*
X111682500Y-115508000D02*
X111682500Y-114492000D01*
X110000000Y-114100000D02*
X113540000Y-114100000D01*
X110000000Y-115900000D02*
X113540000Y-115900000D01*
X120000000Y-100182500D02*
X120000000Y-99801500D01*
X120000000Y-101198500D02*
X120000000Y-100817500D01*
X120000000Y-100817500D02*
X120381000Y-100182500D01*
X120381000Y-100182500D02*
X119619000Y-100182500D01*
X119619000Y-100182500D02*
X120000000Y-100817500D01*
X120508000Y-100817500D02*
X119492000Y-100817500D01*
X119100000Y-102500000D02*
X119100000Y-98960000D01*
X120900000Y-102500000D02*
X120900000Y-98960000D01*
X112817500Y-101000000D02*
X113198500Y-101000000D01*
X111801500Y-101000000D02*
X112182500Y-101000000D01*
X112182500Y-101000000D02*
X112817500Y-101381000D01*
X112817500Y-101381000D02*
X112817500Y-100619000D01*
X112817500Y-100619000D02*
X112182500Y-101000000D01*
X112182500Y-101508000D02*
X112182500Y-100492000D01*
X110500000Y-100100000D02*
X114040000Y-100100000D01*
X110500000Y-101900000D02*
X114040000Y-101900000D01*
X120000000Y-86182500D02*
X120000000Y-85801500D01*
X120000000Y-87198500D02*
X120000000Y-86817500D01*
X120000000Y-86817500D02*
X120381000Y-86182500D01*
X120381000Y-86182500D02*
X119619000Y-86182500D01*
X119619000Y-86182500D02*
X120000000Y-86817500D01*
X120508000Y-86817500D02*
X119492000Y-86817500D01*
X119100000Y-88500000D02*
X119100000Y-84960000D01*
X120900000Y-88500000D02*
X120900000Y-84960000D01*
X112817500Y-87000000D02*
X113198500Y-87000000D01*
X111801500Y-87000000D02*
X112182500Y-87000000D01*
X112182500Y-87000000D02*
X112817500Y-87381000D01*
X112817500Y-87381000D02*
X112817500Y-86619000D01*
X112817500Y-86619000D02*
X112182500Y-87000000D01*
X112182500Y-87508000D02*
X112182500Y-86492000D01*
X110500000Y-86100000D02*
X114040000Y-86100000D01*
X110500000Y-87900000D02*
X114040000Y-87900000D01*
X153325000Y-122000000D02*
X153325000Y-123000000D01*
X154675000Y-123000000D02*
X154675000Y-122000000D01*
X153325000Y-108500000D02*
X153325000Y-109500000D01*
X154675000Y-109500000D02*
X154675000Y-108500000D01*
X153325000Y-94500000D02*
X153325000Y-95500000D01*
X154675000Y-95500000D02*
X154675000Y-94500000D01*
X154675000Y-83500000D02*
X154675000Y-82500000D01*
X153325000Y-82500000D02*
X153325000Y-83500000D01*
X116325000Y-127500000D02*
X116325000Y-128500000D01*
X117675000Y-128500000D02*
X117675000Y-127500000D01*
X116325000Y-113500000D02*
X116325000Y-114500000D01*
X117675000Y-114500000D02*
X117675000Y-113500000D01*
X115825000Y-100500000D02*
X115825000Y-101500000D01*
X117175000Y-101500000D02*
X117175000Y-100500000D01*
X116325000Y-86500000D02*
X116325000Y-87500000D01*
X117675000Y-87500000D02*
X117675000Y-86500000D01*
X135299160Y-83650240D02*
X135250900Y-83650240D01*
X132500180Y-82949200D02*
X132500180Y-83650240D01*
X132500180Y-83650240D02*
X132749100Y-83650240D01*
X135299160Y-83650240D02*
X135499820Y-83650240D01*
X135499820Y-83650240D02*
X135499820Y-82949200D01*
X125900000Y-76800000D02*
G75*
G03X125900000Y-76800000I-100000J0D01*
G01*
X125250000Y-77050000D02*
X125750000Y-77050000D01*
X125250000Y-79950000D02*
X125250000Y-77050000D01*
X125750000Y-79950000D02*
X125250000Y-79950000D01*
X125750000Y-77050000D02*
X125750000Y-79950000D01*
X128896666Y-71317143D02*
X128944285Y-71364762D01*
X129087142Y-71412381D01*
X129182380Y-71412381D01*
X129325238Y-71364762D01*
X129420476Y-71269524D01*
X129468095Y-71174286D01*
X129515714Y-70983810D01*
X129515714Y-70840952D01*
X129468095Y-70650476D01*
X129420476Y-70555238D01*
X129325238Y-70460000D01*
X129182380Y-70412381D01*
X129087142Y-70412381D01*
X128944285Y-70460000D01*
X128896666Y-70507619D01*
X128563333Y-70412381D02*
X127944285Y-70412381D01*
X128277619Y-70793333D01*
X128134761Y-70793333D01*
X128039523Y-70840952D01*
X127991904Y-70888571D01*
X127944285Y-70983810D01*
X127944285Y-71221905D01*
X127991904Y-71317143D01*
X128039523Y-71364762D01*
X128134761Y-71412381D01*
X128420476Y-71412381D01*
X128515714Y-71364762D01*
X128563333Y-71317143D01*
X135167143Y-78333334D02*
X135214762Y-78285715D01*
X135262381Y-78142858D01*
X135262381Y-78047620D01*
X135214762Y-77904762D01*
X135119524Y-77809524D01*
X135024286Y-77761905D01*
X134833810Y-77714286D01*
X134690952Y-77714286D01*
X134500476Y-77761905D01*
X134405238Y-77809524D01*
X134310000Y-77904762D01*
X134262381Y-78047620D01*
X134262381Y-78142858D01*
X134310000Y-78285715D01*
X134357619Y-78333334D01*
X134595714Y-79190477D02*
X135262381Y-79190477D01*
X134214762Y-78952381D02*
X134929048Y-78714286D01*
X134929048Y-79333334D01*
X149652381Y-119261905D02*
X148652381Y-119261905D01*
X148652381Y-119500000D01*
X148700000Y-119642858D01*
X148795238Y-119738096D01*
X148890476Y-119785715D01*
X149080952Y-119833334D01*
X149223810Y-119833334D01*
X149414286Y-119785715D01*
X149509524Y-119738096D01*
X149604762Y-119642858D01*
X149652381Y-119500000D01*
X149652381Y-119261905D01*
X149652381Y-120785715D02*
X149652381Y-120214286D01*
X149652381Y-120500000D02*
X148652381Y-120500000D01*
X148795238Y-120404762D01*
X148890476Y-120309524D01*
X148938095Y-120214286D01*
X159238095Y-121952381D02*
X159238095Y-120952381D01*
X159000000Y-120952381D01*
X158857142Y-121000000D01*
X158761904Y-121095238D01*
X158714285Y-121190476D01*
X158666666Y-121380952D01*
X158666666Y-121523810D01*
X158714285Y-121714286D01*
X158761904Y-121809524D01*
X158857142Y-121904762D01*
X159000000Y-121952381D01*
X159238095Y-121952381D01*
X158285714Y-121047619D02*
X158238095Y-121000000D01*
X158142857Y-120952381D01*
X157904761Y-120952381D01*
X157809523Y-121000000D01*
X157761904Y-121047619D01*
X157714285Y-121142857D01*
X157714285Y-121238095D01*
X157761904Y-121380952D01*
X158333333Y-121952381D01*
X157714285Y-121952381D01*
X149652381Y-106261905D02*
X148652381Y-106261905D01*
X148652381Y-106500000D01*
X148700000Y-106642858D01*
X148795238Y-106738096D01*
X148890476Y-106785715D01*
X149080952Y-106833334D01*
X149223810Y-106833334D01*
X149414286Y-106785715D01*
X149509524Y-106738096D01*
X149604762Y-106642858D01*
X149652381Y-106500000D01*
X149652381Y-106261905D01*
X148652381Y-107166667D02*
X148652381Y-107785715D01*
X149033333Y-107452381D01*
X149033333Y-107595239D01*
X149080952Y-107690477D01*
X149128571Y-107738096D01*
X149223810Y-107785715D01*
X149461905Y-107785715D01*
X149557143Y-107738096D01*
X149604762Y-107690477D01*
X149652381Y-107595239D01*
X149652381Y-107309524D01*
X149604762Y-107214286D01*
X149557143Y-107166667D01*
X159238095Y-108452381D02*
X159238095Y-107452381D01*
X159000000Y-107452381D01*
X158857142Y-107500000D01*
X158761904Y-107595238D01*
X158714285Y-107690476D01*
X158666666Y-107880952D01*
X158666666Y-108023810D01*
X158714285Y-108214286D01*
X158761904Y-108309524D01*
X158857142Y-108404762D01*
X159000000Y-108452381D01*
X159238095Y-108452381D01*
X157809523Y-107785714D02*
X157809523Y-108452381D01*
X158047619Y-107404762D02*
X158285714Y-108119048D01*
X157666666Y-108119048D01*
X149652381Y-92261905D02*
X148652381Y-92261905D01*
X148652381Y-92500000D01*
X148700000Y-92642858D01*
X148795238Y-92738096D01*
X148890476Y-92785715D01*
X149080952Y-92833334D01*
X149223810Y-92833334D01*
X149414286Y-92785715D01*
X149509524Y-92738096D01*
X149604762Y-92642858D01*
X149652381Y-92500000D01*
X149652381Y-92261905D01*
X148652381Y-93738096D02*
X148652381Y-93261905D01*
X149128571Y-93214286D01*
X149080952Y-93261905D01*
X149033333Y-93357143D01*
X149033333Y-93595239D01*
X149080952Y-93690477D01*
X149128571Y-93738096D01*
X149223810Y-93785715D01*
X149461905Y-93785715D01*
X149557143Y-93738096D01*
X149604762Y-93690477D01*
X149652381Y-93595239D01*
X149652381Y-93357143D01*
X149604762Y-93261905D01*
X149557143Y-93214286D01*
X159238095Y-94452381D02*
X159238095Y-93452381D01*
X159000000Y-93452381D01*
X158857142Y-93500000D01*
X158761904Y-93595238D01*
X158714285Y-93690476D01*
X158666666Y-93880952D01*
X158666666Y-94023810D01*
X158714285Y-94214286D01*
X158761904Y-94309524D01*
X158857142Y-94404762D01*
X159000000Y-94452381D01*
X159238095Y-94452381D01*
X157809523Y-93452381D02*
X158000000Y-93452381D01*
X158095238Y-93500000D01*
X158142857Y-93547619D01*
X158238095Y-93690476D01*
X158285714Y-93880952D01*
X158285714Y-94261905D01*
X158238095Y-94357143D01*
X158190476Y-94404762D01*
X158095238Y-94452381D01*
X157904761Y-94452381D01*
X157809523Y-94404762D01*
X157761904Y-94357143D01*
X157714285Y-94261905D01*
X157714285Y-94023810D01*
X157761904Y-93928571D01*
X157809523Y-93880952D01*
X157904761Y-93833333D01*
X158095238Y-93833333D01*
X158190476Y-93880952D01*
X158238095Y-93928571D01*
X158285714Y-94023810D01*
X149452381Y-80761905D02*
X148452381Y-80761905D01*
X148452381Y-81000000D01*
X148500000Y-81142858D01*
X148595238Y-81238096D01*
X148690476Y-81285715D01*
X148880952Y-81333334D01*
X149023810Y-81333334D01*
X149214286Y-81285715D01*
X149309524Y-81238096D01*
X149404762Y-81142858D01*
X149452381Y-81000000D01*
X149452381Y-80761905D01*
X148452381Y-81666667D02*
X148452381Y-82333334D01*
X149452381Y-81904762D01*
X159238095Y-80452381D02*
X159238095Y-79452381D01*
X159000000Y-79452381D01*
X158857142Y-79500000D01*
X158761904Y-79595238D01*
X158714285Y-79690476D01*
X158666666Y-79880952D01*
X158666666Y-80023810D01*
X158714285Y-80214286D01*
X158761904Y-80309524D01*
X158857142Y-80404762D01*
X159000000Y-80452381D01*
X159238095Y-80452381D01*
X158095238Y-79880952D02*
X158190476Y-79833333D01*
X158238095Y-79785714D01*
X158285714Y-79690476D01*
X158285714Y-79642857D01*
X158238095Y-79547619D01*
X158190476Y-79500000D01*
X158095238Y-79452381D01*
X157904761Y-79452381D01*
X157809523Y-79500000D01*
X157761904Y-79547619D01*
X157714285Y-79642857D01*
X157714285Y-79690476D01*
X157761904Y-79785714D01*
X157809523Y-79833333D01*
X157904761Y-79880952D01*
X158095238Y-79880952D01*
X158190476Y-79928571D01*
X158238095Y-79976190D01*
X158285714Y-80071429D01*
X158285714Y-80261905D01*
X158238095Y-80357143D01*
X158190476Y-80404762D01*
X158095238Y-80452381D01*
X157904761Y-80452381D01*
X157809523Y-80404762D01*
X157761904Y-80357143D01*
X157714285Y-80261905D01*
X157714285Y-80071429D01*
X157761904Y-79976190D01*
X157809523Y-79928571D01*
X157904761Y-79880952D01*
X122452381Y-126761905D02*
X121452381Y-126761905D01*
X121452381Y-127000000D01*
X121500000Y-127142858D01*
X121595238Y-127238096D01*
X121690476Y-127285715D01*
X121880952Y-127333334D01*
X122023810Y-127333334D01*
X122214286Y-127285715D01*
X122309524Y-127238096D01*
X122404762Y-127142858D01*
X122452381Y-127000000D01*
X122452381Y-126761905D01*
X122452381Y-127809524D02*
X122452381Y-128000000D01*
X122404762Y-128095239D01*
X122357143Y-128142858D01*
X122214286Y-128238096D01*
X122023810Y-128285715D01*
X121642857Y-128285715D01*
X121547619Y-128238096D01*
X121500000Y-128190477D01*
X121452381Y-128095239D01*
X121452381Y-127904762D01*
X121500000Y-127809524D01*
X121547619Y-127761905D01*
X121642857Y-127714286D01*
X121880952Y-127714286D01*
X121976190Y-127761905D01*
X122023810Y-127809524D01*
X122071429Y-127904762D01*
X122071429Y-128095239D01*
X122023810Y-128190477D01*
X121976190Y-128238096D01*
X121880952Y-128285715D01*
X113714286Y-131452381D02*
X113714286Y-130452381D01*
X113476191Y-130452381D01*
X113333333Y-130500000D01*
X113238095Y-130595238D01*
X113190476Y-130690476D01*
X113142857Y-130880952D01*
X113142857Y-131023810D01*
X113190476Y-131214286D01*
X113238095Y-131309524D01*
X113333333Y-131404762D01*
X113476191Y-131452381D01*
X113714286Y-131452381D01*
X112190476Y-131452381D02*
X112761905Y-131452381D01*
X112476191Y-131452381D02*
X112476191Y-130452381D01*
X112571429Y-130595238D01*
X112666667Y-130690476D01*
X112761905Y-130738095D01*
X111571429Y-130452381D02*
X111476190Y-130452381D01*
X111380952Y-130500000D01*
X111333333Y-130547619D01*
X111285714Y-130642857D01*
X111238095Y-130833333D01*
X111238095Y-131071429D01*
X111285714Y-131261905D01*
X111333333Y-131357143D01*
X111380952Y-131404762D01*
X111476190Y-131452381D01*
X111571429Y-131452381D01*
X111666667Y-131404762D01*
X111714286Y-131357143D01*
X111761905Y-131261905D01*
X111809524Y-131071429D01*
X111809524Y-130833333D01*
X111761905Y-130642857D01*
X111714286Y-130547619D01*
X111666667Y-130500000D01*
X111571429Y-130452381D01*
X122452381Y-112285714D02*
X121452381Y-112285714D01*
X121452381Y-112523809D01*
X121500000Y-112666667D01*
X121595238Y-112761905D01*
X121690476Y-112809524D01*
X121880952Y-112857143D01*
X122023810Y-112857143D01*
X122214286Y-112809524D01*
X122309524Y-112761905D01*
X122404762Y-112666667D01*
X122452381Y-112523809D01*
X122452381Y-112285714D01*
X122452381Y-113809524D02*
X122452381Y-113238095D01*
X122452381Y-113523809D02*
X121452381Y-113523809D01*
X121595238Y-113428571D01*
X121690476Y-113333333D01*
X121738095Y-113238095D01*
X122452381Y-114761905D02*
X122452381Y-114190476D01*
X122452381Y-114476190D02*
X121452381Y-114476190D01*
X121595238Y-114380952D01*
X121690476Y-114285714D01*
X121738095Y-114190476D01*
X113214286Y-117452381D02*
X113214286Y-116452381D01*
X112976191Y-116452381D01*
X112833333Y-116500000D01*
X112738095Y-116595238D01*
X112690476Y-116690476D01*
X112642857Y-116880952D01*
X112642857Y-117023810D01*
X112690476Y-117214286D01*
X112738095Y-117309524D01*
X112833333Y-117404762D01*
X112976191Y-117452381D01*
X113214286Y-117452381D01*
X111690476Y-117452381D02*
X112261905Y-117452381D01*
X111976191Y-117452381D02*
X111976191Y-116452381D01*
X112071429Y-116595238D01*
X112166667Y-116690476D01*
X112261905Y-116738095D01*
X111309524Y-116547619D02*
X111261905Y-116500000D01*
X111166667Y-116452381D01*
X110928571Y-116452381D01*
X110833333Y-116500000D01*
X110785714Y-116547619D01*
X110738095Y-116642857D01*
X110738095Y-116738095D01*
X110785714Y-116880952D01*
X111357143Y-117452381D01*
X110738095Y-117452381D01*
X122452381Y-99285714D02*
X121452381Y-99285714D01*
X121452381Y-99523809D01*
X121500000Y-99666667D01*
X121595238Y-99761905D01*
X121690476Y-99809524D01*
X121880952Y-99857143D01*
X122023810Y-99857143D01*
X122214286Y-99809524D01*
X122309524Y-99761905D01*
X122404762Y-99666667D01*
X122452381Y-99523809D01*
X122452381Y-99285714D01*
X122452381Y-100809524D02*
X122452381Y-100238095D01*
X122452381Y-100523809D02*
X121452381Y-100523809D01*
X121595238Y-100428571D01*
X121690476Y-100333333D01*
X121738095Y-100238095D01*
X121452381Y-101142857D02*
X121452381Y-101761905D01*
X121833333Y-101428571D01*
X121833333Y-101571429D01*
X121880952Y-101666667D01*
X121928571Y-101714286D01*
X122023810Y-101761905D01*
X122261905Y-101761905D01*
X122357143Y-101714286D01*
X122404762Y-101666667D01*
X122452381Y-101571429D01*
X122452381Y-101285714D01*
X122404762Y-101190476D01*
X122357143Y-101142857D01*
X113714286Y-103452381D02*
X113714286Y-102452381D01*
X113476191Y-102452381D01*
X113333333Y-102500000D01*
X113238095Y-102595238D01*
X113190476Y-102690476D01*
X113142857Y-102880952D01*
X113142857Y-103023810D01*
X113190476Y-103214286D01*
X113238095Y-103309524D01*
X113333333Y-103404762D01*
X113476191Y-103452381D01*
X113714286Y-103452381D01*
X112190476Y-103452381D02*
X112761905Y-103452381D01*
X112476191Y-103452381D02*
X112476191Y-102452381D01*
X112571429Y-102595238D01*
X112666667Y-102690476D01*
X112761905Y-102738095D01*
X111333333Y-102785714D02*
X111333333Y-103452381D01*
X111571429Y-102404762D02*
X111809524Y-103119048D01*
X111190476Y-103119048D01*
X122452381Y-85285714D02*
X121452381Y-85285714D01*
X121452381Y-85523809D01*
X121500000Y-85666667D01*
X121595238Y-85761905D01*
X121690476Y-85809524D01*
X121880952Y-85857143D01*
X122023810Y-85857143D01*
X122214286Y-85809524D01*
X122309524Y-85761905D01*
X122404762Y-85666667D01*
X122452381Y-85523809D01*
X122452381Y-85285714D01*
X122452381Y-86809524D02*
X122452381Y-86238095D01*
X122452381Y-86523809D02*
X121452381Y-86523809D01*
X121595238Y-86428571D01*
X121690476Y-86333333D01*
X121738095Y-86238095D01*
X121452381Y-87714286D02*
X121452381Y-87238095D01*
X121928571Y-87190476D01*
X121880952Y-87238095D01*
X121833333Y-87333333D01*
X121833333Y-87571429D01*
X121880952Y-87666667D01*
X121928571Y-87714286D01*
X122023810Y-87761905D01*
X122261905Y-87761905D01*
X122357143Y-87714286D01*
X122404762Y-87666667D01*
X122452381Y-87571429D01*
X122452381Y-87333333D01*
X122404762Y-87238095D01*
X122357143Y-87190476D01*
X113714286Y-89452381D02*
X113714286Y-88452381D01*
X113476191Y-88452381D01*
X113333333Y-88500000D01*
X113238095Y-88595238D01*
X113190476Y-88690476D01*
X113142857Y-88880952D01*
X113142857Y-89023810D01*
X113190476Y-89214286D01*
X113238095Y-89309524D01*
X113333333Y-89404762D01*
X113476191Y-89452381D01*
X113714286Y-89452381D01*
X112190476Y-89452381D02*
X112761905Y-89452381D01*
X112476191Y-89452381D02*
X112476191Y-88452381D01*
X112571429Y-88595238D01*
X112666667Y-88690476D01*
X112761905Y-88738095D01*
X111333333Y-88452381D02*
X111523810Y-88452381D01*
X111619048Y-88500000D01*
X111666667Y-88547619D01*
X111761905Y-88690476D01*
X111809524Y-88880952D01*
X111809524Y-89261905D01*
X111761905Y-89357143D01*
X111714286Y-89404762D01*
X111619048Y-89452381D01*
X111428571Y-89452381D01*
X111333333Y-89404762D01*
X111285714Y-89357143D01*
X111238095Y-89261905D01*
X111238095Y-89023810D01*
X111285714Y-88928571D01*
X111333333Y-88880952D01*
X111428571Y-88833333D01*
X111619048Y-88833333D01*
X111714286Y-88880952D01*
X111761905Y-88928571D01*
X111809524Y-89023810D01*
X156052381Y-121433334D02*
X155576190Y-121100000D01*
X156052381Y-120861905D02*
X155052381Y-120861905D01*
X155052381Y-121242858D01*
X155100000Y-121338096D01*
X155147619Y-121385715D01*
X155242857Y-121433334D01*
X155385714Y-121433334D01*
X155480952Y-121385715D01*
X155528571Y-121338096D01*
X155576190Y-121242858D01*
X155576190Y-120861905D01*
X156052381Y-121909524D02*
X156052381Y-122100000D01*
X156004762Y-122195239D01*
X155957143Y-122242858D01*
X155814286Y-122338096D01*
X155623810Y-122385715D01*
X155242857Y-122385715D01*
X155147619Y-122338096D01*
X155100000Y-122290477D01*
X155052381Y-122195239D01*
X155052381Y-122004762D01*
X155100000Y-121909524D01*
X155147619Y-121861905D01*
X155242857Y-121814286D01*
X155480952Y-121814286D01*
X155576190Y-121861905D01*
X155623810Y-121909524D01*
X155671429Y-122004762D01*
X155671429Y-122195239D01*
X155623810Y-122290477D01*
X155576190Y-122338096D01*
X155480952Y-122385715D01*
X156052381Y-106957143D02*
X155576190Y-106623809D01*
X156052381Y-106385714D02*
X155052381Y-106385714D01*
X155052381Y-106766667D01*
X155100000Y-106861905D01*
X155147619Y-106909524D01*
X155242857Y-106957143D01*
X155385714Y-106957143D01*
X155480952Y-106909524D01*
X155528571Y-106861905D01*
X155576190Y-106766667D01*
X155576190Y-106385714D01*
X156052381Y-107909524D02*
X156052381Y-107338095D01*
X156052381Y-107623809D02*
X155052381Y-107623809D01*
X155195238Y-107528571D01*
X155290476Y-107433333D01*
X155338095Y-107338095D01*
X155147619Y-108290476D02*
X155100000Y-108338095D01*
X155052381Y-108433333D01*
X155052381Y-108671429D01*
X155100000Y-108766667D01*
X155147619Y-108814286D01*
X155242857Y-108861905D01*
X155338095Y-108861905D01*
X155480952Y-108814286D01*
X156052381Y-108242857D01*
X156052381Y-108861905D01*
X155852381Y-93157143D02*
X155376190Y-92823809D01*
X155852381Y-92585714D02*
X154852381Y-92585714D01*
X154852381Y-92966667D01*
X154900000Y-93061905D01*
X154947619Y-93109524D01*
X155042857Y-93157143D01*
X155185714Y-93157143D01*
X155280952Y-93109524D01*
X155328571Y-93061905D01*
X155376190Y-92966667D01*
X155376190Y-92585714D01*
X155852381Y-94109524D02*
X155852381Y-93538095D01*
X155852381Y-93823809D02*
X154852381Y-93823809D01*
X154995238Y-93728571D01*
X155090476Y-93633333D01*
X155138095Y-93538095D01*
X154852381Y-95014286D02*
X154852381Y-94538095D01*
X155328571Y-94490476D01*
X155280952Y-94538095D01*
X155233333Y-94633333D01*
X155233333Y-94871429D01*
X155280952Y-94966667D01*
X155328571Y-95014286D01*
X155423810Y-95061905D01*
X155661905Y-95061905D01*
X155757143Y-95014286D01*
X155804762Y-94966667D01*
X155852381Y-94871429D01*
X155852381Y-94633333D01*
X155804762Y-94538095D01*
X155757143Y-94490476D01*
X156052381Y-80957143D02*
X155576190Y-80623809D01*
X156052381Y-80385714D02*
X155052381Y-80385714D01*
X155052381Y-80766667D01*
X155100000Y-80861905D01*
X155147619Y-80909524D01*
X155242857Y-80957143D01*
X155385714Y-80957143D01*
X155480952Y-80909524D01*
X155528571Y-80861905D01*
X155576190Y-80766667D01*
X155576190Y-80385714D01*
X156052381Y-81909524D02*
X156052381Y-81338095D01*
X156052381Y-81623809D02*
X155052381Y-81623809D01*
X155195238Y-81528571D01*
X155290476Y-81433333D01*
X155338095Y-81338095D01*
X155480952Y-82480952D02*
X155433333Y-82385714D01*
X155385714Y-82338095D01*
X155290476Y-82290476D01*
X155242857Y-82290476D01*
X155147619Y-82338095D01*
X155100000Y-82385714D01*
X155052381Y-82480952D01*
X155052381Y-82671429D01*
X155100000Y-82766667D01*
X155147619Y-82814286D01*
X155242857Y-82861905D01*
X155290476Y-82861905D01*
X155385714Y-82814286D01*
X155433333Y-82766667D01*
X155480952Y-82671429D01*
X155480952Y-82480952D01*
X155528571Y-82385714D01*
X155576190Y-82338095D01*
X155671429Y-82290476D01*
X155861905Y-82290476D01*
X155957143Y-82338095D01*
X156004762Y-82385714D01*
X156052381Y-82480952D01*
X156052381Y-82671429D01*
X156004762Y-82766667D01*
X155957143Y-82814286D01*
X155861905Y-82861905D01*
X155671429Y-82861905D01*
X155576190Y-82814286D01*
X155528571Y-82766667D01*
X155480952Y-82671429D01*
X116052381Y-125757143D02*
X115576190Y-125423809D01*
X116052381Y-125185714D02*
X115052381Y-125185714D01*
X115052381Y-125566667D01*
X115100000Y-125661905D01*
X115147619Y-125709524D01*
X115242857Y-125757143D01*
X115385714Y-125757143D01*
X115480952Y-125709524D01*
X115528571Y-125661905D01*
X115576190Y-125566667D01*
X115576190Y-125185714D01*
X115147619Y-126138095D02*
X115100000Y-126185714D01*
X115052381Y-126280952D01*
X115052381Y-126519048D01*
X115100000Y-126614286D01*
X115147619Y-126661905D01*
X115242857Y-126709524D01*
X115338095Y-126709524D01*
X115480952Y-126661905D01*
X116052381Y-126090476D01*
X116052381Y-126709524D01*
X116052381Y-127661905D02*
X116052381Y-127090476D01*
X116052381Y-127376190D02*
X115052381Y-127376190D01*
X115195238Y-127280952D01*
X115290476Y-127185714D01*
X115338095Y-127090476D01*
X116052381Y-111757143D02*
X115576190Y-111423809D01*
X116052381Y-111185714D02*
X115052381Y-111185714D01*
X115052381Y-111566667D01*
X115100000Y-111661905D01*
X115147619Y-111709524D01*
X115242857Y-111757143D01*
X115385714Y-111757143D01*
X115480952Y-111709524D01*
X115528571Y-111661905D01*
X115576190Y-111566667D01*
X115576190Y-111185714D01*
X115147619Y-112138095D02*
X115100000Y-112185714D01*
X115052381Y-112280952D01*
X115052381Y-112519048D01*
X115100000Y-112614286D01*
X115147619Y-112661905D01*
X115242857Y-112709524D01*
X115338095Y-112709524D01*
X115480952Y-112661905D01*
X116052381Y-112090476D01*
X116052381Y-112709524D01*
X115385714Y-113566667D02*
X116052381Y-113566667D01*
X115004762Y-113328571D02*
X115719048Y-113090476D01*
X115719048Y-113709524D01*
X115652381Y-98557143D02*
X115176190Y-98223809D01*
X115652381Y-97985714D02*
X114652381Y-97985714D01*
X114652381Y-98366667D01*
X114700000Y-98461905D01*
X114747619Y-98509524D01*
X114842857Y-98557143D01*
X114985714Y-98557143D01*
X115080952Y-98509524D01*
X115128571Y-98461905D01*
X115176190Y-98366667D01*
X115176190Y-97985714D01*
X114747619Y-98938095D02*
X114700000Y-98985714D01*
X114652381Y-99080952D01*
X114652381Y-99319048D01*
X114700000Y-99414286D01*
X114747619Y-99461905D01*
X114842857Y-99509524D01*
X114938095Y-99509524D01*
X115080952Y-99461905D01*
X115652381Y-98890476D01*
X115652381Y-99509524D01*
X114652381Y-99842857D02*
X114652381Y-100509524D01*
X115652381Y-100080952D01*
X116052381Y-84957143D02*
X115576190Y-84623809D01*
X116052381Y-84385714D02*
X115052381Y-84385714D01*
X115052381Y-84766667D01*
X115100000Y-84861905D01*
X115147619Y-84909524D01*
X115242857Y-84957143D01*
X115385714Y-84957143D01*
X115480952Y-84909524D01*
X115528571Y-84861905D01*
X115576190Y-84766667D01*
X115576190Y-84385714D01*
X115052381Y-85290476D02*
X115052381Y-85909524D01*
X115433333Y-85576190D01*
X115433333Y-85719048D01*
X115480952Y-85814286D01*
X115528571Y-85861905D01*
X115623810Y-85909524D01*
X115861905Y-85909524D01*
X115957143Y-85861905D01*
X116004762Y-85814286D01*
X116052381Y-85719048D01*
X116052381Y-85433333D01*
X116004762Y-85338095D01*
X115957143Y-85290476D01*
X115052381Y-86528571D02*
X115052381Y-86623810D01*
X115100000Y-86719048D01*
X115147619Y-86766667D01*
X115242857Y-86814286D01*
X115433333Y-86861905D01*
X115671429Y-86861905D01*
X115861905Y-86814286D01*
X115957143Y-86766667D01*
X116004762Y-86719048D01*
X116052381Y-86623810D01*
X116052381Y-86528571D01*
X116004762Y-86433333D01*
X115957143Y-86385714D01*
X115861905Y-86338095D01*
X115671429Y-86290476D01*
X115433333Y-86290476D01*
X115242857Y-86338095D01*
X115147619Y-86385714D01*
X115100000Y-86433333D01*
X115052381Y-86528571D01*
X134095238Y-85797619D02*
X134190476Y-85750000D01*
X134285714Y-85654762D01*
X134428571Y-85511905D01*
X134523810Y-85464286D01*
X134619048Y-85464286D01*
X134571429Y-85702381D02*
X134666667Y-85654762D01*
X134761905Y-85559524D01*
X134809524Y-85369048D01*
X134809524Y-85035714D01*
X134761905Y-84845238D01*
X134666667Y-84750000D01*
X134571429Y-84702381D01*
X134380952Y-84702381D01*
X134285714Y-84750000D01*
X134190476Y-84845238D01*
X134142857Y-85035714D01*
X134142857Y-85369048D01*
X134190476Y-85559524D01*
X134285714Y-85654762D01*
X134380952Y-85702381D01*
X134571429Y-85702381D01*
X133190476Y-85702381D02*
X133761905Y-85702381D01*
X133476191Y-85702381D02*
X133476191Y-84702381D01*
X133571429Y-84845238D01*
X133666667Y-84940476D01*
X133761905Y-84988095D01*
X127492381Y-77738095D02*
X128301905Y-77738095D01*
X128397143Y-77785714D01*
X128444762Y-77833333D01*
X128492381Y-77928571D01*
X128492381Y-78119048D01*
X128444762Y-78214286D01*
X128397143Y-78261905D01*
X128301905Y-78309524D01*
X127492381Y-78309524D01*
X127492381Y-78690476D02*
X127492381Y-79309524D01*
X127873333Y-78976190D01*
X127873333Y-79119048D01*
X127920952Y-79214286D01*
X127968571Y-79261905D01*
X128063810Y-79309524D01*
X128301905Y-79309524D01*
X128397143Y-79261905D01*
X128444762Y-79214286D01*
X128492381Y-79119048D01*
X128492381Y-78833333D01*
X128444762Y-78738095D01*
X128397143Y-78690476D01*
M02*
